G75*
G70*
%OFA0B0*%
%FSLAX24Y24*%
%IPPOS*%
%LPD*%
%AMOC8*
5,1,8,0,0,1.08239X$1,22.5*
%
%ADD10C,0.0060*%
%ADD11C,0.0090*%
%ADD12C,0.0110*%
%ADD13R,0.0960X0.2900*%
%ADD14C,0.0160*%
%ADD15C,0.0100*%
%ADD16C,0.0020*%
%ADD17C,0.0040*%
%ADD18C,0.0030*%
%ADD19C,0.0010*%
%ADD20C,0.0050*%
%ADD21C,0.0000*%
%ADD22C,0.0080*%
%ADD23C,0.0220*%
%ADD24R,0.0300X0.0180*%
%ADD25R,0.0180X0.0300*%
%ADD26R,0.2362X0.6299*%
D10*
X007442Y002054D02*
X007386Y002111D01*
X007442Y002054D02*
X007556Y002054D01*
X007612Y002111D01*
X007612Y002168D01*
X007556Y002225D01*
X007499Y002225D01*
X007556Y002225D02*
X007612Y002281D01*
X007612Y002338D01*
X007556Y002395D01*
X007442Y002395D01*
X007386Y002338D01*
X007724Y002524D02*
X007724Y001924D01*
X007726Y001907D01*
X007730Y001890D01*
X007737Y001874D01*
X007747Y001860D01*
X007760Y001847D01*
X007774Y001837D01*
X007790Y001830D01*
X007807Y001826D01*
X007824Y001824D01*
X008824Y001824D01*
X008841Y001826D01*
X008858Y001830D01*
X008874Y001837D01*
X008888Y001847D01*
X008901Y001860D01*
X008911Y001874D01*
X008918Y001890D01*
X008922Y001907D01*
X008924Y001924D01*
X008924Y002524D01*
X008922Y002541D01*
X008918Y002558D01*
X008911Y002574D01*
X008901Y002588D01*
X008888Y002601D01*
X008874Y002611D01*
X008858Y002618D01*
X008841Y002622D01*
X008824Y002624D01*
X007824Y002624D01*
X007807Y002622D01*
X007790Y002618D01*
X007774Y002611D01*
X007760Y002601D01*
X007747Y002588D01*
X007737Y002574D01*
X007730Y002558D01*
X007726Y002541D01*
X007724Y002524D01*
X009036Y002395D02*
X009036Y002225D01*
X009149Y002281D01*
X009206Y002281D01*
X009262Y002225D01*
X009262Y002111D01*
X009206Y002054D01*
X009092Y002054D01*
X009036Y002111D01*
X009036Y002395D02*
X009262Y002395D01*
X010211Y009604D02*
X010154Y009661D01*
X010211Y009604D02*
X010324Y009604D01*
X010381Y009661D01*
X010381Y009718D01*
X010324Y009775D01*
X010267Y009775D01*
X010324Y009775D02*
X010381Y009831D01*
X010381Y009888D01*
X010324Y009945D01*
X010211Y009945D01*
X010154Y009888D01*
X010324Y010074D02*
X011324Y010074D01*
X011341Y010076D01*
X011358Y010080D01*
X011374Y010087D01*
X011388Y010097D01*
X011401Y010110D01*
X011411Y010124D01*
X011418Y010140D01*
X011422Y010157D01*
X011424Y010174D01*
X011424Y010774D01*
X011422Y010791D01*
X011418Y010808D01*
X011411Y010824D01*
X011401Y010838D01*
X011388Y010851D01*
X011374Y010861D01*
X011358Y010868D01*
X011341Y010872D01*
X011324Y010874D01*
X010324Y010874D01*
X010307Y010872D01*
X010290Y010868D01*
X010274Y010861D01*
X010260Y010851D01*
X010247Y010838D01*
X010237Y010824D01*
X010230Y010808D01*
X010226Y010791D01*
X010224Y010774D01*
X010224Y010174D01*
X010226Y010157D01*
X010230Y010140D01*
X010237Y010124D01*
X010247Y010110D01*
X010260Y010097D01*
X010274Y010087D01*
X010290Y010080D01*
X010307Y010076D01*
X010324Y010074D01*
X010522Y009945D02*
X010522Y009718D01*
X010636Y009604D01*
X010749Y009718D01*
X010749Y009945D01*
X011024Y009874D02*
X011174Y009824D01*
X011124Y009974D01*
X011024Y009874D01*
X011037Y011004D02*
X010924Y011004D01*
X010867Y011061D01*
X010867Y011175D02*
X010981Y011231D01*
X011037Y011231D01*
X011094Y011175D01*
X011094Y011061D01*
X011037Y011004D01*
X011236Y011118D02*
X011349Y011004D01*
X011462Y011118D01*
X011462Y011345D01*
X011236Y011345D02*
X011236Y011118D01*
X011094Y011345D02*
X010867Y011345D01*
X010867Y011175D01*
X010624Y011074D02*
X010524Y010974D01*
X010474Y011124D01*
X010624Y011074D01*
X014254Y013211D02*
X014310Y013154D01*
X014537Y013154D01*
X014594Y013211D01*
X014594Y013325D01*
X014537Y013381D01*
X014594Y013523D02*
X014594Y013750D01*
X014594Y013891D02*
X014594Y014118D01*
X014594Y014004D02*
X014254Y014004D01*
X014367Y013891D01*
X014254Y013750D02*
X014254Y013523D01*
X014594Y013523D01*
X014424Y013523D02*
X014424Y013636D01*
X014310Y013381D02*
X014254Y013325D01*
X014254Y013211D01*
X015254Y013211D02*
X015310Y013154D01*
X015537Y013154D01*
X015594Y013211D01*
X015594Y013325D01*
X015537Y013381D01*
X015594Y013523D02*
X015254Y013523D01*
X015254Y013750D01*
X015310Y013891D02*
X015254Y013948D01*
X015254Y014061D01*
X015310Y014118D01*
X015537Y013891D01*
X015594Y013948D01*
X015594Y014061D01*
X015537Y014118D01*
X015310Y014118D01*
X015310Y013891D02*
X015537Y013891D01*
X015594Y013750D02*
X015594Y013523D01*
X015424Y013523D02*
X015424Y013636D01*
X015310Y013381D02*
X015254Y013325D01*
X015254Y013211D01*
X016254Y013211D02*
X016310Y013154D01*
X016254Y013211D02*
X016254Y013325D01*
X016310Y013381D01*
X016367Y013381D01*
X016594Y013154D01*
X016594Y013381D01*
X016424Y013523D02*
X016254Y013693D01*
X016594Y013693D01*
X016424Y013750D02*
X016424Y013523D01*
X017254Y013523D02*
X017254Y013750D01*
X017367Y013693D02*
X017424Y013750D01*
X017537Y013750D01*
X017594Y013693D01*
X017594Y013579D01*
X017537Y013523D01*
X017424Y013523D02*
X017367Y013636D01*
X017367Y013693D01*
X017424Y013523D02*
X017254Y013523D01*
X017310Y013381D02*
X017254Y013325D01*
X017254Y013211D01*
X017310Y013154D01*
X017310Y013381D02*
X017367Y013381D01*
X017594Y013154D01*
X017594Y013381D01*
X018254Y013325D02*
X018254Y013211D01*
X018310Y013154D01*
X018367Y013154D01*
X018424Y013211D01*
X018424Y013325D01*
X018480Y013381D01*
X018537Y013381D01*
X018594Y013325D01*
X018594Y013211D01*
X018537Y013154D01*
X018310Y013381D02*
X018254Y013325D01*
X018310Y013523D02*
X018537Y013523D01*
X018594Y013579D01*
X018594Y013693D01*
X018537Y013750D01*
X018480Y013891D02*
X018254Y014118D01*
X018254Y013891D02*
X018594Y013891D01*
X018424Y013948D02*
X018594Y014118D01*
X018694Y014176D02*
X018954Y014176D01*
X019019Y014241D01*
X019019Y014371D01*
X018954Y014436D01*
X018824Y014436D01*
X018824Y014306D01*
X018694Y014436D02*
X018629Y014371D01*
X018629Y014241D01*
X018694Y014176D01*
X018310Y013750D02*
X018254Y013693D01*
X018254Y013579D01*
X018310Y013523D01*
X017954Y014176D02*
X017694Y014176D01*
X017629Y014241D01*
X017629Y014371D01*
X017694Y014436D01*
X017824Y014436D02*
X017824Y014306D01*
X017824Y014436D02*
X017954Y014436D01*
X018019Y014371D01*
X018019Y014241D01*
X017954Y014176D01*
X018019Y014590D02*
X017629Y014590D01*
X017629Y014785D01*
X017694Y014850D01*
X017824Y014850D01*
X017889Y014785D01*
X017889Y014590D01*
X018019Y015004D02*
X018019Y015265D01*
X018019Y015135D02*
X017629Y015135D01*
X017759Y015004D01*
X017629Y015419D02*
X017629Y015679D01*
X017694Y015679D01*
X017954Y015419D01*
X018019Y015419D01*
X018629Y015484D02*
X018629Y015614D01*
X018694Y015679D01*
X018759Y015679D01*
X018824Y015614D01*
X018824Y015484D01*
X018759Y015419D01*
X018694Y015419D01*
X018629Y015484D01*
X018824Y015484D02*
X018889Y015419D01*
X018954Y015419D01*
X019019Y015484D01*
X019019Y015614D01*
X018954Y015679D01*
X018889Y015679D01*
X018824Y015614D01*
X019019Y015265D02*
X019019Y015004D01*
X019019Y015135D02*
X018629Y015135D01*
X018759Y015004D01*
X018824Y014850D02*
X018889Y014785D01*
X018889Y014590D01*
X019019Y014590D02*
X018629Y014590D01*
X018629Y014785D01*
X018694Y014850D01*
X018824Y014850D01*
X019629Y014785D02*
X019694Y014850D01*
X019824Y014850D01*
X019889Y014785D01*
X019889Y014590D01*
X020019Y014590D02*
X019629Y014590D01*
X019629Y014785D01*
X019694Y015004D02*
X019629Y015069D01*
X019629Y015200D01*
X019694Y015265D01*
X019759Y015265D01*
X020019Y015004D01*
X020019Y015265D01*
X020019Y015419D02*
X019759Y015679D01*
X019694Y015679D01*
X019629Y015614D01*
X019629Y015484D01*
X019694Y015419D01*
X020019Y015419D02*
X020019Y015679D01*
X020629Y015614D02*
X020694Y015679D01*
X020759Y015679D01*
X020824Y015614D01*
X020889Y015679D01*
X020954Y015679D01*
X021019Y015614D01*
X021019Y015484D01*
X020954Y015419D01*
X021019Y015265D02*
X021019Y015004D01*
X020759Y015265D01*
X020694Y015265D01*
X020629Y015200D01*
X020629Y015069D01*
X020694Y015004D01*
X020694Y014850D02*
X020824Y014850D01*
X020889Y014785D01*
X020889Y014590D01*
X021019Y014590D02*
X020629Y014590D01*
X020629Y014785D01*
X020694Y014850D01*
X020694Y014436D02*
X020629Y014371D01*
X020629Y014241D01*
X020694Y014176D01*
X020954Y014176D01*
X021019Y014241D01*
X021019Y014371D01*
X020954Y014436D01*
X020824Y014436D01*
X020824Y014306D01*
X021629Y014371D02*
X021629Y014241D01*
X021694Y014176D01*
X021954Y014176D01*
X022019Y014241D01*
X022019Y014371D01*
X021954Y014436D01*
X021824Y014436D01*
X021824Y014306D01*
X021694Y014436D02*
X021629Y014371D01*
X021629Y014590D02*
X021629Y014785D01*
X021694Y014850D01*
X021824Y014850D01*
X021889Y014785D01*
X021889Y014590D01*
X022019Y014590D02*
X021629Y014590D01*
X021694Y015004D02*
X021629Y015069D01*
X021629Y015200D01*
X021694Y015265D01*
X021759Y015265D01*
X022019Y015004D01*
X022019Y015265D01*
X021824Y015419D02*
X021629Y015614D01*
X022019Y015614D01*
X021824Y015679D02*
X021824Y015419D01*
X022629Y015419D02*
X022824Y015419D01*
X022759Y015549D01*
X022759Y015614D01*
X022824Y015679D01*
X022954Y015679D01*
X023019Y015614D01*
X023019Y015484D01*
X022954Y015419D01*
X023019Y015265D02*
X023019Y015004D01*
X022759Y015265D01*
X022694Y015265D01*
X022629Y015200D01*
X022629Y015069D01*
X022694Y015004D01*
X022694Y014850D02*
X022824Y014850D01*
X022889Y014785D01*
X022889Y014590D01*
X023019Y014590D02*
X022629Y014590D01*
X022629Y014785D01*
X022694Y014850D01*
X022694Y014436D02*
X022629Y014371D01*
X022629Y014241D01*
X022694Y014176D01*
X022954Y014176D01*
X023019Y014241D01*
X023019Y014371D01*
X022954Y014436D01*
X022824Y014436D01*
X022824Y014306D01*
X023629Y014371D02*
X023629Y014241D01*
X023694Y014176D01*
X023954Y014176D01*
X024019Y014241D01*
X024019Y014371D01*
X023954Y014436D01*
X023824Y014436D01*
X023824Y014306D01*
X023694Y014436D02*
X023629Y014371D01*
X023629Y014590D02*
X023629Y014785D01*
X023694Y014850D01*
X023824Y014850D01*
X023889Y014785D01*
X023889Y014590D01*
X024019Y014590D02*
X023629Y014590D01*
X023694Y015004D02*
X023629Y015069D01*
X023629Y015200D01*
X023694Y015265D01*
X023759Y015265D01*
X024019Y015004D01*
X024019Y015265D01*
X024019Y015419D02*
X023954Y015419D01*
X023694Y015679D01*
X023629Y015679D01*
X023629Y015419D01*
X024629Y015407D02*
X024629Y015212D01*
X025019Y015212D01*
X025019Y015407D01*
X024954Y015472D01*
X024694Y015472D01*
X024629Y015407D01*
X024629Y015057D02*
X025019Y015057D01*
X024629Y014797D01*
X025019Y014797D01*
X024954Y014643D02*
X024824Y014643D01*
X024824Y014513D01*
X024954Y014643D02*
X025019Y014578D01*
X025019Y014448D01*
X024954Y014383D01*
X024694Y014383D01*
X024629Y014448D01*
X024629Y014578D01*
X024694Y014643D01*
X025629Y014474D02*
X025694Y014540D01*
X025759Y014540D01*
X025824Y014474D01*
X025889Y014540D01*
X025954Y014540D01*
X026019Y014474D01*
X026019Y014344D01*
X025954Y014279D01*
X025824Y014409D02*
X025824Y014474D01*
X025629Y014474D02*
X025629Y014344D01*
X025694Y014279D01*
X025954Y014694D02*
X025954Y014759D01*
X026019Y014759D01*
X026019Y014694D01*
X025954Y014694D01*
X025954Y014901D02*
X026019Y014966D01*
X026019Y015096D01*
X025954Y015161D01*
X025889Y015161D01*
X025824Y015096D01*
X025824Y015031D01*
X025824Y015096D02*
X025759Y015161D01*
X025694Y015161D01*
X025629Y015096D01*
X025629Y014966D01*
X025694Y014901D01*
X025629Y015315D02*
X025889Y015315D01*
X026019Y015445D01*
X025889Y015575D01*
X025629Y015575D01*
X026629Y015265D02*
X026889Y015265D01*
X027019Y015135D01*
X026889Y015004D01*
X026629Y015004D01*
X026629Y014850D02*
X026629Y014590D01*
X026824Y014590D01*
X026759Y014720D01*
X026759Y014785D01*
X026824Y014850D01*
X026954Y014850D01*
X027019Y014785D01*
X027019Y014655D01*
X026954Y014590D01*
X029364Y015854D02*
X029764Y015854D01*
X030004Y016314D02*
X030004Y016544D01*
X030234Y016544D01*
X031414Y016544D02*
X031644Y016544D01*
X031644Y016314D01*
X031644Y015134D02*
X031644Y014904D01*
X031414Y014904D01*
X030234Y014904D02*
X030004Y014904D01*
X030004Y015134D01*
X027144Y017374D02*
X021843Y017374D01*
X021843Y017375D02*
X021813Y017377D01*
X021783Y017382D01*
X021754Y017390D01*
X021726Y017402D01*
X021700Y017416D01*
X021675Y017434D01*
X021653Y017454D01*
X021633Y017476D01*
X021615Y017501D01*
X021601Y017527D01*
X021589Y017555D01*
X021581Y017584D01*
X021576Y017614D01*
X021574Y017644D01*
X021574Y017974D01*
X021576Y018004D01*
X021581Y018034D01*
X021590Y018063D01*
X021603Y018090D01*
X021618Y018116D01*
X021637Y018140D01*
X021658Y018161D01*
X021682Y018180D01*
X021708Y018195D01*
X021735Y018208D01*
X021764Y018217D01*
X021794Y018222D01*
X021824Y018224D01*
X027220Y018224D01*
X027220Y018225D02*
X027257Y018223D01*
X027294Y018217D01*
X027329Y018208D01*
X027364Y018194D01*
X027397Y018178D01*
X027428Y018157D01*
X027457Y018134D01*
X027483Y018108D01*
X027506Y018079D01*
X027527Y018048D01*
X027543Y018015D01*
X027557Y017980D01*
X027566Y017945D01*
X027572Y017908D01*
X027574Y017871D01*
X027574Y017805D01*
X027572Y017765D01*
X027567Y017726D01*
X027558Y017687D01*
X027545Y017650D01*
X027529Y017613D01*
X027510Y017579D01*
X027487Y017546D01*
X027462Y017515D01*
X027434Y017487D01*
X027403Y017462D01*
X027370Y017439D01*
X027336Y017420D01*
X027299Y017404D01*
X027262Y017391D01*
X027223Y017382D01*
X027184Y017377D01*
X027144Y017375D01*
X026935Y017604D02*
X026861Y017604D01*
X026861Y017678D01*
X026935Y017678D01*
X026935Y017604D01*
X026694Y017678D02*
X026694Y017825D01*
X026621Y017898D01*
X026401Y017898D01*
X026401Y018045D02*
X026401Y017604D01*
X026621Y017604D01*
X026694Y017678D01*
X026234Y017678D02*
X026234Y017825D01*
X026161Y017898D01*
X026014Y017898D01*
X025941Y017825D01*
X025941Y017678D01*
X026014Y017604D01*
X026161Y017604D01*
X026234Y017678D01*
X025774Y017678D02*
X025700Y017604D01*
X025480Y017604D01*
X025480Y018045D01*
X025700Y018045D01*
X025774Y017971D01*
X025774Y017898D01*
X025700Y017825D01*
X025480Y017825D01*
X025700Y017825D02*
X025774Y017751D01*
X025774Y017678D01*
X024853Y017751D02*
X024559Y017751D01*
X024559Y017678D02*
X024559Y017825D01*
X024633Y017898D01*
X024780Y017898D01*
X024853Y017825D01*
X024853Y017751D01*
X024780Y017604D02*
X024633Y017604D01*
X024559Y017678D01*
X024393Y017604D02*
X024393Y017825D01*
X024319Y017898D01*
X024246Y017825D01*
X024246Y017604D01*
X024099Y017604D02*
X024099Y017898D01*
X024172Y017898D01*
X024246Y017825D01*
X023478Y017604D02*
X023332Y017604D01*
X023405Y017604D02*
X023405Y018045D01*
X023332Y018045D01*
X023098Y018045D02*
X023098Y017604D01*
X023025Y017604D02*
X023171Y017604D01*
X022858Y017604D02*
X022858Y017825D01*
X022784Y017898D01*
X022638Y017898D01*
X022638Y017751D02*
X022564Y017678D01*
X022638Y017604D01*
X022858Y017604D01*
X022858Y017751D02*
X022638Y017751D01*
X022397Y017678D02*
X022324Y017604D01*
X022177Y017604D01*
X022104Y017678D01*
X022104Y017971D01*
X022177Y018045D01*
X022324Y018045D01*
X022397Y017971D01*
X023025Y018045D02*
X023098Y018045D01*
X022629Y015679D02*
X022629Y015419D01*
X020824Y015549D02*
X020824Y015614D01*
X020629Y015614D02*
X020629Y015484D01*
X020694Y015419D01*
X019954Y014436D02*
X019824Y014436D01*
X019824Y014306D01*
X019954Y014436D02*
X020019Y014371D01*
X020019Y014241D01*
X019954Y014176D01*
X019694Y014176D01*
X019629Y014241D01*
X019629Y014371D01*
X019694Y014436D01*
X020310Y013750D02*
X020254Y013693D01*
X020254Y013579D01*
X020310Y013523D01*
X020537Y013523D01*
X020594Y013579D01*
X020594Y013693D01*
X020537Y013750D01*
X020310Y013750D01*
X019594Y013636D02*
X019594Y013523D01*
X019594Y013579D02*
X019254Y013579D01*
X019254Y013523D02*
X019254Y013636D01*
X019310Y013381D02*
X019254Y013325D01*
X019254Y013211D01*
X019310Y013154D01*
X019367Y013154D01*
X019424Y013211D01*
X019424Y013325D01*
X019480Y013381D01*
X019537Y013381D01*
X019594Y013325D01*
X019594Y013211D01*
X019537Y013154D01*
X020254Y013211D02*
X020310Y013154D01*
X020367Y013154D01*
X020424Y013211D01*
X020424Y013325D01*
X020480Y013381D01*
X020537Y013381D01*
X020594Y013325D01*
X020594Y013211D01*
X020537Y013154D01*
X020254Y013211D02*
X020254Y013325D01*
X020310Y013381D01*
X021254Y013325D02*
X021254Y013211D01*
X021310Y013154D01*
X021254Y013325D02*
X021310Y013381D01*
X021367Y013381D01*
X021594Y013154D01*
X021594Y013381D01*
X021594Y013523D02*
X021537Y013523D01*
X021310Y013750D01*
X021254Y013750D01*
X021254Y013523D01*
X017019Y014241D02*
X017019Y014371D01*
X016954Y014436D01*
X016824Y014436D01*
X016824Y014306D01*
X016694Y014176D02*
X016954Y014176D01*
X017019Y014241D01*
X016694Y014176D02*
X016629Y014241D01*
X016629Y014371D01*
X016694Y014436D01*
X016629Y014590D02*
X016629Y014785D01*
X016694Y014850D01*
X016824Y014850D01*
X016889Y014785D01*
X016889Y014590D01*
X017019Y014590D02*
X016629Y014590D01*
X016759Y015004D02*
X016629Y015135D01*
X017019Y015135D01*
X017019Y015265D02*
X017019Y015004D01*
X016954Y015419D02*
X017019Y015484D01*
X017019Y015614D01*
X016954Y015679D01*
X016824Y015679D01*
X016759Y015614D01*
X016759Y015549D01*
X016824Y015419D01*
X016629Y015419D01*
X016629Y015679D01*
X016019Y015614D02*
X015629Y015614D01*
X015824Y015419D01*
X015824Y015679D01*
X016019Y015265D02*
X016019Y015004D01*
X016019Y015135D02*
X015629Y015135D01*
X015759Y015004D01*
X015824Y014850D02*
X015889Y014785D01*
X015889Y014590D01*
X016019Y014590D02*
X015629Y014590D01*
X015629Y014785D01*
X015694Y014850D01*
X015824Y014850D01*
X015824Y014436D02*
X015824Y014306D01*
X015824Y014436D02*
X015954Y014436D01*
X016019Y014371D01*
X016019Y014241D01*
X015954Y014176D01*
X015694Y014176D01*
X015629Y014241D01*
X015629Y014371D01*
X015694Y014436D01*
X015019Y014371D02*
X015019Y014241D01*
X014954Y014176D01*
X014824Y014241D02*
X014824Y014371D01*
X014889Y014436D01*
X014954Y014436D01*
X015019Y014371D01*
X014954Y014590D02*
X015019Y014655D01*
X015019Y014785D01*
X014954Y014850D01*
X015019Y015004D02*
X015019Y015265D01*
X015019Y015419D02*
X014629Y015419D01*
X014824Y015484D02*
X015019Y015679D01*
X014889Y015419D02*
X014629Y015679D01*
X014019Y015618D02*
X014019Y015488D01*
X014019Y015553D02*
X013629Y015553D01*
X013629Y015488D02*
X013629Y015618D01*
X013694Y015334D02*
X013629Y015269D01*
X013629Y015139D01*
X013694Y015073D01*
X013759Y015073D01*
X013824Y015139D01*
X013824Y015269D01*
X013889Y015334D01*
X013954Y015334D01*
X014019Y015269D01*
X014019Y015139D01*
X013954Y015073D01*
X013954Y014919D02*
X013694Y014919D01*
X013629Y014854D01*
X013629Y014724D01*
X013694Y014659D01*
X013954Y014659D01*
X014019Y014724D01*
X014019Y014854D01*
X013954Y014919D01*
X014019Y014505D02*
X013629Y014505D01*
X013759Y014375D01*
X013629Y014245D01*
X014019Y014245D01*
X014629Y014241D02*
X014694Y014176D01*
X014759Y014176D01*
X014824Y014241D01*
X014629Y014241D02*
X014629Y014371D01*
X014694Y014436D01*
X014694Y014590D02*
X014954Y014590D01*
X014694Y014590D02*
X014629Y014655D01*
X014629Y014785D01*
X014694Y014850D01*
X014629Y015004D02*
X015019Y015004D01*
X013019Y015000D02*
X012954Y014935D01*
X013019Y015000D02*
X013019Y015131D01*
X012954Y015196D01*
X012889Y015196D01*
X012824Y015131D01*
X012824Y015000D01*
X012759Y014935D01*
X012694Y014935D01*
X012629Y015000D01*
X012629Y015131D01*
X012694Y015196D01*
X012694Y015350D02*
X012954Y015350D01*
X013019Y015415D01*
X013019Y015545D01*
X012954Y015610D01*
X012694Y015610D01*
X012629Y015545D01*
X012629Y015415D01*
X012694Y015350D01*
X012019Y015484D02*
X011954Y015419D01*
X011889Y015419D01*
X011824Y015484D01*
X011824Y015614D01*
X011889Y015679D01*
X011954Y015679D01*
X012019Y015614D01*
X012019Y015484D01*
X011824Y015484D02*
X011759Y015419D01*
X011694Y015419D01*
X011629Y015484D01*
X011629Y015614D01*
X011694Y015679D01*
X011759Y015679D01*
X011824Y015614D01*
X011954Y015265D02*
X012019Y015200D01*
X012019Y015069D01*
X011954Y015004D01*
X011694Y015265D01*
X011954Y015265D01*
X011694Y015265D02*
X011629Y015200D01*
X011629Y015069D01*
X011694Y015004D01*
X011954Y015004D01*
X011824Y014850D02*
X011889Y014785D01*
X011889Y014590D01*
X012019Y014590D02*
X011629Y014590D01*
X011629Y014785D01*
X011694Y014850D01*
X011824Y014850D01*
X011824Y014436D02*
X011824Y014306D01*
X011824Y014436D02*
X011954Y014436D01*
X012019Y014371D01*
X012019Y014241D01*
X011954Y014176D01*
X011694Y014176D01*
X011629Y014241D01*
X011629Y014371D01*
X011694Y014436D01*
X011019Y014371D02*
X011019Y014241D01*
X010954Y014176D01*
X010694Y014176D01*
X010629Y014241D01*
X010629Y014371D01*
X010694Y014436D01*
X010824Y014436D02*
X010824Y014306D01*
X010824Y014436D02*
X010954Y014436D01*
X011019Y014371D01*
X011019Y014590D02*
X010629Y014590D01*
X010629Y014785D01*
X010694Y014850D01*
X010824Y014850D01*
X010889Y014785D01*
X010889Y014590D01*
X010954Y015004D02*
X010694Y015265D01*
X010954Y015265D01*
X011019Y015200D01*
X011019Y015069D01*
X010954Y015004D01*
X010694Y015004D01*
X010629Y015069D01*
X010629Y015200D01*
X010694Y015265D01*
X010629Y015419D02*
X010629Y015679D01*
X010694Y015679D01*
X010954Y015419D01*
X011019Y015419D01*
X010019Y015614D02*
X009629Y015614D01*
X009824Y015419D01*
X009824Y015679D01*
X009694Y015265D02*
X009954Y015265D01*
X010019Y015200D01*
X010019Y015069D01*
X009954Y015004D01*
X009694Y015265D01*
X009629Y015200D01*
X009629Y015069D01*
X009694Y015004D01*
X009954Y015004D01*
X009824Y014850D02*
X009889Y014785D01*
X009889Y014590D01*
X010019Y014590D02*
X009629Y014590D01*
X009629Y014785D01*
X009694Y014850D01*
X009824Y014850D01*
X009824Y014436D02*
X009824Y014306D01*
X009824Y014436D02*
X009954Y014436D01*
X010019Y014371D01*
X010019Y014241D01*
X009954Y014176D01*
X009694Y014176D01*
X009629Y014241D01*
X009629Y014371D01*
X009694Y014436D01*
X009019Y014448D02*
X009019Y014578D01*
X008954Y014643D01*
X008889Y014643D01*
X008824Y014578D01*
X008824Y014448D01*
X008759Y014383D01*
X008694Y014383D01*
X008629Y014448D01*
X008629Y014578D01*
X008694Y014643D01*
X008694Y014797D02*
X008954Y014797D01*
X009019Y014862D01*
X009019Y014992D01*
X008954Y015057D01*
X009019Y015212D02*
X008629Y015212D01*
X008694Y015057D02*
X008629Y014992D01*
X008629Y014862D01*
X008694Y014797D01*
X009019Y014448D02*
X008954Y014383D01*
X008019Y014448D02*
X007954Y014383D01*
X008019Y014448D02*
X008019Y014578D01*
X007954Y014643D01*
X007889Y014643D01*
X007824Y014578D01*
X007824Y014448D01*
X007759Y014383D01*
X007694Y014383D01*
X007629Y014448D01*
X007629Y014578D01*
X007694Y014643D01*
X007629Y014797D02*
X007629Y014992D01*
X007694Y015057D01*
X007954Y015057D01*
X008019Y014992D01*
X008019Y014797D01*
X007629Y014797D01*
X007759Y015212D02*
X007629Y015342D01*
X007759Y015472D01*
X008019Y015472D01*
X007824Y015472D02*
X007824Y015212D01*
X007759Y015212D02*
X008019Y015212D01*
X008629Y015472D02*
X008889Y015212D01*
X008824Y015277D02*
X009019Y015472D01*
X012629Y014789D02*
X012629Y014659D01*
X012629Y014724D02*
X013019Y014724D01*
X013019Y014659D02*
X013019Y014789D01*
X013019Y014505D02*
X012629Y014505D01*
X012759Y014375D01*
X012629Y014245D01*
X013019Y014245D01*
X023424Y003974D02*
X023427Y004092D01*
X023436Y004209D01*
X023450Y004326D01*
X023470Y004442D01*
X023496Y004557D01*
X023527Y004671D01*
X023564Y004783D01*
X023607Y004892D01*
X023654Y005000D01*
X023707Y005105D01*
X023765Y005208D01*
X023828Y005307D01*
X023896Y005404D01*
X023969Y005497D01*
X024046Y005586D01*
X024127Y005671D01*
X024212Y005752D01*
X024301Y005829D01*
X024394Y005902D01*
X024491Y005970D01*
X024590Y006033D01*
X024693Y006091D01*
X024798Y006144D01*
X024906Y006191D01*
X025015Y006234D01*
X025127Y006271D01*
X025241Y006302D01*
X025356Y006328D01*
X025472Y006348D01*
X025589Y006362D01*
X025706Y006371D01*
X025824Y006374D01*
X025942Y006371D01*
X026059Y006362D01*
X026176Y006348D01*
X026292Y006328D01*
X026407Y006302D01*
X026521Y006271D01*
X026633Y006234D01*
X026742Y006191D01*
X026850Y006144D01*
X026955Y006091D01*
X027058Y006033D01*
X027157Y005970D01*
X027254Y005902D01*
X027347Y005829D01*
X027436Y005752D01*
X027521Y005671D01*
X027602Y005586D01*
X027679Y005497D01*
X027752Y005404D01*
X027820Y005307D01*
X027883Y005208D01*
X027941Y005105D01*
X027994Y005000D01*
X028041Y004892D01*
X028084Y004783D01*
X028121Y004671D01*
X028152Y004557D01*
X028178Y004442D01*
X028198Y004326D01*
X028212Y004209D01*
X028221Y004092D01*
X028224Y003974D01*
X028221Y003856D01*
X028212Y003739D01*
X028198Y003622D01*
X028178Y003506D01*
X028152Y003391D01*
X028121Y003277D01*
X028084Y003165D01*
X028041Y003056D01*
X027994Y002948D01*
X027941Y002843D01*
X027883Y002740D01*
X027820Y002641D01*
X027752Y002544D01*
X027679Y002451D01*
X027602Y002362D01*
X027521Y002277D01*
X027436Y002196D01*
X027347Y002119D01*
X027254Y002046D01*
X027157Y001978D01*
X027058Y001915D01*
X026955Y001857D01*
X026850Y001804D01*
X026742Y001757D01*
X026633Y001714D01*
X026521Y001677D01*
X026407Y001646D01*
X026292Y001620D01*
X026176Y001600D01*
X026059Y001586D01*
X025942Y001577D01*
X025824Y001574D01*
X025706Y001577D01*
X025589Y001586D01*
X025472Y001600D01*
X025356Y001620D01*
X025241Y001646D01*
X025127Y001677D01*
X025015Y001714D01*
X024906Y001757D01*
X024798Y001804D01*
X024693Y001857D01*
X024590Y001915D01*
X024491Y001978D01*
X024394Y002046D01*
X024301Y002119D01*
X024212Y002196D01*
X024127Y002277D01*
X024046Y002362D01*
X023969Y002451D01*
X023896Y002544D01*
X023828Y002641D01*
X023765Y002740D01*
X023707Y002843D01*
X023654Y002948D01*
X023607Y003056D01*
X023564Y003165D01*
X023527Y003277D01*
X023496Y003391D01*
X023470Y003506D01*
X023450Y003622D01*
X023436Y003739D01*
X023427Y003856D01*
X023424Y003974D01*
X034794Y011944D02*
X034974Y011944D01*
X034794Y011944D02*
X034794Y013604D01*
X034964Y013604D01*
X036084Y013604D02*
X036254Y013604D01*
X036254Y011944D01*
X036094Y011944D01*
X037327Y016923D02*
X037621Y016923D01*
X037694Y016997D01*
X037694Y017143D01*
X037621Y017217D01*
X037327Y017217D01*
X037254Y017143D01*
X037254Y016997D01*
X037327Y016923D01*
X037804Y016997D02*
X037877Y016923D01*
X038171Y016923D01*
X038244Y016997D01*
X038244Y017143D01*
X038171Y017217D01*
X037877Y017217D01*
X037804Y017143D01*
X037804Y016997D01*
X037804Y017384D02*
X037804Y017677D01*
X037694Y017677D02*
X037254Y017677D01*
X037254Y017384D02*
X037694Y017677D01*
X037694Y017844D02*
X037254Y018138D01*
X037804Y018138D02*
X037804Y017844D01*
X038244Y017844D01*
X038024Y017844D02*
X038024Y017991D01*
X038024Y017530D02*
X038024Y017384D01*
X038244Y017384D02*
X037804Y017384D01*
X037694Y017384D02*
X037254Y017384D01*
X038024Y019013D02*
X038024Y019306D01*
X038024Y019473D02*
X037950Y019620D01*
X037950Y019693D01*
X038024Y019767D01*
X038171Y019767D01*
X038244Y019693D01*
X038244Y019547D01*
X038171Y019473D01*
X038024Y019473D02*
X037804Y019473D01*
X037804Y019767D01*
X037804Y019934D02*
X038097Y019934D01*
X038244Y020080D01*
X038097Y020227D01*
X037804Y020227D01*
X038024Y020394D02*
X038024Y020688D01*
X038024Y021202D02*
X038024Y021496D01*
X038024Y021663D02*
X038024Y021883D01*
X038097Y021956D01*
X038171Y021956D01*
X038244Y021883D01*
X038244Y021663D01*
X037804Y021663D01*
X037804Y021883D01*
X037877Y021956D01*
X037950Y021956D01*
X038024Y021883D01*
X038024Y022123D02*
X038024Y022417D01*
X037950Y022417D02*
X038244Y022417D01*
X037950Y022417D02*
X037804Y022270D01*
X037950Y022123D01*
X038244Y022123D01*
X037804Y022584D02*
X037804Y022877D01*
X037804Y022730D02*
X038244Y022730D01*
X038024Y023044D02*
X038024Y023338D01*
X037877Y021349D02*
X038171Y021349D01*
X038171Y019160D02*
X037877Y019160D01*
X035594Y019384D02*
X035204Y019384D01*
X034944Y018984D02*
X034944Y018854D01*
X034814Y018854D01*
X033834Y018854D02*
X033704Y018854D01*
X033704Y018984D01*
X033704Y019964D02*
X033704Y020094D01*
X033834Y020094D01*
X034814Y020094D02*
X034944Y020094D01*
X034944Y019964D01*
D11*
X013670Y012530D02*
X013450Y012530D01*
X013560Y012530D02*
X013560Y011869D01*
X013450Y011869D02*
X013670Y011869D01*
X013200Y012200D02*
X013090Y012090D01*
X012759Y012090D01*
X012759Y011869D02*
X012759Y012530D01*
X013090Y012530D01*
X013200Y012420D01*
X013200Y012200D01*
X012509Y012090D02*
X012509Y011980D01*
X012399Y011869D01*
X012179Y011869D01*
X012069Y011980D01*
X012179Y012200D02*
X012399Y012200D01*
X012509Y012090D01*
X012179Y012200D02*
X012069Y012310D01*
X012069Y012420D01*
X012179Y012530D01*
X012399Y012530D01*
X012509Y012420D01*
X009779Y012489D02*
X009779Y012048D01*
X009779Y012269D02*
X009119Y012269D01*
X009119Y011798D02*
X009779Y011798D01*
X009119Y011358D01*
X009779Y011358D01*
X009669Y012739D02*
X009559Y012739D01*
X009449Y012849D01*
X009449Y013179D01*
X009449Y012849D02*
X009339Y012739D01*
X009229Y012739D01*
X009119Y012849D01*
X009119Y013179D01*
X009779Y013179D01*
X009779Y012849D01*
X009669Y012739D01*
X009679Y009679D02*
X009019Y009679D01*
X009239Y009679D02*
X009239Y009349D01*
X009349Y009239D01*
X009569Y009239D01*
X009679Y009349D01*
X009679Y009679D01*
X009239Y009459D02*
X009019Y009239D01*
X009129Y008989D02*
X009019Y008879D01*
X009019Y008659D01*
X009129Y008548D01*
X009569Y008548D01*
X009679Y008659D01*
X009679Y008879D01*
X009569Y008989D01*
X009129Y008989D01*
X009679Y008298D02*
X009679Y007858D01*
X009679Y008078D02*
X009019Y008078D01*
X008969Y005679D02*
X008969Y005459D01*
X008969Y005569D02*
X009629Y005569D01*
X009629Y005679D02*
X009629Y005459D01*
X009629Y005219D02*
X009629Y004999D01*
X009519Y004999D01*
X009299Y005219D01*
X009299Y004999D01*
X009519Y005219D02*
X009629Y005219D01*
X009519Y004759D02*
X009079Y004759D01*
X008969Y004649D01*
X008969Y004428D01*
X009079Y004318D01*
X009519Y004318D02*
X009629Y004428D01*
X009629Y004649D01*
X009519Y004759D01*
D12*
X012279Y013455D02*
X012579Y013455D01*
X013279Y013455D02*
X013579Y013455D01*
X013429Y013605D02*
X013429Y013304D01*
D13*
X022424Y008554D03*
D14*
X025074Y006224D02*
X025074Y005724D01*
X026074Y005724D01*
X026118Y005722D01*
X026161Y005716D01*
X026203Y005707D01*
X026245Y005694D01*
X026285Y005677D01*
X026324Y005657D01*
X026361Y005634D01*
X026395Y005607D01*
X026428Y005578D01*
X026457Y005545D01*
X026484Y005511D01*
X026507Y005474D01*
X026527Y005435D01*
X026544Y005395D01*
X026557Y005353D01*
X026566Y005311D01*
X026572Y005268D01*
X026574Y005224D01*
X026574Y004724D01*
X026572Y004680D01*
X026566Y004637D01*
X026557Y004595D01*
X026544Y004553D01*
X026527Y004513D01*
X026507Y004474D01*
X026484Y004437D01*
X026457Y004403D01*
X026428Y004370D01*
X026395Y004341D01*
X026361Y004314D01*
X026324Y004291D01*
X026285Y004271D01*
X026245Y004254D01*
X026203Y004241D01*
X026161Y004232D01*
X026118Y004226D01*
X026074Y004224D01*
X025574Y004224D01*
X025574Y003724D01*
X026074Y003724D01*
X027389Y003510D02*
X027412Y003574D01*
X027432Y003638D01*
X027449Y003704D01*
X027461Y003771D01*
X027471Y003838D01*
X027476Y003906D01*
X027478Y003974D01*
X027476Y004042D01*
X027471Y004110D01*
X027461Y004177D01*
X027449Y004244D01*
X027432Y004310D01*
X027412Y004374D01*
X027389Y004438D01*
X027388Y004439D02*
X027378Y004460D01*
X027365Y004479D01*
X027349Y004497D01*
X027330Y004512D01*
X027310Y004524D01*
X027288Y004533D01*
X027265Y004539D01*
X027242Y004541D01*
X027218Y004540D01*
X027195Y004535D01*
X027172Y004528D01*
X027151Y004517D01*
X027132Y004503D01*
X027115Y004486D01*
X027101Y004468D01*
X027089Y004447D01*
X027081Y004425D01*
X027076Y004402D01*
X027074Y004378D01*
X027074Y003571D01*
X027076Y003547D01*
X027081Y003524D01*
X027089Y003502D01*
X027101Y003481D01*
X027115Y003463D01*
X027132Y003446D01*
X027151Y003432D01*
X027172Y003421D01*
X027195Y003414D01*
X027218Y003409D01*
X027242Y003408D01*
X027265Y003410D01*
X027288Y003416D01*
X027310Y003425D01*
X027330Y003437D01*
X027349Y003452D01*
X027365Y003470D01*
X027378Y003489D01*
X027388Y003510D01*
X026824Y003724D02*
X026824Y003974D01*
X026824Y003724D02*
X026324Y003974D01*
X025574Y003724D02*
X025324Y003724D01*
X025324Y004224D01*
X025574Y004224D01*
X025324Y004224D02*
X025294Y004226D01*
X025264Y004231D01*
X025235Y004240D01*
X025208Y004253D01*
X025182Y004268D01*
X025158Y004287D01*
X025137Y004308D01*
X025118Y004332D01*
X025103Y004358D01*
X025090Y004385D01*
X025081Y004414D01*
X025076Y004444D01*
X025074Y004474D01*
X025074Y005724D01*
X025074Y003474D02*
X025074Y002224D01*
X026074Y002224D01*
X026118Y002226D01*
X026161Y002232D01*
X026203Y002241D01*
X026245Y002254D01*
X026285Y002271D01*
X026324Y002291D01*
X026361Y002314D01*
X026395Y002341D01*
X026428Y002370D01*
X026457Y002403D01*
X026484Y002437D01*
X026507Y002474D01*
X026527Y002513D01*
X026544Y002553D01*
X026557Y002595D01*
X026566Y002637D01*
X026572Y002680D01*
X026574Y002724D01*
X026574Y003224D01*
X026572Y003268D01*
X026566Y003311D01*
X026557Y003353D01*
X026544Y003395D01*
X026527Y003435D01*
X026507Y003474D01*
X026484Y003511D01*
X026457Y003545D01*
X026428Y003578D01*
X026395Y003607D01*
X026361Y003634D01*
X026324Y003657D01*
X026285Y003677D01*
X026245Y003694D01*
X026203Y003707D01*
X026161Y003716D01*
X026118Y003722D01*
X026074Y003724D01*
X025324Y003724D02*
X025294Y003722D01*
X025264Y003717D01*
X025235Y003708D01*
X025208Y003695D01*
X025182Y003680D01*
X025158Y003661D01*
X025137Y003640D01*
X025118Y003616D01*
X025103Y003590D01*
X025090Y003563D01*
X025081Y003534D01*
X025076Y003504D01*
X025074Y003474D01*
X025074Y002224D02*
X025074Y001724D01*
D15*
X024574Y002474D02*
X023824Y003474D01*
X023574Y003474D02*
X024324Y002474D01*
X023574Y003724D02*
X024574Y004474D01*
X024574Y004724D02*
X023574Y003974D01*
X023574Y004224D02*
X024574Y004974D01*
X024574Y005224D02*
X023574Y004474D01*
X023574Y004724D02*
X024574Y005474D01*
X021424Y011074D02*
X021424Y012974D01*
X020424Y012974D02*
X020424Y011074D01*
X019424Y011074D02*
X019424Y012974D01*
X018424Y012974D02*
X018424Y011074D01*
X017424Y011074D02*
X017424Y012974D01*
X016424Y012974D02*
X016424Y011074D01*
X015424Y011074D02*
X015424Y012974D01*
X014424Y012974D02*
X014424Y011074D01*
X013424Y011074D02*
X013424Y011674D01*
X012424Y011674D02*
X012424Y011074D01*
X012424Y012674D02*
X012424Y012924D01*
X013424Y012924D02*
X013424Y012674D01*
X008926Y010893D02*
X008926Y010184D01*
X008690Y010184D01*
X008690Y007665D01*
X008926Y007665D01*
X008926Y006956D01*
X008690Y006956D01*
X008690Y007665D01*
X008690Y006956D02*
X006958Y006956D01*
X006958Y010893D01*
X008690Y010893D01*
X008926Y010893D01*
X008690Y010893D02*
X008690Y010184D01*
X008414Y010893D02*
X007233Y010893D01*
X007233Y006843D02*
X008414Y006843D01*
X008690Y006843D02*
X008926Y006843D01*
X008926Y006134D01*
X008690Y006134D01*
X008690Y003615D01*
X008926Y003615D01*
X008926Y002906D01*
X008690Y002906D01*
X008690Y003615D01*
X008690Y002906D02*
X006958Y002906D01*
X006958Y006843D01*
X008690Y006843D01*
X008690Y006134D01*
D16*
X034884Y012034D02*
X034884Y013514D01*
X034974Y013514D01*
X036074Y013514D02*
X036164Y013514D01*
X036164Y012034D01*
X036084Y012034D01*
X034984Y012034D02*
X034884Y012034D01*
X034860Y023084D02*
X034860Y023365D01*
X034771Y023318D02*
X034724Y023365D01*
X034631Y023365D01*
X034584Y023318D01*
X034584Y023131D01*
X034631Y023084D01*
X034724Y023084D01*
X034771Y023131D01*
X034771Y023318D01*
X034907Y023225D02*
X035047Y023084D01*
X034860Y023178D02*
X035047Y023365D01*
X035284Y023225D02*
X035471Y023225D01*
X035560Y023225D02*
X035747Y023225D01*
X035654Y023318D02*
X035654Y023131D01*
X035377Y023131D02*
X035377Y023318D01*
D17*
X034395Y023268D02*
X034395Y023225D01*
X034351Y023225D01*
X034351Y023268D01*
X034395Y023268D01*
X034395Y023138D02*
X034395Y023094D01*
X034351Y023094D01*
X034351Y023138D01*
X034395Y023138D01*
X034249Y023094D02*
X034075Y023094D01*
X034075Y023355D01*
X034249Y023355D01*
X034162Y023225D02*
X034075Y023225D01*
X033972Y023225D02*
X033886Y023225D01*
X033972Y023225D02*
X033972Y023138D01*
X033929Y023094D01*
X033842Y023094D01*
X033799Y023138D01*
X033799Y023311D01*
X033842Y023355D01*
X033929Y023355D01*
X033972Y023311D01*
X033696Y023311D02*
X033696Y023225D01*
X033653Y023181D01*
X033523Y023181D01*
X033609Y023181D02*
X033696Y023094D01*
X033523Y023094D02*
X033523Y023355D01*
X033653Y023355D01*
X033696Y023311D01*
X033420Y023268D02*
X033420Y023094D01*
X033420Y023225D02*
X033246Y023225D01*
X033246Y023268D02*
X033333Y023355D01*
X033420Y023268D01*
X033246Y023268D02*
X033246Y023094D01*
X033144Y023094D02*
X033144Y023355D01*
X033144Y023225D02*
X032970Y023225D01*
X032970Y023355D02*
X032970Y023094D01*
X032867Y023138D02*
X032824Y023094D01*
X032737Y023094D01*
X032694Y023138D01*
X032694Y023311D01*
X032737Y023355D01*
X032824Y023355D01*
X032867Y023311D01*
X037344Y020642D02*
X037344Y020468D01*
X037604Y020468D01*
X037604Y020642D01*
X037474Y020555D02*
X037474Y020468D01*
X037474Y020365D02*
X037474Y020279D01*
X037474Y020365D02*
X037561Y020365D01*
X037604Y020322D01*
X037604Y020235D01*
X037561Y020192D01*
X037387Y020192D01*
X037344Y020235D01*
X037344Y020322D01*
X037387Y020365D01*
X037387Y020089D02*
X037474Y020089D01*
X037517Y020046D01*
X037517Y019916D01*
X037517Y020002D02*
X037604Y020089D01*
X037604Y019916D02*
X037344Y019916D01*
X037344Y020046D01*
X037387Y020089D01*
X037430Y019813D02*
X037604Y019813D01*
X037474Y019813D02*
X037474Y019639D01*
X037430Y019639D02*
X037344Y019726D01*
X037430Y019813D01*
X037430Y019639D02*
X037604Y019639D01*
X037604Y019537D02*
X037344Y019537D01*
X037474Y019537D02*
X037474Y019363D01*
X037604Y019363D02*
X037344Y019363D01*
X037387Y019260D02*
X037344Y019217D01*
X037344Y019130D01*
X037387Y019087D01*
X037561Y019087D01*
X037604Y019130D01*
X037604Y019217D01*
X037561Y019260D01*
X039274Y019151D02*
X039274Y018844D01*
X039274Y018601D02*
X039274Y018294D01*
X039120Y018448D02*
X039427Y018448D01*
X039274Y016251D02*
X039274Y015944D01*
X039120Y016098D02*
X039427Y016098D01*
X039274Y020694D02*
X039274Y021001D01*
X039274Y021194D02*
X039274Y021501D01*
X039120Y020848D02*
X039427Y020848D01*
X039274Y023594D02*
X039274Y023901D01*
X008077Y013487D02*
X007770Y013487D01*
X007924Y013334D02*
X007924Y013641D01*
X007924Y010741D02*
X007924Y010434D01*
X007923Y001755D02*
X007923Y001621D01*
X007990Y001554D01*
X008057Y001621D01*
X008057Y001755D01*
X008144Y001588D02*
X008177Y001588D01*
X008177Y001554D01*
X008144Y001554D01*
X008144Y001588D01*
X008255Y001554D02*
X008321Y001554D01*
X008288Y001554D02*
X008288Y001755D01*
X008255Y001755D02*
X008321Y001755D01*
X008402Y001721D02*
X008435Y001755D01*
X008502Y001755D01*
X008535Y001721D01*
X008535Y001688D01*
X008402Y001554D01*
X008535Y001554D01*
X008623Y001588D02*
X008656Y001554D01*
X008723Y001554D01*
X008756Y001588D01*
X008623Y001588D02*
X008623Y001721D01*
X008656Y001755D01*
X008723Y001755D01*
X008756Y001721D01*
D18*
X025439Y007868D02*
X025753Y008181D01*
X025753Y008025D02*
X025439Y008025D01*
X025439Y008181D02*
X025753Y007868D01*
X025596Y007868D02*
X025596Y008181D01*
X031905Y014907D02*
X032219Y015221D01*
X032219Y015064D02*
X031905Y015064D01*
X031905Y015221D02*
X032219Y014907D01*
X032062Y014907D02*
X032062Y015221D01*
X032739Y016468D02*
X033053Y016781D01*
X033053Y016625D02*
X032739Y016625D01*
X032739Y016781D02*
X033053Y016468D01*
X032896Y016468D02*
X032896Y016781D01*
X033119Y019858D02*
X033433Y020171D01*
X033433Y020015D02*
X033119Y020015D01*
X033119Y020171D02*
X033433Y019858D01*
X033276Y019858D02*
X033276Y020171D01*
D19*
X010820Y011298D02*
X010820Y011248D01*
X010819Y011249D02*
X010787Y011246D01*
X010755Y011240D01*
X010724Y011230D01*
X010695Y011217D01*
X010667Y011200D01*
X010641Y011180D01*
X010618Y011157D01*
X010598Y011131D01*
X010581Y011103D01*
X010568Y011074D01*
X010558Y011043D01*
X010552Y011011D01*
X010549Y010979D01*
X010500Y010978D01*
X010499Y010979D01*
X010502Y011015D01*
X010508Y011050D01*
X010518Y011084D01*
X010532Y011117D01*
X010550Y011148D01*
X010570Y011177D01*
X010594Y011204D01*
X010621Y011228D01*
X010650Y011248D01*
X010681Y011266D01*
X010714Y011280D01*
X010748Y011290D01*
X010783Y011296D01*
X010819Y011299D01*
X010819Y011290D01*
X010784Y011288D01*
X010750Y011281D01*
X010717Y011271D01*
X010685Y011258D01*
X010655Y011241D01*
X010626Y011221D01*
X010601Y011197D01*
X010577Y011172D01*
X010557Y011143D01*
X010540Y011113D01*
X010527Y011081D01*
X010517Y011048D01*
X010510Y011014D01*
X010508Y010979D01*
X010517Y010979D01*
X010519Y011013D01*
X010526Y011046D01*
X010535Y011078D01*
X010548Y011109D01*
X010565Y011139D01*
X010584Y011166D01*
X010607Y011191D01*
X010632Y011214D01*
X010659Y011233D01*
X010689Y011250D01*
X010720Y011263D01*
X010752Y011272D01*
X010785Y011279D01*
X010819Y011281D01*
X010819Y011272D01*
X010786Y011270D01*
X010754Y011264D01*
X010723Y011254D01*
X010693Y011242D01*
X010664Y011226D01*
X010638Y011207D01*
X010613Y011185D01*
X010591Y011160D01*
X010572Y011134D01*
X010556Y011105D01*
X010544Y011075D01*
X010534Y011044D01*
X010528Y011012D01*
X010526Y010979D01*
X010535Y010979D01*
X010537Y011011D01*
X010543Y011042D01*
X010552Y011072D01*
X010565Y011101D01*
X010580Y011129D01*
X010598Y011155D01*
X010620Y011178D01*
X010643Y011200D01*
X010669Y011218D01*
X010697Y011233D01*
X010726Y011246D01*
X010756Y011255D01*
X010787Y011261D01*
X010819Y011263D01*
X010819Y011254D01*
X010786Y011251D01*
X010754Y011245D01*
X010722Y011235D01*
X010692Y011221D01*
X010664Y011204D01*
X010638Y011183D01*
X010615Y011160D01*
X010594Y011134D01*
X010577Y011106D01*
X010563Y011076D01*
X010553Y011044D01*
X010547Y011012D01*
X010544Y010979D01*
X010828Y009650D02*
X010828Y009700D01*
X010829Y009699D02*
X010861Y009702D01*
X010893Y009708D01*
X010924Y009718D01*
X010953Y009731D01*
X010981Y009748D01*
X011007Y009768D01*
X011030Y009791D01*
X011050Y009817D01*
X011067Y009845D01*
X011080Y009874D01*
X011090Y009905D01*
X011096Y009937D01*
X011099Y009969D01*
X011148Y009970D01*
X011149Y009969D01*
X011146Y009933D01*
X011140Y009898D01*
X011130Y009864D01*
X011116Y009831D01*
X011098Y009800D01*
X011078Y009771D01*
X011054Y009744D01*
X011027Y009720D01*
X010998Y009700D01*
X010967Y009682D01*
X010934Y009668D01*
X010900Y009658D01*
X010865Y009652D01*
X010829Y009649D01*
X010829Y009658D01*
X010864Y009660D01*
X010898Y009667D01*
X010931Y009677D01*
X010963Y009690D01*
X010993Y009707D01*
X011022Y009727D01*
X011047Y009751D01*
X011071Y009776D01*
X011091Y009805D01*
X011108Y009835D01*
X011121Y009867D01*
X011131Y009900D01*
X011138Y009934D01*
X011140Y009969D01*
X011131Y009969D01*
X011129Y009935D01*
X011122Y009902D01*
X011113Y009870D01*
X011100Y009839D01*
X011083Y009809D01*
X011064Y009782D01*
X011041Y009757D01*
X011016Y009734D01*
X010989Y009715D01*
X010959Y009698D01*
X010928Y009685D01*
X010896Y009676D01*
X010863Y009669D01*
X010829Y009667D01*
X010829Y009676D01*
X010862Y009678D01*
X010894Y009684D01*
X010925Y009694D01*
X010955Y009706D01*
X010984Y009722D01*
X011010Y009741D01*
X011035Y009763D01*
X011057Y009788D01*
X011076Y009814D01*
X011092Y009843D01*
X011104Y009873D01*
X011114Y009904D01*
X011120Y009936D01*
X011122Y009969D01*
X011113Y009969D01*
X011111Y009937D01*
X011105Y009906D01*
X011096Y009876D01*
X011083Y009847D01*
X011068Y009819D01*
X011050Y009793D01*
X011028Y009770D01*
X011005Y009748D01*
X010979Y009730D01*
X010951Y009715D01*
X010922Y009702D01*
X010892Y009693D01*
X010861Y009687D01*
X010829Y009685D01*
X010829Y009694D01*
X010862Y009697D01*
X010894Y009703D01*
X010926Y009713D01*
X010956Y009727D01*
X010984Y009744D01*
X011010Y009765D01*
X011033Y009788D01*
X011054Y009814D01*
X011071Y009842D01*
X011085Y009872D01*
X011095Y009904D01*
X011101Y009936D01*
X011104Y009969D01*
D20*
X011924Y010074D02*
X011924Y011074D01*
X021924Y011074D01*
X021924Y010074D01*
X011924Y010074D01*
X008643Y010993D02*
X008643Y011978D01*
X008840Y011978D01*
X008840Y012371D01*
X008643Y012371D01*
X008643Y013356D01*
X006872Y013356D01*
X006872Y010993D01*
X008643Y010993D01*
X008218Y006956D02*
X007430Y006956D01*
X007430Y002906D02*
X008218Y002906D01*
X024824Y012974D02*
X025074Y012724D01*
X025574Y012724D01*
X025824Y012974D01*
X025824Y013474D01*
X025574Y013724D01*
X025074Y013724D01*
X024824Y013474D01*
X024824Y012974D01*
X029724Y012824D02*
X029724Y012024D01*
X029724Y013124D02*
X029724Y013924D01*
X033565Y014515D02*
X033752Y014515D01*
X033752Y016434D01*
X033565Y016434D01*
X033752Y016434D02*
X035083Y016434D01*
X033574Y017724D02*
X033324Y017474D01*
X032824Y017474D01*
X032574Y017724D01*
X032574Y018224D01*
X032824Y018474D01*
X033324Y018474D01*
X033574Y018224D01*
X033574Y017724D01*
X038358Y017721D02*
X038358Y017328D01*
X038555Y017328D01*
X038555Y016343D01*
X040326Y016343D01*
X040326Y018706D01*
X038555Y018706D01*
X038555Y017721D01*
X038358Y017721D01*
X038555Y018693D02*
X040326Y018693D01*
X040326Y021056D01*
X038555Y021056D01*
X038555Y020071D01*
X038358Y020071D01*
X038358Y019678D01*
X038555Y019678D01*
X038555Y018693D01*
X038555Y021093D02*
X040326Y021093D01*
X040326Y023456D01*
X038555Y023456D01*
X038555Y022471D01*
X038358Y022471D01*
X038358Y022078D01*
X038555Y022078D01*
X038555Y021093D01*
X037424Y022374D02*
X036924Y022374D01*
X036674Y022624D01*
X036674Y023124D01*
X036924Y023374D01*
X037424Y023374D01*
X037674Y023124D01*
X037674Y022624D01*
X037424Y022374D01*
X008188Y021788D02*
X008188Y021060D01*
X007460Y021060D01*
X007460Y021789D01*
X008188Y021789D01*
X008002Y021284D02*
X007852Y021134D01*
X008002Y021284D02*
X008002Y020834D01*
X007852Y020834D02*
X008152Y020834D01*
X007324Y020924D02*
X007324Y022924D01*
X020324Y022924D01*
X020324Y020924D01*
X007324Y020924D01*
X020463Y022471D02*
X020763Y022772D01*
X020763Y022847D01*
X020688Y022922D01*
X020538Y022922D01*
X020463Y022847D01*
X020463Y022471D02*
X020763Y022471D01*
X020923Y022547D02*
X020923Y022697D01*
X021149Y022697D01*
X021224Y022622D01*
X021224Y022547D01*
X021149Y022471D01*
X020999Y022471D01*
X020923Y022547D01*
X020923Y022697D02*
X021074Y022847D01*
X021224Y022922D01*
X033752Y014515D02*
X035083Y014515D01*
D21*
X006873Y022025D02*
X006865Y002944D01*
X006867Y002868D01*
X006873Y002792D01*
X006882Y002716D01*
X006896Y002642D01*
X006913Y002568D01*
X006934Y002495D01*
X006958Y002423D01*
X006987Y002352D01*
X007018Y002283D01*
X007054Y002216D01*
X007092Y002150D01*
X007134Y002087D01*
X007179Y002026D01*
X007227Y001967D01*
X007278Y001910D01*
X007332Y001857D01*
X007388Y001806D01*
X007447Y001758D01*
X007508Y001713D01*
X007572Y001671D01*
X007637Y001632D01*
X007705Y001597D01*
X007774Y001566D01*
X007844Y001537D01*
X007916Y001513D01*
X007989Y001492D01*
X008063Y001475D01*
X008138Y001461D01*
X008213Y001452D01*
X008289Y001446D01*
X008365Y001444D01*
X026484Y001444D01*
X028324Y002944D02*
X028324Y010414D01*
X028326Y010444D01*
X028331Y010474D01*
X028340Y010503D01*
X028353Y010530D01*
X028368Y010556D01*
X028387Y010580D01*
X028408Y010601D01*
X028432Y010620D01*
X028458Y010635D01*
X028485Y010648D01*
X028514Y010657D01*
X028544Y010662D01*
X028574Y010664D01*
X036174Y010664D01*
X036204Y010666D01*
X036234Y010671D01*
X036263Y010680D01*
X036290Y010693D01*
X036316Y010708D01*
X036340Y010727D01*
X036361Y010748D01*
X036380Y010772D01*
X036395Y010798D01*
X036408Y010825D01*
X036417Y010854D01*
X036422Y010884D01*
X036424Y010914D01*
X036424Y016054D01*
X036426Y016084D01*
X036431Y016114D01*
X036440Y016143D01*
X036453Y016170D01*
X036468Y016196D01*
X036487Y016220D01*
X036508Y016241D01*
X036532Y016260D01*
X036558Y016275D01*
X036585Y016288D01*
X036614Y016297D01*
X036644Y016302D01*
X036674Y016304D01*
X040364Y016304D01*
X040364Y023484D01*
X027624Y023475D01*
X027594Y023473D01*
X027564Y023468D01*
X027535Y023459D01*
X027508Y023446D01*
X027482Y023431D01*
X027458Y023412D01*
X027437Y023391D01*
X027418Y023367D01*
X027403Y023341D01*
X027390Y023314D01*
X027381Y023285D01*
X027376Y023255D01*
X027374Y023225D01*
X027374Y018774D01*
X027372Y018744D01*
X027367Y018714D01*
X027358Y018685D01*
X027345Y018658D01*
X027330Y018632D01*
X027311Y018608D01*
X027290Y018587D01*
X027266Y018568D01*
X027240Y018553D01*
X027213Y018540D01*
X027184Y018531D01*
X027154Y018526D01*
X027124Y018524D01*
X023174Y018524D01*
X023144Y018526D01*
X023114Y018531D01*
X023085Y018540D01*
X023058Y018553D01*
X023032Y018568D01*
X023008Y018587D01*
X022987Y018608D01*
X022968Y018632D01*
X022953Y018658D01*
X022940Y018685D01*
X022931Y018714D01*
X022926Y018744D01*
X022924Y018774D01*
X022924Y023274D01*
X022922Y023304D01*
X022917Y023334D01*
X022908Y023363D01*
X022895Y023390D01*
X022880Y023416D01*
X022861Y023440D01*
X022840Y023461D01*
X022816Y023480D01*
X022790Y023495D01*
X022763Y023508D01*
X022734Y023517D01*
X022704Y023522D01*
X022674Y023524D01*
X008373Y023524D01*
X008297Y023522D01*
X008221Y023516D01*
X008146Y023507D01*
X008071Y023493D01*
X007997Y023476D01*
X007924Y023455D01*
X007852Y023431D01*
X007782Y023402D01*
X007712Y023371D01*
X007645Y023336D01*
X007580Y023297D01*
X007516Y023255D01*
X007455Y023210D01*
X007396Y023162D01*
X007340Y023111D01*
X007286Y023058D01*
X007235Y023001D01*
X007187Y022942D01*
X007142Y022881D01*
X007100Y022818D01*
X007062Y022752D01*
X007026Y022685D01*
X006995Y022616D01*
X006967Y022545D01*
X006942Y022473D01*
X006921Y022400D01*
X006904Y022326D01*
X006890Y022252D01*
X006881Y022176D01*
X006875Y022101D01*
X006873Y022025D01*
X016347Y008543D02*
X016349Y008590D01*
X016355Y008637D01*
X016364Y008683D01*
X016378Y008728D01*
X016395Y008772D01*
X016416Y008815D01*
X016440Y008855D01*
X016467Y008894D01*
X016498Y008930D01*
X016531Y008963D01*
X016567Y008994D01*
X016606Y009021D01*
X016646Y009045D01*
X016689Y009066D01*
X016733Y009083D01*
X016778Y009097D01*
X016824Y009106D01*
X016871Y009112D01*
X016918Y009114D01*
X016965Y009112D01*
X017012Y009106D01*
X017058Y009097D01*
X017103Y009083D01*
X017147Y009066D01*
X017190Y009045D01*
X017230Y009021D01*
X017269Y008994D01*
X017305Y008963D01*
X017338Y008930D01*
X017369Y008894D01*
X017396Y008855D01*
X017420Y008815D01*
X017441Y008772D01*
X017458Y008728D01*
X017472Y008683D01*
X017481Y008637D01*
X017487Y008590D01*
X017489Y008543D01*
X017487Y008496D01*
X017481Y008449D01*
X017472Y008403D01*
X017458Y008358D01*
X017441Y008314D01*
X017420Y008271D01*
X017396Y008231D01*
X017369Y008192D01*
X017338Y008156D01*
X017305Y008123D01*
X017269Y008092D01*
X017230Y008065D01*
X017190Y008041D01*
X017147Y008020D01*
X017103Y008003D01*
X017058Y007989D01*
X017012Y007980D01*
X016965Y007974D01*
X016918Y007972D01*
X016871Y007974D01*
X016824Y007980D01*
X016778Y007989D01*
X016733Y008003D01*
X016689Y008020D01*
X016646Y008041D01*
X016606Y008065D01*
X016567Y008092D01*
X016531Y008123D01*
X016498Y008156D01*
X016467Y008192D01*
X016440Y008231D01*
X016416Y008271D01*
X016395Y008314D01*
X016378Y008358D01*
X016364Y008403D01*
X016355Y008449D01*
X016349Y008496D01*
X016347Y008543D01*
X026484Y001444D02*
X026564Y001437D01*
X026644Y001435D01*
X026723Y001436D01*
X026803Y001442D01*
X026883Y001451D01*
X026961Y001463D01*
X027040Y001480D01*
X027117Y001500D01*
X027193Y001524D01*
X027268Y001551D01*
X027342Y001582D01*
X027414Y001617D01*
X027484Y001655D01*
X027553Y001696D01*
X027619Y001740D01*
X027684Y001788D01*
X027746Y001838D01*
X027805Y001892D01*
X027862Y001948D01*
X027916Y002007D01*
X027967Y002068D01*
X028016Y002132D01*
X028061Y002197D01*
X028103Y002265D01*
X028142Y002335D01*
X028177Y002407D01*
X028209Y002480D01*
X028237Y002555D01*
X028262Y002631D01*
X028283Y002708D01*
X028301Y002786D01*
X028314Y002865D01*
X028324Y002944D01*
X037792Y018586D02*
X037794Y018633D01*
X037800Y018680D01*
X037809Y018726D01*
X037823Y018771D01*
X037840Y018815D01*
X037861Y018858D01*
X037885Y018898D01*
X037912Y018937D01*
X037943Y018973D01*
X037976Y019006D01*
X038012Y019037D01*
X038051Y019064D01*
X038091Y019088D01*
X038134Y019109D01*
X038178Y019126D01*
X038223Y019140D01*
X038269Y019149D01*
X038316Y019155D01*
X038363Y019157D01*
X038410Y019155D01*
X038457Y019149D01*
X038503Y019140D01*
X038548Y019126D01*
X038592Y019109D01*
X038635Y019088D01*
X038675Y019064D01*
X038714Y019037D01*
X038750Y019006D01*
X038783Y018973D01*
X038814Y018937D01*
X038841Y018898D01*
X038865Y018858D01*
X038886Y018815D01*
X038903Y018771D01*
X038917Y018726D01*
X038926Y018680D01*
X038932Y018633D01*
X038934Y018586D01*
X038932Y018539D01*
X038926Y018492D01*
X038917Y018446D01*
X038903Y018401D01*
X038886Y018357D01*
X038865Y018314D01*
X038841Y018274D01*
X038814Y018235D01*
X038783Y018199D01*
X038750Y018166D01*
X038714Y018135D01*
X038675Y018108D01*
X038635Y018084D01*
X038592Y018063D01*
X038548Y018046D01*
X038503Y018032D01*
X038457Y018023D01*
X038410Y018017D01*
X038363Y018015D01*
X038316Y018017D01*
X038269Y018023D01*
X038223Y018032D01*
X038178Y018046D01*
X038134Y018063D01*
X038091Y018084D01*
X038051Y018108D01*
X038012Y018135D01*
X037976Y018166D01*
X037943Y018199D01*
X037912Y018235D01*
X037885Y018274D01*
X037861Y018314D01*
X037840Y018357D01*
X037823Y018401D01*
X037809Y018446D01*
X037800Y018492D01*
X037794Y018539D01*
X037792Y018586D01*
D22*
X035705Y022457D02*
X035524Y022457D01*
X035432Y022580D01*
X035343Y022457D02*
X035524Y022457D01*
X035534Y022464D02*
X035610Y022580D01*
X035005Y022457D02*
X034824Y022457D01*
X034732Y022580D01*
X034643Y022457D02*
X034824Y022457D01*
X034834Y022464D02*
X034910Y022580D01*
X027324Y016814D02*
X027214Y016924D01*
X027324Y016814D02*
X027324Y016424D01*
X027224Y016424D01*
X027324Y016424D02*
X027324Y016034D01*
X027214Y015924D01*
X027814Y016494D02*
X027814Y016654D01*
X028534Y016654D01*
X028534Y016494D01*
X027814Y016494D01*
X026424Y016424D02*
X026224Y016424D01*
X025424Y016424D02*
X025224Y016424D01*
X024424Y016424D02*
X024224Y016424D01*
X023424Y016424D02*
X023224Y016424D01*
X022424Y016424D02*
X022224Y016424D01*
X021424Y016424D02*
X021224Y016424D01*
X020424Y016424D02*
X020324Y016424D01*
X020224Y016424D01*
X019424Y016424D02*
X019224Y016424D01*
X018424Y016424D02*
X018224Y016424D01*
X017424Y016424D02*
X017224Y016424D01*
X016424Y016424D02*
X016224Y016424D01*
X015424Y016424D02*
X015224Y016424D01*
X014424Y016424D02*
X014224Y016424D01*
X013424Y016424D02*
X013224Y016424D01*
X012424Y016424D02*
X012224Y016424D01*
X011424Y016424D02*
X011224Y016424D01*
X010424Y016424D02*
X010224Y016424D01*
X009424Y016424D02*
X009224Y016424D01*
X008424Y016424D02*
X008224Y016424D01*
X007424Y016424D02*
X007324Y016424D01*
X007324Y016034D01*
X007434Y015924D01*
X007324Y016424D02*
X007324Y016814D01*
X007434Y016924D01*
X028590Y013997D02*
X028590Y013052D01*
X029180Y013052D01*
X029180Y012897D02*
X028590Y012897D01*
X028590Y011952D01*
X029180Y011952D01*
X029968Y011952D02*
X030401Y011952D01*
X030558Y012109D01*
X030558Y012739D01*
X030401Y012897D01*
X029968Y012897D01*
X029968Y013052D02*
X030401Y013052D01*
X030558Y013209D01*
X030558Y013839D01*
X030401Y013997D01*
X029968Y013997D01*
X029180Y013997D02*
X028590Y013997D01*
X031424Y012124D02*
X031824Y012124D01*
D23*
X033512Y013324D02*
X033536Y013324D01*
X036074Y016762D02*
X036074Y016786D01*
X034086Y017374D02*
X034062Y017374D01*
X036074Y018962D02*
X036074Y018986D01*
X034786Y021024D02*
X034762Y021024D01*
X026086Y012974D02*
X026062Y012974D01*
X026062Y011774D02*
X026086Y011774D01*
X026862Y011774D02*
X026886Y011774D01*
X027662Y011774D02*
X027686Y011774D01*
X027036Y010424D02*
X027012Y010424D01*
X022736Y011974D02*
X022712Y011974D01*
X024312Y007174D02*
X024336Y007174D01*
X026212Y007174D02*
X026236Y007174D01*
X027012Y007024D02*
X027036Y007024D01*
X027812Y007024D02*
X027836Y007024D01*
D24*
X025424Y007174D03*
X025124Y008374D03*
X024324Y008774D03*
X023524Y008774D03*
X027024Y008824D03*
X027824Y010424D03*
X025124Y011974D03*
X024324Y011974D03*
X023524Y011974D03*
X026874Y012974D03*
X027674Y012974D03*
X028174Y014774D03*
X029224Y014774D03*
X029224Y015974D03*
X034324Y013324D03*
X033524Y012124D03*
X032724Y012124D03*
X035074Y017374D03*
X033974Y021024D03*
X033174Y021024D03*
X033424Y022424D03*
X034224Y022424D03*
X032624Y022424D03*
X036324Y022724D03*
D25*
X036074Y020024D03*
X036074Y017574D03*
X029624Y011074D03*
X023924Y010324D03*
X024124Y013374D03*
D26*
X030124Y020224D03*
M02*
