G75*
G70*
%OFA0B0*%
%FSLAX24Y24*%
%IPPOS*%
%LPD*%
%AMOC8*
5,1,8,0,0,1.08239X$1,22.5*
%
%ADD10C,0.0000*%
%ADD11R,0.0594X0.0594*%
%ADD12C,0.0660*%
%ADD13C,0.0594*%
%ADD14C,0.0560*%
%ADD15R,0.0515X0.0515*%
%ADD16C,0.0515*%
%ADD17C,0.0600*%
%ADD18OC8,0.0700*%
%ADD19C,0.1000*%
%ADD20R,0.0800X0.0800*%
%ADD21C,0.0080*%
%ADD22R,0.0500X0.0250*%
%ADD23R,0.0250X0.0500*%
%ADD24C,0.0400*%
%ADD25C,0.0240*%
%ADD26C,0.0100*%
%ADD27C,0.0356*%
%ADD28C,0.0320*%
%ADD29C,0.0120*%
%ADD30C,0.0160*%
%ADD31C,0.0110*%
%ADD32C,0.0317*%
%ADD33C,0.0760*%
%ADD34R,0.0760X0.0760*%
%ADD35C,0.0350*%
%ADD36OC8,0.0760*%
%ADD37C,0.0360*%
%ADD38C,0.0320*%
%ADD39C,0.0360*%
D10*
X006865Y002944D02*
X006873Y022025D01*
X006875Y022101D01*
X006881Y022176D01*
X006890Y022252D01*
X006904Y022326D01*
X006921Y022400D01*
X006942Y022473D01*
X006967Y022545D01*
X006995Y022616D01*
X007026Y022685D01*
X007062Y022752D01*
X007100Y022818D01*
X007142Y022881D01*
X007187Y022942D01*
X007235Y023001D01*
X007286Y023058D01*
X007340Y023111D01*
X007396Y023162D01*
X007455Y023210D01*
X007516Y023255D01*
X007580Y023297D01*
X007645Y023336D01*
X007712Y023371D01*
X007782Y023402D01*
X007852Y023431D01*
X007924Y023455D01*
X007997Y023476D01*
X008071Y023493D01*
X008146Y023507D01*
X008221Y023516D01*
X008297Y023522D01*
X008373Y023524D01*
X022674Y023524D01*
X022704Y023522D01*
X022734Y023517D01*
X022763Y023508D01*
X022790Y023495D01*
X022816Y023480D01*
X022840Y023461D01*
X022861Y023440D01*
X022880Y023416D01*
X022895Y023390D01*
X022908Y023363D01*
X022917Y023334D01*
X022922Y023304D01*
X022924Y023274D01*
X022924Y018774D01*
X022926Y018744D01*
X022931Y018714D01*
X022940Y018685D01*
X022953Y018658D01*
X022968Y018632D01*
X022987Y018608D01*
X023008Y018587D01*
X023032Y018568D01*
X023058Y018553D01*
X023085Y018540D01*
X023114Y018531D01*
X023144Y018526D01*
X023174Y018524D01*
X027124Y018524D01*
X027154Y018526D01*
X027184Y018531D01*
X027213Y018540D01*
X027240Y018553D01*
X027266Y018568D01*
X027290Y018587D01*
X027311Y018608D01*
X027330Y018632D01*
X027345Y018658D01*
X027358Y018685D01*
X027367Y018714D01*
X027372Y018744D01*
X027374Y018774D01*
X027374Y023225D01*
X027376Y023255D01*
X027381Y023285D01*
X027390Y023314D01*
X027403Y023341D01*
X027418Y023367D01*
X027437Y023391D01*
X027458Y023412D01*
X027482Y023431D01*
X027508Y023446D01*
X027535Y023459D01*
X027564Y023468D01*
X027594Y023473D01*
X027624Y023475D01*
X040364Y023484D01*
X040364Y016304D01*
X036674Y016304D01*
X036644Y016302D01*
X036614Y016297D01*
X036585Y016288D01*
X036558Y016275D01*
X036532Y016260D01*
X036508Y016241D01*
X036487Y016220D01*
X036468Y016196D01*
X036453Y016170D01*
X036440Y016143D01*
X036431Y016114D01*
X036426Y016084D01*
X036424Y016054D01*
X036424Y010914D01*
X036422Y010884D01*
X036417Y010854D01*
X036408Y010825D01*
X036395Y010798D01*
X036380Y010772D01*
X036361Y010748D01*
X036340Y010727D01*
X036316Y010708D01*
X036290Y010693D01*
X036263Y010680D01*
X036234Y010671D01*
X036204Y010666D01*
X036174Y010664D01*
X028574Y010664D01*
X028544Y010662D01*
X028514Y010657D01*
X028485Y010648D01*
X028458Y010635D01*
X028432Y010620D01*
X028408Y010601D01*
X028387Y010580D01*
X028368Y010556D01*
X028353Y010530D01*
X028340Y010503D01*
X028331Y010474D01*
X028326Y010444D01*
X028324Y010414D01*
X028324Y002944D01*
X028314Y002865D01*
X028301Y002786D01*
X028283Y002708D01*
X028262Y002631D01*
X028237Y002555D01*
X028209Y002480D01*
X028177Y002407D01*
X028142Y002335D01*
X028103Y002265D01*
X028061Y002197D01*
X028016Y002132D01*
X027967Y002068D01*
X027916Y002007D01*
X027862Y001948D01*
X027805Y001892D01*
X027746Y001838D01*
X027684Y001788D01*
X027619Y001740D01*
X027553Y001696D01*
X027484Y001655D01*
X027414Y001617D01*
X027342Y001582D01*
X027268Y001551D01*
X027193Y001524D01*
X027117Y001500D01*
X027040Y001480D01*
X026961Y001463D01*
X026883Y001451D01*
X026803Y001442D01*
X026723Y001436D01*
X026644Y001435D01*
X026564Y001437D01*
X026484Y001444D01*
X008365Y001444D01*
X008289Y001446D01*
X008213Y001452D01*
X008138Y001461D01*
X008063Y001475D01*
X007989Y001492D01*
X007916Y001513D01*
X007844Y001537D01*
X007774Y001566D01*
X007705Y001597D01*
X007637Y001632D01*
X007572Y001671D01*
X007508Y001713D01*
X007447Y001758D01*
X007388Y001806D01*
X007332Y001857D01*
X007278Y001910D01*
X007227Y001967D01*
X007179Y002026D01*
X007134Y002087D01*
X007092Y002150D01*
X007054Y002216D01*
X007018Y002283D01*
X006987Y002352D01*
X006958Y002423D01*
X006934Y002495D01*
X006913Y002568D01*
X006896Y002642D01*
X006882Y002716D01*
X006873Y002792D01*
X006867Y002868D01*
X006865Y002944D01*
X016347Y008543D02*
X016349Y008590D01*
X016355Y008637D01*
X016364Y008683D01*
X016378Y008728D01*
X016395Y008772D01*
X016416Y008815D01*
X016440Y008855D01*
X016467Y008894D01*
X016498Y008930D01*
X016531Y008963D01*
X016567Y008994D01*
X016606Y009021D01*
X016646Y009045D01*
X016689Y009066D01*
X016733Y009083D01*
X016778Y009097D01*
X016824Y009106D01*
X016871Y009112D01*
X016918Y009114D01*
X016965Y009112D01*
X017012Y009106D01*
X017058Y009097D01*
X017103Y009083D01*
X017147Y009066D01*
X017190Y009045D01*
X017230Y009021D01*
X017269Y008994D01*
X017305Y008963D01*
X017338Y008930D01*
X017369Y008894D01*
X017396Y008855D01*
X017420Y008815D01*
X017441Y008772D01*
X017458Y008728D01*
X017472Y008683D01*
X017481Y008637D01*
X017487Y008590D01*
X017489Y008543D01*
X017487Y008496D01*
X017481Y008449D01*
X017472Y008403D01*
X017458Y008358D01*
X017441Y008314D01*
X017420Y008271D01*
X017396Y008231D01*
X017369Y008192D01*
X017338Y008156D01*
X017305Y008123D01*
X017269Y008092D01*
X017230Y008065D01*
X017190Y008041D01*
X017147Y008020D01*
X017103Y008003D01*
X017058Y007989D01*
X017012Y007980D01*
X016965Y007974D01*
X016918Y007972D01*
X016871Y007974D01*
X016824Y007980D01*
X016778Y007989D01*
X016733Y008003D01*
X016689Y008020D01*
X016646Y008041D01*
X016606Y008065D01*
X016567Y008092D01*
X016531Y008123D01*
X016498Y008156D01*
X016467Y008192D01*
X016440Y008231D01*
X016416Y008271D01*
X016395Y008314D01*
X016378Y008358D01*
X016364Y008403D01*
X016355Y008449D01*
X016349Y008496D01*
X016347Y008543D01*
X037792Y018586D02*
X037794Y018633D01*
X037800Y018680D01*
X037809Y018726D01*
X037823Y018771D01*
X037840Y018815D01*
X037861Y018858D01*
X037885Y018898D01*
X037912Y018937D01*
X037943Y018973D01*
X037976Y019006D01*
X038012Y019037D01*
X038051Y019064D01*
X038091Y019088D01*
X038134Y019109D01*
X038178Y019126D01*
X038223Y019140D01*
X038269Y019149D01*
X038316Y019155D01*
X038363Y019157D01*
X038410Y019155D01*
X038457Y019149D01*
X038503Y019140D01*
X038548Y019126D01*
X038592Y019109D01*
X038635Y019088D01*
X038675Y019064D01*
X038714Y019037D01*
X038750Y019006D01*
X038783Y018973D01*
X038814Y018937D01*
X038841Y018898D01*
X038865Y018858D01*
X038886Y018815D01*
X038903Y018771D01*
X038917Y018726D01*
X038926Y018680D01*
X038932Y018633D01*
X038934Y018586D01*
X038932Y018539D01*
X038926Y018492D01*
X038917Y018446D01*
X038903Y018401D01*
X038886Y018357D01*
X038865Y018314D01*
X038841Y018274D01*
X038814Y018235D01*
X038783Y018199D01*
X038750Y018166D01*
X038714Y018135D01*
X038675Y018108D01*
X038635Y018084D01*
X038592Y018063D01*
X038548Y018046D01*
X038503Y018032D01*
X038457Y018023D01*
X038410Y018017D01*
X038363Y018015D01*
X038316Y018017D01*
X038269Y018023D01*
X038223Y018032D01*
X038178Y018046D01*
X038134Y018063D01*
X038091Y018084D01*
X038051Y018108D01*
X038012Y018135D01*
X037976Y018166D01*
X037943Y018199D01*
X037912Y018235D01*
X037885Y018274D01*
X037861Y018314D01*
X037840Y018357D01*
X037823Y018401D01*
X037809Y018446D01*
X037800Y018492D01*
X037794Y018539D01*
X037792Y018586D01*
D11*
X007824Y021424D03*
D12*
X007824Y022424D03*
X009824Y022424D03*
D13*
X010824Y022424D03*
X011824Y022424D03*
X012824Y022424D03*
X013824Y022424D03*
X014824Y022424D03*
X015824Y022424D03*
X016824Y022424D03*
X017824Y022424D03*
X018824Y022424D03*
X019824Y022424D03*
X019824Y021424D03*
X018824Y021424D03*
X017824Y021424D03*
X016824Y021424D03*
X015824Y021424D03*
X014824Y021424D03*
X013824Y021424D03*
X012824Y021424D03*
X011824Y021424D03*
X010824Y021424D03*
X009824Y021424D03*
X008824Y021424D03*
X008824Y022424D03*
D14*
X007974Y012568D03*
X007974Y011781D03*
X039224Y017131D03*
X039224Y017918D03*
X039224Y019481D03*
X039224Y020268D03*
X039224Y021881D03*
X039224Y022668D03*
D15*
X007824Y007743D03*
X007824Y003693D03*
D16*
X007824Y004481D03*
X007824Y005268D03*
X007824Y006056D03*
X007824Y008531D03*
X007824Y009318D03*
X007824Y010106D03*
D17*
X008824Y016074D02*
X008824Y016674D01*
X007824Y016774D02*
X007824Y016174D01*
X009824Y016174D02*
X009824Y016774D01*
X010824Y016674D02*
X010824Y016074D01*
X011824Y016174D02*
X011824Y016774D01*
X012824Y016674D02*
X012824Y016074D01*
X013824Y016174D02*
X013824Y016774D01*
X014824Y016674D02*
X014824Y016074D01*
X015824Y016174D02*
X015824Y016774D01*
X016824Y016674D02*
X016824Y016074D01*
X017824Y016174D02*
X017824Y016774D01*
X018824Y016674D02*
X018824Y016074D01*
X019824Y016174D02*
X019824Y016774D01*
X020824Y016674D02*
X020824Y016074D01*
X021824Y016174D02*
X021824Y016774D01*
X022824Y016674D02*
X022824Y016074D01*
X023824Y016174D02*
X023824Y016774D01*
X024824Y016674D02*
X024824Y016074D01*
X025824Y016174D02*
X025824Y016774D01*
X026824Y016674D02*
X026824Y016074D01*
D18*
X021424Y010574D03*
X020424Y010574D03*
X019424Y010574D03*
X018424Y010574D03*
X017424Y010574D03*
X016424Y010574D03*
X015424Y010574D03*
X014424Y010574D03*
X013424Y010574D03*
X012424Y010574D03*
D19*
X025824Y004959D03*
X025824Y002990D03*
D20*
X034324Y011224D03*
X025324Y013224D03*
X033074Y017974D03*
X037174Y022874D03*
D21*
X022924Y010524D02*
X022924Y010224D01*
D22*
X022924Y010174D03*
X022924Y010574D03*
X027324Y004294D03*
X027324Y003974D03*
X027324Y003654D03*
D23*
X034004Y012974D03*
X034324Y012974D03*
X034644Y012974D03*
D24*
X033824Y014224D02*
X033574Y014224D01*
X033424Y014224D01*
X033074Y014224D01*
X032324Y014224D01*
X031674Y014874D01*
X031674Y014974D01*
X031674Y016324D01*
X031524Y016474D01*
X029674Y016474D01*
X029674Y016924D01*
X028824Y017674D02*
X028624Y017524D01*
X028824Y017674D02*
X024824Y017674D01*
X024824Y016374D01*
X026824Y016374D02*
X026824Y015424D01*
X028874Y013374D01*
X030774Y013374D01*
X030774Y013774D01*
X032624Y015224D02*
X032624Y015624D01*
X033024Y015624D01*
X033774Y016374D01*
X034574Y016374D01*
X035239Y016374D01*
X035357Y016492D01*
X037074Y018459D01*
X037074Y019524D01*
X036324Y019524D01*
X035824Y019524D01*
X036274Y019524D02*
X036324Y019524D01*
X028824Y017724D02*
X028824Y017674D01*
X024824Y017674D02*
X023424Y017674D01*
X023366Y017681D01*
X023309Y017691D01*
X023252Y017704D01*
X023196Y017722D01*
X023142Y017742D01*
X023089Y017767D01*
X023037Y017794D01*
X022988Y017825D01*
X022940Y017858D01*
X022895Y017895D01*
X022852Y017934D01*
X022811Y017976D01*
X022773Y018020D01*
X022738Y018067D01*
X022707Y018116D01*
X022678Y018167D01*
X022652Y018219D01*
X022630Y018273D01*
X022611Y018328D01*
X022596Y018384D01*
X022584Y018442D01*
X022576Y018499D01*
X022572Y018557D01*
X022571Y018616D01*
X022574Y018674D01*
X022574Y022674D01*
X022575Y022717D01*
X022571Y022761D01*
X022564Y022804D01*
X022554Y022846D01*
X022540Y022887D01*
X022523Y022927D01*
X022503Y022965D01*
X022479Y023002D01*
X022452Y023036D01*
X022423Y023069D01*
X022391Y023098D01*
X022357Y023125D01*
X022321Y023149D01*
X022283Y023170D01*
X022243Y023188D01*
X022202Y023202D01*
X022160Y023213D01*
X022117Y023221D01*
X022074Y023224D01*
X020449Y023224D01*
X020449Y022527D01*
X020449Y023224D02*
X016824Y023224D01*
X016824Y022424D01*
X016824Y023224D02*
X013824Y023174D01*
X013824Y022424D01*
X013824Y023174D02*
X011324Y023174D01*
X010324Y023174D01*
X009892Y022926D02*
X009872Y022887D01*
X009855Y022846D01*
X009841Y022804D01*
X009832Y022762D01*
X009826Y022718D01*
X009824Y022674D01*
X009824Y022424D01*
X009892Y022926D02*
X009916Y022962D01*
X009942Y022997D01*
X009972Y023029D01*
X010004Y023058D01*
X010038Y023084D01*
X010075Y023108D01*
X010114Y023128D01*
X010154Y023144D01*
X010195Y023157D01*
X010238Y023166D01*
X010281Y023172D01*
X010324Y023174D01*
X020111Y021712D02*
X020155Y021759D01*
X020197Y021809D01*
X020236Y021860D01*
X020271Y021914D01*
X020304Y021970D01*
X020334Y022027D01*
X020360Y022086D01*
X020383Y022147D01*
X020403Y022208D01*
X020419Y022271D01*
X020432Y022334D01*
X020441Y022398D01*
X020446Y022462D01*
X020448Y022527D01*
X020111Y021712D02*
X019824Y021424D01*
D25*
X011690Y021558D02*
X011645Y021606D01*
X011603Y021655D01*
X011563Y021707D01*
X011526Y021761D01*
X011491Y021817D01*
X011460Y021875D01*
X011432Y021934D01*
X011407Y021994D01*
X011385Y022056D01*
X011367Y022118D01*
X011351Y022182D01*
X011339Y022246D01*
X011331Y022311D01*
X011326Y022377D01*
X011324Y022442D01*
X011324Y023174D01*
X011690Y021558D02*
X011824Y021424D01*
X028074Y011224D02*
X028574Y011724D01*
X032224Y011724D01*
X033074Y012574D01*
X033074Y014224D01*
X033574Y014224D01*
X028074Y011224D02*
X028074Y007224D01*
X027824Y006974D01*
X025824Y006974D01*
X025224Y007574D01*
X022424Y007574D01*
D26*
X022924Y007354D02*
X025133Y007354D01*
X025604Y006883D01*
X025733Y006754D01*
X027915Y006754D01*
X028165Y007004D01*
X028174Y007013D01*
X028174Y002955D01*
X028141Y002762D01*
X028000Y002389D01*
X027766Y002066D01*
X027457Y001814D01*
X027093Y001650D01*
X026699Y001586D01*
X026549Y001592D01*
X026546Y001594D01*
X026492Y001594D01*
X026437Y001600D01*
X026431Y001594D01*
X023413Y001594D01*
X024979Y003160D01*
X024979Y006162D01*
X025044Y006227D01*
X025084Y006323D01*
X025084Y006426D01*
X025044Y006522D01*
X024971Y006595D01*
X024876Y006634D01*
X024772Y006634D01*
X024677Y006595D01*
X024603Y006522D01*
X024564Y006426D01*
X024564Y006323D01*
X024603Y006227D01*
X024669Y006162D01*
X024669Y003289D01*
X023260Y001879D01*
X022924Y001879D01*
X022924Y001914D01*
X023019Y001914D01*
X023084Y001979D01*
X023084Y006745D01*
X023219Y006610D01*
X023219Y005387D01*
X023153Y005322D01*
X023114Y005226D01*
X023114Y005123D01*
X023153Y005027D01*
X023227Y004954D01*
X023322Y004914D01*
X023426Y004914D01*
X023521Y004954D01*
X023594Y005027D01*
X023634Y005123D01*
X023634Y005226D01*
X023594Y005322D01*
X023529Y005387D01*
X023529Y006739D01*
X023438Y006829D01*
X023038Y007229D01*
X022924Y007229D01*
X022924Y007354D01*
X022924Y007286D02*
X025201Y007286D01*
X025300Y007187D02*
X023080Y007187D01*
X023179Y007089D02*
X025398Y007089D01*
X025497Y006990D02*
X023277Y006990D01*
X023376Y006892D02*
X025595Y006892D01*
X025694Y006793D02*
X023474Y006793D01*
X023529Y006695D02*
X028174Y006695D01*
X028174Y006793D02*
X027954Y006793D01*
X028053Y006892D02*
X028174Y006892D01*
X028174Y006990D02*
X028151Y006990D01*
X028174Y006596D02*
X024967Y006596D01*
X025054Y006498D02*
X028174Y006498D01*
X028174Y006399D02*
X025084Y006399D01*
X025075Y006301D02*
X028174Y006301D01*
X028174Y006202D02*
X025020Y006202D01*
X024979Y006104D02*
X028174Y006104D01*
X028174Y006005D02*
X024979Y006005D01*
X024979Y005907D02*
X028174Y005907D01*
X028174Y005808D02*
X024979Y005808D01*
X024979Y005710D02*
X028174Y005710D01*
X028174Y005611D02*
X024979Y005611D01*
X024979Y005513D02*
X025594Y005513D01*
X025484Y005467D02*
X025315Y005299D01*
X025224Y005078D01*
X025224Y004839D01*
X025315Y004619D01*
X025484Y004450D01*
X025705Y004359D01*
X025943Y004359D01*
X026164Y004450D01*
X026333Y004619D01*
X026424Y004839D01*
X026424Y005078D01*
X026333Y005299D01*
X026164Y005467D01*
X025943Y005559D01*
X025705Y005559D01*
X025484Y005467D01*
X025431Y005414D02*
X024979Y005414D01*
X024979Y005316D02*
X025333Y005316D01*
X025282Y005217D02*
X024979Y005217D01*
X024979Y005119D02*
X025241Y005119D01*
X025224Y005020D02*
X024979Y005020D01*
X024979Y004922D02*
X025224Y004922D01*
X025230Y004823D02*
X024979Y004823D01*
X024979Y004725D02*
X025271Y004725D01*
X025312Y004626D02*
X024979Y004626D01*
X024979Y004528D02*
X025406Y004528D01*
X025534Y004429D02*
X024979Y004429D01*
X024979Y004331D02*
X026924Y004331D01*
X026924Y004307D02*
X026924Y004439D01*
X026934Y004477D01*
X026954Y004512D01*
X026982Y004539D01*
X027016Y004559D01*
X027054Y004569D01*
X027311Y004569D01*
X027311Y004307D01*
X027311Y004282D01*
X026924Y004282D01*
X026924Y004150D01*
X026928Y004134D01*
X026258Y004134D01*
X025758Y003634D01*
X025713Y003590D01*
X025705Y003590D01*
X025484Y003499D01*
X025315Y003330D01*
X025224Y003110D01*
X025224Y002871D01*
X025315Y002650D01*
X025484Y002482D01*
X025705Y002390D01*
X025943Y002390D01*
X026164Y002482D01*
X026333Y002650D01*
X026424Y002871D01*
X026424Y003110D01*
X026333Y003330D01*
X026164Y003499D01*
X026101Y003525D01*
X026390Y003814D01*
X026974Y003814D01*
X026974Y003488D01*
X027032Y003429D01*
X027164Y003429D01*
X027164Y003182D01*
X027103Y003122D01*
X027064Y003026D01*
X027064Y002923D01*
X027103Y002827D01*
X027177Y002754D01*
X027272Y002714D01*
X027376Y002714D01*
X027471Y002754D01*
X027544Y002827D01*
X027584Y002923D01*
X027584Y003026D01*
X027544Y003122D01*
X027484Y003182D01*
X027484Y003429D01*
X027615Y003429D01*
X027674Y003488D01*
X027674Y004057D01*
X027694Y004077D01*
X027714Y004112D01*
X027724Y004150D01*
X027724Y004282D01*
X027336Y004282D01*
X027336Y004307D01*
X027311Y004307D01*
X026924Y004307D01*
X026924Y004232D02*
X024979Y004232D01*
X024979Y004134D02*
X026257Y004134D01*
X026159Y004035D02*
X024979Y004035D01*
X024979Y003937D02*
X026060Y003937D01*
X025962Y003838D02*
X024979Y003838D01*
X024979Y003740D02*
X025863Y003740D01*
X025765Y003641D02*
X024979Y003641D01*
X024979Y003543D02*
X025591Y003543D01*
X025430Y003444D02*
X024979Y003444D01*
X024979Y003346D02*
X025331Y003346D01*
X025281Y003247D02*
X024979Y003247D01*
X024968Y003149D02*
X025240Y003149D01*
X025224Y003050D02*
X024869Y003050D01*
X024771Y002952D02*
X025224Y002952D01*
X025231Y002853D02*
X024672Y002853D01*
X024574Y002755D02*
X025272Y002755D01*
X025313Y002656D02*
X024475Y002656D01*
X024377Y002558D02*
X025408Y002558D01*
X025537Y002459D02*
X024278Y002459D01*
X024180Y002361D02*
X027979Y002361D01*
X028026Y002459D02*
X026110Y002459D01*
X026240Y002558D02*
X028064Y002558D01*
X028101Y002656D02*
X026335Y002656D01*
X026376Y002755D02*
X027176Y002755D01*
X027093Y002853D02*
X026417Y002853D01*
X026424Y002952D02*
X027064Y002952D01*
X027074Y003050D02*
X026424Y003050D01*
X026408Y003149D02*
X027131Y003149D01*
X027164Y003247D02*
X026367Y003247D01*
X026317Y003346D02*
X027164Y003346D01*
X027017Y003444D02*
X026218Y003444D01*
X026119Y003543D02*
X026974Y003543D01*
X026974Y003641D02*
X026217Y003641D01*
X026316Y003740D02*
X026974Y003740D01*
X027484Y003346D02*
X028174Y003346D01*
X028174Y003444D02*
X027630Y003444D01*
X027674Y003543D02*
X028174Y003543D01*
X028174Y003641D02*
X027674Y003641D01*
X027674Y003740D02*
X028174Y003740D01*
X028174Y003838D02*
X027674Y003838D01*
X027674Y003937D02*
X028174Y003937D01*
X028174Y004035D02*
X027674Y004035D01*
X027720Y004134D02*
X028174Y004134D01*
X028174Y004232D02*
X027724Y004232D01*
X027724Y004307D02*
X027724Y004439D01*
X027714Y004477D01*
X027694Y004512D01*
X027666Y004539D01*
X027632Y004559D01*
X027594Y004569D01*
X027336Y004569D01*
X027336Y004307D01*
X027724Y004307D01*
X027724Y004331D02*
X028174Y004331D01*
X028174Y004429D02*
X027724Y004429D01*
X027678Y004528D02*
X028174Y004528D01*
X028174Y004626D02*
X026336Y004626D01*
X026377Y004725D02*
X028174Y004725D01*
X028174Y004823D02*
X026417Y004823D01*
X026424Y004922D02*
X028174Y004922D01*
X028174Y005020D02*
X026424Y005020D01*
X026407Y005119D02*
X028174Y005119D01*
X028174Y005217D02*
X026366Y005217D01*
X026315Y005316D02*
X028174Y005316D01*
X028174Y005414D02*
X026217Y005414D01*
X026054Y005513D02*
X028174Y005513D01*
X027336Y004528D02*
X027311Y004528D01*
X027311Y004429D02*
X027336Y004429D01*
X027336Y004331D02*
X027311Y004331D01*
X026970Y004528D02*
X026242Y004528D01*
X026114Y004429D02*
X026924Y004429D01*
X027484Y003247D02*
X028174Y003247D01*
X028174Y003149D02*
X027517Y003149D01*
X027574Y003050D02*
X028174Y003050D01*
X028173Y002952D02*
X027584Y002952D01*
X027555Y002853D02*
X028157Y002853D01*
X028139Y002755D02*
X027472Y002755D01*
X027908Y002262D02*
X024081Y002262D01*
X023983Y002164D02*
X027837Y002164D01*
X027766Y002065D02*
X023884Y002065D01*
X023786Y001967D02*
X027645Y001967D01*
X027524Y001868D02*
X023687Y001868D01*
X023589Y001770D02*
X027359Y001770D01*
X027140Y001671D02*
X023490Y001671D01*
X023347Y001967D02*
X023072Y001967D01*
X023084Y002065D02*
X023446Y002065D01*
X023544Y002164D02*
X023084Y002164D01*
X023084Y002262D02*
X023643Y002262D01*
X023741Y002361D02*
X023084Y002361D01*
X023084Y002459D02*
X023840Y002459D01*
X023938Y002558D02*
X023084Y002558D01*
X023084Y002656D02*
X024037Y002656D01*
X024135Y002755D02*
X023084Y002755D01*
X023084Y002853D02*
X024234Y002853D01*
X024332Y002952D02*
X023084Y002952D01*
X023084Y003050D02*
X024431Y003050D01*
X024529Y003149D02*
X023084Y003149D01*
X023084Y003247D02*
X024628Y003247D01*
X024669Y003346D02*
X023084Y003346D01*
X023084Y003444D02*
X024669Y003444D01*
X024669Y003543D02*
X023084Y003543D01*
X023084Y003641D02*
X024669Y003641D01*
X024669Y003740D02*
X023084Y003740D01*
X023084Y003838D02*
X024669Y003838D01*
X024669Y003937D02*
X023084Y003937D01*
X023084Y004035D02*
X024669Y004035D01*
X024669Y004134D02*
X023084Y004134D01*
X023084Y004232D02*
X024669Y004232D01*
X024669Y004331D02*
X023084Y004331D01*
X023084Y004429D02*
X024669Y004429D01*
X024669Y004528D02*
X023084Y004528D01*
X023084Y004626D02*
X024669Y004626D01*
X024669Y004725D02*
X023084Y004725D01*
X023084Y004823D02*
X024669Y004823D01*
X024669Y004922D02*
X023444Y004922D01*
X023304Y004922D02*
X023084Y004922D01*
X023084Y005020D02*
X023160Y005020D01*
X023115Y005119D02*
X023084Y005119D01*
X023084Y005217D02*
X023114Y005217D01*
X023084Y005316D02*
X023151Y005316D01*
X023084Y005414D02*
X023219Y005414D01*
X023219Y005513D02*
X023084Y005513D01*
X023084Y005611D02*
X023219Y005611D01*
X023219Y005710D02*
X023084Y005710D01*
X023084Y005808D02*
X023219Y005808D01*
X023219Y005907D02*
X023084Y005907D01*
X023084Y006005D02*
X023219Y006005D01*
X023219Y006104D02*
X023084Y006104D01*
X023084Y006202D02*
X023219Y006202D01*
X023219Y006301D02*
X023084Y006301D01*
X023084Y006399D02*
X023219Y006399D01*
X023219Y006498D02*
X023084Y006498D01*
X023084Y006596D02*
X023219Y006596D01*
X023134Y006695D02*
X023084Y006695D01*
X023529Y006596D02*
X024680Y006596D01*
X024594Y006498D02*
X023529Y006498D01*
X023529Y006399D02*
X024564Y006399D01*
X024573Y006301D02*
X023529Y006301D01*
X023529Y006202D02*
X024628Y006202D01*
X024669Y006104D02*
X023529Y006104D01*
X023529Y006005D02*
X024669Y006005D01*
X024669Y005907D02*
X023529Y005907D01*
X023529Y005808D02*
X024669Y005808D01*
X024669Y005710D02*
X023529Y005710D01*
X023529Y005611D02*
X024669Y005611D01*
X024669Y005513D02*
X023529Y005513D01*
X023529Y005414D02*
X024669Y005414D01*
X024669Y005316D02*
X023597Y005316D01*
X023634Y005217D02*
X024669Y005217D01*
X024669Y005119D02*
X023632Y005119D01*
X023588Y005020D02*
X024669Y005020D01*
X025915Y007194D02*
X025315Y007794D01*
X022924Y007794D01*
X022924Y008074D01*
X025814Y008074D01*
X025814Y008076D02*
X025814Y007973D01*
X025853Y007877D01*
X025927Y007804D01*
X026022Y007764D01*
X026126Y007764D01*
X026221Y007804D01*
X026294Y007877D01*
X027083Y007877D01*
X027064Y007923D02*
X027103Y007827D01*
X027177Y007754D01*
X027272Y007714D01*
X027376Y007714D01*
X027471Y007754D01*
X027544Y007827D01*
X027584Y007923D01*
X027584Y008026D01*
X027544Y008122D01*
X027502Y008164D01*
X027540Y008164D01*
X027634Y008258D01*
X027634Y011308D01*
X028590Y012264D01*
X031916Y012264D01*
X031977Y012204D01*
X032072Y012164D01*
X032176Y012164D01*
X032271Y012204D01*
X032344Y012277D01*
X032384Y012373D01*
X032384Y012476D01*
X032344Y012572D01*
X032271Y012645D01*
X032176Y012684D01*
X032072Y012684D01*
X031977Y012645D01*
X031916Y012584D01*
X028458Y012584D01*
X027408Y011534D01*
X027317Y011444D01*
X027236Y011524D01*
X025824Y012937D01*
X025824Y013074D01*
X027036Y013074D01*
X027124Y013162D01*
X027124Y013649D01*
X027134Y013673D01*
X027134Y013776D01*
X027124Y013800D01*
X027124Y014198D01*
X028558Y012764D01*
X030766Y012764D01*
X030827Y012704D01*
X030922Y012664D01*
X031026Y012664D01*
X031121Y012704D01*
X031194Y012777D01*
X031234Y012873D01*
X031234Y012976D01*
X031194Y013072D01*
X031121Y013145D01*
X031026Y013184D01*
X031008Y013184D01*
X031028Y013204D01*
X031074Y013315D01*
X031074Y013834D01*
X031028Y013944D01*
X030944Y014029D01*
X030834Y014074D01*
X030714Y014074D01*
X030604Y014029D01*
X030520Y013944D01*
X030474Y013834D01*
X030474Y013674D01*
X028998Y013674D01*
X027124Y015549D01*
X027124Y015724D01*
X027324Y015724D01*
X027324Y018428D01*
X027417Y018482D01*
X027524Y018667D01*
X027524Y023225D01*
X027527Y023250D01*
X027553Y023295D01*
X027598Y023321D01*
X027624Y023325D01*
X027638Y023325D01*
X027686Y023325D01*
X032958Y023329D01*
X032877Y023295D01*
X032803Y023222D01*
X032764Y023126D01*
X032764Y023023D01*
X032803Y022927D01*
X032877Y022854D01*
X032972Y022814D01*
X033076Y022814D01*
X033171Y022854D01*
X033242Y022924D01*
X033278Y022924D01*
X033115Y022762D01*
X033037Y022683D01*
X032994Y022580D01*
X032994Y018919D01*
X033037Y018816D01*
X033115Y018737D01*
X033218Y018694D01*
X033330Y018694D01*
X033433Y018737D01*
X033511Y018816D01*
X033554Y018919D01*
X033554Y022408D01*
X033564Y022418D01*
X033564Y022323D01*
X033603Y022227D01*
X033677Y022154D01*
X033772Y022114D01*
X033876Y022114D01*
X033971Y022154D01*
X034042Y022224D01*
X035862Y022224D01*
X036034Y022052D01*
X036003Y022022D01*
X035964Y021926D01*
X035964Y021823D01*
X036003Y021727D01*
X036074Y021657D01*
X036074Y021116D01*
X036065Y021124D01*
X035532Y021124D01*
X035474Y021066D01*
X035474Y020383D01*
X035532Y020324D01*
X036065Y020324D01*
X036074Y020333D01*
X036074Y019824D01*
X035764Y019824D01*
X035654Y019779D01*
X035570Y019694D01*
X035524Y019584D01*
X035524Y019465D01*
X035570Y019354D01*
X035654Y019270D01*
X035674Y019262D01*
X035674Y018337D01*
X035562Y018224D01*
X034642Y018224D01*
X034644Y018227D01*
X034684Y018323D01*
X034684Y018426D01*
X034644Y018522D01*
X034589Y018577D01*
X034924Y018912D01*
X034924Y021634D01*
X034971Y021654D01*
X035036Y021719D01*
X035053Y021677D01*
X035064Y021667D01*
X035064Y019032D01*
X035003Y018972D01*
X034964Y018876D01*
X034964Y018773D01*
X035003Y018677D01*
X035077Y018604D01*
X035172Y018564D01*
X035276Y018564D01*
X035371Y018604D01*
X035444Y018677D01*
X035484Y018773D01*
X035484Y018876D01*
X035444Y018972D01*
X035384Y019032D01*
X035384Y021589D01*
X035421Y021604D01*
X035494Y021677D01*
X035534Y021773D01*
X035534Y021876D01*
X035494Y021972D01*
X035421Y022045D01*
X035326Y022084D01*
X035222Y022084D01*
X035127Y022045D01*
X035062Y021980D01*
X035044Y022022D01*
X034971Y022095D01*
X034876Y022134D01*
X034772Y022134D01*
X034677Y022095D01*
X034603Y022022D01*
X034564Y021926D01*
X034564Y021823D01*
X034603Y021727D01*
X034624Y021707D01*
X034624Y019037D01*
X034274Y018687D01*
X034274Y018592D01*
X034203Y018522D01*
X034199Y018511D01*
X034194Y018522D01*
X034121Y018595D01*
X034026Y018634D01*
X033922Y018634D01*
X033827Y018595D01*
X033753Y018522D01*
X033714Y018426D01*
X033714Y018323D01*
X033753Y018227D01*
X033756Y018224D01*
X033574Y018224D01*
X033574Y018416D01*
X033515Y018474D01*
X032632Y018474D01*
X032574Y018416D01*
X032574Y017533D01*
X032632Y017474D01*
X033515Y017474D01*
X033574Y017533D01*
X033574Y017924D01*
X034406Y017924D01*
X034353Y017872D01*
X034314Y017776D01*
X034314Y017673D01*
X034353Y017577D01*
X034414Y017517D01*
X034414Y016674D01*
X033714Y016674D01*
X033604Y016629D01*
X032900Y015924D01*
X032564Y015924D01*
X032454Y015879D01*
X032370Y015794D01*
X032324Y015684D01*
X032324Y015165D01*
X032370Y015054D01*
X032454Y014970D01*
X032564Y014924D01*
X032684Y014924D01*
X032794Y014970D01*
X032878Y015054D01*
X032924Y015165D01*
X032924Y015324D01*
X033084Y015324D01*
X033194Y015370D01*
X033278Y015454D01*
X033898Y016074D01*
X035299Y016074D01*
X035409Y016120D01*
X035534Y016245D01*
X035543Y016249D01*
X035814Y016249D01*
X035814Y016326D02*
X035814Y012482D01*
X035666Y012334D01*
X034310Y012334D01*
X034484Y012508D01*
X034484Y012624D01*
X034810Y012624D01*
X034869Y012683D01*
X034869Y012814D01*
X035008Y012814D01*
X035064Y012758D01*
X035064Y012673D01*
X035103Y012577D01*
X035177Y012504D01*
X035272Y012464D01*
X035376Y012464D01*
X035471Y012504D01*
X035544Y012577D01*
X035584Y012673D01*
X035584Y012776D01*
X035544Y012872D01*
X035471Y012945D01*
X035376Y012984D01*
X035290Y012984D01*
X035140Y013134D01*
X034869Y013134D01*
X034869Y013266D01*
X034810Y013324D01*
X033837Y013324D01*
X033779Y013266D01*
X033779Y013134D01*
X033558Y013134D01*
X033464Y013041D01*
X033364Y012941D01*
X033364Y012441D01*
X032408Y011484D01*
X031182Y011484D01*
X031162Y011504D01*
X032315Y011504D01*
X033165Y012354D01*
X033294Y012483D01*
X033294Y013924D01*
X033884Y013924D01*
X033994Y013970D01*
X034078Y014054D01*
X034124Y014165D01*
X034124Y014284D01*
X034078Y014394D01*
X033994Y014479D01*
X033884Y014524D01*
X032448Y014524D01*
X031974Y014999D01*
X031974Y016384D01*
X031928Y016494D01*
X031844Y016579D01*
X031694Y016729D01*
X031584Y016774D01*
X029974Y016774D01*
X029974Y016984D01*
X029928Y017094D01*
X029844Y017179D01*
X029734Y017224D01*
X029614Y017224D01*
X029504Y017179D01*
X029420Y017094D01*
X029374Y016984D01*
X029374Y016415D01*
X029420Y016304D01*
X029504Y016220D01*
X029614Y016174D01*
X031374Y016174D01*
X031374Y015134D01*
X029940Y015134D01*
X029834Y015241D01*
X029834Y015417D01*
X029894Y015477D01*
X029934Y015573D01*
X029934Y015676D01*
X029894Y015772D01*
X029821Y015845D01*
X029726Y015884D01*
X029622Y015884D01*
X029527Y015845D01*
X029453Y015772D01*
X029414Y015676D01*
X029414Y015573D01*
X029453Y015477D01*
X029514Y015417D01*
X029514Y015108D01*
X029714Y014908D01*
X029808Y014814D01*
X031374Y014814D01*
X031420Y014704D01*
X032070Y014054D01*
X032154Y013970D01*
X032264Y013924D01*
X032854Y013924D01*
X032854Y012666D01*
X032133Y011944D01*
X028483Y011944D01*
X028354Y011816D01*
X027854Y011316D01*
X027854Y007316D01*
X027733Y007194D01*
X025915Y007194D01*
X025824Y007286D02*
X027824Y007286D01*
X027854Y007384D02*
X025725Y007384D01*
X025627Y007483D02*
X027854Y007483D01*
X027854Y007581D02*
X025528Y007581D01*
X025430Y007680D02*
X027854Y007680D01*
X027854Y007778D02*
X027496Y007778D01*
X027565Y007877D02*
X027854Y007877D01*
X027854Y007975D02*
X027584Y007975D01*
X027564Y008074D02*
X027854Y008074D01*
X027854Y008172D02*
X027548Y008172D01*
X027634Y008271D02*
X027854Y008271D01*
X027854Y008369D02*
X027634Y008369D01*
X027634Y008468D02*
X027854Y008468D01*
X027854Y008566D02*
X027634Y008566D01*
X027634Y008665D02*
X027854Y008665D01*
X027854Y008763D02*
X027634Y008763D01*
X027634Y008862D02*
X027854Y008862D01*
X027854Y008960D02*
X027634Y008960D01*
X027634Y009059D02*
X027854Y009059D01*
X027854Y009157D02*
X027634Y009157D01*
X027634Y009256D02*
X027854Y009256D01*
X027854Y009354D02*
X027634Y009354D01*
X027634Y009453D02*
X027854Y009453D01*
X027854Y009551D02*
X027634Y009551D01*
X027634Y009650D02*
X027854Y009650D01*
X027854Y009748D02*
X027634Y009748D01*
X027634Y009847D02*
X027854Y009847D01*
X027854Y009945D02*
X027634Y009945D01*
X027634Y010044D02*
X027854Y010044D01*
X027854Y010142D02*
X027634Y010142D01*
X027634Y010241D02*
X027854Y010241D01*
X027854Y010339D02*
X027634Y010339D01*
X027634Y010438D02*
X027854Y010438D01*
X027854Y010536D02*
X027634Y010536D01*
X027634Y010635D02*
X027854Y010635D01*
X027854Y010733D02*
X027634Y010733D01*
X027634Y010832D02*
X027854Y010832D01*
X027854Y010930D02*
X027634Y010930D01*
X027634Y011029D02*
X027854Y011029D01*
X027854Y011127D02*
X027634Y011127D01*
X027634Y011226D02*
X027854Y011226D01*
X027863Y011324D02*
X027650Y011324D01*
X027749Y011423D02*
X027961Y011423D01*
X028060Y011521D02*
X027847Y011521D01*
X027946Y011620D02*
X028158Y011620D01*
X028257Y011718D02*
X028044Y011718D01*
X028143Y011817D02*
X028355Y011817D01*
X028454Y011915D02*
X028241Y011915D01*
X028340Y012014D02*
X032202Y012014D01*
X032301Y012112D02*
X028438Y012112D01*
X028537Y012211D02*
X031970Y012211D01*
X032278Y012211D02*
X032399Y012211D01*
X032358Y012309D02*
X032498Y012309D01*
X032596Y012408D02*
X032384Y012408D01*
X032371Y012506D02*
X032695Y012506D01*
X032793Y012605D02*
X032311Y012605D01*
X031937Y012605D02*
X026156Y012605D01*
X026254Y012506D02*
X028380Y012506D01*
X028281Y012408D02*
X026353Y012408D01*
X026451Y012309D02*
X028183Y012309D01*
X028084Y012211D02*
X026550Y012211D01*
X026648Y012112D02*
X027986Y012112D01*
X027887Y012014D02*
X026747Y012014D01*
X026845Y011915D02*
X027789Y011915D01*
X027690Y011817D02*
X026944Y011817D01*
X027042Y011718D02*
X027592Y011718D01*
X027493Y011620D02*
X027141Y011620D01*
X027239Y011521D02*
X027395Y011521D01*
X027174Y011374D02*
X027174Y009424D01*
X027074Y009324D01*
X025724Y009324D01*
X025374Y009674D01*
X025374Y009924D01*
X025566Y009748D02*
X026644Y009748D01*
X026653Y009772D02*
X026614Y009676D01*
X026614Y009573D01*
X026653Y009477D01*
X026656Y009474D01*
X025786Y009474D01*
X025539Y009722D01*
X025594Y009777D01*
X025634Y009873D01*
X025634Y009976D01*
X025594Y010072D01*
X025521Y010145D01*
X025426Y010184D01*
X025322Y010184D01*
X025227Y010145D01*
X025153Y010072D01*
X025114Y009976D01*
X025114Y009873D01*
X025153Y009777D01*
X025224Y009707D01*
X025224Y009612D01*
X025312Y009524D01*
X025662Y009174D01*
X027136Y009174D01*
X027224Y009262D01*
X027314Y009352D01*
X027314Y008484D01*
X026208Y008484D01*
X026114Y008391D01*
X025997Y008274D01*
X025927Y008245D01*
X025853Y008172D01*
X025814Y008076D01*
X025814Y007975D02*
X022924Y007975D01*
X022924Y007877D02*
X025854Y007877D01*
X025988Y007778D02*
X025331Y007778D01*
X025854Y008172D02*
X023748Y008172D01*
X023690Y008114D02*
X024734Y009158D01*
X024734Y010708D01*
X024790Y010764D01*
X025466Y010764D01*
X025526Y010703D01*
X025622Y010664D01*
X025637Y010664D01*
X025608Y010634D01*
X025108Y010634D01*
X025058Y010584D01*
X024972Y010584D01*
X024877Y010545D01*
X024803Y010472D01*
X024764Y010376D01*
X024764Y010273D01*
X024803Y010177D01*
X024877Y010104D01*
X024972Y010064D01*
X025076Y010064D01*
X025171Y010104D01*
X025244Y010177D01*
X025284Y010273D01*
X025284Y010314D01*
X025740Y010314D01*
X025834Y010408D01*
X026110Y010684D01*
X026176Y010684D01*
X026271Y010724D01*
X026344Y010797D01*
X026384Y010893D01*
X026384Y010996D01*
X026344Y011092D01*
X026271Y011165D01*
X026176Y011204D01*
X026072Y011204D01*
X025977Y011165D01*
X025903Y011092D01*
X025894Y011070D01*
X025894Y011071D01*
X025821Y011144D01*
X025725Y011184D01*
X025622Y011184D01*
X025526Y011144D01*
X025466Y011084D01*
X024657Y011084D01*
X024414Y010841D01*
X024414Y009291D01*
X023558Y008434D01*
X023390Y008434D01*
X023090Y008734D01*
X022904Y008734D01*
X022904Y008773D01*
X022623Y009054D01*
X022225Y009054D01*
X022079Y008908D01*
X022079Y009241D01*
X022225Y009094D01*
X022623Y009094D01*
X022904Y009376D01*
X022904Y009773D01*
X022728Y009949D01*
X022773Y009949D01*
X023114Y009608D01*
X023208Y009514D01*
X023416Y009514D01*
X023477Y009454D01*
X023572Y009414D01*
X023676Y009414D01*
X023771Y009454D01*
X023844Y009527D01*
X023884Y009623D01*
X023884Y009726D01*
X023844Y009822D01*
X023771Y009895D01*
X023676Y009934D01*
X023572Y009934D01*
X023477Y009895D01*
X023416Y009834D01*
X023340Y009834D01*
X023220Y009954D01*
X023274Y010008D01*
X023274Y010341D01*
X023240Y010374D01*
X023274Y010408D01*
X023274Y010741D01*
X023215Y010799D01*
X022632Y010799D01*
X022597Y010764D01*
X022424Y010937D01*
X022424Y012862D01*
X022836Y013274D01*
X023536Y013274D01*
X024174Y013912D01*
X024174Y012412D01*
X024262Y012324D01*
X025486Y012324D01*
X025574Y012412D01*
X025574Y012724D01*
X025612Y012724D01*
X027024Y011312D01*
X027024Y011001D01*
X026940Y011084D01*
X026484Y011541D01*
X026390Y011634D01*
X024290Y011634D01*
X023134Y012791D01*
X023134Y012876D01*
X023094Y012972D01*
X023021Y013045D01*
X022926Y013084D01*
X022822Y013084D01*
X022727Y013045D01*
X022653Y012972D01*
X022614Y012876D01*
X022614Y012773D01*
X022653Y012677D01*
X022727Y012604D01*
X022822Y012564D01*
X022908Y012564D01*
X024158Y011314D01*
X026258Y011314D01*
X026714Y010858D01*
X026714Y009832D01*
X026653Y009772D01*
X026714Y009847D02*
X025623Y009847D01*
X025634Y009945D02*
X026714Y009945D01*
X026714Y010044D02*
X025606Y010044D01*
X025524Y010142D02*
X026714Y010142D01*
X026714Y010241D02*
X025271Y010241D01*
X025224Y010142D02*
X025210Y010142D01*
X025142Y010044D02*
X024734Y010044D01*
X024734Y010142D02*
X024838Y010142D01*
X024777Y010241D02*
X024734Y010241D01*
X024734Y010339D02*
X024764Y010339D01*
X024790Y010438D02*
X024734Y010438D01*
X024734Y010536D02*
X024868Y010536D01*
X024734Y010635D02*
X025608Y010635D01*
X025496Y010733D02*
X024759Y010733D01*
X024504Y010930D02*
X022430Y010930D01*
X022424Y011029D02*
X024602Y011029D01*
X024414Y010832D02*
X022529Y010832D01*
X022274Y010874D02*
X022574Y010574D01*
X022924Y010574D01*
X023274Y010536D02*
X024414Y010536D01*
X024414Y010438D02*
X023274Y010438D01*
X023274Y010339D02*
X024414Y010339D01*
X024414Y010241D02*
X023274Y010241D01*
X023274Y010142D02*
X024414Y010142D01*
X024414Y010044D02*
X023274Y010044D01*
X023229Y009945D02*
X024414Y009945D01*
X024414Y009847D02*
X023819Y009847D01*
X023875Y009748D02*
X024414Y009748D01*
X024414Y009650D02*
X023884Y009650D01*
X023854Y009551D02*
X024414Y009551D01*
X024414Y009453D02*
X023769Y009453D01*
X023479Y009453D02*
X022904Y009453D01*
X022904Y009551D02*
X023171Y009551D01*
X023072Y009650D02*
X022904Y009650D01*
X022904Y009748D02*
X022974Y009748D01*
X022875Y009847D02*
X022830Y009847D01*
X022777Y009945D02*
X022732Y009945D01*
X023328Y009847D02*
X023429Y009847D01*
X022883Y009354D02*
X024414Y009354D01*
X024379Y009256D02*
X022784Y009256D01*
X022686Y009157D02*
X024281Y009157D01*
X024182Y009059D02*
X022079Y009059D01*
X022079Y009157D02*
X022162Y009157D01*
X022131Y008960D02*
X022079Y008960D01*
X022717Y008960D02*
X024084Y008960D01*
X023985Y008862D02*
X022815Y008862D01*
X022904Y008763D02*
X023887Y008763D01*
X023788Y008665D02*
X023160Y008665D01*
X023258Y008566D02*
X023690Y008566D01*
X023591Y008468D02*
X023357Y008468D01*
X023101Y008271D02*
X022799Y008271D01*
X022701Y008172D02*
X023200Y008172D01*
X023164Y008208D02*
X023258Y008114D01*
X023690Y008114D01*
X023847Y008271D02*
X025990Y008271D01*
X026093Y008369D02*
X023945Y008369D01*
X024044Y008468D02*
X026191Y008468D01*
X026340Y008164D02*
X027146Y008164D01*
X027103Y008122D01*
X027064Y008026D01*
X027064Y007923D01*
X027064Y007975D02*
X026334Y007975D01*
X026334Y007973D02*
X026334Y008076D01*
X026310Y008134D01*
X026340Y008164D01*
X026334Y008074D02*
X027084Y008074D01*
X027152Y007778D02*
X026159Y007778D01*
X026294Y007877D02*
X026334Y007973D01*
X027314Y008566D02*
X024142Y008566D01*
X024241Y008665D02*
X027314Y008665D01*
X027314Y008763D02*
X024339Y008763D01*
X024438Y008862D02*
X027314Y008862D01*
X027314Y008960D02*
X024536Y008960D01*
X024635Y009059D02*
X027314Y009059D01*
X027314Y009157D02*
X024733Y009157D01*
X024734Y009256D02*
X025580Y009256D01*
X025482Y009354D02*
X024734Y009354D01*
X024734Y009453D02*
X025383Y009453D01*
X025285Y009551D02*
X024734Y009551D01*
X024734Y009650D02*
X025224Y009650D01*
X025182Y009748D02*
X024734Y009748D01*
X024734Y009847D02*
X025125Y009847D01*
X025114Y009945D02*
X024734Y009945D01*
X025611Y009650D02*
X026614Y009650D01*
X026623Y009551D02*
X025709Y009551D01*
X025765Y010339D02*
X026714Y010339D01*
X026714Y010438D02*
X025864Y010438D01*
X025962Y010536D02*
X026714Y010536D01*
X026714Y010635D02*
X026061Y010635D01*
X026281Y010733D02*
X026714Y010733D01*
X026714Y010832D02*
X026359Y010832D01*
X026384Y010930D02*
X026642Y010930D01*
X026543Y011029D02*
X026370Y011029D01*
X026309Y011127D02*
X026445Y011127D01*
X026346Y011226D02*
X022424Y011226D01*
X022424Y011324D02*
X024148Y011324D01*
X024049Y011423D02*
X022424Y011423D01*
X022424Y011521D02*
X023951Y011521D01*
X023852Y011620D02*
X022424Y011620D01*
X022424Y011718D02*
X023754Y011718D01*
X023655Y011817D02*
X022424Y011817D01*
X022424Y011915D02*
X023557Y011915D01*
X023458Y012014D02*
X022424Y012014D01*
X022424Y012112D02*
X023360Y012112D01*
X023261Y012211D02*
X022424Y012211D01*
X022424Y012309D02*
X023163Y012309D01*
X023064Y012408D02*
X022424Y012408D01*
X022424Y012506D02*
X022966Y012506D01*
X022726Y012605D02*
X022424Y012605D01*
X022424Y012703D02*
X022643Y012703D01*
X022614Y012802D02*
X022424Y012802D01*
X022462Y012900D02*
X022624Y012900D01*
X022681Y012999D02*
X022561Y012999D01*
X022659Y013097D02*
X024174Y013097D01*
X024174Y012999D02*
X023067Y012999D01*
X023124Y012900D02*
X024174Y012900D01*
X024174Y012802D02*
X023134Y012802D01*
X023221Y012703D02*
X024174Y012703D01*
X024174Y012605D02*
X023320Y012605D01*
X023418Y012506D02*
X024174Y012506D01*
X024178Y012408D02*
X023517Y012408D01*
X023615Y012309D02*
X026027Y012309D01*
X026125Y012211D02*
X023714Y012211D01*
X023812Y012112D02*
X026224Y012112D01*
X026322Y012014D02*
X023911Y012014D01*
X024009Y011915D02*
X026421Y011915D01*
X026519Y011817D02*
X024108Y011817D01*
X024206Y011718D02*
X026618Y011718D01*
X026716Y011620D02*
X026405Y011620D01*
X026503Y011521D02*
X026815Y011521D01*
X026913Y011423D02*
X026602Y011423D01*
X026700Y011324D02*
X027012Y011324D01*
X027024Y011226D02*
X026799Y011226D01*
X026897Y011127D02*
X027024Y011127D01*
X027024Y011029D02*
X026996Y011029D01*
X027174Y011374D02*
X025324Y013224D01*
X025824Y013224D02*
X025824Y013666D01*
X025765Y013724D01*
X024882Y013724D01*
X024824Y013666D01*
X024824Y012783D01*
X024882Y012724D01*
X025424Y012724D01*
X025424Y012474D01*
X024324Y012474D01*
X024324Y014062D01*
X024486Y014224D01*
X026974Y014224D01*
X026974Y013224D01*
X025824Y013224D01*
X025824Y013294D02*
X026974Y013294D01*
X026974Y013393D02*
X025824Y013393D01*
X025824Y013491D02*
X026974Y013491D01*
X026974Y013590D02*
X025824Y013590D01*
X025801Y013688D02*
X026974Y013688D01*
X026974Y013787D02*
X024324Y013787D01*
X024324Y013885D02*
X026974Y013885D01*
X026974Y013984D02*
X024324Y013984D01*
X024344Y014082D02*
X026974Y014082D01*
X026974Y014181D02*
X024443Y014181D01*
X024215Y014378D02*
X024154Y014378D01*
X024117Y014279D02*
X024055Y014279D01*
X024018Y014181D02*
X023957Y014181D01*
X023920Y014082D02*
X023858Y014082D01*
X023821Y013984D02*
X023760Y013984D01*
X023723Y013885D02*
X023661Y013885D01*
X023624Y013787D02*
X023563Y013787D01*
X023526Y013688D02*
X023464Y013688D01*
X023427Y013590D02*
X023366Y013590D01*
X023350Y013574D02*
X023412Y013574D01*
X024562Y014724D01*
X025206Y014724D01*
X025277Y014795D01*
X025372Y014834D01*
X025476Y014834D01*
X025571Y014795D01*
X025644Y014722D01*
X025684Y014626D01*
X025684Y014523D01*
X025644Y014427D01*
X025592Y014374D01*
X026948Y014374D01*
X026258Y015064D01*
X026164Y015158D01*
X026164Y015724D01*
X025984Y015724D01*
X025984Y015408D01*
X025890Y015314D01*
X025640Y015064D01*
X024840Y015064D01*
X023350Y013574D01*
X023474Y013424D02*
X022774Y013424D01*
X022274Y012924D01*
X022274Y010874D01*
X022424Y011127D02*
X025509Y011127D01*
X025837Y011127D02*
X025939Y011127D01*
X026124Y010944D02*
X026124Y010924D01*
X024414Y010733D02*
X023274Y010733D01*
X023274Y010635D02*
X024414Y010635D01*
X027218Y009256D02*
X027314Y009256D01*
X028326Y011165D02*
X028665Y011504D01*
X030786Y011504D01*
X030753Y011472D01*
X030714Y011376D01*
X030714Y011273D01*
X030750Y011184D01*
X028372Y011184D01*
X028326Y011165D01*
X028387Y011226D02*
X030733Y011226D01*
X030714Y011324D02*
X028485Y011324D01*
X028584Y011423D02*
X030733Y011423D01*
X032332Y011521D02*
X032445Y011521D01*
X032431Y011620D02*
X032543Y011620D01*
X032529Y011718D02*
X032642Y011718D01*
X032628Y011817D02*
X032740Y011817D01*
X032726Y011915D02*
X032839Y011915D01*
X032825Y012014D02*
X032937Y012014D01*
X032923Y012112D02*
X033036Y012112D01*
X033022Y012211D02*
X033134Y012211D01*
X033120Y012309D02*
X033233Y012309D01*
X033219Y012408D02*
X033331Y012408D01*
X033364Y012506D02*
X033294Y012506D01*
X033294Y012605D02*
X033364Y012605D01*
X033364Y012703D02*
X033294Y012703D01*
X033294Y012802D02*
X033364Y012802D01*
X033364Y012900D02*
X033294Y012900D01*
X033294Y012999D02*
X033422Y012999D01*
X033521Y013097D02*
X033294Y013097D01*
X033294Y013196D02*
X033779Y013196D01*
X033808Y013294D02*
X033294Y013294D01*
X033294Y013393D02*
X035814Y013393D01*
X035814Y013491D02*
X033294Y013491D01*
X033294Y013590D02*
X035814Y013590D01*
X035814Y013688D02*
X033294Y013688D01*
X033294Y013787D02*
X035814Y013787D01*
X035814Y013885D02*
X033294Y013885D01*
X032854Y013885D02*
X031053Y013885D01*
X031074Y013787D02*
X032854Y013787D01*
X032854Y013688D02*
X031074Y013688D01*
X031074Y013590D02*
X032854Y013590D01*
X032854Y013491D02*
X031074Y013491D01*
X031074Y013393D02*
X032854Y013393D01*
X032854Y013294D02*
X031066Y013294D01*
X031020Y013196D02*
X032854Y013196D01*
X032854Y013097D02*
X031169Y013097D01*
X031224Y012999D02*
X032854Y012999D01*
X032854Y012900D02*
X031234Y012900D01*
X031205Y012802D02*
X032854Y012802D01*
X032854Y012703D02*
X031120Y012703D01*
X030828Y012703D02*
X026057Y012703D01*
X025959Y012802D02*
X028520Y012802D01*
X028422Y012900D02*
X025860Y012900D01*
X025824Y012999D02*
X028323Y012999D01*
X028225Y013097D02*
X027059Y013097D01*
X027124Y013196D02*
X028126Y013196D01*
X028028Y013294D02*
X027124Y013294D01*
X027124Y013393D02*
X027929Y013393D01*
X027831Y013491D02*
X027124Y013491D01*
X027124Y013590D02*
X027732Y013590D01*
X027634Y013688D02*
X027134Y013688D01*
X027129Y013787D02*
X027535Y013787D01*
X027437Y013885D02*
X027124Y013885D01*
X027124Y013984D02*
X027338Y013984D01*
X027240Y014082D02*
X027124Y014082D01*
X027124Y014181D02*
X027141Y014181D01*
X026944Y014378D02*
X025595Y014378D01*
X025665Y014476D02*
X026846Y014476D01*
X026747Y014575D02*
X025684Y014575D01*
X025664Y014673D02*
X026649Y014673D01*
X026550Y014772D02*
X025594Y014772D01*
X025424Y014574D02*
X024624Y014574D01*
X023474Y013424D01*
X023556Y013294D02*
X024174Y013294D01*
X024174Y013196D02*
X022758Y013196D01*
X023655Y013393D02*
X024174Y013393D01*
X024174Y013491D02*
X023753Y013491D01*
X023852Y013590D02*
X024174Y013590D01*
X024174Y013688D02*
X023950Y013688D01*
X024049Y013787D02*
X024174Y013787D01*
X024174Y013885D02*
X024147Y013885D01*
X024324Y013688D02*
X024847Y013688D01*
X024824Y013590D02*
X024324Y013590D01*
X024324Y013491D02*
X024824Y013491D01*
X024824Y013393D02*
X024324Y013393D01*
X024324Y013294D02*
X024824Y013294D01*
X024824Y013196D02*
X024324Y013196D01*
X024324Y013097D02*
X024824Y013097D01*
X024824Y012999D02*
X024324Y012999D01*
X024324Y012900D02*
X024824Y012900D01*
X024824Y012802D02*
X024324Y012802D01*
X024324Y012703D02*
X025424Y012703D01*
X025424Y012605D02*
X024324Y012605D01*
X024324Y012506D02*
X025424Y012506D01*
X025574Y012506D02*
X025830Y012506D01*
X025928Y012408D02*
X025570Y012408D01*
X025574Y012605D02*
X025731Y012605D01*
X025633Y012703D02*
X025574Y012703D01*
X024314Y014476D02*
X024252Y014476D01*
X024351Y014575D02*
X024412Y014575D01*
X024449Y014673D02*
X024511Y014673D01*
X024548Y014772D02*
X025254Y014772D01*
X025643Y015067D02*
X026255Y015067D01*
X026164Y015166D02*
X025742Y015166D01*
X025840Y015264D02*
X026164Y015264D01*
X026164Y015363D02*
X025939Y015363D01*
X025984Y015461D02*
X026164Y015461D01*
X026164Y015560D02*
X025984Y015560D01*
X025984Y015658D02*
X026164Y015658D01*
X027124Y015658D02*
X029414Y015658D01*
X029419Y015560D02*
X027124Y015560D01*
X027211Y015461D02*
X029469Y015461D01*
X029514Y015363D02*
X027310Y015363D01*
X027408Y015264D02*
X029514Y015264D01*
X029514Y015166D02*
X027507Y015166D01*
X027605Y015067D02*
X029555Y015067D01*
X029653Y014969D02*
X027704Y014969D01*
X027802Y014870D02*
X029752Y014870D01*
X029909Y015166D02*
X031374Y015166D01*
X031374Y015264D02*
X029834Y015264D01*
X029834Y015363D02*
X031374Y015363D01*
X031374Y015461D02*
X029879Y015461D01*
X029929Y015560D02*
X031374Y015560D01*
X031374Y015658D02*
X029934Y015658D01*
X029900Y015757D02*
X031374Y015757D01*
X031374Y015855D02*
X029796Y015855D01*
X029552Y015855D02*
X027324Y015855D01*
X027324Y015757D02*
X029447Y015757D01*
X029475Y016249D02*
X027324Y016249D01*
X027324Y016151D02*
X031374Y016151D01*
X031374Y016052D02*
X027324Y016052D01*
X027324Y015954D02*
X031374Y015954D01*
X031974Y015954D02*
X032929Y015954D01*
X033028Y016052D02*
X031974Y016052D01*
X031974Y016151D02*
X033126Y016151D01*
X033225Y016249D02*
X031974Y016249D01*
X031974Y016348D02*
X033323Y016348D01*
X033422Y016446D02*
X031948Y016446D01*
X031878Y016545D02*
X033520Y016545D01*
X033639Y016643D02*
X031779Y016643D01*
X031662Y016742D02*
X034414Y016742D01*
X034414Y016840D02*
X029974Y016840D01*
X029974Y016939D02*
X034414Y016939D01*
X034414Y017037D02*
X029952Y017037D01*
X029887Y017136D02*
X034414Y017136D01*
X034414Y017234D02*
X027324Y017234D01*
X027324Y017136D02*
X029461Y017136D01*
X029396Y017037D02*
X027324Y017037D01*
X027324Y016939D02*
X029374Y016939D01*
X029374Y016840D02*
X027324Y016840D01*
X027324Y016742D02*
X029374Y016742D01*
X029374Y016643D02*
X027324Y016643D01*
X027324Y016545D02*
X029374Y016545D01*
X029374Y016446D02*
X027324Y016446D01*
X027324Y016348D02*
X029402Y016348D01*
X027324Y017333D02*
X034414Y017333D01*
X034414Y017431D02*
X027324Y017431D01*
X027324Y017530D02*
X032577Y017530D01*
X032574Y017628D02*
X027324Y017628D01*
X027324Y017727D02*
X032574Y017727D01*
X032574Y017825D02*
X027324Y017825D01*
X027324Y017924D02*
X032574Y017924D01*
X032574Y018022D02*
X027324Y018022D01*
X027324Y018121D02*
X032574Y018121D01*
X032574Y018219D02*
X027324Y018219D01*
X027324Y018318D02*
X032574Y018318D01*
X032575Y018416D02*
X027324Y018416D01*
X027417Y018482D02*
X027417Y018482D01*
X027417Y018482D01*
X027436Y018515D02*
X033751Y018515D01*
X033714Y018416D02*
X033573Y018416D01*
X033574Y018318D02*
X033716Y018318D01*
X033974Y018374D02*
X033974Y018074D01*
X033174Y018074D01*
X033074Y017974D01*
X033574Y017924D02*
X034406Y017924D01*
X034334Y017825D02*
X033574Y017825D01*
X033574Y017727D02*
X034314Y017727D01*
X034332Y017628D02*
X033574Y017628D01*
X033571Y017530D02*
X034401Y017530D01*
X034734Y017517D02*
X034794Y017577D01*
X034834Y017673D01*
X034834Y017776D01*
X034794Y017872D01*
X034742Y017924D01*
X036209Y017924D01*
X036295Y018022D02*
X035784Y018022D01*
X035774Y018012D02*
X035974Y018212D01*
X035974Y019224D01*
X036774Y019224D01*
X036774Y018572D01*
X035137Y016697D01*
X035115Y016674D01*
X034734Y016674D01*
X034734Y017517D01*
X034747Y017530D02*
X035865Y017530D01*
X035951Y017628D02*
X034816Y017628D01*
X034834Y017727D02*
X036037Y017727D01*
X036123Y017825D02*
X034813Y017825D01*
X034742Y017924D02*
X035686Y017924D01*
X035774Y018012D01*
X035883Y018121D02*
X036381Y018121D01*
X036467Y018219D02*
X035974Y018219D01*
X035974Y018318D02*
X036553Y018318D01*
X036639Y018416D02*
X035974Y018416D01*
X035974Y018515D02*
X036724Y018515D01*
X036774Y018613D02*
X035974Y018613D01*
X035974Y018712D02*
X036774Y018712D01*
X036774Y018810D02*
X035974Y018810D01*
X035974Y018909D02*
X036774Y018909D01*
X036774Y019007D02*
X035974Y019007D01*
X035974Y019106D02*
X036774Y019106D01*
X036774Y019204D02*
X035974Y019204D01*
X035674Y019204D02*
X035384Y019204D01*
X035384Y019106D02*
X035674Y019106D01*
X035674Y019007D02*
X035409Y019007D01*
X035470Y018909D02*
X035674Y018909D01*
X035674Y018810D02*
X035484Y018810D01*
X035459Y018712D02*
X035674Y018712D01*
X035674Y018613D02*
X035381Y018613D01*
X035674Y018515D02*
X034647Y018515D01*
X034625Y018613D02*
X035067Y018613D01*
X034989Y018712D02*
X034724Y018712D01*
X034822Y018810D02*
X034964Y018810D01*
X034978Y018909D02*
X034921Y018909D01*
X034924Y019007D02*
X035039Y019007D01*
X035064Y019106D02*
X034924Y019106D01*
X034924Y019204D02*
X035064Y019204D01*
X035064Y019303D02*
X034924Y019303D01*
X034924Y019401D02*
X035064Y019401D01*
X035064Y019500D02*
X034924Y019500D01*
X034924Y019598D02*
X035064Y019598D01*
X035064Y019697D02*
X034924Y019697D01*
X034924Y019795D02*
X035064Y019795D01*
X035064Y019894D02*
X034924Y019894D01*
X034924Y019992D02*
X035064Y019992D01*
X035064Y020091D02*
X034924Y020091D01*
X034924Y020189D02*
X035064Y020189D01*
X035064Y020288D02*
X034924Y020288D01*
X034924Y020386D02*
X035064Y020386D01*
X035064Y020485D02*
X034924Y020485D01*
X034924Y020583D02*
X035064Y020583D01*
X035064Y020682D02*
X034924Y020682D01*
X034924Y020780D02*
X035064Y020780D01*
X035064Y020879D02*
X034924Y020879D01*
X034924Y020977D02*
X035064Y020977D01*
X035064Y021076D02*
X034924Y021076D01*
X034924Y021174D02*
X035064Y021174D01*
X035064Y021273D02*
X034924Y021273D01*
X034924Y021371D02*
X035064Y021371D01*
X035064Y021470D02*
X034924Y021470D01*
X034924Y021568D02*
X035064Y021568D01*
X035064Y021667D02*
X034984Y021667D01*
X034824Y021874D02*
X034774Y021824D01*
X034774Y018974D01*
X034424Y018624D01*
X034424Y018374D01*
X034684Y018416D02*
X035674Y018416D01*
X035655Y018318D02*
X034682Y018318D01*
X034201Y018515D02*
X034197Y018515D01*
X034274Y018613D02*
X034076Y018613D01*
X033872Y018613D02*
X027493Y018613D01*
X027524Y018712D02*
X033176Y018712D01*
X033042Y018810D02*
X027524Y018810D01*
X027524Y018909D02*
X032998Y018909D01*
X032994Y019007D02*
X027524Y019007D01*
X027524Y019106D02*
X032994Y019106D01*
X032994Y019204D02*
X027524Y019204D01*
X027524Y019303D02*
X032994Y019303D01*
X032994Y019401D02*
X027524Y019401D01*
X027524Y019500D02*
X032994Y019500D01*
X032994Y019598D02*
X027524Y019598D01*
X027524Y019697D02*
X032994Y019697D01*
X032994Y019795D02*
X027524Y019795D01*
X027524Y019894D02*
X032994Y019894D01*
X032994Y019992D02*
X027524Y019992D01*
X027524Y020091D02*
X032994Y020091D01*
X032994Y020189D02*
X027524Y020189D01*
X027524Y020288D02*
X032994Y020288D01*
X032994Y020386D02*
X027524Y020386D01*
X027524Y020485D02*
X032994Y020485D01*
X032994Y020583D02*
X027524Y020583D01*
X027524Y020682D02*
X032994Y020682D01*
X032994Y020780D02*
X027524Y020780D01*
X027524Y020879D02*
X032994Y020879D01*
X032994Y020977D02*
X027524Y020977D01*
X027524Y021076D02*
X032994Y021076D01*
X032994Y021174D02*
X027524Y021174D01*
X027524Y021273D02*
X032994Y021273D01*
X032994Y021371D02*
X027524Y021371D01*
X027524Y021470D02*
X032994Y021470D01*
X032994Y021568D02*
X027524Y021568D01*
X027524Y021667D02*
X032994Y021667D01*
X032994Y021765D02*
X027524Y021765D01*
X027524Y021864D02*
X032994Y021864D01*
X032994Y021962D02*
X027524Y021962D01*
X027524Y022061D02*
X032994Y022061D01*
X032994Y022159D02*
X027524Y022159D01*
X027524Y022258D02*
X032994Y022258D01*
X032994Y022356D02*
X027524Y022356D01*
X027524Y022455D02*
X032994Y022455D01*
X032994Y022553D02*
X027524Y022553D01*
X027524Y022652D02*
X033024Y022652D01*
X033104Y022750D02*
X027524Y022750D01*
X027524Y022849D02*
X032889Y022849D01*
X032795Y022947D02*
X027524Y022947D01*
X027524Y023046D02*
X032764Y023046D01*
X032772Y023144D02*
X027524Y023144D01*
X027526Y023243D02*
X032825Y023243D01*
X033024Y023074D02*
X036974Y023074D01*
X037174Y022874D01*
X036820Y022374D02*
X037615Y022374D01*
X037674Y022433D01*
X037674Y023316D01*
X037657Y023332D01*
X040214Y023334D01*
X040214Y022574D01*
X040194Y022622D01*
X040121Y022695D01*
X039927Y022889D01*
X039832Y022928D01*
X039501Y022928D01*
X039439Y022990D01*
X039299Y023048D01*
X039148Y023048D01*
X039009Y022990D01*
X038902Y022883D01*
X038844Y022744D01*
X038844Y022593D01*
X038902Y022453D01*
X039009Y022346D01*
X039148Y022288D01*
X039299Y022288D01*
X039439Y022346D01*
X039501Y022408D01*
X039673Y022408D01*
X039714Y022367D01*
X039714Y016834D01*
X039465Y016834D01*
X039546Y016915D01*
X039604Y017055D01*
X039604Y017206D01*
X039546Y017346D01*
X039439Y017453D01*
X039327Y017499D01*
X039389Y017520D01*
X039449Y017550D01*
X039504Y017590D01*
X039552Y017638D01*
X039592Y017693D01*
X039622Y017753D01*
X039643Y017817D01*
X039654Y017884D01*
X039654Y017889D01*
X039253Y017889D01*
X039253Y017947D01*
X039654Y017947D01*
X039654Y017952D01*
X039643Y018019D01*
X039622Y018083D01*
X039592Y018143D01*
X039552Y018198D01*
X039504Y018246D01*
X039449Y018286D01*
X039389Y018317D01*
X039325Y018338D01*
X039258Y018348D01*
X039253Y018348D01*
X039253Y017947D01*
X039195Y017947D01*
X039195Y018348D01*
X039190Y018348D01*
X039123Y018338D01*
X039059Y018317D01*
X039025Y018299D01*
X039084Y018442D01*
X039084Y018729D01*
X038974Y018994D01*
X038772Y019197D01*
X038507Y019307D01*
X038220Y019307D01*
X037955Y019197D01*
X037752Y018994D01*
X037642Y018729D01*
X037642Y018442D01*
X037752Y018177D01*
X037955Y017975D01*
X038220Y017865D01*
X038507Y017865D01*
X038772Y017975D01*
X038802Y018005D01*
X038794Y017952D01*
X038794Y017947D01*
X039195Y017947D01*
X039195Y017889D01*
X038794Y017889D01*
X038794Y017884D01*
X038804Y017817D01*
X038825Y017753D01*
X038856Y017693D01*
X038896Y017638D01*
X038944Y017590D01*
X038999Y017550D01*
X039059Y017520D01*
X039121Y017499D01*
X039009Y017453D01*
X038902Y017346D01*
X038844Y017206D01*
X038844Y017055D01*
X038902Y016915D01*
X038983Y016834D01*
X036322Y016834D01*
X036227Y016795D01*
X035927Y016495D01*
X035853Y016422D01*
X035814Y016326D01*
X035823Y016348D02*
X035629Y016348D01*
X035615Y016331D02*
X037293Y018254D01*
X037328Y018289D01*
X037332Y018299D01*
X037339Y018307D01*
X037355Y018354D01*
X037374Y018399D01*
X037374Y018410D01*
X037377Y018420D01*
X037374Y018469D01*
X037374Y019584D01*
X037328Y019694D01*
X037244Y019779D01*
X037134Y019824D01*
X036374Y019824D01*
X036374Y020324D01*
X036865Y020324D01*
X036924Y020383D01*
X036924Y021066D01*
X036865Y021124D01*
X036374Y021124D01*
X036374Y021657D01*
X036444Y021727D01*
X036484Y021823D01*
X036484Y021918D01*
X036665Y021737D01*
X036768Y021694D01*
X038890Y021694D01*
X038902Y021665D01*
X039009Y021559D01*
X039148Y021501D01*
X039299Y021501D01*
X039439Y021559D01*
X039546Y021665D01*
X039604Y021805D01*
X039604Y021956D01*
X039546Y022096D01*
X039439Y022203D01*
X039299Y022261D01*
X039148Y022261D01*
X039133Y022254D01*
X036940Y022254D01*
X036820Y022374D01*
X036838Y022356D02*
X038998Y022356D01*
X038901Y022455D02*
X037674Y022455D01*
X037674Y022553D02*
X038860Y022553D01*
X038844Y022652D02*
X037674Y022652D01*
X037674Y022750D02*
X038847Y022750D01*
X038888Y022849D02*
X037674Y022849D01*
X037674Y022947D02*
X038966Y022947D01*
X039143Y023046D02*
X037674Y023046D01*
X037674Y023144D02*
X040214Y023144D01*
X040214Y023046D02*
X039305Y023046D01*
X039482Y022947D02*
X040214Y022947D01*
X040214Y022849D02*
X039967Y022849D01*
X040066Y022750D02*
X040214Y022750D01*
X040214Y022652D02*
X040164Y022652D01*
X039714Y022356D02*
X039450Y022356D01*
X039306Y022258D02*
X039714Y022258D01*
X039714Y022159D02*
X039483Y022159D01*
X039561Y022061D02*
X039714Y022061D01*
X039714Y021962D02*
X039601Y021962D01*
X039604Y021864D02*
X039714Y021864D01*
X039714Y021765D02*
X039587Y021765D01*
X039547Y021667D02*
X039714Y021667D01*
X039714Y021568D02*
X039449Y021568D01*
X039714Y021470D02*
X036374Y021470D01*
X036374Y021568D02*
X038999Y021568D01*
X038901Y021667D02*
X036384Y021667D01*
X036460Y021765D02*
X036637Y021765D01*
X036538Y021864D02*
X036484Y021864D01*
X036224Y021874D02*
X036224Y022074D01*
X035924Y022374D01*
X033824Y022374D01*
X033591Y022258D02*
X033554Y022258D01*
X033554Y022356D02*
X033564Y022356D01*
X033554Y022159D02*
X033671Y022159D01*
X033554Y022061D02*
X034643Y022061D01*
X034579Y021962D02*
X033554Y021962D01*
X033554Y021864D02*
X034564Y021864D01*
X034588Y021765D02*
X033554Y021765D01*
X033554Y021667D02*
X034624Y021667D01*
X034624Y021568D02*
X033554Y021568D01*
X033554Y021470D02*
X034624Y021470D01*
X034624Y021371D02*
X033554Y021371D01*
X033554Y021273D02*
X034624Y021273D01*
X034624Y021174D02*
X033554Y021174D01*
X033554Y021076D02*
X034624Y021076D01*
X034624Y020977D02*
X033554Y020977D01*
X033554Y020879D02*
X034624Y020879D01*
X034624Y020780D02*
X033554Y020780D01*
X033554Y020682D02*
X034624Y020682D01*
X034624Y020583D02*
X033554Y020583D01*
X033554Y020485D02*
X034624Y020485D01*
X034624Y020386D02*
X033554Y020386D01*
X033554Y020288D02*
X034624Y020288D01*
X034624Y020189D02*
X033554Y020189D01*
X033554Y020091D02*
X034624Y020091D01*
X034624Y019992D02*
X033554Y019992D01*
X033554Y019894D02*
X034624Y019894D01*
X034624Y019795D02*
X033554Y019795D01*
X033554Y019697D02*
X034624Y019697D01*
X034624Y019598D02*
X033554Y019598D01*
X033554Y019500D02*
X034624Y019500D01*
X034624Y019401D02*
X033554Y019401D01*
X033554Y019303D02*
X034624Y019303D01*
X034624Y019204D02*
X033554Y019204D01*
X033554Y019106D02*
X034624Y019106D01*
X034595Y019007D02*
X033554Y019007D01*
X033550Y018909D02*
X034496Y018909D01*
X034398Y018810D02*
X033506Y018810D01*
X033372Y018712D02*
X034299Y018712D01*
X033974Y018074D02*
X035624Y018074D01*
X035824Y018274D01*
X035824Y019524D01*
X035550Y019401D02*
X035384Y019401D01*
X035384Y019303D02*
X035621Y019303D01*
X035524Y019500D02*
X035384Y019500D01*
X035384Y019598D02*
X035530Y019598D01*
X035572Y019697D02*
X035384Y019697D01*
X035384Y019795D02*
X035694Y019795D01*
X035384Y019894D02*
X036074Y019894D01*
X036074Y019992D02*
X035384Y019992D01*
X035384Y020091D02*
X036074Y020091D01*
X036074Y020189D02*
X035384Y020189D01*
X035384Y020288D02*
X036074Y020288D01*
X036374Y020288D02*
X039195Y020288D01*
X039195Y020297D02*
X039195Y020239D01*
X038794Y020239D01*
X038794Y020234D01*
X038804Y020167D01*
X038825Y020103D01*
X038856Y020043D01*
X038896Y019988D01*
X038944Y019940D01*
X038999Y019900D01*
X039059Y019870D01*
X039121Y019849D01*
X039009Y019803D01*
X038902Y019696D01*
X038844Y019556D01*
X038844Y019405D01*
X038902Y019265D01*
X039009Y019159D01*
X039148Y019101D01*
X039299Y019101D01*
X039439Y019159D01*
X039546Y019265D01*
X039604Y019405D01*
X039604Y019556D01*
X039546Y019696D01*
X039439Y019803D01*
X039327Y019849D01*
X039389Y019870D01*
X039449Y019900D01*
X039504Y019940D01*
X039552Y019988D01*
X039592Y020043D01*
X039622Y020103D01*
X039643Y020167D01*
X039654Y020234D01*
X039654Y020239D01*
X039253Y020239D01*
X039253Y020297D01*
X039654Y020297D01*
X039654Y020302D01*
X039643Y020369D01*
X039622Y020433D01*
X039592Y020493D01*
X039552Y020548D01*
X039504Y020596D01*
X039449Y020636D01*
X039389Y020667D01*
X039325Y020688D01*
X039258Y020698D01*
X039253Y020698D01*
X039253Y020297D01*
X039195Y020297D01*
X039195Y020698D01*
X039190Y020698D01*
X039123Y020688D01*
X039059Y020667D01*
X038999Y020636D01*
X038944Y020596D01*
X038896Y020548D01*
X038856Y020493D01*
X038825Y020433D01*
X038804Y020369D01*
X038794Y020302D01*
X038794Y020297D01*
X039195Y020297D01*
X039253Y020288D02*
X039714Y020288D01*
X039714Y020386D02*
X039638Y020386D01*
X039596Y020485D02*
X039714Y020485D01*
X039714Y020583D02*
X039517Y020583D01*
X039342Y020682D02*
X039714Y020682D01*
X039714Y020780D02*
X036924Y020780D01*
X036924Y020682D02*
X039106Y020682D01*
X039195Y020682D02*
X039253Y020682D01*
X039253Y020583D02*
X039195Y020583D01*
X039195Y020485D02*
X039253Y020485D01*
X039253Y020386D02*
X039195Y020386D01*
X038931Y020583D02*
X036924Y020583D01*
X036924Y020485D02*
X038852Y020485D01*
X038810Y020386D02*
X036924Y020386D01*
X036374Y020189D02*
X038801Y020189D01*
X038832Y020091D02*
X036374Y020091D01*
X036374Y019992D02*
X038893Y019992D01*
X039011Y019894D02*
X036374Y019894D01*
X036224Y019624D02*
X036324Y019524D01*
X036224Y019624D02*
X036224Y021874D01*
X035988Y021765D02*
X035531Y021765D01*
X035534Y021864D02*
X035964Y021864D01*
X035979Y021962D02*
X035498Y021962D01*
X035382Y022061D02*
X036025Y022061D01*
X035927Y022159D02*
X033977Y022159D01*
X033202Y022849D02*
X033159Y022849D01*
X035005Y022061D02*
X035166Y022061D01*
X035484Y021667D02*
X036064Y021667D01*
X036074Y021568D02*
X035384Y021568D01*
X035384Y021470D02*
X036074Y021470D01*
X036074Y021371D02*
X035384Y021371D01*
X035384Y021273D02*
X036074Y021273D01*
X036074Y021174D02*
X035384Y021174D01*
X035384Y021076D02*
X035484Y021076D01*
X035474Y020977D02*
X035384Y020977D01*
X035384Y020879D02*
X035474Y020879D01*
X035474Y020780D02*
X035384Y020780D01*
X035384Y020682D02*
X035474Y020682D01*
X035474Y020583D02*
X035384Y020583D01*
X035384Y020485D02*
X035474Y020485D01*
X035474Y020386D02*
X035384Y020386D01*
X036374Y021174D02*
X039714Y021174D01*
X039714Y021076D02*
X036914Y021076D01*
X036924Y020977D02*
X039714Y020977D01*
X039714Y020879D02*
X036924Y020879D01*
X036374Y021273D02*
X039714Y021273D01*
X039714Y021371D02*
X036374Y021371D01*
X036936Y022258D02*
X039142Y022258D01*
X040214Y023243D02*
X037674Y023243D01*
X039647Y020189D02*
X039714Y020189D01*
X039714Y020091D02*
X039616Y020091D01*
X039555Y019992D02*
X039714Y019992D01*
X039714Y019894D02*
X039437Y019894D01*
X039447Y019795D02*
X039714Y019795D01*
X039714Y019697D02*
X039545Y019697D01*
X039586Y019598D02*
X039714Y019598D01*
X039714Y019500D02*
X039604Y019500D01*
X039602Y019401D02*
X039714Y019401D01*
X039714Y019303D02*
X039562Y019303D01*
X039485Y019204D02*
X039714Y019204D01*
X039714Y019106D02*
X039312Y019106D01*
X039136Y019106D02*
X038863Y019106D01*
X038961Y019007D02*
X039714Y019007D01*
X039714Y018909D02*
X039010Y018909D01*
X039050Y018810D02*
X039714Y018810D01*
X039714Y018712D02*
X039084Y018712D01*
X039084Y018613D02*
X039714Y018613D01*
X039714Y018515D02*
X039084Y018515D01*
X039073Y018416D02*
X039714Y018416D01*
X039714Y018318D02*
X039385Y018318D01*
X039253Y018318D02*
X039195Y018318D01*
X039195Y018219D02*
X039253Y018219D01*
X039253Y018121D02*
X039195Y018121D01*
X039195Y018022D02*
X039253Y018022D01*
X039253Y017924D02*
X039714Y017924D01*
X039714Y018022D02*
X039642Y018022D01*
X039603Y018121D02*
X039714Y018121D01*
X039714Y018219D02*
X039531Y018219D01*
X039645Y017825D02*
X039714Y017825D01*
X039714Y017727D02*
X039609Y017727D01*
X039542Y017628D02*
X039714Y017628D01*
X039714Y017530D02*
X039409Y017530D01*
X039461Y017431D02*
X039714Y017431D01*
X039714Y017333D02*
X039551Y017333D01*
X039592Y017234D02*
X039714Y017234D01*
X039714Y017136D02*
X039604Y017136D01*
X039597Y017037D02*
X039714Y017037D01*
X039714Y016939D02*
X039556Y016939D01*
X039471Y016840D02*
X039714Y016840D01*
X038977Y016840D02*
X036059Y016840D01*
X035973Y016742D02*
X036174Y016742D01*
X036075Y016643D02*
X035887Y016643D01*
X035801Y016545D02*
X035977Y016545D01*
X035878Y016446D02*
X035715Y016446D01*
X035615Y016331D02*
X035611Y016322D01*
X035576Y016287D01*
X035543Y016249D01*
X035440Y016151D02*
X035814Y016151D01*
X035814Y016052D02*
X033876Y016052D01*
X033922Y015984D02*
X033827Y015945D01*
X033753Y015872D01*
X033714Y015776D01*
X033714Y015673D01*
X033753Y015577D01*
X033827Y015504D01*
X033922Y015464D01*
X034026Y015464D01*
X034121Y015504D01*
X034162Y015544D01*
X034244Y015544D01*
X034244Y014362D01*
X034203Y014322D01*
X034164Y014226D01*
X034164Y014123D01*
X034203Y014027D01*
X034277Y013954D01*
X034372Y013914D01*
X034476Y013914D01*
X034571Y013954D01*
X034644Y014027D01*
X034684Y014123D01*
X034684Y014226D01*
X034644Y014322D01*
X034604Y014362D01*
X034604Y015699D01*
X034398Y015904D01*
X034162Y015904D01*
X034121Y015945D01*
X034026Y015984D01*
X033922Y015984D01*
X033849Y015954D02*
X033778Y015954D01*
X033747Y015855D02*
X033679Y015855D01*
X033714Y015757D02*
X033581Y015757D01*
X033482Y015658D02*
X033720Y015658D01*
X033771Y015560D02*
X033384Y015560D01*
X033285Y015461D02*
X034244Y015461D01*
X034244Y015363D02*
X033177Y015363D01*
X032924Y015264D02*
X034244Y015264D01*
X034244Y015166D02*
X032924Y015166D01*
X032884Y015067D02*
X034244Y015067D01*
X034244Y014969D02*
X032791Y014969D01*
X032457Y014969D02*
X032004Y014969D01*
X031974Y015067D02*
X032364Y015067D01*
X032324Y015166D02*
X031974Y015166D01*
X031974Y015264D02*
X032324Y015264D01*
X032324Y015363D02*
X031974Y015363D01*
X031974Y015461D02*
X032324Y015461D01*
X032324Y015560D02*
X031974Y015560D01*
X031974Y015658D02*
X032324Y015658D01*
X032354Y015757D02*
X031974Y015757D01*
X031974Y015855D02*
X032431Y015855D01*
X032102Y014870D02*
X034244Y014870D01*
X034244Y014772D02*
X032201Y014772D01*
X032299Y014673D02*
X034244Y014673D01*
X034244Y014575D02*
X032398Y014575D01*
X031943Y014181D02*
X028492Y014181D01*
X028590Y014082D02*
X032042Y014082D01*
X032140Y013984D02*
X030989Y013984D01*
X030559Y013984D02*
X028689Y013984D01*
X028787Y013885D02*
X030495Y013885D01*
X030474Y013787D02*
X028886Y013787D01*
X028984Y013688D02*
X030474Y013688D01*
X031648Y014476D02*
X028196Y014476D01*
X028295Y014378D02*
X031746Y014378D01*
X031845Y014279D02*
X028393Y014279D01*
X028098Y014575D02*
X031549Y014575D01*
X031451Y014673D02*
X027999Y014673D01*
X027901Y014772D02*
X031392Y014772D01*
X033996Y014476D02*
X034244Y014476D01*
X034244Y014378D02*
X034085Y014378D01*
X034124Y014279D02*
X034186Y014279D01*
X034164Y014181D02*
X034124Y014181D01*
X034090Y014082D02*
X034181Y014082D01*
X034247Y013984D02*
X034008Y013984D01*
X034601Y013984D02*
X035814Y013984D01*
X035814Y014082D02*
X034667Y014082D01*
X034684Y014181D02*
X035814Y014181D01*
X035814Y014279D02*
X034662Y014279D01*
X034604Y014378D02*
X035814Y014378D01*
X035814Y014476D02*
X034604Y014476D01*
X034604Y014575D02*
X035814Y014575D01*
X035814Y014673D02*
X034604Y014673D01*
X034604Y014772D02*
X035814Y014772D01*
X035814Y014870D02*
X034604Y014870D01*
X034604Y014969D02*
X035814Y014969D01*
X035814Y015067D02*
X034604Y015067D01*
X034604Y015166D02*
X035814Y015166D01*
X035814Y015264D02*
X034604Y015264D01*
X034604Y015363D02*
X035814Y015363D01*
X035814Y015461D02*
X034604Y015461D01*
X034604Y015560D02*
X035814Y015560D01*
X035814Y015658D02*
X034604Y015658D01*
X034546Y015757D02*
X035814Y015757D01*
X035814Y015855D02*
X034447Y015855D01*
X034099Y015954D02*
X035814Y015954D01*
X035177Y016742D02*
X034734Y016742D01*
X034734Y016840D02*
X035263Y016840D01*
X035349Y016939D02*
X034734Y016939D01*
X034734Y017037D02*
X035435Y017037D01*
X035521Y017136D02*
X034734Y017136D01*
X034734Y017234D02*
X035607Y017234D01*
X035693Y017333D02*
X034734Y017333D01*
X034734Y017431D02*
X035779Y017431D01*
X036231Y017037D02*
X038851Y017037D01*
X038844Y017136D02*
X036317Y017136D01*
X036403Y017234D02*
X038856Y017234D01*
X038896Y017333D02*
X036489Y017333D01*
X036575Y017431D02*
X038987Y017431D01*
X039039Y017530D02*
X036661Y017530D01*
X036747Y017628D02*
X038905Y017628D01*
X038839Y017727D02*
X036833Y017727D01*
X036919Y017825D02*
X038803Y017825D01*
X038649Y017924D02*
X039195Y017924D01*
X039063Y018318D02*
X039033Y018318D01*
X038077Y017924D02*
X037005Y017924D01*
X037091Y018022D02*
X037907Y018022D01*
X037809Y018121D02*
X037177Y018121D01*
X037263Y018219D02*
X037735Y018219D01*
X037694Y018318D02*
X037343Y018318D01*
X037376Y018416D02*
X037653Y018416D01*
X037642Y018515D02*
X037374Y018515D01*
X037374Y018613D02*
X037642Y018613D01*
X037642Y018712D02*
X037374Y018712D01*
X037374Y018810D02*
X037676Y018810D01*
X037717Y018909D02*
X037374Y018909D01*
X037374Y019007D02*
X037765Y019007D01*
X037864Y019106D02*
X037374Y019106D01*
X037374Y019204D02*
X037973Y019204D01*
X038211Y019303D02*
X037374Y019303D01*
X037374Y019401D02*
X038845Y019401D01*
X038844Y019500D02*
X037374Y019500D01*
X037368Y019598D02*
X038861Y019598D01*
X038903Y019697D02*
X037326Y019697D01*
X037203Y019795D02*
X039001Y019795D01*
X038886Y019303D02*
X038516Y019303D01*
X038753Y019204D02*
X038963Y019204D01*
X038892Y016939D02*
X036145Y016939D01*
X035814Y013294D02*
X034840Y013294D01*
X034869Y013196D02*
X035814Y013196D01*
X035814Y013097D02*
X035177Y013097D01*
X035276Y012999D02*
X035814Y012999D01*
X035814Y012900D02*
X035516Y012900D01*
X035573Y012802D02*
X035814Y012802D01*
X035814Y012703D02*
X035584Y012703D01*
X035556Y012605D02*
X035814Y012605D01*
X035814Y012506D02*
X035474Y012506D01*
X035740Y012408D02*
X034384Y012408D01*
X034482Y012506D02*
X035174Y012506D01*
X035092Y012605D02*
X034484Y012605D01*
X034869Y012703D02*
X035064Y012703D01*
X035020Y012802D02*
X034869Y012802D01*
X026452Y014870D02*
X024646Y014870D01*
X024745Y014969D02*
X026353Y014969D01*
X017824Y016474D02*
X017824Y017224D01*
X016074Y018974D01*
X014374Y018974D01*
X012924Y020424D01*
X010324Y017824D01*
X010324Y012974D01*
X022079Y008241D02*
X022079Y008074D01*
X022924Y008074D01*
X023164Y008208D02*
X022958Y008414D01*
X022904Y008414D01*
X022904Y008376D01*
X022623Y008094D01*
X022225Y008094D01*
X022079Y008241D01*
X022079Y008172D02*
X022147Y008172D01*
X022898Y008369D02*
X023003Y008369D01*
X009892Y022926D02*
X009724Y023024D01*
D27*
X034324Y019474D03*
D28*
X033674Y018724D03*
X033974Y018374D03*
X034424Y018374D03*
X034924Y018524D03*
X035224Y018824D03*
X035824Y019524D03*
X036324Y019524D03*
X036674Y019524D03*
X036424Y018474D03*
X034574Y017724D03*
X033324Y016824D03*
X032724Y017074D03*
X032674Y016174D03*
X032624Y015624D03*
X032624Y015224D03*
X033974Y015724D03*
X034424Y014174D03*
X035324Y012724D03*
X033974Y012474D03*
X032124Y012424D03*
X030974Y012924D03*
X030774Y013374D03*
X030774Y013774D03*
X030124Y014674D03*
X029674Y014724D03*
X029624Y014124D03*
X028674Y014424D03*
X027724Y015174D03*
X027624Y015524D03*
X028824Y015974D03*
X029674Y015624D03*
X030824Y015724D03*
X029674Y016474D03*
X029674Y016924D03*
X026274Y014874D03*
X025424Y014574D03*
X024474Y013824D03*
X026074Y013724D03*
X026874Y013724D03*
X028224Y012924D03*
X028224Y012524D03*
X030524Y011324D03*
X030974Y011324D03*
X028774Y010924D03*
X028424Y010924D03*
X026574Y010474D03*
X026124Y010944D03*
X025673Y010924D03*
X025024Y010324D03*
X025374Y009924D03*
X025224Y009324D03*
X023624Y009674D03*
X023524Y011124D03*
X023974Y011124D03*
X022724Y011124D03*
X022874Y012824D03*
X022124Y013324D03*
X020874Y013724D03*
X020624Y014074D03*
X020974Y014374D03*
X019824Y013374D03*
X019824Y012724D03*
X023374Y014874D03*
X024674Y012774D03*
X026874Y009624D03*
X026724Y008024D03*
X027324Y007974D03*
X027724Y007974D03*
X026074Y008024D03*
X024824Y006824D03*
X024824Y006374D03*
X023374Y005174D03*
X026774Y006274D03*
X027674Y005774D03*
X027324Y002974D03*
X022874Y008074D03*
X015124Y012224D03*
X015124Y012724D03*
X015824Y012974D03*
X013824Y012224D03*
X012824Y012724D03*
X011724Y012874D03*
X011174Y012874D03*
X010324Y012974D03*
X009824Y012974D03*
X011474Y013724D03*
X009824Y014074D03*
X009974Y015574D03*
X007824Y014074D03*
X009824Y011724D03*
X010324Y011724D03*
X010824Y011724D03*
X011274Y011724D03*
X011724Y011724D03*
X009824Y010874D03*
X011724Y010474D03*
X015324Y015624D03*
X021524Y017474D03*
X032524Y021574D03*
X033824Y022374D03*
X033024Y023074D03*
X034824Y021874D03*
X035274Y021824D03*
X034374Y021624D03*
X036224Y021874D03*
D29*
X035274Y021824D02*
X035224Y021774D01*
X035224Y018824D01*
X034574Y017724D02*
X034574Y016374D01*
X031674Y014974D02*
X029874Y014974D01*
X029674Y015174D01*
X029674Y015624D01*
X029867Y015813D02*
X031324Y015813D01*
X031324Y015931D02*
X027624Y015931D01*
X027624Y015813D02*
X029481Y015813D01*
X029445Y015777D02*
X029404Y015678D01*
X029404Y015571D01*
X029445Y015471D01*
X029504Y015413D01*
X029504Y015224D01*
X029424Y015224D01*
X029274Y015374D01*
X028674Y015374D01*
X028674Y014824D01*
X029224Y014274D01*
X029224Y013974D01*
X028712Y013974D01*
X027624Y015063D01*
X027624Y016224D01*
X029486Y016224D01*
X029498Y016212D01*
X029612Y016164D01*
X031324Y016164D01*
X031324Y015474D01*
X031074Y015224D01*
X029864Y015224D01*
X029844Y015245D01*
X029844Y015413D01*
X029903Y015471D01*
X029944Y015571D01*
X029944Y015678D01*
X029903Y015777D01*
X029827Y015853D01*
X029728Y015894D01*
X029620Y015894D01*
X029521Y015853D01*
X029445Y015777D01*
X029411Y015694D02*
X027624Y015694D01*
X027624Y015576D02*
X029404Y015576D01*
X029459Y015457D02*
X027624Y015457D01*
X027624Y015339D02*
X028674Y015339D01*
X028674Y015220D02*
X027624Y015220D01*
X027624Y015102D02*
X028674Y015102D01*
X028674Y014983D02*
X027703Y014983D01*
X027822Y014865D02*
X028674Y014865D01*
X028752Y014746D02*
X027940Y014746D01*
X028059Y014628D02*
X028870Y014628D01*
X028989Y014509D02*
X028177Y014509D01*
X028296Y014391D02*
X029107Y014391D01*
X029224Y014272D02*
X028414Y014272D01*
X028533Y014154D02*
X029224Y014154D01*
X029224Y014035D02*
X028651Y014035D01*
X029309Y015339D02*
X029504Y015339D01*
X029844Y015339D02*
X031188Y015339D01*
X031307Y015457D02*
X029889Y015457D01*
X029944Y015576D02*
X031324Y015576D01*
X031324Y015694D02*
X029937Y015694D01*
X029603Y016168D02*
X027624Y016168D01*
X027624Y016050D02*
X031324Y016050D01*
X033624Y012974D02*
X034004Y012974D01*
X034324Y012974D02*
X034324Y012574D01*
X034224Y012474D01*
X033974Y012474D01*
X033524Y012374D02*
X033524Y012874D01*
X033624Y012974D01*
X033524Y012374D02*
X032474Y011324D01*
X030974Y011324D01*
X032124Y012424D02*
X028524Y012424D01*
X027474Y011374D01*
X027474Y008324D01*
X027324Y008324D01*
X027324Y007974D01*
X027324Y008324D02*
X026274Y008324D01*
X026074Y008124D01*
X026074Y008024D01*
X024574Y009224D02*
X024574Y010774D01*
X024723Y010924D01*
X025673Y010924D01*
X025674Y010474D02*
X026124Y010924D01*
X026324Y011474D02*
X024224Y011474D01*
X022874Y012824D01*
X022574Y013724D02*
X023274Y013724D01*
X024774Y015224D01*
X025574Y015224D01*
X025824Y015474D01*
X025824Y016474D01*
X026324Y017074D02*
X026124Y017274D01*
X025424Y017274D01*
X025274Y017124D01*
X025274Y015574D01*
X025174Y015474D01*
X024574Y015474D01*
X023174Y014074D01*
X020624Y014074D01*
X020974Y014374D02*
X022874Y014374D01*
X023374Y014874D01*
X021574Y014724D02*
X020574Y014724D01*
X020324Y014474D01*
X020324Y013224D01*
X019824Y012724D01*
X019824Y013374D02*
X019824Y014724D01*
X020824Y015724D01*
X020824Y016374D01*
X020824Y017224D01*
X021124Y017524D01*
X021124Y017574D01*
X017824Y020724D02*
X017024Y019924D01*
X016724Y019924D01*
X017824Y020724D02*
X017824Y021424D01*
X013824Y016474D02*
X013824Y012224D01*
X014174Y011824D02*
X013224Y011824D01*
X011824Y013224D01*
X011824Y016474D01*
X012824Y016374D02*
X012824Y012724D01*
X012124Y012574D02*
X011024Y012574D01*
X010824Y012774D01*
X010824Y016374D01*
X009974Y015574D02*
X009974Y014224D01*
X009824Y014074D01*
X009824Y012974D01*
X011474Y013124D02*
X011474Y013724D01*
X011474Y013124D02*
X011724Y012874D01*
X012124Y012574D02*
X013224Y011474D01*
X013524Y011474D01*
X014424Y010574D01*
X015424Y010574D02*
X014174Y011824D01*
X014824Y011724D02*
X014824Y016374D01*
X015324Y015624D02*
X015326Y015601D01*
X015331Y015578D01*
X015340Y015556D01*
X015353Y015536D01*
X015368Y015518D01*
X015386Y015503D01*
X015406Y015490D01*
X015428Y015481D01*
X015451Y015476D01*
X015474Y015474D01*
X015824Y015474D01*
X015824Y012974D01*
X015574Y012724D02*
X015124Y012724D01*
X015574Y012724D02*
X016574Y011724D01*
X019274Y011724D01*
X020424Y010574D01*
X019424Y010574D02*
X019424Y010624D01*
X018574Y011474D01*
X015874Y011474D01*
X015124Y012224D01*
X014824Y011724D02*
X015324Y011224D01*
X017774Y011224D01*
X018424Y010574D01*
X022424Y008574D02*
X023024Y008574D01*
X023324Y008274D01*
X023624Y008274D01*
X024574Y009224D01*
X023624Y009674D02*
X023274Y009674D01*
X022924Y010024D01*
X022924Y010174D01*
X025024Y010324D02*
X025174Y010474D01*
X025674Y010474D01*
X026324Y011474D02*
X026874Y010924D01*
X026874Y009624D01*
X028624Y012924D02*
X026324Y015224D01*
X026324Y017074D01*
X028624Y012924D02*
X030974Y012924D01*
X034644Y012974D02*
X035074Y012974D01*
X035324Y012724D01*
X027324Y003974D02*
X026324Y003974D01*
X025824Y003474D01*
X025824Y002990D01*
X027324Y002974D02*
X027324Y003654D01*
X011724Y010474D02*
X011724Y011724D01*
X011274Y011724D02*
X011274Y010824D01*
X008193Y007743D01*
X007824Y007743D01*
X007824Y008531D02*
X008630Y008531D01*
X010824Y010724D01*
X010824Y011724D01*
X010324Y011724D02*
X010324Y010724D01*
X008918Y009318D01*
X007824Y009318D01*
X009824Y010874D02*
X009824Y011724D01*
X008574Y014274D02*
X007074Y012774D01*
X007074Y004443D01*
X007824Y003693D01*
X009793Y001724D01*
X010574Y001724D01*
X007824Y014074D02*
X007824Y016474D01*
X007824Y020424D01*
X008824Y021424D01*
X008824Y016374D02*
X008574Y016124D01*
X008574Y014274D01*
D30*
X007974Y012568D02*
X007918Y012568D01*
X007374Y012024D01*
X007374Y010124D01*
X007393Y010106D01*
X007824Y010106D01*
X007374Y010124D02*
X007374Y006374D01*
X007693Y006056D01*
X007824Y006056D01*
X012424Y010574D02*
X012424Y011874D01*
X012074Y012224D01*
X009324Y012224D01*
X008318Y012224D01*
X007974Y012568D01*
X009324Y012224D02*
X009324Y021924D01*
X009824Y022424D01*
X033974Y015724D02*
X034324Y015724D01*
X034424Y015624D01*
X034424Y014174D01*
D31*
X023274Y015674D02*
X022324Y014724D01*
X021574Y014724D01*
X020874Y013724D02*
X022574Y013724D01*
X022124Y013324D02*
X022024Y013224D01*
X022024Y010224D01*
X021924Y010124D01*
X021924Y007274D01*
X022124Y007074D01*
X022974Y007074D01*
X023374Y006674D01*
X023374Y005174D01*
X024824Y006374D02*
X024824Y003224D01*
X023324Y001724D01*
X010574Y001724D01*
X020024Y011974D02*
X021424Y010574D01*
X020024Y011974D02*
X016824Y011974D01*
X016324Y012474D01*
X016324Y016964D01*
X015963Y017324D01*
X015624Y017324D01*
X015074Y017224D02*
X015824Y016474D01*
X015074Y017224D02*
X011524Y017224D01*
X011324Y017024D01*
X011324Y015774D01*
X011174Y015624D01*
X011174Y012874D01*
X018824Y016374D02*
X018824Y017224D01*
X019574Y017974D01*
X021224Y017974D01*
X021524Y017674D01*
X021524Y017474D01*
X021824Y017724D02*
X020324Y019224D01*
X016974Y019224D01*
X016324Y019874D01*
X016324Y021924D01*
X015824Y022424D01*
X016824Y021424D02*
X016824Y020424D01*
X018324Y019424D02*
X020474Y019424D01*
X022824Y017074D01*
X022824Y016374D01*
X023274Y016974D02*
X023274Y015674D01*
X021824Y016474D02*
X021824Y017724D01*
X023274Y016974D02*
X019324Y020924D01*
X019324Y021624D01*
X019824Y022124D01*
X019824Y022424D01*
X018324Y021924D02*
X018324Y019424D01*
X016324Y017674D02*
X015574Y018424D01*
X013824Y018424D01*
X013674Y017824D02*
X012824Y018674D01*
X013674Y017824D02*
X015724Y017824D01*
X016324Y017674D02*
X016574Y017674D01*
X012924Y020424D02*
X012924Y021274D01*
X012824Y021424D01*
X017824Y022424D02*
X018324Y021924D01*
D32*
X016824Y020424D03*
X016724Y019924D03*
X013824Y018424D03*
X012824Y018674D03*
X011324Y017024D03*
X015624Y017324D03*
X015724Y017824D03*
X016574Y017674D03*
X021124Y017574D03*
D33*
X021424Y008574D03*
X020424Y008574D03*
X020424Y007574D03*
X021424Y007574D03*
X021424Y006574D03*
X022424Y006574D03*
X022424Y005574D03*
X021424Y005574D03*
X020424Y005574D03*
X020424Y006574D03*
X018424Y006574D03*
X017424Y006574D03*
X016424Y006574D03*
X015424Y006574D03*
X014424Y006574D03*
X013424Y006574D03*
X012424Y006574D03*
X012424Y005574D03*
X013424Y005574D03*
X014424Y005574D03*
X015424Y005574D03*
X016424Y005574D03*
X017424Y005574D03*
X018424Y005574D03*
X018424Y004574D03*
X018424Y003574D03*
X018424Y002574D03*
X016424Y003574D03*
X014424Y003574D03*
X014424Y004574D03*
X012424Y003574D03*
X014424Y002574D03*
X010424Y002574D03*
X010424Y003574D03*
X010424Y004574D03*
X010424Y005574D03*
X010424Y006574D03*
X010424Y007574D03*
X010424Y008574D03*
X011424Y008574D03*
X012424Y008574D03*
X013424Y008574D03*
X014424Y008574D03*
X015424Y008574D03*
X015424Y007574D03*
X014424Y007574D03*
X013424Y007574D03*
X012424Y007574D03*
X016424Y007574D03*
X017424Y007574D03*
X018424Y007574D03*
X018424Y008574D03*
X019424Y008574D03*
X022424Y004574D03*
X022424Y003574D03*
X022424Y002574D03*
X020424Y003574D03*
D34*
X021424Y003574D03*
X021424Y004574D03*
X020424Y004574D03*
X019424Y004574D03*
X019424Y003574D03*
X019424Y002574D03*
X020424Y002574D03*
X021424Y002574D03*
X017424Y002574D03*
X016424Y002574D03*
X015424Y002574D03*
X015424Y003574D03*
X015424Y004574D03*
X016424Y004574D03*
X017424Y004574D03*
X017424Y003574D03*
X019424Y005574D03*
X019424Y006574D03*
X019424Y007574D03*
X013424Y004574D03*
X012424Y004574D03*
X011424Y004574D03*
X011424Y003574D03*
X011424Y002574D03*
X012424Y002574D03*
X013424Y002574D03*
X013424Y003574D03*
X011424Y005574D03*
X011424Y006574D03*
X011424Y007574D03*
D35*
X033424Y014224D03*
X033824Y014224D03*
X033274Y019024D03*
X033274Y019424D03*
D36*
X022424Y009574D03*
X022424Y008574D03*
X022424Y007574D03*
D37*
X012924Y020424D03*
D38*
X028424Y010924D02*
X032874Y010924D01*
X034024Y012074D01*
X035774Y012074D01*
X036074Y012374D01*
X036074Y016274D01*
X036374Y016574D01*
X039824Y016574D01*
X039974Y016724D01*
X039974Y022474D01*
X039780Y022668D01*
X039224Y022668D01*
D39*
X039130Y021974D02*
X039224Y021881D01*
X039130Y021974D02*
X036824Y021974D01*
X036024Y022774D01*
X033524Y022774D01*
X033274Y022524D01*
X033274Y019424D01*
X033274Y018974D01*
M02*
