G75*
G70*
%OFA0B0*%
%FSLAX24Y24*%
%IPPOS*%
%LPD*%
%AMOC8*
5,1,8,0,0,1.08239X$1,22.5*
%
%ADD10C,0.0120*%
%ADD11C,0.0100*%
%ADD12C,0.0000*%
%ADD13R,0.0634X0.0634*%
%ADD14C,0.0700*%
%ADD15C,0.0634*%
%ADD16C,0.1182*%
%ADD17R,0.0434X0.0473*%
%ADD18R,0.0473X0.0434*%
%ADD19R,0.0749X0.0670*%
%ADD20R,0.0355X0.0355*%
%ADD21C,0.0600*%
%ADD22R,0.0555X0.0555*%
%ADD23C,0.0555*%
%ADD24C,0.0640*%
%ADD25R,0.1120X0.0890*%
%ADD26R,0.0741X0.0323*%
%ADD27OC8,0.0740*%
%ADD28R,0.0140X0.0360*%
%ADD29R,0.0810X0.1000*%
%ADD30R,0.0360X0.0160*%
%ADD31R,0.0160X0.0360*%
%ADD32R,0.0710X0.0710*%
%ADD33R,0.0420X0.0190*%
%ADD34R,0.0190X0.0420*%
%ADD35R,0.0890X0.0890*%
%ADD36R,0.0591X0.0670*%
%ADD37R,0.1142X0.1005*%
%ADD38C,0.1040*%
%ADD39R,0.0840X0.0840*%
%ADD40R,0.0290X0.0540*%
%ADD41C,0.0800*%
%ADD42R,0.0800X0.0800*%
%ADD43OC8,0.0800*%
D10*
X035624Y020474D02*
X035774Y020974D01*
X035924Y020474D01*
X035874Y020624D02*
X035674Y020624D01*
X036594Y020624D02*
X036594Y020924D01*
D11*
X036424Y020725D02*
X036415Y020700D01*
X036408Y020674D01*
X036406Y020647D01*
X036407Y020620D01*
X036412Y020594D01*
X036421Y020569D01*
X036433Y020545D01*
X036448Y020523D01*
X036466Y020503D01*
X036486Y020486D01*
X036509Y020472D01*
X036534Y020461D01*
X036559Y020454D01*
X036586Y020450D01*
X036612Y020450D01*
X036639Y020454D01*
X036664Y020461D01*
X036689Y020472D01*
X036712Y020486D01*
X036732Y020503D01*
X036750Y020523D01*
X036765Y020545D01*
X036777Y020569D01*
X036786Y020594D01*
X036791Y020620D01*
X036792Y020647D01*
X036790Y020674D01*
X036783Y020700D01*
X036774Y020725D01*
D12*
X006873Y022025D02*
X006865Y002944D01*
X006867Y002868D01*
X006873Y002792D01*
X006882Y002716D01*
X006896Y002642D01*
X006913Y002568D01*
X006934Y002495D01*
X006958Y002423D01*
X006987Y002352D01*
X007018Y002283D01*
X007054Y002216D01*
X007092Y002150D01*
X007134Y002087D01*
X007179Y002026D01*
X007227Y001967D01*
X007278Y001910D01*
X007332Y001857D01*
X007388Y001806D01*
X007447Y001758D01*
X007508Y001713D01*
X007572Y001671D01*
X007637Y001632D01*
X007705Y001597D01*
X007774Y001566D01*
X007844Y001537D01*
X007916Y001513D01*
X007989Y001492D01*
X008063Y001475D01*
X008138Y001461D01*
X008213Y001452D01*
X008289Y001446D01*
X008365Y001444D01*
X026484Y001444D01*
X028324Y002944D02*
X028324Y010414D01*
X028326Y010444D01*
X028331Y010474D01*
X028340Y010503D01*
X028353Y010530D01*
X028368Y010556D01*
X028387Y010580D01*
X028408Y010601D01*
X028432Y010620D01*
X028458Y010635D01*
X028485Y010648D01*
X028514Y010657D01*
X028544Y010662D01*
X028574Y010664D01*
X036174Y010664D01*
X036204Y010666D01*
X036234Y010671D01*
X036263Y010680D01*
X036290Y010693D01*
X036316Y010708D01*
X036340Y010727D01*
X036361Y010748D01*
X036380Y010772D01*
X036395Y010798D01*
X036408Y010825D01*
X036417Y010854D01*
X036422Y010884D01*
X036424Y010914D01*
X036424Y016054D01*
X036426Y016084D01*
X036431Y016114D01*
X036440Y016143D01*
X036453Y016170D01*
X036468Y016196D01*
X036487Y016220D01*
X036508Y016241D01*
X036532Y016260D01*
X036558Y016275D01*
X036585Y016288D01*
X036614Y016297D01*
X036644Y016302D01*
X036674Y016304D01*
X040364Y016304D01*
X040364Y023484D01*
X027624Y023475D01*
X027594Y023473D01*
X027564Y023468D01*
X027535Y023459D01*
X027508Y023446D01*
X027482Y023431D01*
X027458Y023412D01*
X027437Y023391D01*
X027418Y023367D01*
X027403Y023341D01*
X027390Y023314D01*
X027381Y023285D01*
X027376Y023255D01*
X027374Y023225D01*
X027374Y018774D01*
X027372Y018744D01*
X027367Y018714D01*
X027358Y018685D01*
X027345Y018658D01*
X027330Y018632D01*
X027311Y018608D01*
X027290Y018587D01*
X027266Y018568D01*
X027240Y018553D01*
X027213Y018540D01*
X027184Y018531D01*
X027154Y018526D01*
X027124Y018524D01*
X023174Y018524D01*
X023144Y018526D01*
X023114Y018531D01*
X023085Y018540D01*
X023058Y018553D01*
X023032Y018568D01*
X023008Y018587D01*
X022987Y018608D01*
X022968Y018632D01*
X022953Y018658D01*
X022940Y018685D01*
X022931Y018714D01*
X022926Y018744D01*
X022924Y018774D01*
X022924Y023274D01*
X022922Y023304D01*
X022917Y023334D01*
X022908Y023363D01*
X022895Y023390D01*
X022880Y023416D01*
X022861Y023440D01*
X022840Y023461D01*
X022816Y023480D01*
X022790Y023495D01*
X022763Y023508D01*
X022734Y023517D01*
X022704Y023522D01*
X022674Y023524D01*
X008373Y023524D01*
X008297Y023522D01*
X008221Y023516D01*
X008146Y023507D01*
X008071Y023493D01*
X007997Y023476D01*
X007924Y023455D01*
X007852Y023431D01*
X007782Y023402D01*
X007712Y023371D01*
X007645Y023336D01*
X007580Y023297D01*
X007516Y023255D01*
X007455Y023210D01*
X007396Y023162D01*
X007340Y023111D01*
X007286Y023058D01*
X007235Y023001D01*
X007187Y022942D01*
X007142Y022881D01*
X007100Y022818D01*
X007062Y022752D01*
X007026Y022685D01*
X006995Y022616D01*
X006967Y022545D01*
X006942Y022473D01*
X006921Y022400D01*
X006904Y022326D01*
X006890Y022252D01*
X006881Y022176D01*
X006875Y022101D01*
X006873Y022025D01*
X016347Y008543D02*
X016349Y008590D01*
X016355Y008637D01*
X016364Y008683D01*
X016378Y008728D01*
X016395Y008772D01*
X016416Y008815D01*
X016440Y008855D01*
X016467Y008894D01*
X016498Y008930D01*
X016531Y008963D01*
X016567Y008994D01*
X016606Y009021D01*
X016646Y009045D01*
X016689Y009066D01*
X016733Y009083D01*
X016778Y009097D01*
X016824Y009106D01*
X016871Y009112D01*
X016918Y009114D01*
X016965Y009112D01*
X017012Y009106D01*
X017058Y009097D01*
X017103Y009083D01*
X017147Y009066D01*
X017190Y009045D01*
X017230Y009021D01*
X017269Y008994D01*
X017305Y008963D01*
X017338Y008930D01*
X017369Y008894D01*
X017396Y008855D01*
X017420Y008815D01*
X017441Y008772D01*
X017458Y008728D01*
X017472Y008683D01*
X017481Y008637D01*
X017487Y008590D01*
X017489Y008543D01*
X017487Y008496D01*
X017481Y008449D01*
X017472Y008403D01*
X017458Y008358D01*
X017441Y008314D01*
X017420Y008271D01*
X017396Y008231D01*
X017369Y008192D01*
X017338Y008156D01*
X017305Y008123D01*
X017269Y008092D01*
X017230Y008065D01*
X017190Y008041D01*
X017147Y008020D01*
X017103Y008003D01*
X017058Y007989D01*
X017012Y007980D01*
X016965Y007974D01*
X016918Y007972D01*
X016871Y007974D01*
X016824Y007980D01*
X016778Y007989D01*
X016733Y008003D01*
X016689Y008020D01*
X016646Y008041D01*
X016606Y008065D01*
X016567Y008092D01*
X016531Y008123D01*
X016498Y008156D01*
X016467Y008192D01*
X016440Y008231D01*
X016416Y008271D01*
X016395Y008314D01*
X016378Y008358D01*
X016364Y008403D01*
X016355Y008449D01*
X016349Y008496D01*
X016347Y008543D01*
X026484Y001444D02*
X026564Y001437D01*
X026644Y001435D01*
X026723Y001436D01*
X026803Y001442D01*
X026883Y001451D01*
X026961Y001463D01*
X027040Y001480D01*
X027117Y001500D01*
X027193Y001524D01*
X027268Y001551D01*
X027342Y001582D01*
X027414Y001617D01*
X027484Y001655D01*
X027553Y001696D01*
X027619Y001740D01*
X027684Y001788D01*
X027746Y001838D01*
X027805Y001892D01*
X027862Y001948D01*
X027916Y002007D01*
X027967Y002068D01*
X028016Y002132D01*
X028061Y002197D01*
X028103Y002265D01*
X028142Y002335D01*
X028177Y002407D01*
X028209Y002480D01*
X028237Y002555D01*
X028262Y002631D01*
X028283Y002708D01*
X028301Y002786D01*
X028314Y002865D01*
X028324Y002944D01*
X037792Y018586D02*
X037794Y018633D01*
X037800Y018680D01*
X037809Y018726D01*
X037823Y018771D01*
X037840Y018815D01*
X037861Y018858D01*
X037885Y018898D01*
X037912Y018937D01*
X037943Y018973D01*
X037976Y019006D01*
X038012Y019037D01*
X038051Y019064D01*
X038091Y019088D01*
X038134Y019109D01*
X038178Y019126D01*
X038223Y019140D01*
X038269Y019149D01*
X038316Y019155D01*
X038363Y019157D01*
X038410Y019155D01*
X038457Y019149D01*
X038503Y019140D01*
X038548Y019126D01*
X038592Y019109D01*
X038635Y019088D01*
X038675Y019064D01*
X038714Y019037D01*
X038750Y019006D01*
X038783Y018973D01*
X038814Y018937D01*
X038841Y018898D01*
X038865Y018858D01*
X038886Y018815D01*
X038903Y018771D01*
X038917Y018726D01*
X038926Y018680D01*
X038932Y018633D01*
X038934Y018586D01*
X038932Y018539D01*
X038926Y018492D01*
X038917Y018446D01*
X038903Y018401D01*
X038886Y018357D01*
X038865Y018314D01*
X038841Y018274D01*
X038814Y018235D01*
X038783Y018199D01*
X038750Y018166D01*
X038714Y018135D01*
X038675Y018108D01*
X038635Y018084D01*
X038592Y018063D01*
X038548Y018046D01*
X038503Y018032D01*
X038457Y018023D01*
X038410Y018017D01*
X038363Y018015D01*
X038316Y018017D01*
X038269Y018023D01*
X038223Y018032D01*
X038178Y018046D01*
X038134Y018063D01*
X038091Y018084D01*
X038051Y018108D01*
X038012Y018135D01*
X037976Y018166D01*
X037943Y018199D01*
X037912Y018235D01*
X037885Y018274D01*
X037861Y018314D01*
X037840Y018357D01*
X037823Y018401D01*
X037809Y018446D01*
X037800Y018492D01*
X037794Y018539D01*
X037792Y018586D01*
D13*
X007824Y021424D03*
D14*
X007824Y022424D03*
X009824Y022424D03*
D15*
X010824Y022424D03*
X011824Y022424D03*
X012824Y022424D03*
X013824Y022424D03*
X014824Y022424D03*
X015824Y022424D03*
X016824Y022424D03*
X017824Y022424D03*
X018824Y022424D03*
X019824Y022424D03*
X019824Y021424D03*
X018824Y021424D03*
X017824Y021424D03*
X016824Y021424D03*
X015824Y021424D03*
X014824Y021424D03*
X013824Y021424D03*
X012824Y021424D03*
X011824Y021424D03*
X010824Y021424D03*
X009824Y021424D03*
X008824Y021424D03*
X008824Y022424D03*
D16*
X016918Y008543D03*
X038363Y018586D03*
D17*
X035074Y017709D03*
X035074Y017040D03*
X034074Y017040D03*
X034074Y017709D03*
X033974Y020690D03*
X034774Y020690D03*
X034774Y021359D03*
X033974Y021359D03*
X034224Y022090D03*
X033424Y022090D03*
X033174Y021359D03*
X032624Y022090D03*
X032624Y022759D03*
X033424Y022759D03*
X034224Y022759D03*
X036324Y023059D03*
X036324Y022390D03*
X033174Y020690D03*
X029224Y016309D03*
X029224Y015640D03*
X029224Y015109D03*
X028174Y015109D03*
X028174Y014440D03*
X029224Y014440D03*
X027674Y013309D03*
X026874Y013309D03*
X026074Y013309D03*
X026074Y012640D03*
X026074Y012109D03*
X026074Y011440D03*
X026874Y011440D03*
X026874Y012109D03*
X026874Y012640D03*
X027674Y012640D03*
X027674Y012109D03*
X027674Y011440D03*
X027824Y010759D03*
X027024Y010759D03*
X027024Y010090D03*
X027824Y010090D03*
X027024Y009159D03*
X027024Y008490D03*
X027024Y007359D03*
X027824Y007359D03*
X027824Y006690D03*
X027024Y006690D03*
X026224Y006840D03*
X026224Y007509D03*
X025424Y007509D03*
X025124Y008040D03*
X024324Y008440D03*
X023524Y008440D03*
X023524Y009109D03*
X024324Y009109D03*
X025124Y008709D03*
X024324Y007509D03*
X024324Y006840D03*
X025424Y006840D03*
X025124Y011640D03*
X025124Y012309D03*
X024324Y012309D03*
X023524Y012309D03*
X023524Y011640D03*
X024324Y011640D03*
X022724Y011640D03*
X022724Y012309D03*
X031624Y012459D03*
X032724Y012459D03*
X033524Y012459D03*
X033524Y012990D03*
X033524Y013659D03*
X034324Y013659D03*
X034324Y012990D03*
X033524Y011790D03*
X032724Y011790D03*
X031624Y011790D03*
D18*
X029959Y011074D03*
X029289Y011074D03*
X024459Y013374D03*
X023789Y013374D03*
X023589Y010324D03*
X024259Y010324D03*
X035739Y016774D03*
X036409Y016774D03*
X036409Y017574D03*
X035739Y017574D03*
X035739Y018974D03*
X036409Y018974D03*
X036409Y020024D03*
X035739Y020024D03*
D19*
X028174Y017126D03*
X028174Y016023D03*
D20*
X034824Y022229D03*
X034824Y022820D03*
X035524Y022820D03*
X035524Y022229D03*
D21*
X039224Y021881D03*
X039224Y022668D03*
X039224Y020268D03*
X039224Y019481D03*
X039224Y017918D03*
X039224Y017131D03*
X007974Y012568D03*
X007974Y011781D03*
D22*
X007824Y007743D03*
X007824Y003693D03*
D23*
X007824Y004481D03*
X007824Y005268D03*
X007824Y006056D03*
X007824Y008531D03*
X007824Y009318D03*
X007824Y010106D03*
D24*
X008824Y016074D02*
X008824Y016674D01*
X007824Y016774D02*
X007824Y016174D01*
X009824Y016174D02*
X009824Y016774D01*
X010824Y016674D02*
X010824Y016074D01*
X011824Y016174D02*
X011824Y016774D01*
X012824Y016674D02*
X012824Y016074D01*
X013824Y016174D02*
X013824Y016774D01*
X014824Y016674D02*
X014824Y016074D01*
X015824Y016174D02*
X015824Y016774D01*
X016824Y016674D02*
X016824Y016074D01*
X017824Y016174D02*
X017824Y016774D01*
X018824Y016674D02*
X018824Y016074D01*
X019824Y016174D02*
X019824Y016774D01*
X020824Y016674D02*
X020824Y016074D01*
X021824Y016174D02*
X021824Y016774D01*
X022824Y016674D02*
X022824Y016074D01*
X023824Y016174D02*
X023824Y016774D01*
X024824Y016674D02*
X024824Y016074D01*
X025824Y016174D02*
X025824Y016774D01*
X026824Y016674D02*
X026824Y016074D01*
D25*
X035524Y013634D03*
X035534Y011894D03*
D26*
X035325Y014724D03*
X035325Y015224D03*
X035325Y015724D03*
X035325Y016224D03*
X033323Y016224D03*
X033323Y015724D03*
X033323Y015224D03*
X033323Y014724D03*
D27*
X021424Y010574D03*
X020424Y010574D03*
X019424Y010574D03*
X018424Y010574D03*
X017424Y010574D03*
X016424Y010574D03*
X015424Y010574D03*
X014424Y010574D03*
X013424Y010574D03*
X012424Y010574D03*
D28*
X025684Y010004D03*
X025834Y010004D03*
X025994Y010004D03*
X026154Y010004D03*
X026314Y010004D03*
X026464Y010004D03*
X026464Y008444D03*
X026314Y008444D03*
X026154Y008444D03*
X025994Y008444D03*
X025834Y008444D03*
X025684Y008444D03*
D29*
X026074Y009224D03*
D30*
X033744Y019174D03*
X033744Y019374D03*
X033744Y019574D03*
X033744Y019774D03*
X034904Y019774D03*
X034904Y019574D03*
X034904Y019374D03*
X034904Y019174D03*
D31*
X034624Y018894D03*
X034424Y018894D03*
X034224Y018894D03*
X034024Y018894D03*
X034024Y020054D03*
X034224Y020054D03*
X034424Y020054D03*
X034624Y020054D03*
D32*
X034324Y019474D03*
D33*
X031574Y016104D03*
X031574Y015854D03*
X031574Y015594D03*
X031574Y015344D03*
X030074Y015344D03*
X030074Y015594D03*
X030074Y015854D03*
X030074Y016104D03*
D34*
X030444Y016474D03*
X030694Y016474D03*
X030954Y016474D03*
X031204Y016474D03*
X031204Y014974D03*
X030954Y014974D03*
X030694Y014974D03*
X030444Y014974D03*
D35*
X030824Y015724D03*
D36*
X030125Y013524D03*
X029023Y013524D03*
X029023Y012424D03*
X030125Y012424D03*
D37*
X032053Y019644D03*
X032053Y020805D03*
X028195Y020805D03*
X028195Y019644D03*
D38*
X025824Y004959D03*
X025824Y002990D03*
D39*
X034324Y011224D03*
X025324Y013224D03*
X033074Y017974D03*
X037174Y022874D03*
D40*
X011144Y010474D03*
X010824Y010474D03*
X010504Y010474D03*
X008644Y002224D03*
X008324Y002224D03*
X008004Y002224D03*
D41*
X010424Y002574D03*
X010424Y003574D03*
X010424Y004574D03*
X010424Y005574D03*
X010424Y006574D03*
X010424Y007574D03*
X010424Y008574D03*
X011424Y008574D03*
X012424Y008574D03*
X013424Y008574D03*
X014424Y008574D03*
X015424Y008574D03*
X015424Y007574D03*
X014424Y007574D03*
X013424Y007574D03*
X012424Y007574D03*
X012424Y006574D03*
X013424Y006574D03*
X014424Y006574D03*
X015424Y006574D03*
X016424Y006574D03*
X017424Y006574D03*
X018424Y006574D03*
X018424Y005574D03*
X017424Y005574D03*
X016424Y005574D03*
X015424Y005574D03*
X014424Y005574D03*
X013424Y005574D03*
X012424Y005574D03*
X014424Y004574D03*
X014424Y003574D03*
X014424Y002574D03*
X012424Y003574D03*
X016424Y003574D03*
X018424Y003574D03*
X018424Y004574D03*
X020424Y003574D03*
X022424Y003574D03*
X022424Y004574D03*
X022424Y005574D03*
X021424Y005574D03*
X020424Y005574D03*
X020424Y006574D03*
X021424Y006574D03*
X022424Y006574D03*
X021424Y007574D03*
X020424Y007574D03*
X020424Y008574D03*
X021424Y008574D03*
X019424Y008574D03*
X018424Y008574D03*
X018424Y007574D03*
X017424Y007574D03*
X016424Y007574D03*
X018424Y002574D03*
X022424Y002574D03*
D42*
X021424Y002574D03*
X020424Y002574D03*
X019424Y002574D03*
X019424Y003574D03*
X019424Y004574D03*
X020424Y004574D03*
X021424Y004574D03*
X021424Y003574D03*
X019424Y005574D03*
X019424Y006574D03*
X019424Y007574D03*
X017424Y004574D03*
X016424Y004574D03*
X015424Y004574D03*
X015424Y003574D03*
X015424Y002574D03*
X016424Y002574D03*
X017424Y002574D03*
X017424Y003574D03*
X013424Y003574D03*
X013424Y004574D03*
X012424Y004574D03*
X011424Y004574D03*
X011424Y003574D03*
X011424Y002574D03*
X012424Y002574D03*
X013424Y002574D03*
X011424Y005574D03*
X011424Y006574D03*
X011424Y007574D03*
D43*
X022424Y007574D03*
X022424Y008574D03*
X022424Y009574D03*
M02*
