G75*
G70*
%OFA0B0*%
%FSLAX24Y24*%
%IPPOS*%
%LPD*%
%AMOC8*
5,1,8,0,0,1.08239X$1,22.5*
%
%ADD10C,0.0000*%
%ADD11R,0.0594X0.0594*%
%ADD12C,0.0660*%
%ADD13C,0.0594*%
%ADD14C,0.0560*%
%ADD15R,0.0515X0.0515*%
%ADD16C,0.0515*%
%ADD17C,0.0600*%
%ADD18OC8,0.0700*%
%ADD19C,0.1000*%
%ADD20R,0.0800X0.0800*%
%ADD21C,0.0080*%
%ADD22R,0.0500X0.0250*%
%ADD23R,0.0250X0.0500*%
%ADD24R,0.0554X0.0554*%
%ADD25OC8,0.0554*%
%ADD26C,0.0400*%
%ADD27C,0.0240*%
%ADD28C,0.0100*%
%ADD29C,0.0356*%
%ADD30C,0.0320*%
%ADD31C,0.0120*%
%ADD32C,0.0160*%
%ADD33C,0.0110*%
%ADD34C,0.0317*%
%ADD35C,0.0760*%
%ADD36R,0.0760X0.0760*%
%ADD37C,0.0350*%
%ADD38OC8,0.0760*%
%ADD39C,0.0360*%
%ADD40C,0.0320*%
%ADD41C,0.0360*%
%ADD42C,0.0050*%
D10*
X006865Y002944D02*
X006873Y022025D01*
X006875Y022101D01*
X006881Y022176D01*
X006890Y022252D01*
X006904Y022326D01*
X006921Y022400D01*
X006942Y022473D01*
X006967Y022545D01*
X006995Y022616D01*
X007026Y022685D01*
X007062Y022752D01*
X007100Y022818D01*
X007142Y022881D01*
X007187Y022942D01*
X007235Y023001D01*
X007286Y023058D01*
X007340Y023111D01*
X007396Y023162D01*
X007455Y023210D01*
X007516Y023255D01*
X007580Y023297D01*
X007645Y023336D01*
X007712Y023371D01*
X007782Y023402D01*
X007852Y023431D01*
X007924Y023455D01*
X007997Y023476D01*
X008071Y023493D01*
X008146Y023507D01*
X008221Y023516D01*
X008297Y023522D01*
X008373Y023524D01*
X022674Y023524D01*
X022704Y023522D01*
X022734Y023517D01*
X022763Y023508D01*
X022790Y023495D01*
X022816Y023480D01*
X022840Y023461D01*
X022861Y023440D01*
X022880Y023416D01*
X022895Y023390D01*
X022908Y023363D01*
X022917Y023334D01*
X022922Y023304D01*
X022924Y023274D01*
X022924Y018774D01*
X022926Y018744D01*
X022931Y018714D01*
X022940Y018685D01*
X022953Y018658D01*
X022968Y018632D01*
X022987Y018608D01*
X023008Y018587D01*
X023032Y018568D01*
X023058Y018553D01*
X023085Y018540D01*
X023114Y018531D01*
X023144Y018526D01*
X023174Y018524D01*
X027124Y018524D01*
X027154Y018526D01*
X027184Y018531D01*
X027213Y018540D01*
X027240Y018553D01*
X027266Y018568D01*
X027290Y018587D01*
X027311Y018608D01*
X027330Y018632D01*
X027345Y018658D01*
X027358Y018685D01*
X027367Y018714D01*
X027372Y018744D01*
X027374Y018774D01*
X027374Y023225D01*
X027376Y023255D01*
X027381Y023285D01*
X027390Y023314D01*
X027403Y023341D01*
X027418Y023367D01*
X027437Y023391D01*
X027458Y023412D01*
X027482Y023431D01*
X027508Y023446D01*
X027535Y023459D01*
X027564Y023468D01*
X027594Y023473D01*
X027624Y023475D01*
X040364Y023484D01*
X040364Y016304D01*
X036674Y016304D01*
X036644Y016302D01*
X036614Y016297D01*
X036585Y016288D01*
X036558Y016275D01*
X036532Y016260D01*
X036508Y016241D01*
X036487Y016220D01*
X036468Y016196D01*
X036453Y016170D01*
X036440Y016143D01*
X036431Y016114D01*
X036426Y016084D01*
X036424Y016054D01*
X036424Y010914D01*
X036422Y010884D01*
X036417Y010854D01*
X036408Y010825D01*
X036395Y010798D01*
X036380Y010772D01*
X036361Y010748D01*
X036340Y010727D01*
X036316Y010708D01*
X036290Y010693D01*
X036263Y010680D01*
X036234Y010671D01*
X036204Y010666D01*
X036174Y010664D01*
X028574Y010664D01*
X028544Y010662D01*
X028514Y010657D01*
X028485Y010648D01*
X028458Y010635D01*
X028432Y010620D01*
X028408Y010601D01*
X028387Y010580D01*
X028368Y010556D01*
X028353Y010530D01*
X028340Y010503D01*
X028331Y010474D01*
X028326Y010444D01*
X028324Y010414D01*
X028324Y003844D01*
X028321Y003730D01*
X028313Y003616D01*
X028300Y003502D01*
X028281Y003390D01*
X028256Y003278D01*
X028227Y003168D01*
X028192Y003059D01*
X028152Y002952D01*
X028107Y002847D01*
X028057Y002744D01*
X028002Y002644D01*
X027943Y002546D01*
X027879Y002452D01*
X027811Y002360D01*
X027738Y002272D01*
X027661Y002188D01*
X027580Y002107D01*
X027496Y002030D01*
X027408Y001957D01*
X027316Y001889D01*
X027222Y001825D01*
X027124Y001766D01*
X027024Y001711D01*
X026921Y001661D01*
X026816Y001616D01*
X026709Y001576D01*
X026600Y001541D01*
X026490Y001512D01*
X026378Y001487D01*
X026266Y001468D01*
X026152Y001455D01*
X026038Y001447D01*
X025924Y001444D01*
X008365Y001444D01*
X008289Y001446D01*
X008213Y001452D01*
X008138Y001461D01*
X008063Y001475D01*
X007989Y001492D01*
X007916Y001513D01*
X007844Y001537D01*
X007774Y001566D01*
X007705Y001597D01*
X007637Y001632D01*
X007572Y001671D01*
X007508Y001713D01*
X007447Y001758D01*
X007388Y001806D01*
X007332Y001857D01*
X007278Y001910D01*
X007227Y001967D01*
X007179Y002026D01*
X007134Y002087D01*
X007092Y002150D01*
X007054Y002216D01*
X007018Y002283D01*
X006987Y002352D01*
X006958Y002423D01*
X006934Y002495D01*
X006913Y002568D01*
X006896Y002642D01*
X006882Y002716D01*
X006873Y002792D01*
X006867Y002868D01*
X006865Y002944D01*
X016347Y008543D02*
X016349Y008590D01*
X016355Y008637D01*
X016364Y008683D01*
X016378Y008728D01*
X016395Y008772D01*
X016416Y008815D01*
X016440Y008855D01*
X016467Y008894D01*
X016498Y008930D01*
X016531Y008963D01*
X016567Y008994D01*
X016606Y009021D01*
X016646Y009045D01*
X016689Y009066D01*
X016733Y009083D01*
X016778Y009097D01*
X016824Y009106D01*
X016871Y009112D01*
X016918Y009114D01*
X016965Y009112D01*
X017012Y009106D01*
X017058Y009097D01*
X017103Y009083D01*
X017147Y009066D01*
X017190Y009045D01*
X017230Y009021D01*
X017269Y008994D01*
X017305Y008963D01*
X017338Y008930D01*
X017369Y008894D01*
X017396Y008855D01*
X017420Y008815D01*
X017441Y008772D01*
X017458Y008728D01*
X017472Y008683D01*
X017481Y008637D01*
X017487Y008590D01*
X017489Y008543D01*
X017487Y008496D01*
X017481Y008449D01*
X017472Y008403D01*
X017458Y008358D01*
X017441Y008314D01*
X017420Y008271D01*
X017396Y008231D01*
X017369Y008192D01*
X017338Y008156D01*
X017305Y008123D01*
X017269Y008092D01*
X017230Y008065D01*
X017190Y008041D01*
X017147Y008020D01*
X017103Y008003D01*
X017058Y007989D01*
X017012Y007980D01*
X016965Y007974D01*
X016918Y007972D01*
X016871Y007974D01*
X016824Y007980D01*
X016778Y007989D01*
X016733Y008003D01*
X016689Y008020D01*
X016646Y008041D01*
X016606Y008065D01*
X016567Y008092D01*
X016531Y008123D01*
X016498Y008156D01*
X016467Y008192D01*
X016440Y008231D01*
X016416Y008271D01*
X016395Y008314D01*
X016378Y008358D01*
X016364Y008403D01*
X016355Y008449D01*
X016349Y008496D01*
X016347Y008543D01*
X037792Y018586D02*
X037794Y018633D01*
X037800Y018680D01*
X037809Y018726D01*
X037823Y018771D01*
X037840Y018815D01*
X037861Y018858D01*
X037885Y018898D01*
X037912Y018937D01*
X037943Y018973D01*
X037976Y019006D01*
X038012Y019037D01*
X038051Y019064D01*
X038091Y019088D01*
X038134Y019109D01*
X038178Y019126D01*
X038223Y019140D01*
X038269Y019149D01*
X038316Y019155D01*
X038363Y019157D01*
X038410Y019155D01*
X038457Y019149D01*
X038503Y019140D01*
X038548Y019126D01*
X038592Y019109D01*
X038635Y019088D01*
X038675Y019064D01*
X038714Y019037D01*
X038750Y019006D01*
X038783Y018973D01*
X038814Y018937D01*
X038841Y018898D01*
X038865Y018858D01*
X038886Y018815D01*
X038903Y018771D01*
X038917Y018726D01*
X038926Y018680D01*
X038932Y018633D01*
X038934Y018586D01*
X038932Y018539D01*
X038926Y018492D01*
X038917Y018446D01*
X038903Y018401D01*
X038886Y018357D01*
X038865Y018314D01*
X038841Y018274D01*
X038814Y018235D01*
X038783Y018199D01*
X038750Y018166D01*
X038714Y018135D01*
X038675Y018108D01*
X038635Y018084D01*
X038592Y018063D01*
X038548Y018046D01*
X038503Y018032D01*
X038457Y018023D01*
X038410Y018017D01*
X038363Y018015D01*
X038316Y018017D01*
X038269Y018023D01*
X038223Y018032D01*
X038178Y018046D01*
X038134Y018063D01*
X038091Y018084D01*
X038051Y018108D01*
X038012Y018135D01*
X037976Y018166D01*
X037943Y018199D01*
X037912Y018235D01*
X037885Y018274D01*
X037861Y018314D01*
X037840Y018357D01*
X037823Y018401D01*
X037809Y018446D01*
X037800Y018492D01*
X037794Y018539D01*
X037792Y018586D01*
D11*
X007824Y021424D03*
D12*
X007824Y022424D03*
X009824Y022424D03*
D13*
X010824Y022424D03*
X011824Y022424D03*
X012824Y022424D03*
X013824Y022424D03*
X014824Y022424D03*
X015824Y022424D03*
X016824Y022424D03*
X017824Y022424D03*
X018824Y022424D03*
X019824Y022424D03*
X019824Y021424D03*
X018824Y021424D03*
X017824Y021424D03*
X016824Y021424D03*
X015824Y021424D03*
X014824Y021424D03*
X013824Y021424D03*
X012824Y021424D03*
X011824Y021424D03*
X010824Y021424D03*
X009824Y021424D03*
X008824Y021424D03*
X008824Y022424D03*
D14*
X007974Y012568D03*
X007974Y011781D03*
X039224Y017131D03*
X039224Y017918D03*
X039224Y019481D03*
X039224Y020268D03*
X039224Y021881D03*
X039224Y022668D03*
D15*
X007824Y007743D03*
X007824Y003693D03*
D16*
X007824Y004481D03*
X007824Y005268D03*
X007824Y006056D03*
X007824Y008531D03*
X007824Y009318D03*
X007824Y010106D03*
D17*
X008824Y016074D02*
X008824Y016674D01*
X007824Y016774D02*
X007824Y016174D01*
X009824Y016174D02*
X009824Y016774D01*
X010824Y016674D02*
X010824Y016074D01*
X011824Y016174D02*
X011824Y016774D01*
X012824Y016674D02*
X012824Y016074D01*
X013824Y016174D02*
X013824Y016774D01*
X014824Y016674D02*
X014824Y016074D01*
X015824Y016174D02*
X015824Y016774D01*
X016824Y016674D02*
X016824Y016074D01*
X017824Y016174D02*
X017824Y016774D01*
X018824Y016674D02*
X018824Y016074D01*
X019824Y016174D02*
X019824Y016774D01*
X020824Y016674D02*
X020824Y016074D01*
X021824Y016174D02*
X021824Y016774D01*
X022824Y016674D02*
X022824Y016074D01*
X023824Y016174D02*
X023824Y016774D01*
X024824Y016674D02*
X024824Y016074D01*
X025824Y016174D02*
X025824Y016774D01*
X026824Y016674D02*
X026824Y016074D01*
D18*
X021424Y010574D03*
X020424Y010574D03*
X019424Y010574D03*
X018424Y010574D03*
X017424Y010574D03*
X016424Y010574D03*
X015424Y010574D03*
X014424Y010574D03*
X013424Y010574D03*
X012424Y010574D03*
D19*
X025824Y004959D03*
X025824Y002990D03*
D20*
X034324Y011224D03*
X033074Y017824D03*
X037174Y022874D03*
D21*
X022924Y010524D02*
X022924Y010224D01*
D22*
X022924Y010174D03*
X022924Y010574D03*
X027324Y004294D03*
X027324Y003974D03*
X027324Y003654D03*
D23*
X034004Y012974D03*
X034324Y012974D03*
X034644Y012974D03*
D24*
X012495Y009899D03*
D25*
X013479Y009899D03*
X014463Y009899D03*
X015448Y009899D03*
X016432Y009899D03*
X017416Y009899D03*
X018400Y009899D03*
X019385Y009899D03*
X020369Y009899D03*
X021353Y009899D03*
D26*
X026824Y015424D02*
X028874Y013374D01*
X030774Y013374D01*
X030774Y013774D01*
X031674Y014874D02*
X032264Y014284D01*
X032408Y014224D01*
X033074Y014224D01*
X033424Y014224D01*
X033574Y014224D01*
X033824Y014224D01*
X032674Y015224D02*
X032674Y015624D01*
X033024Y015624D01*
X033774Y016374D01*
X034574Y016374D01*
X035239Y016374D01*
X035357Y016492D01*
X037074Y018459D01*
X037074Y019274D01*
X036324Y019274D01*
X035824Y019274D01*
X036274Y019274D02*
X036324Y019274D01*
X031674Y016324D02*
X031674Y014974D01*
X031674Y014874D01*
X031674Y016324D02*
X031524Y016474D01*
X029949Y016474D01*
X029949Y016924D01*
X028824Y017674D02*
X028624Y017524D01*
X028824Y017674D02*
X024824Y017674D01*
X024824Y016374D01*
X026824Y016374D02*
X026824Y015424D01*
X028824Y017674D02*
X028824Y017724D01*
X024824Y017674D02*
X023424Y017674D01*
X023366Y017681D01*
X023309Y017691D01*
X023252Y017704D01*
X023196Y017722D01*
X023142Y017742D01*
X023089Y017767D01*
X023037Y017794D01*
X022988Y017825D01*
X022940Y017858D01*
X022895Y017895D01*
X022852Y017934D01*
X022811Y017976D01*
X022773Y018020D01*
X022738Y018067D01*
X022707Y018116D01*
X022678Y018167D01*
X022652Y018219D01*
X022630Y018273D01*
X022611Y018328D01*
X022596Y018384D01*
X022584Y018442D01*
X022576Y018499D01*
X022572Y018557D01*
X022571Y018616D01*
X022574Y018674D01*
X022574Y022674D01*
X022575Y022717D01*
X022571Y022761D01*
X022564Y022804D01*
X022554Y022846D01*
X022540Y022887D01*
X022523Y022927D01*
X022503Y022965D01*
X022479Y023002D01*
X022452Y023036D01*
X022423Y023069D01*
X022391Y023098D01*
X022357Y023125D01*
X022321Y023149D01*
X022283Y023170D01*
X022243Y023188D01*
X022202Y023202D01*
X022160Y023213D01*
X022117Y023221D01*
X022074Y023224D01*
X020449Y023224D01*
X020449Y022527D01*
X020449Y023224D02*
X016824Y023224D01*
X016824Y022424D01*
X016824Y023224D02*
X013824Y023174D01*
X013824Y022424D01*
X013824Y023174D02*
X011324Y023174D01*
X010324Y023174D01*
X009892Y022926D02*
X009872Y022887D01*
X009855Y022846D01*
X009841Y022804D01*
X009832Y022762D01*
X009826Y022718D01*
X009824Y022674D01*
X009824Y022424D01*
X009892Y022926D02*
X009916Y022962D01*
X009942Y022997D01*
X009972Y023029D01*
X010004Y023058D01*
X010038Y023084D01*
X010075Y023108D01*
X010114Y023128D01*
X010154Y023144D01*
X010195Y023157D01*
X010238Y023166D01*
X010281Y023172D01*
X010324Y023174D01*
X020111Y021712D02*
X020155Y021759D01*
X020197Y021809D01*
X020236Y021860D01*
X020271Y021914D01*
X020304Y021970D01*
X020334Y022027D01*
X020360Y022086D01*
X020383Y022147D01*
X020403Y022208D01*
X020419Y022271D01*
X020432Y022334D01*
X020441Y022398D01*
X020446Y022462D01*
X020448Y022527D01*
X020111Y021712D02*
X019824Y021424D01*
D27*
X011690Y021558D02*
X011645Y021606D01*
X011603Y021655D01*
X011563Y021707D01*
X011526Y021761D01*
X011491Y021817D01*
X011460Y021875D01*
X011432Y021934D01*
X011407Y021994D01*
X011385Y022056D01*
X011367Y022118D01*
X011351Y022182D01*
X011339Y022246D01*
X011331Y022311D01*
X011326Y022377D01*
X011324Y022442D01*
X011324Y023174D01*
X011690Y021558D02*
X011824Y021424D01*
X028074Y011374D02*
X028424Y011724D01*
X032224Y011724D01*
X033074Y012574D01*
X033074Y014224D01*
X033574Y014224D01*
X028074Y011374D02*
X028074Y007224D01*
X027824Y006974D01*
X025824Y006974D01*
X025224Y007574D01*
X022424Y007574D01*
D28*
X022673Y008074D02*
X022954Y008355D01*
X022954Y008364D01*
X024111Y008364D01*
X024234Y008487D01*
X024234Y008487D01*
X025361Y009614D01*
X025436Y009614D01*
X025550Y009662D01*
X025637Y009749D01*
X025684Y009863D01*
X025684Y009986D01*
X025637Y010100D01*
X025550Y010187D01*
X025436Y010234D01*
X025322Y010234D01*
X025334Y010263D01*
X025334Y010264D01*
X025761Y010264D01*
X025884Y010387D01*
X026131Y010634D01*
X026186Y010634D01*
X026300Y010682D01*
X026387Y010769D01*
X026434Y010883D01*
X026434Y011006D01*
X026391Y011111D01*
X026714Y010787D01*
X026714Y010461D01*
X026614Y010361D01*
X026614Y009803D01*
X026611Y009800D01*
X026564Y009686D01*
X026564Y009563D01*
X026611Y009449D01*
X026698Y009362D01*
X026812Y009314D01*
X026936Y009314D01*
X027050Y009362D01*
X027137Y009449D01*
X027184Y009563D01*
X027184Y009686D01*
X027137Y009800D01*
X027050Y009887D01*
X027034Y009894D01*
X027034Y010187D01*
X027134Y010287D01*
X027134Y010961D01*
X027084Y011011D01*
X027084Y011011D01*
X026534Y011561D01*
X026411Y011684D01*
X024311Y011684D01*
X023184Y012811D01*
X023184Y012886D01*
X023137Y013000D01*
X023050Y013087D01*
X022936Y013134D01*
X022812Y013134D01*
X022735Y013102D01*
X022857Y013224D01*
X023557Y013224D01*
X024124Y013792D01*
X024124Y012392D01*
X024241Y012274D01*
X025507Y012274D01*
X025624Y012392D01*
X025624Y012942D01*
X025707Y013024D01*
X027057Y013024D01*
X027174Y013142D01*
X027174Y013639D01*
X027184Y013663D01*
X027184Y013786D01*
X027174Y013810D01*
X027174Y014077D01*
X028587Y012664D01*
X030864Y012664D01*
X030864Y012613D01*
X030911Y012499D01*
X030976Y012434D01*
X028087Y012434D01*
X027964Y012311D01*
X027387Y011734D01*
X027264Y011611D01*
X027264Y008561D01*
X027237Y008534D01*
X025962Y008534D01*
X025839Y008411D01*
X025839Y008028D01*
X025786Y007975D01*
X025739Y007861D01*
X025739Y007738D01*
X025786Y007624D01*
X025873Y007537D01*
X025987Y007489D01*
X026111Y007489D01*
X026225Y007537D01*
X026312Y007624D01*
X026359Y007738D01*
X026359Y007861D01*
X026312Y007975D01*
X026259Y008028D01*
X026259Y008114D01*
X027046Y008114D01*
X027014Y008036D01*
X027014Y007913D01*
X027061Y007799D01*
X027148Y007712D01*
X027262Y007664D01*
X027386Y007664D01*
X027500Y007712D01*
X027587Y007799D01*
X027634Y007913D01*
X027634Y008036D01*
X027587Y008150D01*
X027534Y008203D01*
X027534Y008237D01*
X027561Y008264D01*
X027684Y008387D01*
X027684Y011437D01*
X028261Y012014D01*
X031561Y012014D01*
X031684Y012137D01*
X032161Y012614D01*
X032236Y012614D01*
X032350Y012662D01*
X032437Y012749D01*
X032484Y012863D01*
X032484Y012986D01*
X032437Y013100D01*
X032350Y013187D01*
X032236Y013234D01*
X032112Y013234D01*
X031998Y013187D01*
X031911Y013100D01*
X031864Y012986D01*
X031864Y012911D01*
X031387Y012434D01*
X031372Y012434D01*
X031437Y012499D01*
X031484Y012613D01*
X031484Y012736D01*
X031437Y012850D01*
X031350Y012937D01*
X031236Y012984D01*
X031161Y012984D01*
X031061Y013084D01*
X030979Y013084D01*
X031071Y013176D01*
X031124Y013305D01*
X031124Y013844D01*
X031071Y013973D01*
X030972Y014071D01*
X030844Y014124D01*
X030704Y014124D01*
X030576Y014071D01*
X030477Y013973D01*
X030424Y013844D01*
X030424Y013724D01*
X029019Y013724D01*
X027174Y015569D01*
X027174Y015724D01*
X027324Y015724D01*
X027324Y018428D01*
X027417Y018482D01*
X027524Y018667D01*
X027524Y023225D01*
X027527Y023250D01*
X027553Y023295D01*
X027598Y023321D01*
X027624Y023325D01*
X027638Y023325D01*
X027686Y023325D01*
X032800Y023329D01*
X032761Y023290D01*
X032714Y023176D01*
X032714Y023053D01*
X032761Y022939D01*
X032848Y022852D01*
X032962Y022804D01*
X033086Y022804D01*
X033088Y022806D01*
X033012Y022729D01*
X032919Y022636D01*
X032869Y022515D01*
X032869Y019586D01*
X032737Y019454D01*
X032644Y019361D01*
X032594Y019240D01*
X032594Y018659D01*
X032644Y018537D01*
X032737Y018445D01*
X032858Y018394D01*
X032990Y018394D01*
X033111Y018445D01*
X033204Y018537D01*
X033254Y018659D01*
X033254Y019038D01*
X033479Y019262D01*
X033529Y019384D01*
X033529Y022307D01*
X033561Y022229D01*
X033648Y022142D01*
X033762Y022094D01*
X033886Y022094D01*
X034000Y022142D01*
X034062Y022204D01*
X035819Y022204D01*
X035965Y022054D01*
X035961Y022050D01*
X035914Y021936D01*
X035914Y021813D01*
X035961Y021699D01*
X036024Y021636D01*
X036024Y021224D01*
X035491Y021224D01*
X035434Y021167D01*
X035434Y021437D01*
X035561Y021564D01*
X035636Y021564D01*
X035750Y021612D01*
X035837Y021699D01*
X035884Y021813D01*
X035884Y021936D01*
X035837Y022050D01*
X035750Y022137D01*
X035636Y022184D01*
X035512Y022184D01*
X035398Y022137D01*
X035374Y022113D01*
X035350Y022137D01*
X035236Y022184D01*
X035112Y022184D01*
X034998Y022137D01*
X034911Y022050D01*
X034864Y021936D01*
X034864Y021847D01*
X034574Y021557D01*
X034574Y019057D01*
X034341Y018824D01*
X034224Y018707D01*
X034224Y018144D01*
X034186Y018159D01*
X034062Y018159D01*
X033948Y018112D01*
X033861Y018025D01*
X033861Y018024D01*
X033624Y018024D01*
X033624Y018287D01*
X033536Y018374D01*
X032612Y018374D01*
X032524Y018287D01*
X032524Y017362D01*
X032612Y017274D01*
X033536Y017274D01*
X033624Y017362D01*
X033624Y017624D01*
X033911Y017624D01*
X033948Y017587D01*
X034062Y017539D01*
X034151Y017539D01*
X034199Y017492D01*
X034290Y017400D01*
X034264Y017336D01*
X034264Y017213D01*
X034311Y017099D01*
X034364Y017046D01*
X034364Y016724D01*
X033704Y016724D01*
X033576Y016671D01*
X032879Y015974D01*
X032604Y015974D01*
X032476Y015921D01*
X032377Y015823D01*
X032324Y015694D01*
X032324Y015155D01*
X032377Y015026D01*
X032476Y014928D01*
X032604Y014874D01*
X032744Y014874D01*
X032872Y014928D01*
X032971Y015026D01*
X033024Y015155D01*
X033024Y015274D01*
X033094Y015274D01*
X033222Y015328D01*
X033321Y015426D01*
X033664Y015769D01*
X033664Y015663D01*
X033711Y015549D01*
X033798Y015462D01*
X033912Y015414D01*
X034036Y015414D01*
X034150Y015462D01*
X034182Y015494D01*
X034194Y015494D01*
X034194Y014383D01*
X034161Y014350D01*
X034156Y014337D01*
X034121Y014423D01*
X034022Y014521D01*
X033894Y014574D01*
X032478Y014574D01*
X032463Y014581D01*
X032024Y015019D01*
X032024Y016394D01*
X031971Y016523D01*
X031872Y016621D01*
X031821Y016673D01*
X031722Y016771D01*
X031594Y016824D01*
X030299Y016824D01*
X030299Y016994D01*
X030246Y017123D01*
X030147Y017221D01*
X030019Y017274D01*
X029879Y017274D01*
X029751Y017221D01*
X029652Y017123D01*
X029599Y016994D01*
X029599Y016405D01*
X029652Y016276D01*
X029751Y016178D01*
X029879Y016124D01*
X031324Y016124D01*
X031324Y015234D01*
X029267Y015234D01*
X029084Y015414D01*
X029084Y015486D01*
X029037Y015600D01*
X028950Y015687D01*
X028836Y015734D01*
X028712Y015734D01*
X028598Y015687D01*
X028511Y015600D01*
X028464Y015486D01*
X028464Y015363D01*
X027380Y015363D01*
X027282Y015461D02*
X028464Y015461D01*
X028464Y015363D02*
X028511Y015249D01*
X028598Y015162D01*
X028712Y015114D01*
X028790Y015114D01*
X029033Y014875D01*
X029094Y014814D01*
X029095Y014814D01*
X029096Y014814D01*
X029182Y014814D01*
X031324Y014814D01*
X031324Y014805D01*
X031377Y014676D01*
X031968Y014086D01*
X032066Y013987D01*
X032210Y013928D01*
X032210Y013928D01*
X032338Y013874D01*
X032804Y013874D01*
X032804Y012686D01*
X032112Y011994D01*
X028370Y011994D01*
X028271Y011953D01*
X028195Y011877D01*
X027845Y011527D01*
X027804Y011428D01*
X027804Y007336D01*
X027712Y007244D01*
X025936Y007244D01*
X025377Y007803D01*
X025278Y007844D01*
X022924Y007844D01*
X022924Y008074D01*
X025839Y008074D01*
X025839Y008172D02*
X022771Y008172D01*
X022673Y008074D02*
X022924Y008074D01*
X022924Y007975D02*
X025787Y007975D01*
X025745Y007877D02*
X022924Y007877D01*
X022870Y008271D02*
X025839Y008271D01*
X025839Y008369D02*
X024116Y008369D01*
X024214Y008468D02*
X025895Y008468D01*
X026259Y008074D02*
X027030Y008074D01*
X027014Y007975D02*
X026311Y007975D01*
X026352Y007877D02*
X027029Y007877D01*
X027081Y007778D02*
X026359Y007778D01*
X026335Y007680D02*
X027225Y007680D01*
X027423Y007680D02*
X027804Y007680D01*
X027804Y007778D02*
X027566Y007778D01*
X027619Y007877D02*
X027804Y007877D01*
X027804Y007975D02*
X027634Y007975D01*
X027618Y008074D02*
X027804Y008074D01*
X027804Y008172D02*
X027564Y008172D01*
X027567Y008271D02*
X027804Y008271D01*
X027804Y008369D02*
X027666Y008369D01*
X027684Y008468D02*
X027804Y008468D01*
X027804Y008566D02*
X027684Y008566D01*
X027684Y008665D02*
X027804Y008665D01*
X027804Y008763D02*
X027684Y008763D01*
X027684Y008862D02*
X027804Y008862D01*
X027804Y008960D02*
X027684Y008960D01*
X027684Y009059D02*
X027804Y009059D01*
X027804Y009157D02*
X027684Y009157D01*
X027684Y009256D02*
X027804Y009256D01*
X027804Y009354D02*
X027684Y009354D01*
X027684Y009453D02*
X027804Y009453D01*
X027804Y009551D02*
X027684Y009551D01*
X027684Y009650D02*
X027804Y009650D01*
X027804Y009748D02*
X027684Y009748D01*
X027684Y009847D02*
X027804Y009847D01*
X027804Y009945D02*
X027684Y009945D01*
X027684Y010044D02*
X027804Y010044D01*
X027804Y010142D02*
X027684Y010142D01*
X027684Y010241D02*
X027804Y010241D01*
X027804Y010339D02*
X027684Y010339D01*
X027684Y010438D02*
X027804Y010438D01*
X027804Y010536D02*
X027684Y010536D01*
X027684Y010635D02*
X027804Y010635D01*
X027804Y010733D02*
X027684Y010733D01*
X027684Y010832D02*
X027804Y010832D01*
X027804Y010930D02*
X027684Y010930D01*
X027684Y011029D02*
X027804Y011029D01*
X027804Y011127D02*
X027684Y011127D01*
X027684Y011226D02*
X027804Y011226D01*
X027804Y011324D02*
X027684Y011324D01*
X027684Y011423D02*
X027804Y011423D01*
X027768Y011521D02*
X027843Y011521D01*
X027866Y011620D02*
X027938Y011620D01*
X027965Y011718D02*
X028036Y011718D01*
X028063Y011817D02*
X028135Y011817D01*
X028162Y011915D02*
X028233Y011915D01*
X028260Y012014D02*
X032132Y012014D01*
X032230Y012112D02*
X031659Y012112D01*
X031757Y012211D02*
X032329Y012211D01*
X032427Y012309D02*
X031856Y012309D01*
X031954Y012408D02*
X032526Y012408D01*
X032624Y012506D02*
X032053Y012506D01*
X032151Y012605D02*
X032723Y012605D01*
X032804Y012703D02*
X032391Y012703D01*
X032459Y012802D02*
X032804Y012802D01*
X032804Y012900D02*
X032484Y012900D01*
X032479Y012999D02*
X032804Y012999D01*
X032804Y013097D02*
X032438Y013097D01*
X032328Y013196D02*
X032804Y013196D01*
X032804Y013294D02*
X031120Y013294D01*
X031124Y013393D02*
X032804Y013393D01*
X032804Y013491D02*
X031124Y013491D01*
X031124Y013590D02*
X032804Y013590D01*
X032804Y013688D02*
X031124Y013688D01*
X031124Y013787D02*
X032804Y013787D01*
X033344Y013787D02*
X035764Y013787D01*
X035764Y013885D02*
X034536Y013885D01*
X034486Y013864D02*
X034600Y013912D01*
X034687Y013999D01*
X034734Y014113D01*
X034734Y014236D01*
X034687Y014350D01*
X034654Y014383D01*
X034654Y015720D01*
X034419Y015954D01*
X034182Y015954D01*
X034150Y015987D01*
X034060Y016024D01*
X035309Y016024D01*
X035438Y016078D01*
X035564Y016204D01*
X035574Y016209D01*
X035612Y016253D01*
X035653Y016293D01*
X035658Y016305D01*
X037330Y018220D01*
X037371Y018261D01*
X037375Y018272D01*
X037383Y018281D01*
X037402Y018336D01*
X037424Y018389D01*
X037424Y018402D01*
X037428Y018413D01*
X037424Y018471D01*
X037424Y019344D01*
X037371Y019473D01*
X037272Y019571D01*
X037144Y019624D01*
X036424Y019624D01*
X036424Y020224D01*
X036907Y020224D01*
X037024Y020342D01*
X037024Y021107D01*
X036907Y021224D01*
X036424Y021224D01*
X036424Y021636D01*
X036487Y021699D01*
X036530Y021804D01*
X036542Y021792D01*
X036544Y021787D01*
X036587Y021744D01*
X036629Y021700D01*
X036634Y021698D01*
X036637Y021695D01*
X036693Y021671D01*
X036749Y021646D01*
X036754Y021646D01*
X036758Y021644D01*
X036819Y021644D01*
X036880Y021643D01*
X036885Y021644D01*
X038856Y021644D01*
X038859Y021637D01*
X038980Y021516D01*
X039138Y021451D01*
X039309Y021451D01*
X039467Y021516D01*
X039588Y021637D01*
X039654Y021795D01*
X039654Y021966D01*
X039588Y022124D01*
X039467Y022245D01*
X039397Y022274D01*
X039467Y022304D01*
X039522Y022358D01*
X039652Y022358D01*
X039664Y022346D01*
X039664Y016884D01*
X039586Y016884D01*
X039588Y016887D01*
X039654Y017045D01*
X039654Y017216D01*
X039588Y017374D01*
X039467Y017495D01*
X039398Y017524D01*
X039449Y017550D01*
X039504Y017590D01*
X039552Y017638D01*
X039592Y017693D01*
X039622Y017753D01*
X039643Y017817D01*
X039654Y017884D01*
X039654Y017889D01*
X039253Y017889D01*
X039253Y017947D01*
X039654Y017947D01*
X039654Y017952D01*
X039643Y018019D01*
X039622Y018083D01*
X039592Y018143D01*
X039552Y018198D01*
X039504Y018246D01*
X039449Y018286D01*
X039389Y018317D01*
X039325Y018338D01*
X039258Y018348D01*
X039253Y018348D01*
X039253Y017947D01*
X039195Y017947D01*
X039195Y018348D01*
X039190Y018348D01*
X039123Y018338D01*
X039059Y018317D01*
X039025Y018299D01*
X039084Y018442D01*
X039084Y018729D01*
X038974Y018994D01*
X038772Y019197D01*
X038507Y019307D01*
X038220Y019307D01*
X037955Y019197D01*
X037752Y018994D01*
X037642Y018729D01*
X037642Y018442D01*
X037752Y018177D01*
X037955Y017975D01*
X038220Y017865D01*
X038507Y017865D01*
X038772Y017975D01*
X038802Y018005D01*
X038794Y017952D01*
X038794Y017947D01*
X039195Y017947D01*
X039195Y017889D01*
X038794Y017889D01*
X038794Y017884D01*
X038804Y017817D01*
X038825Y017753D01*
X038856Y017693D01*
X038896Y017638D01*
X038944Y017590D01*
X038999Y017550D01*
X039050Y017524D01*
X038980Y017495D01*
X038859Y017374D01*
X038794Y017216D01*
X038794Y017045D01*
X038859Y016887D01*
X038862Y016884D01*
X036312Y016884D01*
X036198Y016837D01*
X035898Y016537D01*
X035811Y016450D01*
X035764Y016336D01*
X035764Y012503D01*
X035646Y012384D01*
X034431Y012384D01*
X034534Y012487D01*
X034534Y012574D01*
X034831Y012574D01*
X034919Y012662D01*
X034919Y012764D01*
X034987Y012764D01*
X035014Y012737D01*
X035014Y012663D01*
X035061Y012549D01*
X035148Y012462D01*
X035262Y012414D01*
X035386Y012414D01*
X035500Y012462D01*
X035587Y012549D01*
X035634Y012663D01*
X035634Y012786D01*
X035587Y012900D01*
X035500Y012987D01*
X035386Y013034D01*
X035311Y013034D01*
X035161Y013184D01*
X034919Y013184D01*
X034919Y013287D01*
X034831Y013374D01*
X033817Y013374D01*
X033729Y013287D01*
X033729Y013184D01*
X033537Y013184D01*
X033414Y013061D01*
X033344Y012991D01*
X033344Y013874D01*
X033894Y013874D01*
X034022Y013928D01*
X034121Y014026D01*
X034135Y014061D01*
X034161Y013999D01*
X034248Y013912D01*
X034362Y013864D01*
X034486Y013864D01*
X034311Y013885D02*
X033920Y013885D01*
X034078Y013984D02*
X034176Y013984D01*
X034672Y013984D02*
X035764Y013984D01*
X035764Y014082D02*
X034721Y014082D01*
X034734Y014181D02*
X035764Y014181D01*
X035764Y014279D02*
X034716Y014279D01*
X034659Y014378D02*
X035764Y014378D01*
X035764Y014476D02*
X034654Y014476D01*
X034654Y014575D02*
X035764Y014575D01*
X035764Y014673D02*
X034654Y014673D01*
X034654Y014772D02*
X035764Y014772D01*
X035764Y014870D02*
X034654Y014870D01*
X034654Y014969D02*
X035764Y014969D01*
X035764Y015067D02*
X034654Y015067D01*
X034654Y015166D02*
X035764Y015166D01*
X035764Y015264D02*
X034654Y015264D01*
X034654Y015363D02*
X035764Y015363D01*
X035764Y015461D02*
X034654Y015461D01*
X034654Y015560D02*
X035764Y015560D01*
X035764Y015658D02*
X034654Y015658D01*
X034617Y015757D02*
X035764Y015757D01*
X035764Y015855D02*
X034518Y015855D01*
X034420Y015954D02*
X035764Y015954D01*
X035764Y016052D02*
X035377Y016052D01*
X035511Y016151D02*
X035764Y016151D01*
X035764Y016249D02*
X035610Y016249D01*
X035696Y016348D02*
X035769Y016348D01*
X035782Y016446D02*
X035810Y016446D01*
X035868Y016545D02*
X035906Y016545D01*
X035954Y016643D02*
X036005Y016643D01*
X036040Y016742D02*
X036103Y016742D01*
X036126Y016840D02*
X036206Y016840D01*
X036212Y016939D02*
X038838Y016939D01*
X038797Y017037D02*
X036298Y017037D01*
X036384Y017136D02*
X038794Y017136D01*
X038801Y017234D02*
X036470Y017234D01*
X036555Y017333D02*
X038842Y017333D01*
X038917Y017431D02*
X036641Y017431D01*
X036727Y017530D02*
X039039Y017530D01*
X038905Y017628D02*
X036813Y017628D01*
X036899Y017727D02*
X038839Y017727D01*
X038803Y017825D02*
X036985Y017825D01*
X037071Y017924D02*
X038077Y017924D01*
X037907Y018022D02*
X037157Y018022D01*
X037243Y018121D02*
X037809Y018121D01*
X037735Y018219D02*
X037329Y018219D01*
X037396Y018318D02*
X037694Y018318D01*
X037653Y018416D02*
X037428Y018416D01*
X037424Y018515D02*
X037642Y018515D01*
X037642Y018613D02*
X037424Y018613D01*
X037424Y018712D02*
X037642Y018712D01*
X037676Y018810D02*
X037424Y018810D01*
X037424Y018909D02*
X037717Y018909D01*
X037765Y019007D02*
X037424Y019007D01*
X037424Y019106D02*
X037864Y019106D01*
X037973Y019204D02*
X037424Y019204D01*
X037424Y019303D02*
X038211Y019303D01*
X038516Y019303D02*
X038832Y019303D01*
X038859Y019237D02*
X038980Y019116D01*
X039138Y019051D01*
X039309Y019051D01*
X039467Y019116D01*
X039588Y019237D01*
X039654Y019395D01*
X039654Y019566D01*
X039588Y019724D01*
X039467Y019845D01*
X039398Y019874D01*
X039449Y019900D01*
X039504Y019940D01*
X039552Y019988D01*
X039592Y020043D01*
X039622Y020103D01*
X039643Y020167D01*
X039654Y020234D01*
X039654Y020239D01*
X039253Y020239D01*
X039253Y020297D01*
X039654Y020297D01*
X039654Y020302D01*
X039643Y020369D01*
X039622Y020433D01*
X039592Y020493D01*
X039552Y020548D01*
X039504Y020596D01*
X039449Y020636D01*
X039389Y020667D01*
X039325Y020688D01*
X039258Y020698D01*
X039253Y020698D01*
X039253Y020297D01*
X039195Y020297D01*
X039195Y020698D01*
X039190Y020698D01*
X039123Y020688D01*
X039059Y020667D01*
X038999Y020636D01*
X038944Y020596D01*
X038896Y020548D01*
X038856Y020493D01*
X038825Y020433D01*
X038804Y020369D01*
X038794Y020302D01*
X038794Y020297D01*
X039195Y020297D01*
X039195Y020239D01*
X038794Y020239D01*
X038794Y020234D01*
X038804Y020167D01*
X038825Y020103D01*
X038856Y020043D01*
X038896Y019988D01*
X038944Y019940D01*
X038999Y019900D01*
X039050Y019874D01*
X038980Y019845D01*
X038859Y019724D01*
X038794Y019566D01*
X038794Y019395D01*
X038859Y019237D01*
X038892Y019204D02*
X038753Y019204D01*
X038863Y019106D02*
X039005Y019106D01*
X038961Y019007D02*
X039664Y019007D01*
X039664Y018909D02*
X039010Y018909D01*
X039050Y018810D02*
X039664Y018810D01*
X039664Y018712D02*
X039084Y018712D01*
X039084Y018613D02*
X039664Y018613D01*
X039664Y018515D02*
X039084Y018515D01*
X039073Y018416D02*
X039664Y018416D01*
X039664Y018318D02*
X039385Y018318D01*
X039253Y018318D02*
X039195Y018318D01*
X039195Y018219D02*
X039253Y018219D01*
X039253Y018121D02*
X039195Y018121D01*
X039195Y018022D02*
X039253Y018022D01*
X039253Y017924D02*
X039664Y017924D01*
X039664Y018022D02*
X039642Y018022D01*
X039664Y018121D02*
X039603Y018121D01*
X039664Y018219D02*
X039531Y018219D01*
X039645Y017825D02*
X039664Y017825D01*
X039664Y017727D02*
X039609Y017727D01*
X039664Y017628D02*
X039542Y017628D01*
X039664Y017530D02*
X039409Y017530D01*
X039531Y017431D02*
X039664Y017431D01*
X039664Y017333D02*
X039606Y017333D01*
X039646Y017234D02*
X039664Y017234D01*
X039654Y017136D02*
X039664Y017136D01*
X039651Y017037D02*
X039664Y017037D01*
X039664Y016939D02*
X039610Y016939D01*
X039195Y017924D02*
X038649Y017924D01*
X039033Y018318D02*
X039063Y018318D01*
X039443Y019106D02*
X039664Y019106D01*
X039664Y019204D02*
X039556Y019204D01*
X039616Y019303D02*
X039664Y019303D01*
X039654Y019401D02*
X039664Y019401D01*
X039654Y019500D02*
X039664Y019500D01*
X039664Y019598D02*
X039641Y019598D01*
X039664Y019697D02*
X039600Y019697D01*
X039664Y019795D02*
X039517Y019795D01*
X039437Y019894D02*
X039664Y019894D01*
X039664Y019992D02*
X039555Y019992D01*
X039616Y020091D02*
X039664Y020091D01*
X039664Y020189D02*
X039647Y020189D01*
X039664Y020288D02*
X039253Y020288D01*
X039195Y020288D02*
X036970Y020288D01*
X037024Y020386D02*
X038810Y020386D01*
X038852Y020485D02*
X037024Y020485D01*
X037024Y020583D02*
X038931Y020583D01*
X039106Y020682D02*
X037024Y020682D01*
X037024Y020780D02*
X039664Y020780D01*
X039664Y020682D02*
X039342Y020682D01*
X039253Y020682D02*
X039195Y020682D01*
X039195Y020583D02*
X039253Y020583D01*
X039253Y020485D02*
X039195Y020485D01*
X039195Y020386D02*
X039253Y020386D01*
X039517Y020583D02*
X039664Y020583D01*
X039664Y020485D02*
X039596Y020485D01*
X039638Y020386D02*
X039664Y020386D01*
X039664Y020879D02*
X037024Y020879D01*
X037024Y020977D02*
X039664Y020977D01*
X039664Y021076D02*
X037024Y021076D01*
X036957Y021174D02*
X039664Y021174D01*
X039664Y021273D02*
X036424Y021273D01*
X036424Y021371D02*
X039664Y021371D01*
X039664Y021470D02*
X039356Y021470D01*
X039520Y021568D02*
X039664Y021568D01*
X039664Y021667D02*
X039601Y021667D01*
X039642Y021765D02*
X039664Y021765D01*
X039654Y021864D02*
X039664Y021864D01*
X039654Y021962D02*
X039664Y021962D01*
X039664Y022061D02*
X039615Y022061D01*
X039664Y022159D02*
X039553Y022159D01*
X039664Y022258D02*
X039437Y022258D01*
X039520Y022356D02*
X039653Y022356D01*
X038928Y021568D02*
X036424Y021568D01*
X036424Y021470D02*
X039092Y021470D01*
X038801Y020189D02*
X036424Y020189D01*
X036424Y020091D02*
X038832Y020091D01*
X038893Y019992D02*
X036424Y019992D01*
X036424Y019894D02*
X039011Y019894D01*
X038931Y019795D02*
X036424Y019795D01*
X036424Y019697D02*
X038848Y019697D01*
X038807Y019598D02*
X037206Y019598D01*
X037343Y019500D02*
X038794Y019500D01*
X038794Y019401D02*
X037400Y019401D01*
X036724Y018924D02*
X036724Y018590D01*
X035101Y016731D01*
X035094Y016724D01*
X034784Y016724D01*
X034784Y017046D01*
X034837Y017099D01*
X034884Y017213D01*
X034884Y017336D01*
X034868Y017374D01*
X035207Y017374D01*
X035324Y017492D01*
X035907Y018074D01*
X036024Y018192D01*
X036024Y018924D01*
X036724Y018924D01*
X036724Y018909D02*
X036024Y018909D01*
X036024Y018810D02*
X036724Y018810D01*
X036724Y018712D02*
X036024Y018712D01*
X036024Y018613D02*
X036724Y018613D01*
X036658Y018515D02*
X036024Y018515D01*
X036024Y018416D02*
X036572Y018416D01*
X036486Y018318D02*
X036024Y018318D01*
X036024Y018219D02*
X036400Y018219D01*
X036314Y018121D02*
X035953Y018121D01*
X035907Y018074D02*
X035907Y018074D01*
X035855Y018022D02*
X036228Y018022D01*
X036142Y017924D02*
X035756Y017924D01*
X035658Y017825D02*
X036056Y017825D01*
X035970Y017727D02*
X035559Y017727D01*
X035461Y017628D02*
X035884Y017628D01*
X035798Y017530D02*
X035362Y017530D01*
X035324Y017492D02*
X035324Y017492D01*
X035264Y017431D02*
X035712Y017431D01*
X035626Y017333D02*
X034884Y017333D01*
X034884Y017234D02*
X035540Y017234D01*
X035454Y017136D02*
X034852Y017136D01*
X034784Y017037D02*
X035368Y017037D01*
X035282Y016939D02*
X034784Y016939D01*
X034784Y016840D02*
X035196Y016840D01*
X035110Y016742D02*
X034784Y016742D01*
X034364Y016742D02*
X031751Y016742D01*
X031821Y016673D02*
X031821Y016673D01*
X031850Y016643D02*
X033548Y016643D01*
X033449Y016545D02*
X031948Y016545D01*
X031872Y016621D02*
X031872Y016621D01*
X032002Y016446D02*
X033351Y016446D01*
X033252Y016348D02*
X032024Y016348D01*
X032024Y016249D02*
X033154Y016249D01*
X033055Y016151D02*
X032024Y016151D01*
X032024Y016052D02*
X032957Y016052D01*
X032555Y015954D02*
X032024Y015954D01*
X032024Y015855D02*
X032410Y015855D01*
X032350Y015757D02*
X032024Y015757D01*
X032024Y015658D02*
X032324Y015658D01*
X032324Y015560D02*
X032024Y015560D01*
X032024Y015461D02*
X032324Y015461D01*
X032324Y015363D02*
X032024Y015363D01*
X032024Y015264D02*
X032324Y015264D01*
X032324Y015166D02*
X032024Y015166D01*
X032024Y015067D02*
X032360Y015067D01*
X032434Y014969D02*
X032074Y014969D01*
X032173Y014870D02*
X034194Y014870D01*
X034194Y014772D02*
X032271Y014772D01*
X032370Y014673D02*
X034194Y014673D01*
X034194Y014575D02*
X032476Y014575D01*
X032913Y014969D02*
X034194Y014969D01*
X034194Y015067D02*
X032988Y015067D01*
X033024Y015166D02*
X034194Y015166D01*
X034194Y015264D02*
X033024Y015264D01*
X033257Y015363D02*
X034194Y015363D01*
X034194Y015461D02*
X034149Y015461D01*
X033799Y015461D02*
X033356Y015461D01*
X033454Y015560D02*
X033706Y015560D01*
X033666Y015658D02*
X033553Y015658D01*
X033651Y015757D02*
X033664Y015757D01*
X034364Y016840D02*
X030299Y016840D01*
X030299Y016939D02*
X034364Y016939D01*
X034364Y017037D02*
X030281Y017037D01*
X030232Y017136D02*
X034296Y017136D01*
X034264Y017234D02*
X030115Y017234D01*
X029783Y017234D02*
X027324Y017234D01*
X027324Y017136D02*
X029665Y017136D01*
X029617Y017037D02*
X027324Y017037D01*
X027324Y016939D02*
X029599Y016939D01*
X029599Y016840D02*
X027324Y016840D01*
X027324Y016742D02*
X029599Y016742D01*
X029599Y016643D02*
X027324Y016643D01*
X027324Y016545D02*
X029599Y016545D01*
X029599Y016446D02*
X027324Y016446D01*
X027324Y016348D02*
X029622Y016348D01*
X029679Y016249D02*
X027324Y016249D01*
X027324Y016151D02*
X029815Y016151D01*
X029053Y015560D02*
X031324Y015560D01*
X031324Y015658D02*
X028978Y015658D01*
X029084Y015461D02*
X031324Y015461D01*
X031324Y015363D02*
X029136Y015363D01*
X029236Y015264D02*
X031324Y015264D01*
X031338Y014772D02*
X027971Y014772D01*
X027873Y014870D02*
X029038Y014870D01*
X028938Y014969D02*
X027774Y014969D01*
X027676Y015067D02*
X028838Y015067D01*
X028594Y015166D02*
X027577Y015166D01*
X027479Y015264D02*
X028505Y015264D01*
X028495Y015560D02*
X027183Y015560D01*
X027174Y015658D02*
X028570Y015658D01*
X027324Y015757D02*
X031324Y015757D01*
X031324Y015855D02*
X027324Y015855D01*
X027324Y015954D02*
X031324Y015954D01*
X031324Y016052D02*
X027324Y016052D01*
X026114Y015724D02*
X026114Y015137D01*
X026237Y015014D01*
X026827Y014424D01*
X025697Y014424D01*
X025734Y014513D01*
X025734Y014636D01*
X025687Y014750D01*
X025600Y014837D01*
X025486Y014884D01*
X025362Y014884D01*
X025248Y014837D01*
X025186Y014774D01*
X024621Y014774D01*
X024861Y015014D01*
X025661Y015014D01*
X025911Y015264D01*
X026034Y015387D01*
X026034Y015724D01*
X026114Y015724D01*
X026114Y015658D02*
X026034Y015658D01*
X026034Y015560D02*
X026114Y015560D01*
X026114Y015461D02*
X026034Y015461D01*
X026009Y015363D02*
X026114Y015363D01*
X026114Y015264D02*
X025911Y015264D01*
X025812Y015166D02*
X026114Y015166D01*
X026184Y015067D02*
X025714Y015067D01*
X025519Y014870D02*
X026381Y014870D01*
X026479Y014772D02*
X025665Y014772D01*
X025718Y014673D02*
X026578Y014673D01*
X026676Y014575D02*
X025734Y014575D01*
X025719Y014476D02*
X026775Y014476D01*
X026974Y014224D02*
X024486Y014224D01*
X024324Y014062D01*
X024324Y012474D01*
X025424Y012474D01*
X025424Y013024D01*
X025624Y013224D01*
X026974Y013224D01*
X026974Y014224D01*
X026974Y014181D02*
X024443Y014181D01*
X024344Y014082D02*
X026974Y014082D01*
X026974Y013984D02*
X024324Y013984D01*
X024324Y013885D02*
X026974Y013885D01*
X026974Y013787D02*
X024324Y013787D01*
X024324Y013688D02*
X026974Y013688D01*
X026974Y013590D02*
X024324Y013590D01*
X024324Y013491D02*
X026974Y013491D01*
X026974Y013393D02*
X024324Y013393D01*
X024324Y013294D02*
X026974Y013294D01*
X027174Y013294D02*
X027957Y013294D01*
X028055Y013196D02*
X027174Y013196D01*
X027130Y013097D02*
X028154Y013097D01*
X028252Y012999D02*
X025681Y012999D01*
X025624Y012900D02*
X028351Y012900D01*
X028449Y012802D02*
X025624Y012802D01*
X025624Y012703D02*
X028548Y012703D01*
X028060Y012408D02*
X025624Y012408D01*
X025624Y012506D02*
X030908Y012506D01*
X030867Y012605D02*
X025624Y012605D01*
X025424Y012605D02*
X024324Y012605D01*
X024324Y012703D02*
X025424Y012703D01*
X025424Y012802D02*
X024324Y012802D01*
X024324Y012900D02*
X025424Y012900D01*
X025424Y012999D02*
X024324Y012999D01*
X024324Y013097D02*
X025497Y013097D01*
X025595Y013196D02*
X024324Y013196D01*
X024124Y013196D02*
X022828Y013196D01*
X023025Y013097D02*
X024124Y013097D01*
X024124Y012999D02*
X023137Y012999D01*
X023178Y012900D02*
X024124Y012900D01*
X024124Y012802D02*
X023193Y012802D01*
X023292Y012703D02*
X024124Y012703D01*
X024124Y012605D02*
X023390Y012605D01*
X023489Y012506D02*
X024124Y012506D01*
X024124Y012408D02*
X023587Y012408D01*
X023686Y012309D02*
X024206Y012309D01*
X024324Y012506D02*
X025424Y012506D01*
X025542Y012309D02*
X027962Y012309D01*
X027863Y012211D02*
X023784Y012211D01*
X023883Y012112D02*
X027765Y012112D01*
X027666Y012014D02*
X023981Y012014D01*
X024080Y011915D02*
X027568Y011915D01*
X027469Y011817D02*
X024178Y011817D01*
X024277Y011718D02*
X027371Y011718D01*
X027387Y011734D02*
X027387Y011734D01*
X027272Y011620D02*
X026475Y011620D01*
X026574Y011521D02*
X027264Y011521D01*
X027264Y011423D02*
X026672Y011423D01*
X026771Y011324D02*
X027264Y011324D01*
X027264Y011226D02*
X026869Y011226D01*
X026968Y011127D02*
X027264Y011127D01*
X027264Y011029D02*
X027066Y011029D01*
X027134Y010930D02*
X027264Y010930D01*
X027264Y010832D02*
X027134Y010832D01*
X027134Y010733D02*
X027264Y010733D01*
X027264Y010635D02*
X027134Y010635D01*
X027134Y010536D02*
X027264Y010536D01*
X027264Y010438D02*
X027134Y010438D01*
X027134Y010339D02*
X027264Y010339D01*
X027264Y010241D02*
X027087Y010241D01*
X027034Y010142D02*
X027264Y010142D01*
X027264Y010044D02*
X027034Y010044D01*
X027034Y009945D02*
X027264Y009945D01*
X027264Y009847D02*
X027090Y009847D01*
X027158Y009748D02*
X027264Y009748D01*
X027264Y009650D02*
X027184Y009650D01*
X027179Y009551D02*
X027264Y009551D01*
X027264Y009453D02*
X027138Y009453D01*
X027032Y009354D02*
X027264Y009354D01*
X027264Y009256D02*
X025002Y009256D01*
X024904Y009157D02*
X027264Y009157D01*
X027264Y009059D02*
X024805Y009059D01*
X024707Y008960D02*
X027264Y008960D01*
X027264Y008862D02*
X024608Y008862D01*
X024510Y008763D02*
X027264Y008763D01*
X027264Y008665D02*
X024411Y008665D01*
X024313Y008566D02*
X027264Y008566D01*
X026716Y009354D02*
X025101Y009354D01*
X025199Y009453D02*
X026609Y009453D01*
X026569Y009551D02*
X025298Y009551D01*
X025521Y009650D02*
X026564Y009650D01*
X026590Y009748D02*
X025636Y009748D01*
X025677Y009847D02*
X026614Y009847D01*
X026614Y009945D02*
X025684Y009945D01*
X025660Y010044D02*
X026614Y010044D01*
X026614Y010142D02*
X025594Y010142D01*
X025325Y010241D02*
X026614Y010241D01*
X026614Y010339D02*
X025836Y010339D01*
X025934Y010438D02*
X026690Y010438D01*
X026714Y010536D02*
X026033Y010536D01*
X026187Y010635D02*
X026714Y010635D01*
X026714Y010733D02*
X026351Y010733D01*
X026413Y010832D02*
X026669Y010832D01*
X026571Y010930D02*
X026434Y010930D01*
X026424Y011029D02*
X026472Y011029D01*
X026290Y011211D02*
X026186Y011254D01*
X026062Y011254D01*
X025948Y011207D01*
X025861Y011120D01*
X025814Y011006D01*
X025814Y010911D01*
X025587Y010684D01*
X025087Y010684D01*
X025037Y010634D01*
X024962Y010634D01*
X024848Y010587D01*
X024761Y010500D01*
X024714Y010386D01*
X024714Y010263D01*
X024761Y010149D01*
X024848Y010062D01*
X024962Y010014D01*
X025076Y010014D01*
X025064Y009986D01*
X025064Y009911D01*
X023937Y008784D01*
X022954Y008784D01*
X022954Y008794D01*
X022643Y009104D01*
X022204Y009104D01*
X022134Y009034D01*
X022134Y010037D01*
X022234Y010137D01*
X022234Y010632D01*
X022374Y010492D01*
X022491Y010374D01*
X022537Y010374D01*
X022524Y010362D01*
X022524Y009987D01*
X022612Y009899D01*
X022752Y009899D01*
X023064Y009587D01*
X023187Y009464D01*
X023396Y009464D01*
X023448Y009412D01*
X023562Y009364D01*
X023686Y009364D01*
X023800Y009412D01*
X023887Y009499D01*
X023934Y009613D01*
X023934Y009736D01*
X023887Y009850D01*
X023800Y009937D01*
X023686Y009984D01*
X023562Y009984D01*
X023448Y009937D01*
X023396Y009884D01*
X023361Y009884D01*
X023291Y009954D01*
X023324Y009987D01*
X023324Y010362D01*
X023311Y010374D01*
X023324Y010387D01*
X023324Y010762D01*
X023236Y010849D01*
X022612Y010849D01*
X022597Y010834D01*
X022474Y010957D01*
X022474Y012842D01*
X022596Y012964D01*
X022564Y012886D01*
X022564Y012763D01*
X022611Y012649D01*
X022698Y012562D01*
X022812Y012514D01*
X022887Y012514D01*
X024014Y011387D01*
X024137Y011264D01*
X026237Y011264D01*
X026290Y011211D01*
X026275Y011226D02*
X026254Y011226D01*
X025994Y011226D02*
X022474Y011226D01*
X022474Y011324D02*
X024077Y011324D01*
X024014Y011387D02*
X024014Y011387D01*
X023978Y011423D02*
X022474Y011423D01*
X022474Y011521D02*
X023880Y011521D01*
X023781Y011620D02*
X022474Y011620D01*
X022474Y011718D02*
X023683Y011718D01*
X023584Y011817D02*
X022474Y011817D01*
X022474Y011915D02*
X023486Y011915D01*
X023387Y012014D02*
X022474Y012014D01*
X022474Y012112D02*
X023289Y012112D01*
X023190Y012211D02*
X022474Y012211D01*
X022474Y012309D02*
X023092Y012309D01*
X022993Y012408D02*
X022474Y012408D01*
X022474Y012506D02*
X022895Y012506D01*
X022655Y012605D02*
X022474Y012605D01*
X022474Y012703D02*
X022588Y012703D01*
X022564Y012802D02*
X022474Y012802D01*
X022533Y012900D02*
X022570Y012900D01*
X022274Y012924D02*
X022274Y010874D01*
X022574Y010574D01*
X022924Y010574D01*
X023324Y010536D02*
X024798Y010536D01*
X024735Y010438D02*
X023324Y010438D01*
X023324Y010339D02*
X024714Y010339D01*
X024723Y010241D02*
X023324Y010241D01*
X023324Y010142D02*
X024767Y010142D01*
X024891Y010044D02*
X023324Y010044D01*
X023300Y009945D02*
X023468Y009945D01*
X023780Y009945D02*
X025064Y009945D01*
X024999Y009847D02*
X023888Y009847D01*
X023929Y009748D02*
X024901Y009748D01*
X024802Y009650D02*
X023934Y009650D01*
X023909Y009551D02*
X024704Y009551D01*
X024605Y009453D02*
X023841Y009453D01*
X023407Y009453D02*
X022134Y009453D01*
X022134Y009551D02*
X023100Y009551D01*
X023001Y009650D02*
X022134Y009650D01*
X022134Y009748D02*
X022903Y009748D01*
X022804Y009847D02*
X022134Y009847D01*
X022134Y009945D02*
X022566Y009945D01*
X022524Y010044D02*
X022140Y010044D01*
X022234Y010142D02*
X022524Y010142D01*
X022524Y010241D02*
X022234Y010241D01*
X022234Y010339D02*
X022524Y010339D01*
X022428Y010438D02*
X022234Y010438D01*
X022234Y010536D02*
X022329Y010536D01*
X022501Y010930D02*
X025814Y010930D01*
X025823Y011029D02*
X022474Y011029D01*
X022474Y011127D02*
X025869Y011127D01*
X026124Y010944D02*
X026124Y010924D01*
X025734Y010832D02*
X023254Y010832D01*
X023324Y010733D02*
X025636Y010733D01*
X025037Y010635D02*
X023324Y010635D01*
X024507Y009354D02*
X022134Y009354D01*
X022134Y009256D02*
X024408Y009256D01*
X024310Y009157D02*
X022134Y009157D01*
X022134Y009059D02*
X022159Y009059D01*
X022689Y009059D02*
X024211Y009059D01*
X024113Y008960D02*
X022787Y008960D01*
X022886Y008862D02*
X024014Y008862D01*
X025402Y007778D02*
X025739Y007778D01*
X025763Y007680D02*
X025500Y007680D01*
X025599Y007581D02*
X025828Y007581D01*
X025697Y007483D02*
X027804Y007483D01*
X027804Y007581D02*
X026269Y007581D01*
X025894Y007286D02*
X027754Y007286D01*
X027804Y007384D02*
X025796Y007384D01*
X025328Y007089D02*
X023256Y007089D01*
X023158Y007187D02*
X025229Y007187D01*
X025131Y007286D02*
X022924Y007286D01*
X022924Y007284D02*
X022924Y007304D01*
X025112Y007304D01*
X025595Y006821D01*
X025671Y006746D01*
X025770Y006704D01*
X027878Y006704D01*
X027977Y006746D01*
X028174Y006943D01*
X028174Y003844D01*
X028160Y003592D01*
X028048Y003101D01*
X027829Y002647D01*
X027515Y002253D01*
X027121Y001939D01*
X026667Y001721D01*
X026176Y001609D01*
X025924Y001594D01*
X023182Y001594D01*
X023187Y001599D01*
X023234Y001713D01*
X023234Y001836D01*
X023187Y001950D01*
X023184Y001953D01*
X023184Y005067D01*
X023503Y004749D01*
X025207Y004749D01*
X025273Y004590D01*
X025456Y004408D01*
X025695Y004309D01*
X025953Y004309D01*
X026192Y004408D01*
X026375Y004590D01*
X026474Y004829D01*
X026474Y005088D01*
X026375Y005327D01*
X026192Y005510D01*
X025953Y005609D01*
X025695Y005609D01*
X025456Y005510D01*
X025273Y005327D01*
X025207Y005169D01*
X023677Y005169D01*
X023584Y005261D01*
X023584Y005497D01*
X023662Y005464D01*
X023786Y005464D01*
X023900Y005512D01*
X023987Y005599D01*
X024034Y005713D01*
X024034Y005794D01*
X024409Y006169D01*
X024591Y006169D01*
X024648Y006112D01*
X024762Y006064D01*
X024886Y006064D01*
X025000Y006112D01*
X025087Y006199D01*
X025134Y006313D01*
X025134Y006436D01*
X025087Y006550D01*
X025000Y006637D01*
X024886Y006684D01*
X024762Y006684D01*
X024648Y006637D01*
X024591Y006579D01*
X024239Y006579D01*
X023744Y006084D01*
X023662Y006084D01*
X023584Y006052D01*
X023584Y006761D01*
X023461Y006884D01*
X023061Y007284D01*
X022924Y007284D01*
X023355Y006990D02*
X025426Y006990D01*
X025525Y006892D02*
X023453Y006892D01*
X023552Y006793D02*
X025623Y006793D01*
X025108Y006498D02*
X028174Y006498D01*
X028174Y006596D02*
X025040Y006596D01*
X025134Y006399D02*
X028174Y006399D01*
X028174Y006301D02*
X025129Y006301D01*
X025088Y006202D02*
X028174Y006202D01*
X028174Y006104D02*
X024981Y006104D01*
X024667Y006104D02*
X024343Y006104D01*
X024245Y006005D02*
X028174Y006005D01*
X028174Y005907D02*
X024146Y005907D01*
X024048Y005808D02*
X028174Y005808D01*
X028174Y005710D02*
X024033Y005710D01*
X023992Y005611D02*
X028174Y005611D01*
X028174Y005513D02*
X026184Y005513D01*
X026287Y005414D02*
X028174Y005414D01*
X028174Y005316D02*
X026379Y005316D01*
X026420Y005217D02*
X028174Y005217D01*
X028174Y005119D02*
X026461Y005119D01*
X026474Y005020D02*
X028174Y005020D01*
X028174Y004922D02*
X026474Y004922D01*
X026471Y004823D02*
X028174Y004823D01*
X028174Y004725D02*
X026431Y004725D01*
X026390Y004626D02*
X028174Y004626D01*
X028174Y004528D02*
X027678Y004528D01*
X027666Y004539D02*
X027632Y004559D01*
X027594Y004569D01*
X027336Y004569D01*
X027336Y004307D01*
X027311Y004307D01*
X027311Y004282D01*
X026924Y004282D01*
X026924Y004184D01*
X026237Y004184D01*
X025737Y003684D01*
X025691Y003639D01*
X025456Y003541D01*
X025273Y003358D01*
X025174Y003119D01*
X025174Y002861D01*
X025273Y002622D01*
X025456Y002439D01*
X025695Y002340D01*
X025953Y002340D01*
X026192Y002439D01*
X026375Y002622D01*
X026474Y002861D01*
X026474Y003119D01*
X026375Y003358D01*
X026192Y003541D01*
X026189Y003542D01*
X026411Y003764D01*
X026924Y003764D01*
X026924Y003467D01*
X027012Y003379D01*
X027114Y003379D01*
X027114Y003203D01*
X027061Y003150D01*
X027014Y003036D01*
X027014Y002913D01*
X027061Y002799D01*
X027148Y002712D01*
X027262Y002664D01*
X027386Y002664D01*
X027500Y002712D01*
X027587Y002799D01*
X027634Y002913D01*
X027634Y003036D01*
X027587Y003150D01*
X027534Y003203D01*
X027534Y003379D01*
X027636Y003379D01*
X027724Y003467D01*
X027724Y004282D01*
X027336Y004282D01*
X027336Y004307D01*
X027724Y004307D01*
X027724Y004439D01*
X027714Y004477D01*
X027694Y004512D01*
X027666Y004539D01*
X027724Y004429D02*
X028174Y004429D01*
X028174Y004331D02*
X027724Y004331D01*
X027724Y004232D02*
X028174Y004232D01*
X028174Y004134D02*
X027724Y004134D01*
X027724Y004035D02*
X028174Y004035D01*
X028174Y003937D02*
X027724Y003937D01*
X027724Y003838D02*
X028174Y003838D01*
X028168Y003740D02*
X027724Y003740D01*
X027724Y003641D02*
X028163Y003641D01*
X028148Y003543D02*
X027724Y003543D01*
X027701Y003444D02*
X028126Y003444D01*
X028103Y003346D02*
X027534Y003346D01*
X027534Y003247D02*
X028081Y003247D01*
X028059Y003149D02*
X027587Y003149D01*
X027628Y003050D02*
X028023Y003050D01*
X027976Y002952D02*
X027634Y002952D01*
X027609Y002853D02*
X027928Y002853D01*
X027881Y002755D02*
X027543Y002755D01*
X027758Y002558D02*
X026311Y002558D01*
X026389Y002656D02*
X027833Y002656D01*
X027679Y002459D02*
X026212Y002459D01*
X026003Y002361D02*
X027601Y002361D01*
X027522Y002262D02*
X023184Y002262D01*
X023184Y002164D02*
X027403Y002164D01*
X027279Y002065D02*
X023184Y002065D01*
X023184Y001967D02*
X027156Y001967D01*
X026974Y001868D02*
X023221Y001868D01*
X023234Y001770D02*
X026769Y001770D01*
X026451Y001671D02*
X023217Y001671D01*
X022924Y001774D02*
X022874Y001724D01*
X021424Y001724D01*
X023184Y002361D02*
X025645Y002361D01*
X025435Y002459D02*
X023184Y002459D01*
X023184Y002558D02*
X025337Y002558D01*
X025259Y002656D02*
X023184Y002656D01*
X023184Y002755D02*
X025218Y002755D01*
X025177Y002853D02*
X023184Y002853D01*
X023184Y002952D02*
X025174Y002952D01*
X025174Y003050D02*
X023184Y003050D01*
X023184Y003149D02*
X025186Y003149D01*
X025227Y003247D02*
X023184Y003247D01*
X023184Y003346D02*
X025268Y003346D01*
X025359Y003444D02*
X023184Y003444D01*
X023184Y003543D02*
X025460Y003543D01*
X025694Y003641D02*
X023184Y003641D01*
X023184Y003740D02*
X025792Y003740D01*
X025891Y003838D02*
X023184Y003838D01*
X023184Y003937D02*
X025989Y003937D01*
X026088Y004035D02*
X023184Y004035D01*
X023184Y004134D02*
X026186Y004134D01*
X026007Y004331D02*
X026924Y004331D01*
X026924Y004307D02*
X026924Y004439D01*
X026934Y004477D01*
X026954Y004512D01*
X026982Y004539D01*
X027016Y004559D01*
X027054Y004569D01*
X027311Y004569D01*
X027311Y004307D01*
X026924Y004307D01*
X026924Y004232D02*
X023184Y004232D01*
X023184Y004331D02*
X025641Y004331D01*
X025434Y004429D02*
X023184Y004429D01*
X023184Y004528D02*
X025335Y004528D01*
X025258Y004626D02*
X023184Y004626D01*
X023184Y004725D02*
X025217Y004725D01*
X025228Y005217D02*
X023628Y005217D01*
X023584Y005316D02*
X025268Y005316D01*
X025360Y005414D02*
X023584Y005414D01*
X023901Y005513D02*
X025463Y005513D01*
X024059Y006399D02*
X023584Y006399D01*
X023584Y006301D02*
X023961Y006301D01*
X023862Y006202D02*
X023584Y006202D01*
X023584Y006104D02*
X023764Y006104D01*
X023584Y006498D02*
X024158Y006498D01*
X024608Y006596D02*
X023584Y006596D01*
X023584Y006695D02*
X028174Y006695D01*
X028174Y006793D02*
X028025Y006793D01*
X028123Y006892D02*
X028174Y006892D01*
X027336Y004528D02*
X027311Y004528D01*
X027311Y004429D02*
X027336Y004429D01*
X027336Y004331D02*
X027311Y004331D01*
X026970Y004528D02*
X026312Y004528D01*
X026214Y004429D02*
X026924Y004429D01*
X026924Y003740D02*
X026386Y003740D01*
X026288Y003641D02*
X026924Y003641D01*
X026924Y003543D02*
X026189Y003543D01*
X026289Y003444D02*
X026947Y003444D01*
X027114Y003346D02*
X026380Y003346D01*
X026421Y003247D02*
X027114Y003247D01*
X027061Y003149D02*
X026462Y003149D01*
X026474Y003050D02*
X027020Y003050D01*
X027014Y002952D02*
X026474Y002952D01*
X026471Y002853D02*
X027038Y002853D01*
X027105Y002755D02*
X026430Y002755D01*
X023428Y004823D02*
X023184Y004823D01*
X023184Y004922D02*
X023329Y004922D01*
X023231Y005020D02*
X023184Y005020D01*
X028834Y011234D02*
X028834Y011386D01*
X028806Y011454D01*
X030892Y011454D01*
X030864Y011386D01*
X030864Y011263D01*
X030876Y011234D01*
X028834Y011234D01*
X028834Y011324D02*
X030864Y011324D01*
X030879Y011423D02*
X028819Y011423D01*
X031440Y012506D02*
X031459Y012506D01*
X031481Y012605D02*
X031557Y012605D01*
X031484Y012703D02*
X031656Y012703D01*
X031754Y012802D02*
X031457Y012802D01*
X031386Y012900D02*
X031853Y012900D01*
X031869Y012999D02*
X031146Y012999D01*
X030992Y013097D02*
X031910Y013097D01*
X032019Y013196D02*
X031079Y013196D01*
X031107Y013885D02*
X032312Y013885D01*
X032074Y013984D02*
X031059Y013984D01*
X030945Y014082D02*
X031971Y014082D01*
X031872Y014181D02*
X028562Y014181D01*
X028464Y014279D02*
X031774Y014279D01*
X031675Y014378D02*
X028365Y014378D01*
X028267Y014476D02*
X031577Y014476D01*
X031478Y014575D02*
X028168Y014575D01*
X028070Y014673D02*
X031380Y014673D01*
X030603Y014082D02*
X028661Y014082D01*
X028759Y013984D02*
X030488Y013984D01*
X030441Y013885D02*
X028858Y013885D01*
X028956Y013787D02*
X030424Y013787D01*
X027858Y013393D02*
X027174Y013393D01*
X027174Y013491D02*
X027760Y013491D01*
X027661Y013590D02*
X027174Y013590D01*
X027184Y013688D02*
X027563Y013688D01*
X027464Y013787D02*
X027184Y013787D01*
X027174Y013885D02*
X027366Y013885D01*
X027267Y013984D02*
X027174Y013984D01*
X026282Y014969D02*
X024815Y014969D01*
X024717Y014870D02*
X025329Y014870D01*
X025424Y014574D02*
X024624Y014574D01*
X023474Y013424D01*
X022774Y013424D01*
X022274Y012924D01*
X023627Y013294D02*
X024124Y013294D01*
X024124Y013393D02*
X023725Y013393D01*
X023824Y013491D02*
X024124Y013491D01*
X024124Y013590D02*
X023922Y013590D01*
X024021Y013688D02*
X024124Y013688D01*
X024119Y013787D02*
X024124Y013787D01*
X027324Y017333D02*
X032553Y017333D01*
X032524Y017431D02*
X027324Y017431D01*
X027324Y017530D02*
X032524Y017530D01*
X032524Y017628D02*
X027324Y017628D01*
X027324Y017727D02*
X032524Y017727D01*
X032524Y017825D02*
X027324Y017825D01*
X027324Y017924D02*
X032524Y017924D01*
X032524Y018022D02*
X027324Y018022D01*
X027324Y018121D02*
X032524Y018121D01*
X032524Y018219D02*
X027324Y018219D01*
X027324Y018318D02*
X032555Y018318D01*
X032667Y018515D02*
X027436Y018515D01*
X027417Y018482D02*
X027417Y018482D01*
X027417Y018482D01*
X027324Y018416D02*
X032805Y018416D01*
X033043Y018416D02*
X034224Y018416D01*
X034224Y018318D02*
X033592Y018318D01*
X033624Y018219D02*
X034224Y018219D01*
X033969Y018121D02*
X033624Y018121D01*
X034099Y017824D02*
X033074Y017824D01*
X033624Y017530D02*
X034161Y017530D01*
X034259Y017431D02*
X033624Y017431D01*
X033595Y017333D02*
X034264Y017333D01*
X034399Y017574D02*
X035124Y017574D01*
X035824Y018274D01*
X035824Y019274D01*
X035498Y019401D02*
X035434Y019401D01*
X035474Y019344D02*
X035474Y019205D01*
X035527Y019076D01*
X035624Y018979D01*
X035624Y018357D01*
X035041Y017774D01*
X034853Y017774D01*
X034859Y017788D01*
X034859Y017911D01*
X034812Y018025D01*
X034725Y018112D01*
X034624Y018154D01*
X034624Y018542D01*
X034974Y018892D01*
X034974Y021392D01*
X035014Y021432D01*
X035014Y018803D01*
X034961Y018750D01*
X034914Y018636D01*
X034914Y018513D01*
X034961Y018399D01*
X035048Y018312D01*
X035162Y018264D01*
X035286Y018264D01*
X035400Y018312D01*
X035487Y018399D01*
X035534Y018513D01*
X035534Y018636D01*
X035487Y018750D01*
X035434Y018803D01*
X035434Y020282D01*
X035491Y020224D01*
X036024Y020224D01*
X036024Y019624D01*
X035754Y019624D01*
X035626Y019571D01*
X035527Y019473D01*
X035474Y019344D01*
X035474Y019303D02*
X035434Y019303D01*
X035434Y019204D02*
X035474Y019204D01*
X035434Y019106D02*
X035515Y019106D01*
X035434Y019007D02*
X035596Y019007D01*
X035624Y018909D02*
X035434Y018909D01*
X035434Y018810D02*
X035624Y018810D01*
X035624Y018712D02*
X035502Y018712D01*
X035534Y018613D02*
X035624Y018613D01*
X035624Y018515D02*
X035534Y018515D01*
X035494Y018416D02*
X035624Y018416D01*
X035585Y018318D02*
X035406Y018318D01*
X035486Y018219D02*
X034624Y018219D01*
X034624Y018318D02*
X035042Y018318D01*
X034954Y018416D02*
X034624Y018416D01*
X034624Y018515D02*
X034914Y018515D01*
X034914Y018613D02*
X034696Y018613D01*
X034794Y018712D02*
X034945Y018712D01*
X034893Y018810D02*
X035014Y018810D01*
X035014Y018909D02*
X034974Y018909D01*
X034974Y019007D02*
X035014Y019007D01*
X035014Y019106D02*
X034974Y019106D01*
X034974Y019204D02*
X035014Y019204D01*
X035014Y019303D02*
X034974Y019303D01*
X034974Y019401D02*
X035014Y019401D01*
X035014Y019500D02*
X034974Y019500D01*
X034974Y019598D02*
X035014Y019598D01*
X035014Y019697D02*
X034974Y019697D01*
X034974Y019795D02*
X035014Y019795D01*
X035014Y019894D02*
X034974Y019894D01*
X034974Y019992D02*
X035014Y019992D01*
X035014Y020091D02*
X034974Y020091D01*
X034974Y020189D02*
X035014Y020189D01*
X035014Y020288D02*
X034974Y020288D01*
X034974Y020386D02*
X035014Y020386D01*
X035014Y020485D02*
X034974Y020485D01*
X034974Y020583D02*
X035014Y020583D01*
X035014Y020682D02*
X034974Y020682D01*
X034974Y020780D02*
X035014Y020780D01*
X035014Y020879D02*
X034974Y020879D01*
X034974Y020977D02*
X035014Y020977D01*
X035014Y021076D02*
X034974Y021076D01*
X034974Y021174D02*
X035014Y021174D01*
X035014Y021273D02*
X034974Y021273D01*
X034974Y021371D02*
X035014Y021371D01*
X034774Y021474D02*
X035174Y021874D01*
X034864Y021864D02*
X033529Y021864D01*
X033529Y021962D02*
X034875Y021962D01*
X034922Y022061D02*
X033529Y022061D01*
X033529Y022159D02*
X033630Y022159D01*
X033549Y022258D02*
X033529Y022258D01*
X033824Y022404D02*
X035904Y022404D01*
X036224Y022074D01*
X036224Y021874D01*
X036224Y019374D01*
X036324Y019274D01*
X036024Y019697D02*
X035434Y019697D01*
X035434Y019795D02*
X036024Y019795D01*
X036024Y019894D02*
X035434Y019894D01*
X035434Y019992D02*
X036024Y019992D01*
X036024Y020091D02*
X035434Y020091D01*
X035434Y020189D02*
X036024Y020189D01*
X035692Y019598D02*
X035434Y019598D01*
X035434Y019500D02*
X035554Y019500D01*
X034774Y018974D02*
X034424Y018624D01*
X034424Y017974D01*
X034549Y017849D01*
X034859Y017825D02*
X035092Y017825D01*
X035191Y017924D02*
X034854Y017924D01*
X034813Y018022D02*
X035289Y018022D01*
X035388Y018121D02*
X034703Y018121D01*
X034224Y018515D02*
X033181Y018515D01*
X033235Y018613D02*
X034224Y018613D01*
X034229Y018712D02*
X033254Y018712D01*
X033254Y018810D02*
X034327Y018810D01*
X034426Y018909D02*
X033254Y018909D01*
X033254Y019007D02*
X034524Y019007D01*
X034574Y019106D02*
X033322Y019106D01*
X033421Y019204D02*
X034574Y019204D01*
X034574Y019303D02*
X033495Y019303D01*
X033529Y019401D02*
X034574Y019401D01*
X034574Y019500D02*
X033529Y019500D01*
X033529Y019598D02*
X034574Y019598D01*
X034574Y019697D02*
X033529Y019697D01*
X033529Y019795D02*
X034574Y019795D01*
X034574Y019894D02*
X033529Y019894D01*
X033529Y019992D02*
X034574Y019992D01*
X034574Y020091D02*
X033529Y020091D01*
X033529Y020189D02*
X034574Y020189D01*
X034574Y020288D02*
X033529Y020288D01*
X033529Y020386D02*
X034574Y020386D01*
X034574Y020485D02*
X033529Y020485D01*
X033529Y020583D02*
X034574Y020583D01*
X034574Y020682D02*
X033529Y020682D01*
X033529Y020780D02*
X034574Y020780D01*
X034574Y020879D02*
X033529Y020879D01*
X033529Y020977D02*
X034574Y020977D01*
X034574Y021076D02*
X033529Y021076D01*
X033529Y021174D02*
X034574Y021174D01*
X034574Y021273D02*
X033529Y021273D01*
X033529Y021371D02*
X034574Y021371D01*
X034574Y021470D02*
X033529Y021470D01*
X033529Y021568D02*
X034585Y021568D01*
X034684Y021667D02*
X033529Y021667D01*
X033529Y021765D02*
X034782Y021765D01*
X034774Y021474D02*
X034774Y018974D01*
X034124Y017849D02*
X034099Y017824D01*
X034124Y017849D02*
X034399Y017574D01*
X032613Y018613D02*
X027493Y018613D01*
X027524Y018712D02*
X032594Y018712D01*
X032594Y018810D02*
X027524Y018810D01*
X027524Y018909D02*
X032594Y018909D01*
X032594Y019007D02*
X027524Y019007D01*
X027524Y019106D02*
X032594Y019106D01*
X032594Y019204D02*
X027524Y019204D01*
X027524Y019303D02*
X032620Y019303D01*
X032684Y019401D02*
X027524Y019401D01*
X027524Y019500D02*
X032783Y019500D01*
X032869Y019598D02*
X027524Y019598D01*
X027524Y019697D02*
X032869Y019697D01*
X032869Y019795D02*
X027524Y019795D01*
X027524Y019894D02*
X032869Y019894D01*
X032869Y019992D02*
X027524Y019992D01*
X027524Y020091D02*
X032869Y020091D01*
X032869Y020189D02*
X027524Y020189D01*
X027524Y020288D02*
X032869Y020288D01*
X032869Y020386D02*
X027524Y020386D01*
X027524Y020485D02*
X032869Y020485D01*
X032869Y020583D02*
X027524Y020583D01*
X027524Y020682D02*
X032869Y020682D01*
X032869Y020780D02*
X027524Y020780D01*
X027524Y020879D02*
X032869Y020879D01*
X032869Y020977D02*
X027524Y020977D01*
X027524Y021076D02*
X032869Y021076D01*
X032869Y021174D02*
X027524Y021174D01*
X027524Y021273D02*
X032869Y021273D01*
X032869Y021371D02*
X027524Y021371D01*
X027524Y021470D02*
X032869Y021470D01*
X032869Y021568D02*
X027524Y021568D01*
X027524Y021667D02*
X032869Y021667D01*
X032869Y021765D02*
X027524Y021765D01*
X027524Y021864D02*
X032869Y021864D01*
X032869Y021962D02*
X027524Y021962D01*
X027524Y022061D02*
X032869Y022061D01*
X032869Y022159D02*
X027524Y022159D01*
X027524Y022258D02*
X032869Y022258D01*
X032869Y022356D02*
X027524Y022356D01*
X027524Y022455D02*
X032869Y022455D01*
X032885Y022553D02*
X027524Y022553D01*
X027524Y022652D02*
X032935Y022652D01*
X033033Y022750D02*
X027524Y022750D01*
X027524Y022849D02*
X032855Y022849D01*
X032758Y022947D02*
X027524Y022947D01*
X027524Y023046D02*
X032717Y023046D01*
X032714Y023144D02*
X027524Y023144D01*
X027526Y023243D02*
X032742Y023243D01*
X033024Y023114D02*
X033214Y023114D01*
X033424Y023324D01*
X036724Y023324D01*
X037174Y022874D01*
X035958Y022061D02*
X035826Y022061D01*
X035863Y022159D02*
X035696Y022159D01*
X035452Y022159D02*
X035296Y022159D01*
X035052Y022159D02*
X034017Y022159D01*
X035434Y021371D02*
X036024Y021371D01*
X036024Y021273D02*
X035434Y021273D01*
X035434Y021174D02*
X035441Y021174D01*
X035466Y021470D02*
X036024Y021470D01*
X036024Y021568D02*
X035645Y021568D01*
X035805Y021667D02*
X035993Y021667D01*
X035933Y021765D02*
X035864Y021765D01*
X035884Y021864D02*
X035914Y021864D01*
X035925Y021962D02*
X035873Y021962D01*
X036455Y021667D02*
X036703Y021667D01*
X036566Y021765D02*
X036514Y021765D01*
X034194Y014476D02*
X034067Y014476D01*
X034139Y014378D02*
X034189Y014378D01*
X033344Y013688D02*
X035764Y013688D01*
X035764Y013590D02*
X033344Y013590D01*
X033344Y013491D02*
X035764Y013491D01*
X035764Y013393D02*
X033344Y013393D01*
X033344Y013294D02*
X033737Y013294D01*
X033729Y013196D02*
X033344Y013196D01*
X033344Y013097D02*
X033450Y013097D01*
X033351Y012999D02*
X033344Y012999D01*
X034454Y012408D02*
X035669Y012408D01*
X035764Y012506D02*
X035544Y012506D01*
X035610Y012605D02*
X035764Y012605D01*
X035764Y012703D02*
X035634Y012703D01*
X035627Y012802D02*
X035764Y012802D01*
X035764Y012900D02*
X035586Y012900D01*
X035471Y012999D02*
X035764Y012999D01*
X035764Y013097D02*
X035248Y013097D01*
X034919Y013196D02*
X035764Y013196D01*
X035764Y013294D02*
X034911Y013294D01*
X034919Y012703D02*
X035014Y012703D01*
X035038Y012605D02*
X034862Y012605D01*
X035103Y012506D02*
X034534Y012506D01*
X017824Y016474D02*
X017824Y017224D01*
X016074Y018974D01*
X014374Y018974D01*
X012924Y020424D01*
X012924Y019615D01*
X012284Y018974D01*
X010324Y017015D01*
X010324Y012974D01*
D29*
X034324Y019224D03*
D30*
X033699Y018599D03*
X034124Y017849D03*
X034549Y017849D03*
X034999Y018149D03*
X035224Y018574D03*
X036299Y018249D03*
X034574Y017274D03*
X033324Y016674D03*
X032724Y017074D03*
X032724Y016174D03*
X032674Y015624D03*
X032674Y015224D03*
X033974Y015724D03*
X034424Y014174D03*
X035324Y012724D03*
X033974Y012474D03*
X032174Y012924D03*
X031174Y012674D03*
X030774Y013374D03*
X030774Y013774D03*
X030074Y014724D03*
X029674Y014724D03*
X029624Y014124D03*
X028674Y014424D03*
X027749Y015099D03*
X027599Y015424D03*
X028199Y015449D03*
X028774Y015424D03*
X028824Y015824D03*
X029249Y015824D03*
X029949Y016474D03*
X029949Y016924D03*
X030824Y015724D03*
X032099Y013874D03*
X031174Y011324D03*
X030774Y011324D03*
X028524Y011324D03*
X028524Y010924D03*
X026624Y010674D03*
X026124Y010944D03*
X025024Y010324D03*
X025374Y009924D03*
X025224Y009324D03*
X023624Y009674D03*
X022924Y009074D03*
X022324Y009724D03*
X022724Y011124D03*
X023524Y011124D03*
X023974Y011124D03*
X024674Y012774D03*
X026074Y013724D03*
X026874Y013724D03*
X027299Y013774D03*
X028224Y012924D03*
X028224Y012524D03*
X025424Y014574D03*
X026274Y014874D03*
X024474Y013824D03*
X023374Y014874D03*
X020974Y014374D03*
X020624Y014074D03*
X020874Y013724D03*
X022124Y013324D03*
X022874Y012824D03*
X019824Y012724D03*
X019824Y013374D03*
X015824Y012974D03*
X015124Y012724D03*
X015124Y012224D03*
X013824Y012224D03*
X012824Y012724D03*
X011724Y012874D03*
X011174Y012874D03*
X010324Y012974D03*
X009824Y012974D03*
X011474Y013724D03*
X009824Y014074D03*
X009974Y015574D03*
X007824Y014074D03*
X009824Y011724D03*
X010324Y011724D03*
X010824Y011724D03*
X011274Y011724D03*
X011724Y011724D03*
X009824Y010874D03*
X011724Y010474D03*
X015324Y015624D03*
X021524Y017324D03*
X032524Y021574D03*
X033824Y022404D03*
X033024Y023114D03*
X034374Y021624D03*
X035174Y021874D03*
X035574Y021874D03*
X036224Y021874D03*
X033661Y020334D03*
X035824Y019274D03*
X036324Y019274D03*
X036674Y019274D03*
X026874Y009624D03*
X026724Y008024D03*
X027324Y007974D03*
X027724Y007974D03*
X026049Y007799D03*
X024824Y006824D03*
X024824Y006374D03*
X023724Y005774D03*
X026774Y006274D03*
X027674Y005774D03*
X027324Y002974D03*
X022924Y001774D03*
X023124Y007974D03*
D31*
X022424Y008574D02*
X024024Y008574D01*
X025374Y009924D01*
X025024Y010324D02*
X025174Y010474D01*
X025674Y010474D01*
X026124Y010924D01*
X026324Y011474D02*
X024224Y011474D01*
X022874Y012824D01*
X022124Y013324D02*
X022024Y013224D01*
X022024Y010224D01*
X021924Y010124D01*
X021924Y007274D01*
X022124Y007074D01*
X022974Y007074D01*
X023374Y006674D01*
X023374Y005174D01*
X023590Y004959D01*
X025824Y004959D01*
X026324Y003974D02*
X025824Y003474D01*
X025824Y002990D01*
X026324Y003974D02*
X027324Y003974D01*
X027324Y003654D02*
X027324Y002974D01*
X026049Y007799D02*
X026049Y008324D01*
X027324Y008324D01*
X027324Y007974D01*
X027324Y008324D02*
X027474Y008474D01*
X027474Y011524D01*
X028174Y012224D01*
X031474Y012224D01*
X032174Y012924D01*
X031174Y012674D02*
X030974Y012874D01*
X028674Y012874D01*
X026324Y015224D01*
X026324Y017074D01*
X026124Y017274D01*
X025424Y017274D01*
X025274Y017124D01*
X025274Y015574D01*
X025174Y015474D01*
X024574Y015474D01*
X023174Y014074D01*
X020624Y014074D01*
X020974Y014374D02*
X022874Y014374D01*
X023374Y014874D01*
X023274Y013724D02*
X024774Y015224D01*
X025574Y015224D01*
X025824Y015474D01*
X025824Y016474D01*
X027624Y016224D02*
X029761Y016224D01*
X029773Y016212D01*
X029887Y016164D01*
X031324Y016164D01*
X031324Y015474D01*
X031074Y015224D01*
X029424Y015224D01*
X029274Y015374D01*
X029067Y015374D01*
X029044Y015397D01*
X029044Y015478D01*
X029003Y015577D01*
X028927Y015653D01*
X028828Y015694D01*
X028720Y015694D01*
X028621Y015653D01*
X028545Y015577D01*
X028504Y015478D01*
X028504Y015371D01*
X028545Y015271D01*
X028621Y015196D01*
X028674Y015174D01*
X028674Y014824D01*
X029224Y014274D01*
X029224Y013974D01*
X028712Y013974D01*
X027624Y015063D01*
X027624Y016224D01*
X027624Y016168D02*
X029878Y016168D01*
X029003Y015576D02*
X031324Y015576D01*
X031324Y015694D02*
X027624Y015694D01*
X027624Y015576D02*
X028544Y015576D01*
X028504Y015457D02*
X027624Y015457D01*
X027624Y015339D02*
X028517Y015339D01*
X028596Y015220D02*
X027624Y015220D01*
X027624Y015102D02*
X028674Y015102D01*
X028674Y014983D02*
X027703Y014983D01*
X027822Y014865D02*
X028674Y014865D01*
X028752Y014746D02*
X027940Y014746D01*
X028059Y014628D02*
X028870Y014628D01*
X028989Y014509D02*
X028177Y014509D01*
X028296Y014391D02*
X029107Y014391D01*
X029224Y014272D02*
X028414Y014272D01*
X028533Y014154D02*
X029224Y014154D01*
X029224Y014035D02*
X028651Y014035D01*
X029181Y015024D02*
X028774Y015424D01*
X029044Y015457D02*
X031307Y015457D01*
X031188Y015339D02*
X029309Y015339D01*
X029181Y015024D02*
X031656Y015024D01*
X031674Y014974D01*
X031324Y015813D02*
X027624Y015813D01*
X027624Y015931D02*
X031324Y015931D01*
X031324Y016050D02*
X027624Y016050D01*
X023274Y013724D02*
X022574Y013724D01*
X021574Y014724D02*
X020574Y014724D01*
X020324Y014474D01*
X020324Y013224D01*
X019824Y012724D01*
X019824Y013374D02*
X019824Y014724D01*
X020824Y015724D01*
X020824Y016374D01*
X020824Y017224D01*
X020822Y017225D01*
X021147Y017581D01*
X017824Y020724D02*
X017024Y019924D01*
X016724Y019924D01*
X017824Y020724D02*
X017824Y021424D01*
X013824Y016474D02*
X013824Y012224D01*
X014174Y011824D02*
X013224Y011824D01*
X011824Y013224D01*
X011824Y016474D01*
X012824Y016374D02*
X012824Y012724D01*
X012124Y012574D02*
X011024Y012574D01*
X010824Y012774D01*
X010824Y016374D01*
X009974Y015574D02*
X009974Y014224D01*
X009824Y014074D01*
X009824Y012974D01*
X011474Y013124D02*
X011474Y013724D01*
X011474Y013124D02*
X011724Y012874D01*
X012124Y012574D02*
X013224Y011474D01*
X013524Y011474D01*
X014424Y010574D01*
X015424Y010574D02*
X014174Y011824D01*
X014824Y011724D02*
X014824Y016374D01*
X015324Y015624D02*
X015326Y015601D01*
X015331Y015578D01*
X015340Y015556D01*
X015353Y015536D01*
X015368Y015518D01*
X015386Y015503D01*
X015406Y015490D01*
X015428Y015481D01*
X015451Y015476D01*
X015474Y015474D01*
X015824Y015474D01*
X015824Y012974D01*
X015574Y012724D02*
X015124Y012724D01*
X015574Y012724D02*
X016574Y011724D01*
X019274Y011724D01*
X020424Y010574D01*
X019424Y010574D02*
X019424Y010624D01*
X018574Y011474D01*
X015874Y011474D01*
X015124Y012224D01*
X014824Y011724D02*
X015324Y011224D01*
X017774Y011224D01*
X018424Y010574D01*
X022924Y010174D02*
X022924Y010024D01*
X023274Y009674D01*
X023624Y009674D01*
X026824Y009674D02*
X026824Y010274D01*
X026924Y010374D01*
X026924Y010874D01*
X026874Y010924D01*
X026324Y011474D01*
X026824Y009674D02*
X026874Y009624D01*
X031174Y011324D02*
X032474Y011324D01*
X033524Y012374D01*
X033524Y012874D01*
X033624Y012974D01*
X034004Y012974D01*
X034324Y012974D02*
X034324Y012574D01*
X034224Y012474D01*
X033974Y012474D01*
X034644Y012974D02*
X035074Y012974D01*
X035324Y012724D01*
X034574Y016374D02*
X034574Y017274D01*
X035224Y018574D02*
X035224Y021524D01*
X035574Y021874D01*
X011724Y011724D02*
X011724Y010474D01*
X011274Y010824D02*
X011274Y011724D01*
X010824Y011724D02*
X010824Y010724D01*
X008630Y008531D01*
X007824Y008531D01*
X007824Y009318D02*
X008918Y009318D01*
X010324Y010724D01*
X010324Y011724D01*
X009824Y011724D02*
X009824Y010874D01*
X011274Y010824D02*
X008193Y007743D01*
X007824Y007743D01*
X007074Y004443D02*
X007074Y012774D01*
X008574Y014274D01*
X008574Y016124D01*
X008824Y016374D01*
X007824Y016474D02*
X007824Y020424D01*
X008824Y021424D01*
X007824Y016474D02*
X007824Y014074D01*
X007074Y004443D02*
X007824Y003693D01*
X009793Y001724D01*
X010574Y001724D01*
D32*
X007824Y006056D02*
X007693Y006056D01*
X007374Y006374D01*
X007374Y010124D01*
X007393Y010106D01*
X007824Y010106D01*
X007374Y010124D02*
X007374Y012024D01*
X007918Y012568D01*
X007974Y012568D01*
X008318Y012224D01*
X009324Y012224D01*
X012074Y012224D01*
X012424Y011874D01*
X012424Y010574D01*
X009324Y012224D02*
X009324Y017424D01*
X008124Y018624D01*
X008124Y020274D01*
X008774Y020924D01*
X009050Y020924D01*
X009324Y021199D01*
X009324Y021924D01*
X009824Y022424D01*
X033974Y015724D02*
X034324Y015724D01*
X034424Y015624D01*
X034424Y014174D01*
D33*
X023274Y015674D02*
X022324Y014724D01*
X021574Y014724D01*
X020874Y013724D02*
X022574Y013724D01*
X020024Y011974D02*
X021424Y010574D01*
X020024Y011974D02*
X016824Y011974D01*
X016324Y012474D01*
X016324Y016964D01*
X015963Y017324D01*
X015624Y017324D01*
X015074Y017224D02*
X015824Y016474D01*
X015074Y017224D02*
X011524Y017224D01*
X011324Y017024D01*
X011324Y015774D01*
X011174Y015624D01*
X011174Y012874D01*
X018824Y016374D02*
X018824Y017224D01*
X019574Y017974D01*
X021224Y017974D01*
X021524Y017674D01*
X021524Y017324D01*
X021824Y017724D02*
X020324Y019224D01*
X016974Y019224D01*
X016324Y019874D01*
X016324Y021924D01*
X015824Y022424D01*
X016824Y021424D02*
X016824Y020424D01*
X018324Y019424D02*
X020474Y019424D01*
X022824Y017074D01*
X022824Y016374D01*
X023274Y016974D02*
X023274Y015674D01*
X021824Y016474D02*
X021824Y017724D01*
X023274Y016974D02*
X019324Y020924D01*
X019324Y021624D01*
X019824Y022124D01*
X019824Y022424D01*
X018324Y021924D02*
X018324Y019424D01*
X016324Y017674D02*
X015574Y018424D01*
X014424Y018424D01*
X013924Y018924D01*
X013824Y017824D02*
X012774Y018924D01*
X013824Y017824D02*
X015674Y017824D01*
X016324Y017674D02*
X016574Y017674D01*
X012924Y020424D02*
X012924Y021274D01*
X012824Y021424D01*
X017824Y022424D02*
X018324Y021924D01*
X024324Y006374D02*
X023724Y005774D01*
X024324Y006374D02*
X024824Y006374D01*
X021424Y001724D02*
X010574Y001724D01*
D34*
X011324Y017024D03*
X012774Y018924D03*
X013924Y018924D03*
X015674Y017824D03*
X015624Y017324D03*
X016574Y017674D03*
X016724Y019924D03*
X016824Y020424D03*
X021147Y017581D03*
D35*
X021424Y008574D03*
X020424Y008574D03*
X020424Y007574D03*
X021424Y007574D03*
X021424Y006574D03*
X022424Y006574D03*
X022424Y005574D03*
X021424Y005574D03*
X020424Y005574D03*
X020424Y006574D03*
X018424Y006574D03*
X017424Y006574D03*
X016424Y006574D03*
X015424Y006574D03*
X014424Y006574D03*
X013424Y006574D03*
X012424Y006574D03*
X012424Y005574D03*
X013424Y005574D03*
X014424Y005574D03*
X015424Y005574D03*
X016424Y005574D03*
X017424Y005574D03*
X018424Y005574D03*
X018424Y004574D03*
X018424Y003574D03*
X018424Y002574D03*
X016424Y003574D03*
X014424Y003574D03*
X014424Y004574D03*
X012424Y003574D03*
X014424Y002574D03*
X010424Y002574D03*
X010424Y003574D03*
X010424Y004574D03*
X010424Y005574D03*
X010424Y006574D03*
X010424Y007574D03*
X010424Y008574D03*
X011424Y008574D03*
X012424Y008574D03*
X013424Y008574D03*
X014424Y008574D03*
X015424Y008574D03*
X015424Y007574D03*
X014424Y007574D03*
X013424Y007574D03*
X012424Y007574D03*
X016424Y007574D03*
X017424Y007574D03*
X018424Y007574D03*
X018424Y008574D03*
X019424Y008574D03*
X022424Y004574D03*
X022424Y003574D03*
X022424Y002574D03*
X020424Y003574D03*
D36*
X021424Y003574D03*
X021424Y004574D03*
X020424Y004574D03*
X019424Y004574D03*
X019424Y003574D03*
X019424Y002574D03*
X020424Y002574D03*
X021424Y002574D03*
X017424Y002574D03*
X016424Y002574D03*
X015424Y002574D03*
X015424Y003574D03*
X015424Y004574D03*
X016424Y004574D03*
X017424Y004574D03*
X017424Y003574D03*
X019424Y005574D03*
X019424Y006574D03*
X019424Y007574D03*
X013424Y004574D03*
X012424Y004574D03*
X011424Y004574D03*
X011424Y003574D03*
X011424Y002574D03*
X012424Y002574D03*
X013424Y002574D03*
X013424Y003574D03*
X011424Y005574D03*
X011424Y006574D03*
X011424Y007574D03*
D37*
X032924Y018749D03*
X032924Y019174D03*
X033424Y014224D03*
X033824Y014224D03*
D38*
X022424Y008574D03*
X022424Y007574D03*
D39*
X012924Y020424D03*
D40*
X028524Y011324D02*
X028524Y010924D01*
X032874Y010924D01*
X034024Y012074D01*
X035774Y012074D01*
X036074Y012374D01*
X036074Y016274D01*
X036374Y016574D01*
X039824Y016574D01*
X039974Y016724D01*
X039974Y022474D01*
X039780Y022668D01*
X039224Y022668D01*
D41*
X039130Y021974D02*
X039224Y021881D01*
X039130Y021974D02*
X036824Y021974D01*
X035974Y022874D01*
X033624Y022874D01*
X033199Y022449D01*
X033199Y019449D01*
X032924Y019174D01*
X032924Y018724D01*
D42*
X012672Y019866D02*
X012652Y019748D01*
X012614Y019634D01*
X012558Y019529D01*
X012486Y019433D01*
X012401Y019349D01*
X012303Y019280D01*
X012196Y019227D01*
X012081Y019192D01*
X011963Y019174D01*
X011274Y019274D01*
X008324Y019274D01*
X008324Y020174D01*
X008824Y020674D01*
X011324Y020674D01*
X011802Y020724D01*
X011927Y020726D01*
X012052Y020709D01*
X012172Y020672D01*
X012285Y020616D01*
X012387Y020544D01*
X012478Y020457D01*
X012553Y020356D01*
X012612Y020245D01*
X012652Y020126D01*
X012674Y020002D01*
X012674Y019985D01*
X012672Y019866D01*
X012671Y019856D02*
X008324Y019856D01*
X008324Y019808D02*
X012662Y019808D01*
X012654Y019759D02*
X008324Y019759D01*
X008324Y019711D02*
X012639Y019711D01*
X012623Y019662D02*
X008324Y019662D01*
X008324Y019614D02*
X012603Y019614D01*
X012577Y019565D02*
X008324Y019565D01*
X008324Y019517D02*
X012549Y019517D01*
X012513Y019468D02*
X008324Y019468D01*
X008324Y019420D02*
X012473Y019420D01*
X012423Y019371D02*
X008324Y019371D01*
X008324Y019323D02*
X012363Y019323D01*
X012291Y019274D02*
X011277Y019274D01*
X011611Y019225D02*
X012190Y019225D01*
X011981Y019177D02*
X011945Y019177D01*
X012673Y019905D02*
X008324Y019905D01*
X008324Y019953D02*
X012673Y019953D01*
X012674Y020002D02*
X008324Y020002D01*
X008324Y020050D02*
X012666Y020050D01*
X012657Y020099D02*
X008324Y020099D01*
X008324Y020147D02*
X012645Y020147D01*
X012629Y020196D02*
X008345Y020196D01*
X008394Y020244D02*
X012612Y020244D01*
X012587Y020293D02*
X008442Y020293D01*
X008491Y020341D02*
X012561Y020341D01*
X012528Y020390D02*
X008539Y020390D01*
X008588Y020438D02*
X012492Y020438D01*
X012447Y020487D02*
X008636Y020487D01*
X008685Y020535D02*
X012397Y020535D01*
X012331Y020584D02*
X008733Y020584D01*
X008782Y020632D02*
X012253Y020632D01*
X012143Y020681D02*
X011382Y020681D01*
M02*
