G75*
G70*
%OFA0B0*%
%FSLAX24Y24*%
%IPPOS*%
%LPD*%
%AMOC8*
5,1,8,0,0,1.08239X$1,22.5*
%
%ADD10C,0.0000*%
%ADD11R,0.0770X0.0680*%
%ADD12R,0.0670X0.0790*%
D10*
X006865Y002944D02*
X006873Y022025D01*
X006875Y022101D01*
X006881Y022176D01*
X006890Y022252D01*
X006904Y022326D01*
X006921Y022400D01*
X006942Y022473D01*
X006967Y022545D01*
X006995Y022616D01*
X007026Y022685D01*
X007062Y022752D01*
X007100Y022818D01*
X007142Y022881D01*
X007187Y022942D01*
X007235Y023001D01*
X007286Y023058D01*
X007340Y023111D01*
X007396Y023162D01*
X007455Y023210D01*
X007516Y023255D01*
X007580Y023297D01*
X007645Y023336D01*
X007712Y023371D01*
X007782Y023402D01*
X007852Y023431D01*
X007924Y023455D01*
X007997Y023476D01*
X008071Y023493D01*
X008146Y023507D01*
X008221Y023516D01*
X008297Y023522D01*
X008373Y023524D01*
X022674Y023524D01*
X022704Y023522D01*
X022734Y023517D01*
X022763Y023508D01*
X022790Y023495D01*
X022816Y023480D01*
X022840Y023461D01*
X022861Y023440D01*
X022880Y023416D01*
X022895Y023390D01*
X022908Y023363D01*
X022917Y023334D01*
X022922Y023304D01*
X022924Y023274D01*
X022924Y018774D01*
X022926Y018744D01*
X022931Y018714D01*
X022940Y018685D01*
X022953Y018658D01*
X022968Y018632D01*
X022987Y018608D01*
X023008Y018587D01*
X023032Y018568D01*
X023058Y018553D01*
X023085Y018540D01*
X023114Y018531D01*
X023144Y018526D01*
X023174Y018524D01*
X027124Y018524D01*
X027154Y018526D01*
X027184Y018531D01*
X027213Y018540D01*
X027240Y018553D01*
X027266Y018568D01*
X027290Y018587D01*
X027311Y018608D01*
X027330Y018632D01*
X027345Y018658D01*
X027358Y018685D01*
X027367Y018714D01*
X027372Y018744D01*
X027374Y018774D01*
X027374Y023225D01*
X027376Y023255D01*
X027381Y023285D01*
X027390Y023314D01*
X027403Y023341D01*
X027418Y023367D01*
X027437Y023391D01*
X027458Y023412D01*
X027482Y023431D01*
X027508Y023446D01*
X027535Y023459D01*
X027564Y023468D01*
X027594Y023473D01*
X027624Y023475D01*
X040364Y023484D01*
X040364Y016304D01*
X036674Y016304D01*
X036644Y016302D01*
X036614Y016297D01*
X036585Y016288D01*
X036558Y016275D01*
X036532Y016260D01*
X036508Y016241D01*
X036487Y016220D01*
X036468Y016196D01*
X036453Y016170D01*
X036440Y016143D01*
X036431Y016114D01*
X036426Y016084D01*
X036424Y016054D01*
X036424Y010914D01*
X036422Y010884D01*
X036417Y010854D01*
X036408Y010825D01*
X036395Y010798D01*
X036380Y010772D01*
X036361Y010748D01*
X036340Y010727D01*
X036316Y010708D01*
X036290Y010693D01*
X036263Y010680D01*
X036234Y010671D01*
X036204Y010666D01*
X036174Y010664D01*
X028574Y010664D01*
X028544Y010662D01*
X028514Y010657D01*
X028485Y010648D01*
X028458Y010635D01*
X028432Y010620D01*
X028408Y010601D01*
X028387Y010580D01*
X028368Y010556D01*
X028353Y010530D01*
X028340Y010503D01*
X028331Y010474D01*
X028326Y010444D01*
X028324Y010414D01*
X028324Y003844D01*
X028321Y003730D01*
X028313Y003616D01*
X028300Y003502D01*
X028281Y003390D01*
X028256Y003278D01*
X028227Y003168D01*
X028192Y003059D01*
X028152Y002952D01*
X028107Y002847D01*
X028057Y002744D01*
X028002Y002644D01*
X027943Y002546D01*
X027879Y002452D01*
X027811Y002360D01*
X027738Y002272D01*
X027661Y002188D01*
X027580Y002107D01*
X027496Y002030D01*
X027408Y001957D01*
X027316Y001889D01*
X027222Y001825D01*
X027124Y001766D01*
X027024Y001711D01*
X026921Y001661D01*
X026816Y001616D01*
X026709Y001576D01*
X026600Y001541D01*
X026490Y001512D01*
X026378Y001487D01*
X026266Y001468D01*
X026152Y001455D01*
X026038Y001447D01*
X025924Y001444D01*
X008365Y001444D01*
X008289Y001446D01*
X008213Y001452D01*
X008138Y001461D01*
X008063Y001475D01*
X007989Y001492D01*
X007916Y001513D01*
X007844Y001537D01*
X007774Y001566D01*
X007705Y001597D01*
X007637Y001632D01*
X007572Y001671D01*
X007508Y001713D01*
X007447Y001758D01*
X007388Y001806D01*
X007332Y001857D01*
X007278Y001910D01*
X007227Y001967D01*
X007179Y002026D01*
X007134Y002087D01*
X007092Y002150D01*
X007054Y002216D01*
X007018Y002283D01*
X006987Y002352D01*
X006958Y002423D01*
X006934Y002495D01*
X006913Y002568D01*
X006896Y002642D01*
X006882Y002716D01*
X006873Y002792D01*
X006867Y002868D01*
X006865Y002944D01*
X016347Y008543D02*
X016349Y008590D01*
X016355Y008637D01*
X016364Y008683D01*
X016378Y008728D01*
X016395Y008772D01*
X016416Y008815D01*
X016440Y008855D01*
X016467Y008894D01*
X016498Y008930D01*
X016531Y008963D01*
X016567Y008994D01*
X016606Y009021D01*
X016646Y009045D01*
X016689Y009066D01*
X016733Y009083D01*
X016778Y009097D01*
X016824Y009106D01*
X016871Y009112D01*
X016918Y009114D01*
X016965Y009112D01*
X017012Y009106D01*
X017058Y009097D01*
X017103Y009083D01*
X017147Y009066D01*
X017190Y009045D01*
X017230Y009021D01*
X017269Y008994D01*
X017305Y008963D01*
X017338Y008930D01*
X017369Y008894D01*
X017396Y008855D01*
X017420Y008815D01*
X017441Y008772D01*
X017458Y008728D01*
X017472Y008683D01*
X017481Y008637D01*
X017487Y008590D01*
X017489Y008543D01*
X017487Y008496D01*
X017481Y008449D01*
X017472Y008403D01*
X017458Y008358D01*
X017441Y008314D01*
X017420Y008271D01*
X017396Y008231D01*
X017369Y008192D01*
X017338Y008156D01*
X017305Y008123D01*
X017269Y008092D01*
X017230Y008065D01*
X017190Y008041D01*
X017147Y008020D01*
X017103Y008003D01*
X017058Y007989D01*
X017012Y007980D01*
X016965Y007974D01*
X016918Y007972D01*
X016871Y007974D01*
X016824Y007980D01*
X016778Y007989D01*
X016733Y008003D01*
X016689Y008020D01*
X016646Y008041D01*
X016606Y008065D01*
X016567Y008092D01*
X016531Y008123D01*
X016498Y008156D01*
X016467Y008192D01*
X016440Y008231D01*
X016416Y008271D01*
X016395Y008314D01*
X016378Y008358D01*
X016364Y008403D01*
X016355Y008449D01*
X016349Y008496D01*
X016347Y008543D01*
X037792Y018586D02*
X037794Y018633D01*
X037800Y018680D01*
X037809Y018726D01*
X037823Y018771D01*
X037840Y018815D01*
X037861Y018858D01*
X037885Y018898D01*
X037912Y018937D01*
X037943Y018973D01*
X037976Y019006D01*
X038012Y019037D01*
X038051Y019064D01*
X038091Y019088D01*
X038134Y019109D01*
X038178Y019126D01*
X038223Y019140D01*
X038269Y019149D01*
X038316Y019155D01*
X038363Y019157D01*
X038410Y019155D01*
X038457Y019149D01*
X038503Y019140D01*
X038548Y019126D01*
X038592Y019109D01*
X038635Y019088D01*
X038675Y019064D01*
X038714Y019037D01*
X038750Y019006D01*
X038783Y018973D01*
X038814Y018937D01*
X038841Y018898D01*
X038865Y018858D01*
X038886Y018815D01*
X038903Y018771D01*
X038917Y018726D01*
X038926Y018680D01*
X038932Y018633D01*
X038934Y018586D01*
X038932Y018539D01*
X038926Y018492D01*
X038917Y018446D01*
X038903Y018401D01*
X038886Y018357D01*
X038865Y018314D01*
X038841Y018274D01*
X038814Y018235D01*
X038783Y018199D01*
X038750Y018166D01*
X038714Y018135D01*
X038675Y018108D01*
X038635Y018084D01*
X038592Y018063D01*
X038548Y018046D01*
X038503Y018032D01*
X038457Y018023D01*
X038410Y018017D01*
X038363Y018015D01*
X038316Y018017D01*
X038269Y018023D01*
X038223Y018032D01*
X038178Y018046D01*
X038134Y018063D01*
X038091Y018084D01*
X038051Y018108D01*
X038012Y018135D01*
X037976Y018166D01*
X037943Y018199D01*
X037912Y018235D01*
X037885Y018274D01*
X037861Y018314D01*
X037840Y018357D01*
X037823Y018401D01*
X037809Y018446D01*
X037800Y018492D01*
X037794Y018539D01*
X037792Y018586D01*
D11*
X027309Y003744D03*
D12*
X034099Y012969D03*
M02*
