%
M48
M72
T01C0.0197
T02C0.0200
T03C0.0230
T04C0.0236
T05C0.0240
T06C0.0315
T07C0.0354
T08C0.0394
T09C0.0400
T10C0.0433
T11C0.0480
T12C0.1142
%
T01
X12774Y18924
X13924Y18924
X15674Y17824
X15624Y17324
X16574Y17674
X16724Y19924
X16824Y20424
X21147Y17581
X11324Y17024
T02
X27324Y2974
X9974Y15574
X9824Y14074
X11474Y13724
X10324Y12974
X9824Y12974
X11174Y12874
X11724Y12874
X12824Y12724
X13824Y12224
X15124Y12224
X15124Y12724
X15824Y12974
X15324Y15624
X19824Y13374
X19824Y12724
X20874Y13724
X20624Y14074
X20974Y14374
X22124Y13324
X22874Y12824
X24674Y12774
X26074Y13724
X26874Y13724
X27299Y13774
X28674Y14424
X29624Y14124
X29674Y14724
X30074Y14724
X30774Y13774
X30774Y13374
X31174Y12674
X32174Y12924
X32099Y13874
X32674Y15224
X32674Y15624
X32724Y16174
X33324Y16674
X32724Y17074
X34124Y17849
X34549Y17849
X34999Y18149
X35224Y18574
X36299Y18249
X34574Y17274
X33699Y18599
X35824Y19274
X36324Y19274
X36674Y19274
X33661Y20334
X34374Y21624
X35174Y21874
X35574Y21874
X36224Y21874
X33824Y22404
X33024Y23114
X32524Y21574
X29949Y16924
X29949Y16474
X29249Y15824
X28824Y15824
X28774Y15424
X28199Y15449
X27749Y15099
X27599Y15424
X26274Y14874
X25424Y14574
X24474Y13824
X23374Y14874
X21524Y17324
X28224Y12924
X28224Y12524
X28524Y11324
X28524Y10924
X26624Y10674
X26124Y10944
X25024Y10324
X25374Y9924
X25224Y9324
X23624Y9674
X22924Y9074
X22324Y9724
X22724Y11124
X23524Y11124
X23974Y11124
X26874Y9624
X26724Y8024
X27324Y7974
X27724Y7974
X26049Y7799
X24824Y6824
X24824Y6374
X23724Y5774
X27674Y5774
X26774Y6274
X23124Y7974
X11724Y10474
X9824Y10874
X9824Y11724
X10324Y11724
X10824Y11724
X11274Y11724
X11724Y11724
X7824Y14074
X22924Y1774
X30774Y11324
X31174Y11324
X33974Y12474
X35324Y12724
X34424Y14174
X33974Y15724
X30824Y15724
T03
X32924Y18749
X32924Y19174
X33824Y14224
X33424Y14224
T04
X34324Y19224
T05
X12924Y20424
T06
X7824Y3693
X7824Y4481
X7824Y5268
X7824Y6056
X7824Y7743
X7824Y8531
X7824Y9318
X7824Y10106
X7974Y11781
X7974Y12568
X39224Y17918
X39224Y17131
X39224Y19481
X39224Y20268
X39224Y21881
X39224Y22668
T07
X12495Y9899
X13479Y9899
X14463Y9899
X15448Y9899
X16432Y9899
X17416Y9899
X18400Y9899
X19385Y9899
X20369Y9899
X21353Y9899
T08
X25824Y2990
X8824Y22424
X7824Y22424
X7824Y21424
X8824Y21424
X9824Y21424
X10824Y21424
X11824Y21424
X12824Y21424
X13824Y21424
X14824Y21424
X15824Y21424
X16824Y21424
X17824Y21424
X18824Y21424
X19824Y21424
X19824Y22424
X18824Y22424
X17824Y22424
X16824Y22424
X15824Y22424
X14824Y22424
X13824Y22424
X12824Y22424
X11824Y22424
X10824Y22424
X9824Y22424
X25824Y4959
T09
X7824Y16474
X8824Y16374
X9824Y16474
X10824Y16374
X11824Y16474
X12824Y16374
X13824Y16474
X14824Y16374
X15824Y16474
X16824Y16374
X17824Y16474
X18824Y16374
X19824Y16474
X20824Y16374
X21824Y16474
X22824Y16374
X23824Y16474
X24824Y16374
X25824Y16474
X26824Y16374
X21424Y10574
X20424Y10574
X19424Y10574
X18424Y10574
X17424Y10574
X16424Y10574
X15424Y10574
X14424Y10574
X13424Y10574
X12424Y10574
T10
X22424Y2574
X21424Y2574
X20424Y2574
X19424Y2574
X18424Y2574
X17424Y2574
X16424Y2574
X15424Y2574
X14424Y2574
X13424Y2574
X12424Y2574
X11424Y2574
X10424Y2574
X10424Y3574
X11424Y3574
X12424Y3574
X13424Y3574
X14424Y3574
X15424Y3574
X16424Y3574
X17424Y3574
X18424Y3574
X19424Y3574
X20424Y3574
X21424Y3574
X22424Y3574
X22424Y4574
X21424Y4574
X20424Y4574
X19424Y4574
X18424Y4574
X17424Y4574
X16424Y4574
X15424Y4574
X14424Y4574
X13424Y4574
X12424Y4574
X11424Y4574
X10424Y4574
X10424Y5574
X11424Y5574
X12424Y5574
X13424Y5574
X14424Y5574
X15424Y5574
X16424Y5574
X17424Y5574
X18424Y5574
X19424Y5574
X20424Y5574
X21424Y5574
X22424Y5574
X22424Y6574
X21424Y6574
X20424Y6574
X19424Y6574
X18424Y6574
X17424Y6574
X16424Y6574
X15424Y6574
X14424Y6574
X13424Y6574
X12424Y6574
X11424Y6574
X10424Y6574
X10424Y7574
X11424Y7574
X12424Y7574
X13424Y7574
X14424Y7574
X15424Y7574
X16424Y7574
X17424Y7574
X18424Y7574
X19424Y7574
X20424Y7574
X21424Y7574
X22424Y7574
X22424Y8574
X21424Y8574
X20424Y8574
X19424Y8574
X18424Y8574
X15424Y8574
X14424Y8574
X13424Y8574
X12424Y8574
X11424Y8574
X10424Y8574
T11
X33074Y17824
X37174Y22874
X34324Y11224
T12
X16918Y8543
X38363Y18586
M30
