G75*
G70*
%OFA0B0*%
%FSLAX24Y24*%
%IPPOS*%
%LPD*%
%AMOC8*
5,1,8,0,0,1.08239X$1,22.5*
%
%ADD10C,0.0000*%
%ADD11R,0.0594X0.0594*%
%ADD12C,0.0660*%
%ADD13C,0.0594*%
%ADD14R,0.0394X0.0433*%
%ADD15R,0.0433X0.0394*%
%ADD16R,0.0709X0.0630*%
%ADD17R,0.0315X0.0315*%
%ADD18C,0.0560*%
%ADD19R,0.0515X0.0515*%
%ADD20C,0.0515*%
%ADD21C,0.0600*%
%ADD22R,0.1080X0.0850*%
%ADD23R,0.0701X0.0283*%
%ADD24OC8,0.0700*%
%ADD25R,0.0100X0.0620*%
%ADD26R,0.0770X0.0960*%
%ADD27R,0.0700X0.0120*%
%ADD28R,0.0120X0.0700*%
%ADD29R,0.0670X0.0670*%
%ADD30R,0.0700X0.0150*%
%ADD31R,0.0150X0.0700*%
%ADD32R,0.0850X0.0850*%
%ADD33R,0.0630X0.1063*%
%ADD34R,0.0630X0.0710*%
%ADD35R,0.1102X0.0965*%
%ADD36C,0.1000*%
%ADD37R,0.0800X0.0800*%
%ADD38R,0.0250X0.0500*%
%ADD39R,0.0554X0.0554*%
%ADD40OC8,0.0554*%
%ADD41C,0.0100*%
%ADD42C,0.0356*%
%ADD43C,0.0320*%
%ADD44C,0.0160*%
%ADD45C,0.0320*%
%ADD46C,0.0120*%
%ADD47C,0.0400*%
%ADD48C,0.0110*%
%ADD49C,0.0317*%
%ADD50C,0.0240*%
%ADD51C,0.0760*%
%ADD52R,0.0760X0.0760*%
%ADD53C,0.0350*%
%ADD54OC8,0.0760*%
%ADD55C,0.0360*%
%ADD56C,0.0360*%
%ADD57C,0.0080*%
D10*
X006865Y002944D02*
X006873Y022025D01*
X006875Y022101D01*
X006881Y022176D01*
X006890Y022252D01*
X006904Y022326D01*
X006921Y022400D01*
X006942Y022473D01*
X006967Y022545D01*
X006995Y022616D01*
X007026Y022685D01*
X007062Y022752D01*
X007100Y022818D01*
X007142Y022881D01*
X007187Y022942D01*
X007235Y023001D01*
X007286Y023058D01*
X007340Y023111D01*
X007396Y023162D01*
X007455Y023210D01*
X007516Y023255D01*
X007580Y023297D01*
X007645Y023336D01*
X007712Y023371D01*
X007782Y023402D01*
X007852Y023431D01*
X007924Y023455D01*
X007997Y023476D01*
X008071Y023493D01*
X008146Y023507D01*
X008221Y023516D01*
X008297Y023522D01*
X008373Y023524D01*
X022674Y023524D01*
X022704Y023522D01*
X022734Y023517D01*
X022763Y023508D01*
X022790Y023495D01*
X022816Y023480D01*
X022840Y023461D01*
X022861Y023440D01*
X022880Y023416D01*
X022895Y023390D01*
X022908Y023363D01*
X022917Y023334D01*
X022922Y023304D01*
X022924Y023274D01*
X022924Y018774D01*
X022926Y018744D01*
X022931Y018714D01*
X022940Y018685D01*
X022953Y018658D01*
X022968Y018632D01*
X022987Y018608D01*
X023008Y018587D01*
X023032Y018568D01*
X023058Y018553D01*
X023085Y018540D01*
X023114Y018531D01*
X023144Y018526D01*
X023174Y018524D01*
X027124Y018524D01*
X027154Y018526D01*
X027184Y018531D01*
X027213Y018540D01*
X027240Y018553D01*
X027266Y018568D01*
X027290Y018587D01*
X027311Y018608D01*
X027330Y018632D01*
X027345Y018658D01*
X027358Y018685D01*
X027367Y018714D01*
X027372Y018744D01*
X027374Y018774D01*
X027374Y023225D01*
X027376Y023255D01*
X027381Y023285D01*
X027390Y023314D01*
X027403Y023341D01*
X027418Y023367D01*
X027437Y023391D01*
X027458Y023412D01*
X027482Y023431D01*
X027508Y023446D01*
X027535Y023459D01*
X027564Y023468D01*
X027594Y023473D01*
X027624Y023475D01*
X040364Y023484D01*
X040364Y016304D01*
X036674Y016304D01*
X036644Y016302D01*
X036614Y016297D01*
X036585Y016288D01*
X036558Y016275D01*
X036532Y016260D01*
X036508Y016241D01*
X036487Y016220D01*
X036468Y016196D01*
X036453Y016170D01*
X036440Y016143D01*
X036431Y016114D01*
X036426Y016084D01*
X036424Y016054D01*
X036424Y010914D01*
X036422Y010884D01*
X036417Y010854D01*
X036408Y010825D01*
X036395Y010798D01*
X036380Y010772D01*
X036361Y010748D01*
X036340Y010727D01*
X036316Y010708D01*
X036290Y010693D01*
X036263Y010680D01*
X036234Y010671D01*
X036204Y010666D01*
X036174Y010664D01*
X028574Y010664D01*
X028544Y010662D01*
X028514Y010657D01*
X028485Y010648D01*
X028458Y010635D01*
X028432Y010620D01*
X028408Y010601D01*
X028387Y010580D01*
X028368Y010556D01*
X028353Y010530D01*
X028340Y010503D01*
X028331Y010474D01*
X028326Y010444D01*
X028324Y010414D01*
X028324Y003844D01*
X028321Y003730D01*
X028313Y003616D01*
X028300Y003502D01*
X028281Y003390D01*
X028256Y003278D01*
X028227Y003168D01*
X028192Y003059D01*
X028152Y002952D01*
X028107Y002847D01*
X028057Y002744D01*
X028002Y002644D01*
X027943Y002546D01*
X027879Y002452D01*
X027811Y002360D01*
X027738Y002272D01*
X027661Y002188D01*
X027580Y002107D01*
X027496Y002030D01*
X027408Y001957D01*
X027316Y001889D01*
X027222Y001825D01*
X027124Y001766D01*
X027024Y001711D01*
X026921Y001661D01*
X026816Y001616D01*
X026709Y001576D01*
X026600Y001541D01*
X026490Y001512D01*
X026378Y001487D01*
X026266Y001468D01*
X026152Y001455D01*
X026038Y001447D01*
X025924Y001444D01*
X008365Y001444D01*
X008289Y001446D01*
X008213Y001452D01*
X008138Y001461D01*
X008063Y001475D01*
X007989Y001492D01*
X007916Y001513D01*
X007844Y001537D01*
X007774Y001566D01*
X007705Y001597D01*
X007637Y001632D01*
X007572Y001671D01*
X007508Y001713D01*
X007447Y001758D01*
X007388Y001806D01*
X007332Y001857D01*
X007278Y001910D01*
X007227Y001967D01*
X007179Y002026D01*
X007134Y002087D01*
X007092Y002150D01*
X007054Y002216D01*
X007018Y002283D01*
X006987Y002352D01*
X006958Y002423D01*
X006934Y002495D01*
X006913Y002568D01*
X006896Y002642D01*
X006882Y002716D01*
X006873Y002792D01*
X006867Y002868D01*
X006865Y002944D01*
X016347Y008543D02*
X016349Y008590D01*
X016355Y008637D01*
X016364Y008683D01*
X016378Y008728D01*
X016395Y008772D01*
X016416Y008815D01*
X016440Y008855D01*
X016467Y008894D01*
X016498Y008930D01*
X016531Y008963D01*
X016567Y008994D01*
X016606Y009021D01*
X016646Y009045D01*
X016689Y009066D01*
X016733Y009083D01*
X016778Y009097D01*
X016824Y009106D01*
X016871Y009112D01*
X016918Y009114D01*
X016965Y009112D01*
X017012Y009106D01*
X017058Y009097D01*
X017103Y009083D01*
X017147Y009066D01*
X017190Y009045D01*
X017230Y009021D01*
X017269Y008994D01*
X017305Y008963D01*
X017338Y008930D01*
X017369Y008894D01*
X017396Y008855D01*
X017420Y008815D01*
X017441Y008772D01*
X017458Y008728D01*
X017472Y008683D01*
X017481Y008637D01*
X017487Y008590D01*
X017489Y008543D01*
X017487Y008496D01*
X017481Y008449D01*
X017472Y008403D01*
X017458Y008358D01*
X017441Y008314D01*
X017420Y008271D01*
X017396Y008231D01*
X017369Y008192D01*
X017338Y008156D01*
X017305Y008123D01*
X017269Y008092D01*
X017230Y008065D01*
X017190Y008041D01*
X017147Y008020D01*
X017103Y008003D01*
X017058Y007989D01*
X017012Y007980D01*
X016965Y007974D01*
X016918Y007972D01*
X016871Y007974D01*
X016824Y007980D01*
X016778Y007989D01*
X016733Y008003D01*
X016689Y008020D01*
X016646Y008041D01*
X016606Y008065D01*
X016567Y008092D01*
X016531Y008123D01*
X016498Y008156D01*
X016467Y008192D01*
X016440Y008231D01*
X016416Y008271D01*
X016395Y008314D01*
X016378Y008358D01*
X016364Y008403D01*
X016355Y008449D01*
X016349Y008496D01*
X016347Y008543D01*
X037792Y018586D02*
X037794Y018633D01*
X037800Y018680D01*
X037809Y018726D01*
X037823Y018771D01*
X037840Y018815D01*
X037861Y018858D01*
X037885Y018898D01*
X037912Y018937D01*
X037943Y018973D01*
X037976Y019006D01*
X038012Y019037D01*
X038051Y019064D01*
X038091Y019088D01*
X038134Y019109D01*
X038178Y019126D01*
X038223Y019140D01*
X038269Y019149D01*
X038316Y019155D01*
X038363Y019157D01*
X038410Y019155D01*
X038457Y019149D01*
X038503Y019140D01*
X038548Y019126D01*
X038592Y019109D01*
X038635Y019088D01*
X038675Y019064D01*
X038714Y019037D01*
X038750Y019006D01*
X038783Y018973D01*
X038814Y018937D01*
X038841Y018898D01*
X038865Y018858D01*
X038886Y018815D01*
X038903Y018771D01*
X038917Y018726D01*
X038926Y018680D01*
X038932Y018633D01*
X038934Y018586D01*
X038932Y018539D01*
X038926Y018492D01*
X038917Y018446D01*
X038903Y018401D01*
X038886Y018357D01*
X038865Y018314D01*
X038841Y018274D01*
X038814Y018235D01*
X038783Y018199D01*
X038750Y018166D01*
X038714Y018135D01*
X038675Y018108D01*
X038635Y018084D01*
X038592Y018063D01*
X038548Y018046D01*
X038503Y018032D01*
X038457Y018023D01*
X038410Y018017D01*
X038363Y018015D01*
X038316Y018017D01*
X038269Y018023D01*
X038223Y018032D01*
X038178Y018046D01*
X038134Y018063D01*
X038091Y018084D01*
X038051Y018108D01*
X038012Y018135D01*
X037976Y018166D01*
X037943Y018199D01*
X037912Y018235D01*
X037885Y018274D01*
X037861Y018314D01*
X037840Y018357D01*
X037823Y018401D01*
X037809Y018446D01*
X037800Y018492D01*
X037794Y018539D01*
X037792Y018586D01*
D11*
X007824Y021424D03*
D12*
X007824Y022424D03*
X009824Y022424D03*
D13*
X010824Y022424D03*
X011824Y022424D03*
X012824Y022424D03*
X013824Y022424D03*
X014824Y022424D03*
X015824Y022424D03*
X016824Y022424D03*
X017824Y022424D03*
X018824Y022424D03*
X019824Y022424D03*
X019824Y021424D03*
X018824Y021424D03*
X017824Y021424D03*
X016824Y021424D03*
X015824Y021424D03*
X014824Y021424D03*
X013824Y021424D03*
X012824Y021424D03*
X011824Y021424D03*
X010824Y021424D03*
X009824Y021424D03*
X008824Y021424D03*
X008824Y022424D03*
D14*
X022724Y012309D03*
X022724Y011640D03*
X023524Y011640D03*
X024324Y011640D03*
X024324Y012309D03*
X023524Y012309D03*
X025124Y012309D03*
X025124Y011640D03*
X026074Y011440D03*
X026074Y012109D03*
X026074Y012640D03*
X026874Y012640D03*
X026874Y012109D03*
X026874Y011440D03*
X027674Y011440D03*
X027674Y012109D03*
X027674Y012640D03*
X027674Y013309D03*
X026874Y013309D03*
X026074Y013309D03*
X028174Y014190D03*
X029224Y014440D03*
X028174Y014859D03*
X029224Y015109D03*
X031624Y013959D03*
X031624Y013290D03*
X031624Y012459D03*
X032724Y012459D03*
X033524Y012459D03*
X033524Y012990D03*
X033524Y013659D03*
X034324Y013659D03*
X034324Y012990D03*
X033524Y011790D03*
X032724Y011790D03*
X031624Y011790D03*
X027824Y010759D03*
X027024Y010759D03*
X027024Y010090D03*
X027824Y010090D03*
X027024Y009109D03*
X027024Y008440D03*
X027024Y007359D03*
X027824Y007359D03*
X027824Y006690D03*
X027024Y006690D03*
X026224Y006690D03*
X025424Y006690D03*
X025424Y007359D03*
X025124Y008040D03*
X024324Y008440D03*
X023524Y008440D03*
X023524Y009109D03*
X024324Y009109D03*
X025124Y008709D03*
X024324Y007359D03*
X024324Y006690D03*
X026224Y007359D03*
X034074Y016740D03*
X034074Y017409D03*
X035074Y017409D03*
X035074Y016740D03*
X034774Y020840D03*
X034774Y021509D03*
X034224Y022090D03*
X033974Y021509D03*
X033974Y020840D03*
X033174Y020840D03*
X033174Y021509D03*
X033424Y022090D03*
X032624Y022090D03*
X032624Y022759D03*
X033424Y022759D03*
X034224Y022759D03*
X036324Y022959D03*
X036324Y022290D03*
D15*
X036449Y020024D03*
X035779Y020024D03*
X035779Y018724D03*
X036449Y018724D03*
X036449Y017574D03*
X035779Y017574D03*
X035779Y016774D03*
X036449Y016774D03*
X029334Y016549D03*
X028664Y016549D03*
X024459Y013374D03*
X023789Y013374D03*
X023589Y010324D03*
X024259Y010324D03*
D16*
X027924Y016023D03*
X027924Y017126D03*
D17*
X034824Y022229D03*
X034824Y022820D03*
X035524Y022820D03*
X035524Y022229D03*
D18*
X039224Y021881D03*
X039224Y022668D03*
X039224Y020268D03*
X039224Y019481D03*
X039224Y017918D03*
X039224Y017131D03*
X007974Y012568D03*
X007974Y011781D03*
D19*
X007824Y007743D03*
X007824Y003693D03*
D20*
X007824Y004481D03*
X007824Y005268D03*
X007824Y006056D03*
X007824Y008531D03*
X007824Y009318D03*
X007824Y010106D03*
D21*
X008824Y016074D02*
X008824Y016674D01*
X007824Y016774D02*
X007824Y016174D01*
X009824Y016174D02*
X009824Y016774D01*
X010824Y016674D02*
X010824Y016074D01*
X011824Y016174D02*
X011824Y016774D01*
X012824Y016674D02*
X012824Y016074D01*
X013824Y016174D02*
X013824Y016774D01*
X014824Y016674D02*
X014824Y016074D01*
X015824Y016174D02*
X015824Y016774D01*
X016824Y016674D02*
X016824Y016074D01*
X017824Y016174D02*
X017824Y016774D01*
X018824Y016674D02*
X018824Y016074D01*
X019824Y016174D02*
X019824Y016774D01*
X020824Y016674D02*
X020824Y016074D01*
X021824Y016174D02*
X021824Y016774D01*
X022824Y016674D02*
X022824Y016074D01*
X023824Y016174D02*
X023824Y016774D01*
X024824Y016674D02*
X024824Y016074D01*
X025824Y016174D02*
X025824Y016774D01*
X026824Y016674D02*
X026824Y016074D01*
D22*
X035524Y013634D03*
X035534Y011894D03*
D23*
X035325Y014724D03*
X035325Y015224D03*
X035325Y015724D03*
X035325Y016224D03*
X033323Y016224D03*
X033323Y015724D03*
X033323Y015224D03*
X033323Y014724D03*
D24*
X021424Y010574D03*
X020424Y010574D03*
X019424Y010574D03*
X018424Y010574D03*
X017424Y010574D03*
X016424Y010574D03*
X015424Y010574D03*
X014424Y010574D03*
X013424Y010574D03*
X012424Y010574D03*
D25*
X025684Y010154D03*
X025834Y010154D03*
X025994Y010154D03*
X026154Y010154D03*
X026314Y010154D03*
X026464Y010154D03*
X026464Y008294D03*
X026314Y008294D03*
X026154Y008294D03*
X025994Y008294D03*
X025834Y008294D03*
X025684Y008294D03*
D26*
X026074Y009224D03*
D27*
X033554Y018924D03*
X033554Y019124D03*
X033554Y019324D03*
X033554Y019524D03*
X035094Y019524D03*
X035094Y019324D03*
X035094Y019124D03*
X035094Y018924D03*
D28*
X034624Y018454D03*
X034424Y018454D03*
X034224Y018454D03*
X034024Y018454D03*
X034024Y019994D03*
X034224Y019994D03*
X034424Y019994D03*
X034624Y019994D03*
D29*
X034324Y019224D03*
D30*
X031734Y016104D03*
X031734Y015854D03*
X031734Y015594D03*
X031734Y015344D03*
X029914Y015344D03*
X029914Y015594D03*
X029914Y015854D03*
X029914Y016104D03*
D31*
X030444Y016634D03*
X030694Y016634D03*
X030954Y016634D03*
X031204Y016634D03*
X031204Y014814D03*
X030954Y014814D03*
X030694Y014814D03*
X030444Y014814D03*
D32*
X030824Y015724D03*
D33*
X030125Y013474D03*
X029023Y013474D03*
X029023Y012274D03*
X030125Y012274D03*
D34*
X030184Y011124D03*
X029064Y011124D03*
D35*
X028245Y019644D03*
X028245Y020805D03*
X032103Y020805D03*
X032103Y019644D03*
D36*
X025824Y004959D03*
X025824Y002990D03*
D37*
X034324Y011224D03*
X033074Y017824D03*
X037174Y022874D03*
D38*
X011144Y010474D03*
X010824Y010474D03*
X010504Y010474D03*
X008644Y002224D03*
X008324Y002224D03*
X008004Y002224D03*
D39*
X012495Y009899D03*
D40*
X013479Y009899D03*
X014463Y009899D03*
X015448Y009899D03*
X016432Y009899D03*
X017416Y009899D03*
X018400Y009899D03*
X019385Y009899D03*
X020369Y009899D03*
X021353Y009899D03*
D41*
X022134Y009945D02*
X022391Y009945D01*
X022489Y009847D02*
X022134Y009847D01*
X022134Y009748D02*
X022588Y009748D01*
X022686Y009650D02*
X022134Y009650D01*
X022134Y009551D02*
X022785Y009551D01*
X022883Y009453D02*
X022134Y009453D01*
X022134Y009354D02*
X022982Y009354D01*
X023080Y009256D02*
X022134Y009256D01*
X022134Y009157D02*
X023177Y009157D01*
X023177Y009159D02*
X023177Y008830D01*
X023233Y008774D01*
X023177Y008718D01*
X023177Y008161D01*
X023265Y008073D01*
X023314Y008073D01*
X023314Y007031D01*
X023184Y007161D01*
X023061Y007284D01*
X022883Y007284D01*
X022954Y007355D01*
X022954Y007794D01*
X022673Y008074D01*
X022954Y008355D01*
X022954Y008794D01*
X022643Y009104D01*
X022204Y009104D01*
X022134Y009034D01*
X022134Y010202D01*
X023177Y009159D01*
X023177Y009059D02*
X022689Y009059D01*
X022787Y008960D02*
X023177Y008960D01*
X023177Y008862D02*
X022886Y008862D01*
X022954Y008763D02*
X023222Y008763D01*
X023177Y008665D02*
X022954Y008665D01*
X022954Y008566D02*
X023177Y008566D01*
X023177Y008468D02*
X022954Y008468D01*
X022954Y008369D02*
X023177Y008369D01*
X023177Y008271D02*
X022870Y008271D01*
X022771Y008172D02*
X023177Y008172D01*
X023264Y008074D02*
X022674Y008074D01*
X022772Y007975D02*
X023314Y007975D01*
X023314Y007877D02*
X022871Y007877D01*
X022954Y007778D02*
X023314Y007778D01*
X023314Y007680D02*
X022954Y007680D01*
X022954Y007581D02*
X023314Y007581D01*
X023314Y007483D02*
X022954Y007483D01*
X022954Y007384D02*
X023314Y007384D01*
X023314Y007286D02*
X022885Y007286D01*
X023158Y007187D02*
X023314Y007187D01*
X023314Y007089D02*
X023256Y007089D01*
X023734Y007089D02*
X023977Y007089D01*
X023977Y007080D02*
X024033Y007024D01*
X024007Y006998D01*
X023987Y006964D01*
X023977Y006926D01*
X023977Y006738D01*
X024275Y006738D01*
X024275Y006641D01*
X024004Y006641D01*
X023734Y006911D01*
X023734Y008073D01*
X023783Y008073D01*
X023871Y008161D01*
X023871Y008718D01*
X023815Y008774D01*
X023871Y008830D01*
X023871Y009388D01*
X023823Y009435D01*
X023852Y009464D01*
X024054Y009464D01*
X023977Y009388D01*
X023977Y008830D01*
X024033Y008774D01*
X023977Y008718D01*
X023977Y008161D01*
X024065Y008073D01*
X024114Y008073D01*
X024114Y007726D01*
X024065Y007726D01*
X023977Y007638D01*
X023977Y007080D01*
X024002Y006990D02*
X023734Y006990D01*
X023753Y006892D02*
X023977Y006892D01*
X023977Y006793D02*
X023852Y006793D01*
X023950Y006695D02*
X024275Y006695D01*
X024372Y006695D02*
X024847Y006695D01*
X024837Y006684D02*
X024762Y006684D01*
X024658Y006641D01*
X024372Y006641D01*
X024372Y006738D01*
X024671Y006738D01*
X024671Y006926D01*
X024661Y006964D01*
X024641Y006998D01*
X024615Y007024D01*
X024671Y007080D01*
X024671Y007638D01*
X024583Y007726D01*
X024534Y007726D01*
X024534Y008073D01*
X024583Y008073D01*
X024671Y008161D01*
X024671Y008364D01*
X024823Y008364D01*
X024777Y008318D01*
X024777Y007761D01*
X024865Y007673D01*
X024992Y007673D01*
X025077Y007588D01*
X025077Y007080D01*
X025133Y007024D01*
X025077Y006968D01*
X025077Y006900D01*
X025052Y006900D01*
X024837Y006684D01*
X024946Y006793D02*
X024671Y006793D01*
X024671Y006892D02*
X025044Y006892D01*
X025099Y006990D02*
X024645Y006990D01*
X024671Y007089D02*
X025077Y007089D01*
X025077Y007187D02*
X024671Y007187D01*
X024671Y007286D02*
X025077Y007286D01*
X025077Y007384D02*
X024671Y007384D01*
X024671Y007483D02*
X025077Y007483D01*
X025077Y007581D02*
X024671Y007581D01*
X024629Y007680D02*
X024858Y007680D01*
X024777Y007778D02*
X024534Y007778D01*
X024534Y007877D02*
X024777Y007877D01*
X024777Y007975D02*
X024534Y007975D01*
X024584Y008074D02*
X024777Y008074D01*
X024777Y008172D02*
X024671Y008172D01*
X024671Y008271D02*
X024777Y008271D01*
X025124Y008040D02*
X025174Y007990D01*
X025174Y007774D01*
X025424Y007524D01*
X025424Y007359D01*
X025424Y007224D01*
X026189Y007224D01*
X026224Y007359D01*
X026498Y007359D01*
X026624Y007485D01*
X026624Y007724D01*
X026503Y007724D01*
X026314Y007913D01*
X026314Y008294D01*
X026314Y008234D01*
X026154Y008294D02*
X026154Y007799D01*
X026049Y007799D01*
X025994Y007799D01*
X025994Y008294D01*
X025834Y008294D02*
X025834Y008184D01*
X025684Y008294D02*
X025539Y008294D01*
X025124Y008709D01*
X025471Y008665D02*
X025484Y008665D01*
X025484Y008667D02*
X025484Y008632D01*
X025471Y008645D01*
X025471Y008988D01*
X025383Y009076D01*
X024865Y009076D01*
X024777Y008988D01*
X024777Y008784D01*
X024625Y008784D01*
X024671Y008830D01*
X024671Y009388D01*
X024583Y009476D01*
X024534Y009476D01*
X024534Y009661D01*
X024434Y009761D01*
X024311Y009884D01*
X023852Y009884D01*
X023834Y009903D01*
X023834Y009978D01*
X023868Y009978D01*
X023924Y010034D01*
X023980Y009978D01*
X024537Y009978D01*
X024625Y010065D01*
X024625Y010114D01*
X024796Y010114D01*
X024848Y010062D01*
X024962Y010014D01*
X025076Y010014D01*
X025064Y009986D01*
X025064Y009863D01*
X025111Y009749D01*
X025198Y009662D01*
X025312Y009614D01*
X025436Y009614D01*
X025539Y009657D01*
X025539Y009274D01*
X026024Y009274D01*
X026024Y009174D01*
X025539Y009174D01*
X025539Y008725D01*
X025540Y008722D01*
X025484Y008667D01*
X025471Y008763D02*
X025539Y008763D01*
X025539Y008862D02*
X025471Y008862D01*
X025471Y008960D02*
X025539Y008960D01*
X025539Y009059D02*
X025400Y009059D01*
X025539Y009157D02*
X024671Y009157D01*
X024671Y009059D02*
X024848Y009059D01*
X024777Y008960D02*
X024671Y008960D01*
X024671Y008862D02*
X024777Y008862D01*
X024022Y008763D02*
X023826Y008763D01*
X023871Y008665D02*
X023977Y008665D01*
X023977Y008566D02*
X023871Y008566D01*
X023871Y008468D02*
X023977Y008468D01*
X023977Y008369D02*
X023871Y008369D01*
X023871Y008271D02*
X023977Y008271D01*
X023977Y008172D02*
X023871Y008172D01*
X023784Y008074D02*
X024064Y008074D01*
X024114Y007975D02*
X023734Y007975D01*
X023734Y007877D02*
X024114Y007877D01*
X024114Y007778D02*
X023734Y007778D01*
X023734Y007680D02*
X024019Y007680D01*
X023977Y007581D02*
X023734Y007581D01*
X023734Y007483D02*
X023977Y007483D01*
X023977Y007384D02*
X023734Y007384D01*
X023734Y007286D02*
X023977Y007286D01*
X023977Y007187D02*
X023734Y007187D01*
X025134Y006354D02*
X025165Y006323D01*
X025683Y006323D01*
X025771Y006411D01*
X025771Y006968D01*
X025715Y007024D01*
X025933Y007024D01*
X025907Y006998D01*
X025887Y006964D01*
X025877Y006926D01*
X025877Y006738D01*
X026175Y006738D01*
X026175Y006641D01*
X025877Y006641D01*
X025877Y006453D01*
X025887Y006415D01*
X025907Y006381D01*
X025935Y006353D01*
X025969Y006333D01*
X026007Y006323D01*
X026175Y006323D01*
X026175Y006641D01*
X026272Y006641D01*
X026272Y006323D01*
X026441Y006323D01*
X026479Y006333D01*
X026513Y006353D01*
X026541Y006381D01*
X026561Y006415D01*
X026571Y006453D01*
X026571Y006641D01*
X026272Y006641D01*
X026272Y006738D01*
X026571Y006738D01*
X026571Y006926D01*
X026561Y006964D01*
X026541Y006998D01*
X026515Y007024D01*
X026571Y007080D01*
X026571Y007159D01*
X026581Y007159D01*
X026677Y007255D01*
X026677Y007080D01*
X026733Y007024D01*
X026707Y006998D01*
X026687Y006964D01*
X026677Y006926D01*
X026677Y006738D01*
X026975Y006738D01*
X026975Y006641D01*
X026677Y006641D01*
X026677Y006453D01*
X026687Y006415D01*
X026707Y006381D01*
X026735Y006353D01*
X026769Y006333D01*
X026807Y006323D01*
X026975Y006323D01*
X026975Y006641D01*
X027072Y006641D01*
X027072Y006323D01*
X027241Y006323D01*
X027279Y006333D01*
X027313Y006353D01*
X027341Y006381D01*
X027361Y006415D01*
X027371Y006453D01*
X027371Y006641D01*
X027072Y006641D01*
X027072Y006738D01*
X027371Y006738D01*
X027371Y006926D01*
X027361Y006964D01*
X027341Y006998D01*
X027315Y007024D01*
X027371Y007080D01*
X027371Y007264D01*
X027477Y007264D01*
X027477Y007080D01*
X027533Y007024D01*
X027507Y006998D01*
X027487Y006964D01*
X027477Y006926D01*
X027477Y006738D01*
X027775Y006738D01*
X027775Y006641D01*
X027477Y006641D01*
X027477Y006453D01*
X027487Y006415D01*
X027507Y006381D01*
X027535Y006353D01*
X027569Y006333D01*
X027607Y006323D01*
X027775Y006323D01*
X027775Y006641D01*
X027872Y006641D01*
X027872Y006323D01*
X028041Y006323D01*
X028079Y006333D01*
X028113Y006353D01*
X028141Y006381D01*
X028161Y006415D01*
X028171Y006453D01*
X028171Y006641D01*
X027872Y006641D01*
X027872Y006738D01*
X028171Y006738D01*
X028171Y006926D01*
X028161Y006964D01*
X028141Y006998D01*
X028115Y007024D01*
X028171Y007080D01*
X028171Y007638D01*
X028083Y007726D01*
X027565Y007726D01*
X027534Y007695D01*
X027534Y007746D01*
X027587Y007799D01*
X027634Y007913D01*
X027634Y008036D01*
X027587Y008150D01*
X027500Y008237D01*
X027386Y008284D01*
X027371Y008284D01*
X027371Y008718D01*
X027315Y008774D01*
X027371Y008830D01*
X027371Y009388D01*
X027283Y009476D01*
X027234Y009476D01*
X027234Y009561D01*
X027184Y009611D01*
X027184Y009686D01*
X027169Y009723D01*
X027283Y009723D01*
X027371Y009811D01*
X027371Y009844D01*
X027477Y009844D01*
X027477Y009811D01*
X027565Y009723D01*
X028083Y009723D01*
X028171Y009811D01*
X028171Y010368D01*
X028115Y010424D01*
X028171Y010480D01*
X028171Y010583D01*
X028262Y010674D01*
X028174Y010522D01*
X028174Y003844D01*
X028160Y003592D01*
X028048Y003101D01*
X027829Y002647D01*
X027515Y002253D01*
X027121Y001939D01*
X026667Y001721D01*
X026176Y001609D01*
X025924Y001594D01*
X023182Y001594D01*
X023187Y001599D01*
X023234Y001713D01*
X023234Y001802D01*
X023324Y001892D01*
X023324Y005574D01*
X023486Y005574D01*
X023548Y005512D01*
X023662Y005464D01*
X023786Y005464D01*
X023900Y005512D01*
X023987Y005599D01*
X024034Y005713D01*
X024034Y005764D01*
X024924Y005764D01*
X024924Y004367D01*
X025031Y004182D01*
X025031Y004182D01*
X025217Y004074D01*
X026203Y004074D01*
X026442Y004173D01*
X026625Y004356D01*
X026625Y004356D01*
X026724Y004595D01*
X026724Y005354D01*
X026625Y005593D01*
X026453Y005764D01*
X026487Y005764D01*
X027614Y004637D01*
X027614Y003561D01*
X027337Y003284D01*
X027262Y003284D01*
X027148Y003237D01*
X027061Y003150D01*
X027014Y003036D01*
X027014Y002913D01*
X027061Y002799D01*
X027148Y002712D01*
X027262Y002664D01*
X027386Y002664D01*
X027500Y002712D01*
X027587Y002799D01*
X027634Y002913D01*
X027634Y002987D01*
X028034Y003387D01*
X028034Y004811D01*
X027911Y004934D01*
X026661Y006184D01*
X025072Y006184D01*
X025087Y006199D01*
X025134Y006313D01*
X025134Y006354D01*
X025129Y006301D02*
X028174Y006301D01*
X028174Y006399D02*
X028151Y006399D01*
X028171Y006498D02*
X028174Y006498D01*
X028171Y006596D02*
X028174Y006596D01*
X028174Y006695D02*
X027872Y006695D01*
X027775Y006695D02*
X027072Y006695D01*
X026975Y006695D02*
X026272Y006695D01*
X026175Y006695D02*
X025771Y006695D01*
X025771Y006793D02*
X025877Y006793D01*
X025877Y006892D02*
X025771Y006892D01*
X025749Y006990D02*
X025902Y006990D01*
X025933Y007024D02*
X025933Y007024D01*
X026224Y007359D02*
X026259Y007474D01*
X026624Y007724D02*
X026874Y007724D01*
X027024Y007874D01*
X027024Y008440D01*
X027371Y008468D02*
X028174Y008468D01*
X028174Y008566D02*
X027371Y008566D01*
X027371Y008665D02*
X028174Y008665D01*
X028174Y008763D02*
X027326Y008763D01*
X027371Y008862D02*
X028174Y008862D01*
X028174Y008960D02*
X027371Y008960D01*
X027371Y009059D02*
X028174Y009059D01*
X028174Y009157D02*
X027371Y009157D01*
X027371Y009256D02*
X028174Y009256D01*
X028174Y009354D02*
X027371Y009354D01*
X027306Y009453D02*
X028174Y009453D01*
X028174Y009551D02*
X027234Y009551D01*
X027184Y009650D02*
X028174Y009650D01*
X028174Y009748D02*
X028108Y009748D01*
X028171Y009847D02*
X028174Y009847D01*
X028171Y009945D02*
X028174Y009945D01*
X028171Y010044D02*
X028174Y010044D01*
X028171Y010142D02*
X028174Y010142D01*
X028171Y010241D02*
X028174Y010241D01*
X028171Y010339D02*
X028174Y010339D01*
X028174Y010438D02*
X028128Y010438D01*
X028171Y010536D02*
X028182Y010536D01*
X028223Y010635D02*
X028239Y010635D01*
X028021Y011310D02*
X028021Y011718D01*
X027965Y011774D01*
X028021Y011830D01*
X028021Y012918D01*
X027965Y012974D01*
X027991Y013000D01*
X028011Y013035D01*
X028021Y013073D01*
X028021Y013261D01*
X027722Y013261D01*
X027722Y013357D01*
X028021Y013357D01*
X028021Y013545D01*
X028011Y013583D01*
X027991Y013618D01*
X027963Y013646D01*
X027929Y013665D01*
X027891Y013676D01*
X027722Y013676D01*
X027722Y013357D01*
X027625Y013357D01*
X027625Y013261D01*
X027327Y013261D01*
X027327Y013073D01*
X027337Y013035D01*
X027357Y013000D01*
X027383Y012974D01*
X027327Y012918D01*
X027327Y012284D01*
X027287Y012284D01*
X027221Y012218D01*
X027221Y012345D01*
X027213Y012374D01*
X027221Y012403D01*
X027221Y012591D01*
X026922Y012591D01*
X026922Y012476D01*
X026922Y012157D01*
X026825Y012157D01*
X026825Y012061D01*
X026527Y012061D01*
X026527Y011873D01*
X026537Y011835D01*
X026557Y011800D01*
X026583Y011774D01*
X026527Y011718D01*
X026527Y011640D01*
X026523Y011640D01*
X026441Y011557D01*
X026421Y011537D01*
X026421Y011718D01*
X026365Y011774D01*
X026391Y011800D01*
X026411Y011835D01*
X026421Y011873D01*
X026421Y012061D01*
X026122Y012061D01*
X026122Y012157D01*
X026421Y012157D01*
X026421Y012345D01*
X026413Y012374D01*
X026421Y012403D01*
X026421Y012591D01*
X026122Y012591D01*
X026122Y012476D01*
X026122Y012157D01*
X026025Y012157D01*
X026025Y012061D01*
X025727Y012061D01*
X025727Y011873D01*
X025737Y011835D01*
X025757Y011800D01*
X025783Y011774D01*
X025727Y011718D01*
X025727Y011161D01*
X025815Y011073D01*
X025842Y011073D01*
X025831Y011048D01*
X025471Y011409D01*
X025471Y011918D01*
X025415Y011974D01*
X025471Y012030D01*
X025471Y012588D01*
X025383Y012676D01*
X025155Y012676D01*
X024977Y012853D01*
X024937Y012950D01*
X024850Y013037D01*
X024777Y013067D01*
X024825Y013115D01*
X024825Y013633D01*
X024758Y013700D01*
X024784Y013763D01*
X024784Y013886D01*
X024737Y014000D01*
X024650Y014087D01*
X024536Y014134D01*
X024412Y014134D01*
X024298Y014087D01*
X024211Y014000D01*
X024164Y013886D01*
X024164Y013763D01*
X024181Y013721D01*
X024180Y013721D01*
X024124Y013665D01*
X024068Y013721D01*
X023584Y013721D01*
X023584Y014646D01*
X023637Y014699D01*
X023684Y014813D01*
X023684Y014936D01*
X023637Y015050D01*
X023550Y015137D01*
X023436Y015184D01*
X023312Y015184D01*
X023284Y015173D01*
X023284Y015387D01*
X023621Y015724D01*
X024540Y015724D01*
X024588Y015690D01*
X024651Y015657D01*
X024719Y015635D01*
X024774Y015627D01*
X024774Y015724D01*
X024874Y015724D01*
X024874Y015627D01*
X024929Y015635D01*
X024997Y015657D01*
X025060Y015690D01*
X025108Y015724D01*
X026538Y015724D01*
X026569Y015693D01*
X026734Y015624D01*
X026913Y015624D01*
X027079Y015693D01*
X027110Y015724D01*
X027124Y015724D01*
X027124Y014807D01*
X027091Y014774D01*
X025662Y014774D01*
X025600Y014837D01*
X025486Y014884D01*
X025362Y014884D01*
X025248Y014837D01*
X025161Y014750D01*
X025114Y014636D01*
X025114Y014513D01*
X025161Y014399D01*
X025248Y014312D01*
X025362Y014264D01*
X025486Y014264D01*
X025600Y014312D01*
X025662Y014374D01*
X027257Y014374D01*
X027524Y014642D01*
X027524Y015565D01*
X027550Y015558D01*
X027874Y015558D01*
X027874Y015973D01*
X027974Y015973D01*
X027974Y015558D01*
X028269Y015558D01*
X028269Y015267D01*
X028230Y015226D01*
X027915Y015226D01*
X027827Y015138D01*
X027827Y014580D01*
X027883Y014524D01*
X027857Y014498D01*
X027837Y014464D01*
X027827Y014426D01*
X027827Y014238D01*
X028125Y014238D01*
X028125Y014141D01*
X027827Y014141D01*
X027827Y013953D01*
X027837Y013915D01*
X027857Y013881D01*
X027885Y013853D01*
X027919Y013833D01*
X027957Y013823D01*
X028125Y013823D01*
X028125Y014141D01*
X028222Y014141D01*
X028222Y013823D01*
X028391Y013823D01*
X028429Y013833D01*
X028463Y013853D01*
X028491Y013881D01*
X028511Y013915D01*
X028521Y013953D01*
X028521Y014141D01*
X028222Y014141D01*
X028222Y014238D01*
X028521Y014238D01*
X028521Y014426D01*
X028511Y014464D01*
X028491Y014498D01*
X028465Y014524D01*
X028521Y014580D01*
X028521Y014922D01*
X028630Y015038D01*
X028689Y015097D01*
X028689Y015101D01*
X028692Y015104D01*
X028691Y015123D01*
X028712Y015114D01*
X028836Y015114D01*
X028877Y015132D01*
X028877Y014830D01*
X028933Y014774D01*
X028877Y014718D01*
X028877Y014161D01*
X028882Y014156D01*
X028688Y014156D01*
X028650Y014146D01*
X028616Y014126D01*
X028588Y014098D01*
X028568Y014064D01*
X028558Y014026D01*
X028558Y013524D01*
X028973Y013524D01*
X028973Y013424D01*
X029073Y013424D01*
X029073Y012956D01*
X029073Y012324D01*
X029488Y012324D01*
X029488Y012826D01*
X029477Y012864D01*
X029471Y012874D01*
X029477Y012885D01*
X029488Y012923D01*
X029488Y013424D01*
X029073Y013424D01*
X029073Y013524D01*
X029488Y013524D01*
X029488Y014026D01*
X029477Y014064D01*
X029472Y014073D01*
X029483Y014073D01*
X029571Y014161D01*
X029571Y014230D01*
X029722Y014230D01*
X029752Y014199D01*
X029614Y014061D01*
X029614Y011637D01*
X029726Y011525D01*
X029719Y011499D01*
X029719Y011174D01*
X030134Y011174D01*
X030134Y011074D01*
X029719Y011074D01*
X029719Y010814D01*
X029529Y010814D01*
X029529Y011541D01*
X029441Y011629D01*
X029436Y011629D01*
X029458Y011651D01*
X029477Y011685D01*
X029488Y011723D01*
X029488Y012224D01*
X029073Y012224D01*
X029073Y012324D01*
X028973Y012324D01*
X028973Y012224D01*
X028558Y012224D01*
X028558Y011723D01*
X028568Y011685D01*
X028588Y011651D01*
X028604Y011634D01*
X028563Y011634D01*
X028541Y011640D01*
X028502Y011634D01*
X028462Y011634D01*
X028441Y011626D01*
X028419Y011623D01*
X028385Y011602D01*
X028348Y011587D01*
X028332Y011571D01*
X028313Y011560D01*
X028289Y011528D01*
X028261Y011500D01*
X028252Y011479D01*
X028181Y011384D01*
X028162Y011384D01*
X028048Y011337D01*
X028021Y011310D01*
X028021Y011324D02*
X028036Y011324D01*
X028021Y011423D02*
X028210Y011423D01*
X028283Y011521D02*
X028021Y011521D01*
X028021Y011620D02*
X028415Y011620D01*
X028559Y011718D02*
X028021Y011718D01*
X028007Y011817D02*
X028558Y011817D01*
X028558Y011915D02*
X028021Y011915D01*
X028021Y012014D02*
X028558Y012014D01*
X028558Y012112D02*
X028021Y012112D01*
X028021Y012211D02*
X028558Y012211D01*
X028558Y012324D02*
X028973Y012324D01*
X028973Y013424D01*
X028558Y013424D01*
X028558Y012923D01*
X028568Y012885D01*
X028574Y012874D01*
X028568Y012864D01*
X028558Y012826D01*
X028558Y012324D01*
X028558Y012408D02*
X028021Y012408D01*
X028021Y012506D02*
X028558Y012506D01*
X028558Y012605D02*
X028021Y012605D01*
X028021Y012703D02*
X028558Y012703D01*
X028558Y012802D02*
X028021Y012802D01*
X028021Y012900D02*
X028564Y012900D01*
X028558Y012999D02*
X027989Y012999D01*
X028021Y013097D02*
X028558Y013097D01*
X028558Y013196D02*
X028021Y013196D01*
X028021Y013393D02*
X028558Y013393D01*
X028558Y013294D02*
X027722Y013294D01*
X027625Y013294D02*
X027221Y013294D01*
X027221Y013196D02*
X027327Y013196D01*
X027327Y013097D02*
X027221Y013097D01*
X027221Y013030D02*
X027221Y013588D01*
X027173Y013636D01*
X027184Y013663D01*
X027184Y013786D01*
X027137Y013900D01*
X027050Y013987D01*
X026936Y014034D01*
X026812Y014034D01*
X026698Y013987D01*
X026611Y013900D01*
X026564Y013786D01*
X026564Y013663D01*
X026575Y013636D01*
X026527Y013588D01*
X026527Y013030D01*
X026583Y012974D01*
X026557Y012948D01*
X026537Y012914D01*
X026527Y012876D01*
X026527Y012688D01*
X026825Y012688D01*
X026825Y012591D01*
X026527Y012591D01*
X026527Y012403D01*
X026535Y012374D01*
X026527Y012345D01*
X026527Y012157D01*
X026825Y012157D01*
X026825Y012591D01*
X026922Y012591D01*
X026922Y012688D01*
X027221Y012688D01*
X027221Y012876D01*
X027211Y012914D01*
X027191Y012948D01*
X027165Y012974D01*
X027221Y013030D01*
X027189Y012999D02*
X027359Y012999D01*
X027327Y012900D02*
X027214Y012900D01*
X027221Y012802D02*
X027327Y012802D01*
X027327Y012703D02*
X027221Y012703D01*
X027327Y012605D02*
X026922Y012605D01*
X026825Y012605D02*
X026122Y012605D01*
X026122Y012591D02*
X026122Y012688D01*
X026421Y012688D01*
X026421Y012876D01*
X026411Y012914D01*
X026391Y012948D01*
X026365Y012974D01*
X026421Y013030D01*
X026421Y013588D01*
X026373Y013636D01*
X026384Y013663D01*
X026384Y013786D01*
X026337Y013900D01*
X026250Y013987D01*
X026136Y014034D01*
X026012Y014034D01*
X025898Y013987D01*
X025811Y013900D01*
X025764Y013786D01*
X025764Y013663D01*
X025775Y013636D01*
X025727Y013588D01*
X025727Y013030D01*
X025783Y012974D01*
X025757Y012948D01*
X025737Y012914D01*
X025727Y012876D01*
X025727Y012688D01*
X026025Y012688D01*
X026025Y012591D01*
X025727Y012591D01*
X025727Y012403D01*
X025735Y012374D01*
X025727Y012345D01*
X025727Y012157D01*
X026025Y012157D01*
X026025Y012591D01*
X026122Y012591D01*
X026122Y012506D02*
X026025Y012506D01*
X026025Y012408D02*
X026122Y012408D01*
X026122Y012309D02*
X026025Y012309D01*
X026025Y012211D02*
X026122Y012211D01*
X026122Y012112D02*
X026825Y012112D01*
X026825Y012211D02*
X026922Y012211D01*
X026922Y012309D02*
X026825Y012309D01*
X026825Y012408D02*
X026922Y012408D01*
X026922Y012506D02*
X026825Y012506D01*
X026527Y012506D02*
X026421Y012506D01*
X026421Y012408D02*
X026527Y012408D01*
X026527Y012309D02*
X026421Y012309D01*
X026421Y012211D02*
X026527Y012211D01*
X026527Y012014D02*
X026421Y012014D01*
X026421Y011915D02*
X026527Y011915D01*
X026547Y011817D02*
X026400Y011817D01*
X026421Y011718D02*
X026527Y011718D01*
X026504Y011620D02*
X026421Y011620D01*
X026606Y011440D02*
X026524Y011357D01*
X026524Y010974D01*
X026443Y010893D01*
X026584Y010752D02*
X026554Y010715D01*
X026519Y010629D01*
X026517Y010614D01*
X026576Y010614D01*
X026664Y010527D01*
X026664Y010290D01*
X026677Y010290D01*
X026677Y010368D01*
X026733Y010424D01*
X026707Y010450D01*
X026687Y010485D01*
X026677Y010523D01*
X026677Y010711D01*
X026975Y010711D01*
X026975Y010807D01*
X026677Y010807D01*
X026677Y010845D01*
X026607Y010774D01*
X026584Y010752D01*
X026569Y010733D02*
X026975Y010733D01*
X026443Y010893D02*
X026417Y010865D01*
X026394Y010834D01*
X026373Y010802D01*
X026355Y010768D01*
X026341Y010732D01*
X026329Y010696D01*
X026321Y010658D01*
X026316Y010620D01*
X026314Y010582D01*
X026314Y010154D01*
X026464Y010154D02*
X026464Y010090D01*
X027024Y010090D01*
X026677Y010339D02*
X026664Y010339D01*
X026664Y010438D02*
X026720Y010438D01*
X026677Y010536D02*
X026654Y010536D01*
X026677Y010635D02*
X026521Y010635D01*
X026664Y010832D02*
X026677Y010832D01*
X026154Y010914D02*
X026124Y010944D01*
X026074Y010994D01*
X026074Y011440D01*
X025727Y011423D02*
X025471Y011423D01*
X025471Y011521D02*
X025727Y011521D01*
X025727Y011620D02*
X025471Y011620D01*
X025471Y011718D02*
X025727Y011718D01*
X025747Y011817D02*
X025471Y011817D01*
X025471Y011915D02*
X025727Y011915D01*
X025727Y012014D02*
X025454Y012014D01*
X025471Y012112D02*
X026025Y012112D01*
X025727Y012211D02*
X025471Y012211D01*
X025471Y012309D02*
X025727Y012309D01*
X025727Y012408D02*
X025471Y012408D01*
X025471Y012506D02*
X025727Y012506D01*
X025727Y012703D02*
X025127Y012703D01*
X025028Y012802D02*
X025727Y012802D01*
X025734Y012900D02*
X024957Y012900D01*
X024888Y012999D02*
X025759Y012999D01*
X025727Y013097D02*
X024807Y013097D01*
X024825Y013196D02*
X025727Y013196D01*
X025727Y013294D02*
X024825Y013294D01*
X024825Y013393D02*
X025727Y013393D01*
X025727Y013491D02*
X024825Y013491D01*
X024825Y013590D02*
X025729Y013590D01*
X025764Y013688D02*
X024770Y013688D01*
X024784Y013787D02*
X025764Y013787D01*
X025805Y013885D02*
X024784Y013885D01*
X024743Y013984D02*
X025895Y013984D01*
X026253Y013984D02*
X026695Y013984D01*
X026605Y013885D02*
X026343Y013885D01*
X026384Y013787D02*
X026564Y013787D01*
X026564Y013688D02*
X026384Y013688D01*
X026419Y013590D02*
X026529Y013590D01*
X026527Y013491D02*
X026421Y013491D01*
X026421Y013393D02*
X026527Y013393D01*
X026527Y013294D02*
X026421Y013294D01*
X026421Y013196D02*
X026527Y013196D01*
X026527Y013097D02*
X026421Y013097D01*
X026389Y012999D02*
X026559Y012999D01*
X026534Y012900D02*
X026414Y012900D01*
X026421Y012802D02*
X026527Y012802D01*
X026527Y012703D02*
X026421Y012703D01*
X026025Y012605D02*
X025454Y012605D01*
X025124Y011640D02*
X025174Y011423D01*
X025994Y010603D01*
X025994Y010154D01*
X026154Y010154D02*
X026154Y010914D01*
X025761Y011127D02*
X025753Y011127D01*
X025727Y011226D02*
X025654Y011226D01*
X025727Y011324D02*
X025556Y011324D01*
X025422Y010924D02*
X024824Y010924D01*
X024324Y011424D01*
X024324Y011640D01*
X023977Y011620D02*
X023572Y011620D01*
X023572Y011591D02*
X023572Y011688D01*
X023871Y011688D01*
X023871Y011876D01*
X023861Y011914D01*
X023841Y011948D01*
X023815Y011974D01*
X023871Y012030D01*
X023871Y012099D01*
X023977Y012099D01*
X023977Y012030D01*
X024033Y011974D01*
X023977Y011918D01*
X023977Y011361D01*
X024065Y011273D01*
X024192Y011273D01*
X024624Y010842D01*
X024741Y010724D01*
X025339Y010724D01*
X025511Y010553D01*
X025484Y010527D01*
X025484Y010354D01*
X025334Y010354D01*
X025334Y010386D01*
X025287Y010500D01*
X025200Y010587D01*
X025086Y010634D01*
X024962Y010634D01*
X024848Y010587D01*
X024796Y010534D01*
X024625Y010534D01*
X024625Y010583D01*
X024537Y010671D01*
X023980Y010671D01*
X023924Y010615D01*
X023868Y010671D01*
X023311Y010671D01*
X023223Y010583D01*
X023223Y010065D01*
X023311Y009978D01*
X023414Y009978D01*
X023414Y009903D01*
X023361Y009850D01*
X023314Y009736D01*
X023314Y009616D01*
X022484Y010446D01*
X022484Y011280D01*
X022507Y011273D01*
X022675Y011273D01*
X022675Y011591D01*
X022772Y011591D01*
X022772Y011273D01*
X022941Y011273D01*
X022979Y011283D01*
X023013Y011303D01*
X023041Y011331D01*
X023061Y011365D01*
X023071Y011403D01*
X023071Y011591D01*
X022772Y011591D01*
X022772Y011688D01*
X023071Y011688D01*
X023071Y011876D01*
X023061Y011914D01*
X023041Y011948D01*
X023015Y011974D01*
X023071Y012030D01*
X023071Y012099D01*
X023177Y012099D01*
X023177Y012030D01*
X023233Y011974D01*
X023207Y011948D01*
X023187Y011914D01*
X023177Y011876D01*
X023177Y011688D01*
X023475Y011688D01*
X023475Y011591D01*
X023177Y011591D01*
X023177Y011403D01*
X023187Y011365D01*
X023207Y011331D01*
X023235Y011303D01*
X023269Y011283D01*
X023307Y011273D01*
X023475Y011273D01*
X023475Y011591D01*
X023572Y011591D01*
X023572Y011273D01*
X023741Y011273D01*
X023779Y011283D01*
X023813Y011303D01*
X023841Y011331D01*
X023861Y011365D01*
X023871Y011403D01*
X023871Y011591D01*
X023572Y011591D01*
X023572Y011521D02*
X023475Y011521D01*
X023475Y011423D02*
X023572Y011423D01*
X023572Y011324D02*
X023475Y011324D01*
X023214Y011324D02*
X023034Y011324D01*
X023071Y011423D02*
X023177Y011423D01*
X023177Y011521D02*
X023071Y011521D01*
X023071Y011718D02*
X023177Y011718D01*
X023177Y011817D02*
X023071Y011817D01*
X023060Y011915D02*
X023188Y011915D01*
X023194Y012014D02*
X023054Y012014D01*
X022772Y011620D02*
X023475Y011620D01*
X023871Y011718D02*
X023977Y011718D01*
X023977Y011817D02*
X023871Y011817D01*
X023860Y011915D02*
X023977Y011915D01*
X023994Y012014D02*
X023854Y012014D01*
X023871Y011521D02*
X023977Y011521D01*
X023977Y011423D02*
X023871Y011423D01*
X023834Y011324D02*
X024014Y011324D01*
X024240Y011226D02*
X022484Y011226D01*
X022484Y011127D02*
X024338Y011127D01*
X024437Y011029D02*
X022484Y011029D01*
X022484Y010930D02*
X024535Y010930D01*
X024634Y010832D02*
X022484Y010832D01*
X022484Y010733D02*
X024732Y010733D01*
X024574Y010635D02*
X025429Y010635D01*
X025494Y010536D02*
X025250Y010536D01*
X025312Y010438D02*
X025484Y010438D01*
X025374Y010154D02*
X025374Y009924D01*
X025374Y010154D02*
X025684Y010154D01*
X025834Y010154D02*
X025834Y010513D01*
X025422Y010924D01*
X024798Y010536D02*
X024625Y010536D01*
X023944Y010635D02*
X023904Y010635D01*
X023274Y010635D02*
X022484Y010635D01*
X022484Y010536D02*
X023223Y010536D01*
X023223Y010438D02*
X022492Y010438D01*
X022591Y010339D02*
X023223Y010339D01*
X023223Y010241D02*
X022689Y010241D01*
X022788Y010142D02*
X023223Y010142D01*
X023244Y010044D02*
X022886Y010044D01*
X022985Y009945D02*
X023414Y009945D01*
X023360Y009847D02*
X023083Y009847D01*
X023182Y009748D02*
X023319Y009748D01*
X023314Y009650D02*
X023280Y009650D01*
X023841Y009453D02*
X024042Y009453D01*
X023977Y009354D02*
X023871Y009354D01*
X023871Y009256D02*
X023977Y009256D01*
X023977Y009157D02*
X023871Y009157D01*
X023871Y009059D02*
X023977Y009059D01*
X023977Y008960D02*
X023871Y008960D01*
X023871Y008862D02*
X023977Y008862D01*
X024671Y009256D02*
X026024Y009256D01*
X026124Y009256D02*
X026677Y009256D01*
X026609Y009274D02*
X026609Y009454D01*
X026611Y009449D01*
X026677Y009383D01*
X026677Y008830D01*
X026733Y008774D01*
X026677Y008718D01*
X026677Y008161D01*
X026765Y008073D01*
X026824Y008073D01*
X026824Y007957D01*
X026791Y007924D01*
X026652Y007924D01*
X026654Y007927D01*
X026664Y007965D01*
X026664Y008294D01*
X026514Y008294D01*
X026514Y008294D01*
X026664Y008294D01*
X026664Y008624D01*
X026654Y008662D01*
X026634Y008697D01*
X026608Y008722D01*
X026609Y008725D01*
X026609Y009174D01*
X026124Y009174D01*
X026124Y009274D01*
X026609Y009274D01*
X026609Y009354D02*
X026677Y009354D01*
X026609Y009453D02*
X026609Y009453D01*
X027308Y009748D02*
X027540Y009748D01*
X026677Y009157D02*
X026609Y009157D01*
X026609Y009059D02*
X026677Y009059D01*
X026677Y008960D02*
X026609Y008960D01*
X026609Y008862D02*
X026677Y008862D01*
X026722Y008763D02*
X026609Y008763D01*
X026652Y008665D02*
X026677Y008665D01*
X026664Y008566D02*
X026677Y008566D01*
X026664Y008468D02*
X026677Y008468D01*
X026664Y008369D02*
X026677Y008369D01*
X026664Y008271D02*
X026677Y008271D01*
X026664Y008172D02*
X026677Y008172D01*
X026664Y008074D02*
X026764Y008074D01*
X026824Y007975D02*
X026664Y007975D01*
X027418Y008271D02*
X028174Y008271D01*
X028174Y008369D02*
X027371Y008369D01*
X027564Y008172D02*
X028174Y008172D01*
X028174Y008074D02*
X027618Y008074D01*
X027634Y007975D02*
X028174Y007975D01*
X028174Y007877D02*
X027619Y007877D01*
X027566Y007778D02*
X028174Y007778D01*
X028174Y007680D02*
X028129Y007680D01*
X028171Y007581D02*
X028174Y007581D01*
X028171Y007483D02*
X028174Y007483D01*
X028171Y007384D02*
X028174Y007384D01*
X028171Y007286D02*
X028174Y007286D01*
X028171Y007187D02*
X028174Y007187D01*
X028171Y007089D02*
X028174Y007089D01*
X028174Y006990D02*
X028145Y006990D01*
X028171Y006892D02*
X028174Y006892D01*
X028171Y006793D02*
X028174Y006793D01*
X027872Y006596D02*
X027775Y006596D01*
X027775Y006498D02*
X027872Y006498D01*
X027872Y006399D02*
X027775Y006399D01*
X027496Y006399D02*
X027351Y006399D01*
X027371Y006498D02*
X027477Y006498D01*
X027477Y006596D02*
X027371Y006596D01*
X027371Y006793D02*
X027477Y006793D01*
X027477Y006892D02*
X027371Y006892D01*
X027345Y006990D02*
X027502Y006990D01*
X027477Y007089D02*
X027371Y007089D01*
X027371Y007187D02*
X027477Y007187D01*
X027072Y006596D02*
X026975Y006596D01*
X026975Y006498D02*
X027072Y006498D01*
X027072Y006399D02*
X026975Y006399D01*
X026696Y006399D02*
X026551Y006399D01*
X026571Y006498D02*
X026677Y006498D01*
X026677Y006596D02*
X026571Y006596D01*
X026571Y006793D02*
X026677Y006793D01*
X026677Y006892D02*
X026571Y006892D01*
X026545Y006990D02*
X026702Y006990D01*
X026677Y007089D02*
X026571Y007089D01*
X026609Y007187D02*
X026677Y007187D01*
X026272Y006596D02*
X026175Y006596D01*
X026175Y006498D02*
X026272Y006498D01*
X026272Y006399D02*
X026175Y006399D01*
X025896Y006399D02*
X025759Y006399D01*
X025771Y006498D02*
X025877Y006498D01*
X025877Y006596D02*
X025771Y006596D01*
X025088Y006202D02*
X028174Y006202D01*
X028174Y006104D02*
X026741Y006104D01*
X026840Y006005D02*
X028174Y006005D01*
X028174Y005907D02*
X026938Y005907D01*
X027037Y005808D02*
X028174Y005808D01*
X028174Y005710D02*
X027135Y005710D01*
X027234Y005611D02*
X028174Y005611D01*
X028174Y005513D02*
X027332Y005513D01*
X027431Y005414D02*
X028174Y005414D01*
X028174Y005316D02*
X027529Y005316D01*
X027628Y005217D02*
X028174Y005217D01*
X028174Y005119D02*
X027726Y005119D01*
X027825Y005020D02*
X028174Y005020D01*
X028174Y004922D02*
X027923Y004922D01*
X028022Y004823D02*
X028174Y004823D01*
X028174Y004725D02*
X028034Y004725D01*
X028034Y004626D02*
X028174Y004626D01*
X028174Y004528D02*
X028034Y004528D01*
X028034Y004429D02*
X028174Y004429D01*
X028174Y004331D02*
X028034Y004331D01*
X028034Y004232D02*
X028174Y004232D01*
X028174Y004134D02*
X028034Y004134D01*
X028034Y004035D02*
X028174Y004035D01*
X028174Y003937D02*
X028034Y003937D01*
X028034Y003838D02*
X028174Y003838D01*
X028168Y003740D02*
X028034Y003740D01*
X028034Y003641D02*
X028163Y003641D01*
X028148Y003543D02*
X028034Y003543D01*
X028034Y003444D02*
X028126Y003444D01*
X028103Y003346D02*
X027992Y003346D01*
X028081Y003247D02*
X027894Y003247D01*
X027795Y003149D02*
X028059Y003149D01*
X028023Y003050D02*
X027697Y003050D01*
X027634Y002952D02*
X027976Y002952D01*
X027928Y002853D02*
X027609Y002853D01*
X027543Y002755D02*
X027881Y002755D01*
X027833Y002656D02*
X026724Y002656D01*
X026724Y002595D02*
X026724Y003354D01*
X026625Y003593D01*
X026442Y003775D01*
X026203Y003874D01*
X025386Y003874D01*
X025217Y003874D01*
X025031Y003767D01*
X024924Y003582D01*
X024924Y002162D01*
X025012Y002074D01*
X026203Y002074D01*
X026442Y002173D01*
X026625Y002356D01*
X026625Y002356D01*
X026724Y002595D01*
X026708Y002558D02*
X027758Y002558D01*
X027679Y002459D02*
X026668Y002459D01*
X026627Y002361D02*
X027601Y002361D01*
X027522Y002262D02*
X026531Y002262D01*
X026442Y002173D02*
X026442Y002173D01*
X026419Y002164D02*
X027403Y002164D01*
X027279Y002065D02*
X023324Y002065D01*
X023324Y001967D02*
X027156Y001967D01*
X026974Y001868D02*
X023301Y001868D01*
X023234Y001770D02*
X026769Y001770D01*
X026451Y001671D02*
X023217Y001671D01*
X022924Y001774D02*
X023124Y001974D01*
X023124Y005774D01*
X023724Y005774D01*
X023992Y005611D02*
X024924Y005611D01*
X024924Y005513D02*
X023901Y005513D01*
X024033Y005710D02*
X024924Y005710D01*
X024924Y005414D02*
X023324Y005414D01*
X023324Y005316D02*
X024924Y005316D01*
X024924Y005217D02*
X023324Y005217D01*
X023324Y005119D02*
X024924Y005119D01*
X024924Y005020D02*
X023324Y005020D01*
X023324Y004922D02*
X024924Y004922D01*
X024924Y004823D02*
X023324Y004823D01*
X023324Y004725D02*
X024924Y004725D01*
X024924Y004626D02*
X023324Y004626D01*
X023324Y004528D02*
X024924Y004528D01*
X024924Y004429D02*
X023324Y004429D01*
X023324Y004331D02*
X024945Y004331D01*
X025002Y004232D02*
X023324Y004232D01*
X023324Y004134D02*
X025114Y004134D01*
X025031Y004182D02*
X025031Y004182D01*
X025154Y003838D02*
X023324Y003838D01*
X023324Y003740D02*
X025015Y003740D01*
X025031Y003767D02*
X025031Y003767D01*
X025031Y003767D01*
X024958Y003641D02*
X023324Y003641D01*
X023324Y003543D02*
X024924Y003543D01*
X024924Y003444D02*
X023324Y003444D01*
X023324Y003346D02*
X024924Y003346D01*
X024924Y003247D02*
X023324Y003247D01*
X023324Y003149D02*
X024924Y003149D01*
X024924Y003050D02*
X023324Y003050D01*
X023324Y002952D02*
X024924Y002952D01*
X024924Y002853D02*
X023324Y002853D01*
X023324Y002755D02*
X024924Y002755D01*
X024924Y002656D02*
X023324Y002656D01*
X023324Y002558D02*
X024924Y002558D01*
X024924Y002459D02*
X023324Y002459D01*
X023324Y002361D02*
X024924Y002361D01*
X024924Y002262D02*
X023324Y002262D01*
X023324Y002164D02*
X024924Y002164D01*
X026724Y002755D02*
X027105Y002755D01*
X027038Y002853D02*
X026724Y002853D01*
X026724Y002952D02*
X027014Y002952D01*
X027020Y003050D02*
X026724Y003050D01*
X026724Y003149D02*
X027061Y003149D01*
X027173Y003247D02*
X026724Y003247D01*
X026724Y003346D02*
X027398Y003346D01*
X027497Y003444D02*
X026686Y003444D01*
X026646Y003543D02*
X027595Y003543D01*
X027614Y003641D02*
X026576Y003641D01*
X026625Y003593D02*
X026625Y003593D01*
X026478Y003740D02*
X027614Y003740D01*
X027614Y003838D02*
X026290Y003838D01*
X026442Y003775D02*
X026442Y003775D01*
X026347Y004134D02*
X027614Y004134D01*
X027614Y004232D02*
X026501Y004232D01*
X026442Y004173D02*
X026442Y004173D01*
X026600Y004331D02*
X027614Y004331D01*
X027614Y004429D02*
X026655Y004429D01*
X026696Y004528D02*
X027614Y004528D01*
X027614Y004626D02*
X026724Y004626D01*
X026724Y004725D02*
X027526Y004725D01*
X027428Y004823D02*
X026724Y004823D01*
X026724Y004922D02*
X027329Y004922D01*
X027231Y005020D02*
X026724Y005020D01*
X026724Y005119D02*
X027132Y005119D01*
X027034Y005217D02*
X026724Y005217D01*
X026724Y005316D02*
X026935Y005316D01*
X026837Y005414D02*
X026699Y005414D01*
X026738Y005513D02*
X026658Y005513D01*
X026625Y005593D02*
X026625Y005593D01*
X026640Y005611D02*
X026606Y005611D01*
X026541Y005710D02*
X026508Y005710D01*
X023547Y005513D02*
X023324Y005513D01*
X023324Y004035D02*
X027614Y004035D01*
X027614Y003937D02*
X023324Y003937D01*
X025139Y008024D02*
X025124Y008040D01*
X025539Y009354D02*
X024671Y009354D01*
X024606Y009453D02*
X025539Y009453D01*
X025539Y009551D02*
X024534Y009551D01*
X024534Y009650D02*
X025226Y009650D01*
X025111Y009748D02*
X024447Y009748D01*
X024348Y009847D02*
X025070Y009847D01*
X025064Y009945D02*
X023834Y009945D01*
X024604Y010044D02*
X024891Y010044D01*
X025521Y009650D02*
X025539Y009650D01*
X025834Y010154D02*
X025834Y010214D01*
X026606Y011440D02*
X026874Y011440D01*
X026839Y011440D01*
X027221Y012309D02*
X027327Y012309D01*
X027327Y012408D02*
X027221Y012408D01*
X027221Y012506D02*
X027327Y012506D01*
X028021Y012309D02*
X028973Y012309D01*
X028973Y012408D02*
X029073Y012408D01*
X029073Y012506D02*
X028973Y012506D01*
X028973Y012605D02*
X029073Y012605D01*
X029073Y012703D02*
X028973Y012703D01*
X028973Y012802D02*
X029073Y012802D01*
X029073Y012900D02*
X028973Y012900D01*
X028973Y012999D02*
X029073Y012999D01*
X029073Y013097D02*
X028973Y013097D01*
X028973Y013196D02*
X029073Y013196D01*
X029073Y013294D02*
X028973Y013294D01*
X028973Y013393D02*
X029073Y013393D01*
X029073Y013491D02*
X029614Y013491D01*
X029614Y013393D02*
X029488Y013393D01*
X029488Y013294D02*
X029614Y013294D01*
X029614Y013196D02*
X029488Y013196D01*
X029488Y013097D02*
X029614Y013097D01*
X029614Y012999D02*
X029488Y012999D01*
X029482Y012900D02*
X029614Y012900D01*
X029614Y012802D02*
X029488Y012802D01*
X029488Y012703D02*
X029614Y012703D01*
X029614Y012605D02*
X029488Y012605D01*
X029488Y012506D02*
X029614Y012506D01*
X029614Y012408D02*
X029488Y012408D01*
X029614Y012309D02*
X029073Y012309D01*
X029488Y012211D02*
X029614Y012211D01*
X029614Y012112D02*
X029488Y012112D01*
X029488Y012014D02*
X029614Y012014D01*
X029614Y011915D02*
X029488Y011915D01*
X029488Y011817D02*
X029614Y011817D01*
X029614Y011718D02*
X029486Y011718D01*
X029451Y011620D02*
X029631Y011620D01*
X029725Y011521D02*
X029529Y011521D01*
X029529Y011423D02*
X029719Y011423D01*
X029719Y011324D02*
X029529Y011324D01*
X029529Y011226D02*
X029719Y011226D01*
X029719Y011029D02*
X029529Y011029D01*
X029529Y011127D02*
X030134Y011127D01*
X030234Y011127D02*
X030932Y011127D01*
X030911Y011149D02*
X030998Y011062D01*
X031112Y011014D01*
X031236Y011014D01*
X031350Y011062D01*
X031437Y011149D01*
X031484Y011263D01*
X031484Y011386D01*
X031469Y011423D01*
X033774Y011423D01*
X033774Y010814D01*
X030649Y010814D01*
X030649Y011074D01*
X030234Y011074D01*
X030234Y011174D01*
X030649Y011174D01*
X030649Y011499D01*
X030645Y011514D01*
X030926Y011514D01*
X030911Y011500D01*
X030864Y011386D01*
X030864Y011263D01*
X030911Y011149D01*
X030879Y011226D02*
X030649Y011226D01*
X030649Y011324D02*
X030864Y011324D01*
X030879Y011423D02*
X030649Y011423D01*
X031415Y011127D02*
X033774Y011127D01*
X033774Y011029D02*
X031271Y011029D01*
X031077Y011029D02*
X030649Y011029D01*
X030649Y010930D02*
X033774Y010930D01*
X033774Y010832D02*
X030649Y010832D01*
X031469Y011226D02*
X033774Y011226D01*
X033774Y011324D02*
X031484Y011324D01*
X031469Y011423D02*
X031575Y011423D01*
X031575Y011741D01*
X031672Y011741D01*
X031672Y011423D01*
X031841Y011423D01*
X031879Y011433D01*
X031913Y011453D01*
X031941Y011481D01*
X031961Y011515D01*
X031971Y011553D01*
X031971Y011741D01*
X031672Y011741D01*
X031672Y011838D01*
X031971Y011838D01*
X031971Y012026D01*
X031961Y012064D01*
X031941Y012098D01*
X031915Y012124D01*
X031971Y012180D01*
X031971Y012689D01*
X031998Y012662D01*
X032112Y012614D01*
X032236Y012614D01*
X032350Y012662D01*
X032377Y012689D01*
X032377Y012180D01*
X032433Y012124D01*
X032377Y012068D01*
X032377Y011511D01*
X032465Y011423D01*
X032983Y011423D01*
X033071Y011511D01*
X033071Y011594D01*
X033177Y011594D01*
X033177Y011511D01*
X033265Y011423D01*
X033774Y011423D01*
X033177Y011521D02*
X033071Y011521D01*
X032377Y011521D02*
X031962Y011521D01*
X031971Y011620D02*
X032377Y011620D01*
X032377Y011718D02*
X031971Y011718D01*
X031971Y011915D02*
X032377Y011915D01*
X032377Y011817D02*
X031672Y011817D01*
X031672Y011718D02*
X031575Y011718D01*
X031575Y011620D02*
X031672Y011620D01*
X031672Y011521D02*
X031575Y011521D01*
X031971Y012014D02*
X032377Y012014D01*
X032421Y012112D02*
X031927Y012112D01*
X031971Y012211D02*
X032377Y012211D01*
X032377Y012309D02*
X031971Y012309D01*
X031971Y012408D02*
X032377Y012408D01*
X032377Y012506D02*
X031971Y012506D01*
X031971Y012605D02*
X032377Y012605D01*
X032174Y012924D02*
X032374Y013124D01*
X032374Y015774D01*
X032424Y015824D01*
X032424Y016324D01*
X033324Y017224D01*
X033574Y017224D01*
X033674Y017324D01*
X033674Y018239D01*
X033174Y018739D01*
X032924Y018749D01*
X032794Y018712D02*
X033174Y018712D01*
X033174Y018764D02*
X033174Y018574D01*
X032794Y018574D01*
X032794Y019574D01*
X033104Y019574D01*
X033104Y019497D01*
X033084Y019477D01*
X033064Y019442D01*
X033054Y019404D01*
X033054Y019324D01*
X033054Y019245D01*
X033059Y019224D01*
X033054Y019204D01*
X033054Y019124D01*
X033054Y019045D01*
X033064Y019007D01*
X032794Y019007D01*
X032794Y018909D02*
X033104Y018909D01*
X033104Y018952D02*
X033104Y018823D01*
X033162Y018764D01*
X033174Y018764D01*
X033116Y018810D02*
X032794Y018810D01*
X032794Y018613D02*
X033174Y018613D01*
X033482Y018714D02*
X033554Y018714D01*
X033814Y018714D01*
X033814Y018454D01*
X033814Y018382D01*
X033482Y018714D01*
X033484Y018712D02*
X033814Y018712D01*
X033814Y018613D02*
X033583Y018613D01*
X033554Y018714D02*
X033554Y018914D01*
X033554Y018914D01*
X033554Y018714D01*
X033554Y018810D02*
X033554Y018810D01*
X033554Y018909D02*
X033554Y018909D01*
X033104Y018952D02*
X033084Y018972D01*
X033064Y019007D01*
X033054Y019106D02*
X032794Y019106D01*
X032794Y019204D02*
X033054Y019204D01*
X033054Y019124D02*
X033147Y019124D01*
X033054Y019124D01*
X033147Y019124D02*
X033147Y019124D01*
X033147Y019324D02*
X033054Y019324D01*
X033147Y019324D01*
X033147Y019324D01*
X033054Y019303D02*
X032794Y019303D01*
X032794Y019401D02*
X033054Y019401D01*
X033104Y019500D02*
X032794Y019500D01*
X033549Y019529D02*
X033549Y019749D01*
X032844Y020424D01*
X032844Y021854D01*
X032624Y022074D01*
X032624Y022090D01*
X033024Y022090D01*
X033024Y023114D01*
X032814Y023324D01*
X027624Y023324D01*
X027607Y023322D01*
X027590Y023318D01*
X027574Y023311D01*
X027560Y023301D01*
X027547Y023288D01*
X027537Y023274D01*
X027530Y023258D01*
X027526Y023241D01*
X027524Y023224D01*
X027524Y018524D01*
X027324Y018324D01*
X027324Y014724D01*
X027174Y014574D01*
X025424Y014574D01*
X025114Y014575D02*
X023584Y014575D01*
X023584Y014476D02*
X025129Y014476D01*
X025182Y014378D02*
X023584Y014378D01*
X023584Y014279D02*
X025326Y014279D01*
X025522Y014279D02*
X027827Y014279D01*
X027827Y014378D02*
X027260Y014378D01*
X027359Y014476D02*
X027844Y014476D01*
X027833Y014575D02*
X027457Y014575D01*
X027524Y014673D02*
X027827Y014673D01*
X027827Y014772D02*
X027524Y014772D01*
X027524Y014870D02*
X027827Y014870D01*
X027827Y014969D02*
X027524Y014969D01*
X027524Y015067D02*
X027827Y015067D01*
X027855Y015166D02*
X027524Y015166D01*
X027524Y015264D02*
X028266Y015264D01*
X028269Y015363D02*
X027524Y015363D01*
X027524Y015461D02*
X028269Y015461D01*
X027974Y015560D02*
X027874Y015560D01*
X027874Y015658D02*
X027974Y015658D01*
X027974Y015757D02*
X027874Y015757D01*
X027874Y015855D02*
X027974Y015855D01*
X027974Y015954D02*
X027874Y015954D01*
X027874Y016073D02*
X027874Y016488D01*
X027550Y016488D01*
X027524Y016481D01*
X027524Y016661D01*
X027594Y016661D01*
X027594Y016629D01*
X027729Y016494D01*
X028298Y016494D01*
X028298Y016488D01*
X027974Y016488D01*
X027974Y016073D01*
X027874Y016073D01*
X027874Y016151D02*
X027974Y016151D01*
X027974Y016249D02*
X027874Y016249D01*
X027874Y016348D02*
X027974Y016348D01*
X027974Y016446D02*
X027874Y016446D01*
X027678Y016545D02*
X027524Y016545D01*
X027524Y016643D02*
X027594Y016643D01*
X027124Y015658D02*
X026996Y015658D01*
X027124Y015560D02*
X023456Y015560D01*
X023358Y015461D02*
X027124Y015461D01*
X027124Y015363D02*
X023284Y015363D01*
X023284Y015264D02*
X027124Y015264D01*
X027124Y015166D02*
X023480Y015166D01*
X023619Y015067D02*
X027124Y015067D01*
X027124Y014969D02*
X023670Y014969D01*
X023684Y014870D02*
X025329Y014870D01*
X025183Y014772D02*
X023667Y014772D01*
X023611Y014673D02*
X025129Y014673D01*
X025519Y014870D02*
X027124Y014870D01*
X027524Y015560D02*
X027544Y015560D01*
X026652Y015658D02*
X024999Y015658D01*
X024874Y015658D02*
X024774Y015658D01*
X024649Y015658D02*
X023555Y015658D01*
X023584Y014181D02*
X028125Y014181D01*
X028222Y014181D02*
X028877Y014181D01*
X028877Y014279D02*
X028521Y014279D01*
X028521Y014378D02*
X028877Y014378D01*
X028877Y014476D02*
X028503Y014476D01*
X028515Y014575D02*
X028877Y014575D01*
X028877Y014673D02*
X028521Y014673D01*
X028521Y014772D02*
X028931Y014772D01*
X028877Y014870D02*
X028521Y014870D01*
X028565Y014969D02*
X028877Y014969D01*
X028877Y015067D02*
X028659Y015067D01*
X029515Y014774D02*
X029555Y014814D01*
X029861Y014814D01*
X029984Y014937D01*
X030001Y014954D01*
X030124Y015077D01*
X030124Y015119D01*
X030219Y015119D01*
X030219Y014814D01*
X030219Y014584D01*
X030137Y014584D01*
X030049Y014496D01*
X029896Y014650D01*
X029571Y014650D01*
X029571Y014718D01*
X029515Y014774D01*
X029517Y014772D02*
X030219Y014772D01*
X030219Y014814D02*
X030383Y014814D01*
X030383Y014814D01*
X030219Y014814D01*
X030219Y014870D02*
X029917Y014870D01*
X030001Y014954D02*
X030001Y014954D01*
X030015Y014969D02*
X030219Y014969D01*
X030219Y015067D02*
X030114Y015067D01*
X030219Y014673D02*
X029571Y014673D01*
X029970Y014575D02*
X030127Y014575D01*
X029733Y014181D02*
X029571Y014181D01*
X029635Y014082D02*
X029492Y014082D01*
X029488Y013984D02*
X029614Y013984D01*
X029614Y013885D02*
X029488Y013885D01*
X029488Y013787D02*
X029614Y013787D01*
X029614Y013688D02*
X029488Y013688D01*
X029488Y013590D02*
X029614Y013590D01*
X028973Y013491D02*
X028021Y013491D01*
X028007Y013590D02*
X028558Y013590D01*
X028558Y013688D02*
X027184Y013688D01*
X027184Y013787D02*
X028558Y013787D01*
X028558Y013885D02*
X028493Y013885D01*
X028521Y013984D02*
X028558Y013984D01*
X028579Y014082D02*
X028521Y014082D01*
X028222Y014082D02*
X028125Y014082D01*
X028125Y013984D02*
X028222Y013984D01*
X028222Y013885D02*
X028125Y013885D01*
X027855Y013885D02*
X027143Y013885D01*
X027053Y013984D02*
X027827Y013984D01*
X027827Y014082D02*
X024654Y014082D01*
X024294Y014082D02*
X023584Y014082D01*
X023584Y013984D02*
X024204Y013984D01*
X024164Y013885D02*
X023584Y013885D01*
X023584Y013787D02*
X024164Y013787D01*
X024147Y013688D02*
X024101Y013688D01*
X027219Y013590D02*
X027341Y013590D01*
X027337Y013583D02*
X027327Y013545D01*
X027327Y013357D01*
X027625Y013357D01*
X027625Y013676D01*
X027457Y013676D01*
X027419Y013665D01*
X027385Y013646D01*
X027357Y013618D01*
X027337Y013583D01*
X027327Y013491D02*
X027221Y013491D01*
X027221Y013393D02*
X027327Y013393D01*
X027625Y013393D02*
X027722Y013393D01*
X027722Y013491D02*
X027625Y013491D01*
X027625Y013590D02*
X027722Y013590D01*
X030774Y015314D02*
X030774Y015674D01*
X030874Y015674D01*
X030874Y015314D01*
X030774Y015314D01*
X030774Y015363D02*
X030874Y015363D01*
X030874Y015461D02*
X030774Y015461D01*
X030774Y015560D02*
X030874Y015560D01*
X030874Y015658D02*
X030774Y015658D01*
X030774Y015674D02*
X030414Y015674D01*
X030414Y015732D01*
X030408Y015737D01*
X030414Y015760D01*
X030414Y015774D01*
X030774Y015774D01*
X030774Y015674D01*
X030774Y015757D02*
X030413Y015757D01*
X030774Y015774D02*
X030774Y016134D01*
X030789Y016134D01*
X030824Y016144D01*
X030859Y016134D01*
X030874Y016134D01*
X030874Y015774D01*
X031234Y015774D01*
X031234Y015674D01*
X030874Y015674D01*
X030874Y015774D01*
X030774Y015774D01*
X030774Y015855D02*
X030874Y015855D01*
X030874Y015757D02*
X031234Y015757D01*
X030874Y015954D02*
X030774Y015954D01*
X030774Y016052D02*
X030874Y016052D01*
X029914Y015854D02*
X029914Y015854D01*
X029414Y015854D01*
X029414Y015786D01*
X029337Y015709D01*
X028896Y015709D01*
X028836Y015734D01*
X028712Y015734D01*
X028689Y015725D01*
X028689Y015847D01*
X028736Y015894D01*
X029414Y015894D01*
X029414Y015854D01*
X029914Y015854D01*
X029414Y015855D02*
X028697Y015855D01*
X028689Y015757D02*
X029384Y015757D01*
X030488Y017236D02*
X029554Y018170D01*
X029554Y019370D01*
X029419Y019504D01*
X029019Y019904D01*
X028946Y019904D01*
X028946Y020188D01*
X028910Y020224D01*
X028946Y020261D01*
X028946Y021350D01*
X028858Y021437D01*
X027724Y021437D01*
X027724Y023124D01*
X032403Y023124D01*
X032369Y023115D01*
X032335Y023096D01*
X032307Y023068D01*
X032287Y023033D01*
X032277Y022995D01*
X032277Y022807D01*
X032575Y022807D01*
X032575Y022711D01*
X032277Y022711D01*
X032277Y022523D01*
X032287Y022485D01*
X032307Y022450D01*
X032333Y022424D01*
X032277Y022368D01*
X032277Y021811D01*
X032365Y021723D01*
X032644Y021723D01*
X032644Y021437D01*
X031490Y021437D01*
X031402Y021350D01*
X031402Y021204D01*
X031229Y021204D01*
X031094Y021070D01*
X031094Y018879D01*
X031194Y018779D01*
X031194Y017334D01*
X030587Y017334D01*
X030488Y017236D01*
X030391Y017333D02*
X030585Y017333D01*
X030292Y017431D02*
X031194Y017431D01*
X031194Y017530D02*
X030194Y017530D01*
X030095Y017628D02*
X031194Y017628D01*
X031194Y017727D02*
X029997Y017727D01*
X029898Y017825D02*
X031194Y017825D01*
X031194Y017924D02*
X029800Y017924D01*
X029701Y018022D02*
X031194Y018022D01*
X031194Y018121D02*
X029603Y018121D01*
X029554Y018219D02*
X031194Y018219D01*
X031194Y018318D02*
X029554Y018318D01*
X029554Y018416D02*
X031194Y018416D01*
X031194Y018515D02*
X029554Y018515D01*
X029554Y018613D02*
X031194Y018613D01*
X031194Y018712D02*
X029554Y018712D01*
X029554Y018810D02*
X031163Y018810D01*
X031094Y018909D02*
X029554Y018909D01*
X029554Y019007D02*
X031094Y019007D01*
X031094Y019106D02*
X029554Y019106D01*
X029554Y019204D02*
X031094Y019204D01*
X031094Y019303D02*
X029554Y019303D01*
X029522Y019401D02*
X031094Y019401D01*
X031094Y019500D02*
X029424Y019500D01*
X029325Y019598D02*
X031094Y019598D01*
X031094Y019697D02*
X029227Y019697D01*
X029128Y019795D02*
X031094Y019795D01*
X031094Y019894D02*
X029030Y019894D01*
X028946Y019992D02*
X031094Y019992D01*
X031094Y020091D02*
X028946Y020091D01*
X028945Y020189D02*
X031094Y020189D01*
X031094Y020288D02*
X028946Y020288D01*
X028946Y020386D02*
X031094Y020386D01*
X031094Y020485D02*
X028946Y020485D01*
X028946Y020583D02*
X031094Y020583D01*
X031094Y020682D02*
X028946Y020682D01*
X028946Y020780D02*
X031094Y020780D01*
X031094Y020879D02*
X028946Y020879D01*
X028946Y020977D02*
X031094Y020977D01*
X031100Y021076D02*
X028946Y021076D01*
X028946Y021174D02*
X031199Y021174D01*
X031402Y021273D02*
X028946Y021273D01*
X028924Y021371D02*
X031424Y021371D01*
X032323Y021765D02*
X027724Y021765D01*
X027724Y021667D02*
X032644Y021667D01*
X032644Y021568D02*
X027724Y021568D01*
X027724Y021470D02*
X032644Y021470D01*
X033222Y021470D02*
X033925Y021470D01*
X033925Y021461D02*
X033627Y021461D01*
X033627Y021273D01*
X033521Y021273D01*
X033521Y021461D01*
X033222Y021461D01*
X033222Y021557D01*
X033521Y021557D01*
X033521Y021723D01*
X033627Y021723D01*
X033627Y021557D01*
X033925Y021557D01*
X033925Y021461D01*
X034022Y021461D02*
X034022Y021557D01*
X034321Y021557D01*
X034321Y021723D01*
X034427Y021723D01*
X034427Y021557D01*
X034725Y021557D01*
X034725Y021461D01*
X034427Y021461D01*
X034427Y021273D01*
X034321Y021273D01*
X034321Y021461D01*
X034022Y021461D01*
X034022Y021470D02*
X034725Y021470D01*
X034725Y021557D02*
X034725Y021876D01*
X034571Y021876D01*
X034571Y021955D01*
X034604Y021922D01*
X034864Y021922D01*
X034864Y021876D01*
X034822Y021876D01*
X034822Y021557D01*
X035121Y021557D01*
X035121Y021564D01*
X035236Y021564D01*
X035350Y021612D01*
X035374Y021636D01*
X035398Y021612D01*
X035512Y021564D01*
X035636Y021564D01*
X035750Y021612D01*
X035837Y021699D01*
X035884Y021813D01*
X035884Y021936D01*
X035837Y022050D01*
X035831Y022055D01*
X035831Y022449D01*
X035756Y022524D01*
X035831Y022600D01*
X035831Y022620D01*
X036002Y022620D01*
X036020Y022638D01*
X036033Y022624D01*
X035977Y022568D01*
X035977Y022066D01*
X035961Y022050D01*
X035914Y021936D01*
X035914Y021813D01*
X035961Y021699D01*
X036048Y021612D01*
X036162Y021564D01*
X036286Y021564D01*
X036400Y021612D01*
X036487Y021699D01*
X036534Y021813D01*
X036534Y021923D01*
X036583Y021923D01*
X036671Y022011D01*
X036671Y022365D01*
X036712Y022324D01*
X037636Y022324D01*
X037724Y022412D01*
X037724Y023332D01*
X040214Y023334D01*
X040214Y016454D01*
X036754Y016454D01*
X036815Y016515D01*
X036815Y016901D01*
X038854Y016901D01*
X038859Y016887D01*
X038980Y016766D01*
X039138Y016701D01*
X039309Y016701D01*
X039467Y016766D01*
X039588Y016887D01*
X039654Y017045D01*
X039654Y017216D01*
X039588Y017374D01*
X039467Y017495D01*
X039398Y017524D01*
X039449Y017550D01*
X039504Y017590D01*
X039552Y017638D01*
X039592Y017693D01*
X039622Y017753D01*
X039643Y017817D01*
X039654Y017884D01*
X039654Y017889D01*
X039253Y017889D01*
X039253Y017947D01*
X039654Y017947D01*
X039654Y017952D01*
X039643Y018019D01*
X039622Y018083D01*
X039592Y018143D01*
X039552Y018198D01*
X039504Y018246D01*
X039449Y018286D01*
X039389Y018317D01*
X039325Y018338D01*
X039258Y018348D01*
X039253Y018348D01*
X039253Y017947D01*
X039195Y017947D01*
X039195Y018348D01*
X039190Y018348D01*
X039123Y018338D01*
X039059Y018317D01*
X039025Y018299D01*
X039084Y018442D01*
X039084Y018729D01*
X038974Y018994D01*
X038772Y019197D01*
X038507Y019307D01*
X038220Y019307D01*
X037955Y019197D01*
X037752Y018994D01*
X037642Y018729D01*
X037642Y018442D01*
X037752Y018177D01*
X037955Y017975D01*
X038220Y017865D01*
X038507Y017865D01*
X038772Y017975D01*
X038802Y018005D01*
X038794Y017952D01*
X038794Y017947D01*
X039195Y017947D01*
X039195Y017889D01*
X038794Y017889D01*
X038794Y017884D01*
X038804Y017817D01*
X038825Y017753D01*
X038856Y017693D01*
X038896Y017638D01*
X038944Y017590D01*
X038999Y017550D01*
X039050Y017524D01*
X038980Y017495D01*
X038859Y017374D01*
X038854Y017361D01*
X036815Y017361D01*
X036815Y017833D01*
X036727Y017921D01*
X036170Y017921D01*
X036114Y017865D01*
X036058Y017921D01*
X035501Y017921D01*
X035413Y017833D01*
X035413Y017696D01*
X035333Y017776D01*
X034854Y017776D01*
X034859Y017788D01*
X034859Y017911D01*
X034812Y018025D01*
X034811Y018025D01*
X034824Y018047D01*
X034834Y018085D01*
X034834Y018454D01*
X034634Y018454D01*
X034634Y018454D01*
X034834Y018454D01*
X034834Y018714D01*
X034874Y018714D01*
X034874Y018642D01*
X034914Y018602D01*
X034914Y018513D01*
X034961Y018399D01*
X035048Y018312D01*
X035162Y018264D01*
X035286Y018264D01*
X035400Y018312D01*
X035483Y018395D01*
X035501Y018378D01*
X035701Y018378D01*
X035706Y018375D01*
X035846Y018374D01*
X035855Y018378D01*
X036058Y018378D01*
X036114Y018434D01*
X036140Y018408D01*
X036174Y018388D01*
X036212Y018378D01*
X036400Y018378D01*
X036400Y018676D01*
X036497Y018676D01*
X036497Y018773D01*
X036815Y018773D01*
X036815Y018874D01*
X036857Y018874D01*
X036974Y018992D01*
X037024Y019042D01*
X037024Y019507D01*
X036907Y019624D01*
X036857Y019674D01*
X035859Y019674D01*
X035859Y019678D01*
X036058Y019678D01*
X036114Y019734D01*
X036140Y019708D01*
X036174Y019688D01*
X036212Y019678D01*
X036400Y019678D01*
X036400Y019976D01*
X036497Y019976D01*
X036497Y020073D01*
X036815Y020073D01*
X036815Y020224D01*
X036907Y020224D01*
X037024Y020342D01*
X037024Y020934D01*
X037073Y020934D01*
X037984Y020033D01*
X038765Y019252D01*
X038864Y019211D01*
X038886Y019211D01*
X038980Y019116D01*
X039138Y019051D01*
X039309Y019051D01*
X039467Y019116D01*
X039588Y019237D01*
X039654Y019395D01*
X039654Y019566D01*
X039588Y019724D01*
X039467Y019845D01*
X039398Y019874D01*
X039449Y019900D01*
X039504Y019940D01*
X039552Y019988D01*
X039592Y020043D01*
X039622Y020103D01*
X039643Y020167D01*
X039654Y020234D01*
X039654Y020239D01*
X039253Y020239D01*
X039253Y020297D01*
X039654Y020297D01*
X039654Y020302D01*
X039643Y020369D01*
X039622Y020433D01*
X039592Y020493D01*
X039552Y020548D01*
X039504Y020596D01*
X039449Y020636D01*
X039389Y020667D01*
X039325Y020688D01*
X039258Y020698D01*
X039253Y020698D01*
X039253Y020297D01*
X039195Y020297D01*
X039195Y020698D01*
X039190Y020698D01*
X039123Y020688D01*
X039059Y020667D01*
X038999Y020636D01*
X038944Y020596D01*
X038896Y020548D01*
X038856Y020493D01*
X038825Y020433D01*
X038804Y020369D01*
X038794Y020302D01*
X038794Y020297D01*
X039195Y020297D01*
X039195Y020239D01*
X038794Y020239D01*
X038794Y020234D01*
X038804Y020167D01*
X038825Y020103D01*
X038856Y020043D01*
X038896Y019988D01*
X038944Y019940D01*
X038999Y019900D01*
X039050Y019874D01*
X038980Y019845D01*
X038958Y019823D01*
X038402Y020378D01*
X038402Y020379D01*
X038364Y020416D01*
X038327Y020453D01*
X038326Y020454D01*
X037374Y021396D01*
X037337Y021433D01*
X037336Y021434D01*
X037287Y021454D01*
X037238Y021474D01*
X037237Y021474D01*
X037236Y021475D01*
X037183Y021474D01*
X035350Y021474D01*
X035251Y021433D01*
X035121Y021303D01*
X035121Y021461D01*
X034822Y021461D01*
X034822Y021557D01*
X034725Y021557D01*
X034725Y021568D02*
X034822Y021568D01*
X034822Y021470D02*
X035339Y021470D01*
X035245Y021568D02*
X035502Y021568D01*
X035645Y021568D02*
X036152Y021568D01*
X036295Y021568D02*
X038928Y021568D01*
X038980Y021516D02*
X038859Y021637D01*
X038794Y021795D01*
X038794Y021966D01*
X038859Y022124D01*
X038980Y022245D01*
X039051Y022274D01*
X038980Y022304D01*
X038859Y022425D01*
X038794Y022583D01*
X038794Y022754D01*
X038859Y022912D01*
X038980Y023033D01*
X039138Y023098D01*
X039309Y023098D01*
X039467Y023033D01*
X039588Y022912D01*
X039654Y022754D01*
X039654Y022583D01*
X039588Y022425D01*
X039467Y022304D01*
X039397Y022274D01*
X039467Y022245D01*
X039588Y022124D01*
X039654Y021966D01*
X039654Y021795D01*
X039588Y021637D01*
X039467Y021516D01*
X039309Y021451D01*
X039138Y021451D01*
X038980Y021516D01*
X039092Y021470D02*
X037248Y021470D01*
X037336Y021434D02*
X037336Y021434D01*
X037399Y021371D02*
X040214Y021371D01*
X040214Y021273D02*
X037498Y021273D01*
X037598Y021174D02*
X040214Y021174D01*
X040214Y021076D02*
X037697Y021076D01*
X037797Y020977D02*
X040214Y020977D01*
X040214Y020879D02*
X037896Y020879D01*
X037996Y020780D02*
X040214Y020780D01*
X040214Y020682D02*
X039342Y020682D01*
X039253Y020682D02*
X039195Y020682D01*
X039106Y020682D02*
X038095Y020682D01*
X038195Y020583D02*
X038931Y020583D01*
X038852Y020485D02*
X038294Y020485D01*
X038394Y020386D02*
X038810Y020386D01*
X038801Y020189D02*
X038591Y020189D01*
X038689Y020091D02*
X038832Y020091D01*
X038788Y019992D02*
X038893Y019992D01*
X038886Y019894D02*
X039011Y019894D01*
X039437Y019894D02*
X040214Y019894D01*
X040214Y019992D02*
X039555Y019992D01*
X039616Y020091D02*
X040214Y020091D01*
X040214Y020189D02*
X039647Y020189D01*
X039638Y020386D02*
X040214Y020386D01*
X040214Y020288D02*
X039253Y020288D01*
X039195Y020288D02*
X038492Y020288D01*
X038024Y019992D02*
X036497Y019992D01*
X036497Y019976D02*
X036815Y019976D01*
X036815Y019808D01*
X036805Y019770D01*
X036785Y019735D01*
X036757Y019708D01*
X036723Y019688D01*
X036685Y019678D01*
X036497Y019678D01*
X036497Y019976D01*
X036497Y019894D02*
X036400Y019894D01*
X036400Y019795D02*
X036497Y019795D01*
X036497Y019697D02*
X036400Y019697D01*
X036158Y019697D02*
X036077Y019697D01*
X035749Y019474D02*
X035599Y019324D01*
X035599Y019124D01*
X035649Y019074D01*
X036774Y019074D01*
X036824Y019124D01*
X036824Y019424D01*
X036774Y019474D01*
X035749Y019474D01*
X035676Y019401D02*
X036824Y019401D01*
X036824Y019303D02*
X035599Y019303D01*
X035599Y019204D02*
X036824Y019204D01*
X036805Y019106D02*
X035617Y019106D01*
X035094Y018924D02*
X035074Y018924D01*
X035074Y018724D01*
X035224Y018574D01*
X034954Y018416D02*
X034834Y018416D01*
X034834Y018318D02*
X035042Y018318D01*
X034834Y018219D02*
X037735Y018219D01*
X037694Y018318D02*
X035406Y018318D01*
X035413Y017825D02*
X034859Y017825D01*
X034854Y017924D02*
X038077Y017924D01*
X037907Y018022D02*
X034813Y018022D01*
X034834Y018121D02*
X037809Y018121D01*
X037653Y018416D02*
X036766Y018416D01*
X036757Y018408D02*
X036785Y018435D01*
X036805Y018470D01*
X036815Y018508D01*
X036815Y018676D01*
X036497Y018676D01*
X036497Y018378D01*
X036685Y018378D01*
X036723Y018388D01*
X036757Y018408D01*
X036815Y018515D02*
X037642Y018515D01*
X037642Y018613D02*
X036815Y018613D01*
X036815Y018810D02*
X037676Y018810D01*
X037642Y018712D02*
X036497Y018712D01*
X036497Y018613D02*
X036400Y018613D01*
X036400Y018515D02*
X036497Y018515D01*
X036497Y018416D02*
X036400Y018416D01*
X036131Y018416D02*
X036097Y018416D01*
X036815Y017825D02*
X038803Y017825D01*
X038839Y017727D02*
X036815Y017727D01*
X036815Y017628D02*
X038905Y017628D01*
X039039Y017530D02*
X036815Y017530D01*
X036815Y017431D02*
X038917Y017431D01*
X039409Y017530D02*
X040214Y017530D01*
X040214Y017628D02*
X039542Y017628D01*
X039609Y017727D02*
X040214Y017727D01*
X040214Y017825D02*
X039645Y017825D01*
X039642Y018022D02*
X040214Y018022D01*
X040214Y017924D02*
X039253Y017924D01*
X039195Y017924D02*
X038649Y017924D01*
X039033Y018318D02*
X039063Y018318D01*
X039073Y018416D02*
X040214Y018416D01*
X040214Y018318D02*
X039385Y018318D01*
X039253Y018318D02*
X039195Y018318D01*
X039195Y018219D02*
X039253Y018219D01*
X039253Y018121D02*
X039195Y018121D01*
X039195Y018022D02*
X039253Y018022D01*
X039531Y018219D02*
X040214Y018219D01*
X040214Y018121D02*
X039603Y018121D01*
X039084Y018515D02*
X040214Y018515D01*
X040214Y018613D02*
X039084Y018613D01*
X039084Y018712D02*
X040214Y018712D01*
X040214Y018810D02*
X039050Y018810D01*
X039010Y018909D02*
X040214Y018909D01*
X040214Y019007D02*
X038961Y019007D01*
X039005Y019106D02*
X038863Y019106D01*
X038892Y019204D02*
X038753Y019204D01*
X038714Y019303D02*
X038516Y019303D01*
X038615Y019401D02*
X037024Y019401D01*
X037024Y019303D02*
X038211Y019303D01*
X037973Y019204D02*
X037024Y019204D01*
X037024Y019106D02*
X037864Y019106D01*
X037765Y019007D02*
X036990Y019007D01*
X036891Y018909D02*
X037717Y018909D01*
X037024Y019500D02*
X038517Y019500D01*
X038418Y019598D02*
X036933Y019598D01*
X036739Y019697D02*
X038320Y019697D01*
X038221Y019795D02*
X036812Y019795D01*
X036815Y019894D02*
X038123Y019894D01*
X037925Y020091D02*
X036815Y020091D01*
X036815Y020189D02*
X037825Y020189D01*
X037726Y020288D02*
X036970Y020288D01*
X037024Y020386D02*
X037626Y020386D01*
X037527Y020485D02*
X037024Y020485D01*
X037024Y020583D02*
X037427Y020583D01*
X037328Y020682D02*
X037024Y020682D01*
X037024Y020780D02*
X037228Y020780D01*
X037129Y020879D02*
X037024Y020879D01*
X036455Y021667D02*
X038847Y021667D01*
X038806Y021765D02*
X036514Y021765D01*
X036534Y021864D02*
X038794Y021864D01*
X038794Y021962D02*
X036622Y021962D01*
X036671Y022061D02*
X038833Y022061D01*
X038895Y022159D02*
X036671Y022159D01*
X036671Y022258D02*
X039011Y022258D01*
X038927Y022356D02*
X037668Y022356D01*
X037724Y022455D02*
X038847Y022455D01*
X038806Y022553D02*
X037724Y022553D01*
X037724Y022652D02*
X038794Y022652D01*
X038794Y022750D02*
X037724Y022750D01*
X037724Y022849D02*
X038833Y022849D01*
X038895Y022947D02*
X037724Y022947D01*
X037724Y023046D02*
X039012Y023046D01*
X039435Y023046D02*
X040214Y023046D01*
X040214Y023144D02*
X037724Y023144D01*
X037724Y023243D02*
X040214Y023243D01*
X040214Y022947D02*
X039553Y022947D01*
X039614Y022849D02*
X040214Y022849D01*
X040214Y022750D02*
X039654Y022750D01*
X039654Y022652D02*
X040214Y022652D01*
X040214Y022553D02*
X039642Y022553D01*
X039601Y022455D02*
X040214Y022455D01*
X040214Y022356D02*
X039520Y022356D01*
X039437Y022258D02*
X040214Y022258D01*
X040214Y022159D02*
X039553Y022159D01*
X039615Y022061D02*
X040214Y022061D01*
X040214Y021962D02*
X039654Y021962D01*
X039654Y021864D02*
X040214Y021864D01*
X040214Y021765D02*
X039642Y021765D01*
X039601Y021667D02*
X040214Y021667D01*
X040214Y021568D02*
X039520Y021568D01*
X039356Y021470D02*
X040214Y021470D01*
X040214Y020583D02*
X039517Y020583D01*
X039596Y020485D02*
X040214Y020485D01*
X039253Y020485D02*
X039195Y020485D01*
X039195Y020583D02*
X039253Y020583D01*
X039253Y020386D02*
X039195Y020386D01*
X039517Y019795D02*
X040214Y019795D01*
X040214Y019697D02*
X039600Y019697D01*
X039641Y019598D02*
X040214Y019598D01*
X040214Y019500D02*
X039654Y019500D01*
X039654Y019401D02*
X040214Y019401D01*
X040214Y019303D02*
X039616Y019303D01*
X039556Y019204D02*
X040214Y019204D01*
X040214Y019106D02*
X039443Y019106D01*
X039531Y017431D02*
X040214Y017431D01*
X040214Y017333D02*
X039606Y017333D01*
X039646Y017234D02*
X040214Y017234D01*
X040214Y017136D02*
X039654Y017136D01*
X039651Y017037D02*
X040214Y017037D01*
X040214Y016939D02*
X039610Y016939D01*
X039542Y016840D02*
X040214Y016840D01*
X040214Y016742D02*
X039409Y016742D01*
X039039Y016742D02*
X036815Y016742D01*
X036815Y016840D02*
X038906Y016840D01*
X040214Y016643D02*
X036815Y016643D01*
X036815Y016545D02*
X040214Y016545D01*
X035624Y015274D02*
X035624Y014674D01*
X034574Y014674D01*
X034424Y014824D01*
X034424Y015120D01*
X034578Y015274D01*
X035624Y015274D01*
X035624Y015264D02*
X034569Y015264D01*
X034470Y015166D02*
X035624Y015166D01*
X035624Y015067D02*
X034424Y015067D01*
X034424Y014969D02*
X035624Y014969D01*
X035624Y014870D02*
X034424Y014870D01*
X034476Y014772D02*
X035624Y014772D01*
X035325Y014724D02*
X035324Y014674D01*
X034284Y015560D02*
X034241Y015560D01*
X034237Y015549D02*
X034284Y015663D01*
X034284Y015786D01*
X034237Y015900D01*
X034150Y015987D01*
X034036Y016034D01*
X033912Y016034D01*
X033798Y015987D01*
X033781Y015970D01*
X033777Y015974D01*
X033793Y015991D01*
X033813Y016025D01*
X033823Y016063D01*
X033823Y016204D01*
X033344Y016204D01*
X033344Y016245D01*
X033823Y016245D01*
X033823Y016373D01*
X034333Y016373D01*
X034421Y016461D01*
X034421Y016530D01*
X034727Y016530D01*
X034727Y016461D01*
X034815Y016373D01*
X034825Y016373D01*
X034825Y016021D01*
X034871Y015974D01*
X034851Y015954D01*
X034679Y015954D01*
X033823Y015099D01*
X033823Y015428D01*
X033777Y015474D01*
X033781Y015479D01*
X033798Y015462D01*
X033912Y015414D01*
X034036Y015414D01*
X034150Y015462D01*
X034237Y015549D01*
X034186Y015461D02*
X034149Y015461D01*
X034087Y015363D02*
X033823Y015363D01*
X033823Y015264D02*
X033989Y015264D01*
X033890Y015166D02*
X033823Y015166D01*
X033799Y015461D02*
X033790Y015461D01*
X034282Y015658D02*
X034383Y015658D01*
X034481Y015757D02*
X034284Y015757D01*
X034255Y015855D02*
X034580Y015855D01*
X034678Y015954D02*
X034183Y015954D01*
X033820Y016052D02*
X034825Y016052D01*
X034825Y016151D02*
X033823Y016151D01*
X033823Y016249D02*
X034825Y016249D01*
X034825Y016348D02*
X033823Y016348D01*
X033727Y016507D02*
X033693Y016516D01*
X033344Y016516D01*
X033344Y016245D01*
X033302Y016245D01*
X033302Y016204D01*
X032822Y016204D01*
X032822Y016063D01*
X032832Y016025D01*
X032852Y015991D01*
X032868Y015974D01*
X032822Y015928D01*
X032822Y015920D01*
X032740Y015954D01*
X032624Y015954D01*
X032624Y016242D01*
X033407Y017024D01*
X033657Y017024D01*
X033745Y017113D01*
X033783Y017074D01*
X033727Y017018D01*
X033727Y016507D01*
X033727Y016545D02*
X032927Y016545D01*
X032953Y016516D02*
X032914Y016506D01*
X032880Y016486D01*
X032852Y016458D01*
X032832Y016424D01*
X032822Y016386D01*
X032822Y016245D01*
X033302Y016245D01*
X033302Y016516D01*
X032953Y016516D01*
X032845Y016446D02*
X032829Y016446D01*
X032822Y016348D02*
X032730Y016348D01*
X032822Y016249D02*
X032632Y016249D01*
X032624Y016151D02*
X032822Y016151D01*
X032825Y016052D02*
X032624Y016052D01*
X032741Y015954D02*
X032848Y015954D01*
X033302Y016249D02*
X033344Y016249D01*
X033344Y016348D02*
X033302Y016348D01*
X033302Y016446D02*
X033344Y016446D01*
X033124Y016742D02*
X033727Y016742D01*
X033727Y016840D02*
X033223Y016840D01*
X033321Y016939D02*
X033727Y016939D01*
X033746Y017037D02*
X033670Y017037D01*
X033727Y016643D02*
X033026Y016643D01*
X032756Y016939D02*
X032554Y016939D01*
X032554Y016879D02*
X032554Y017332D01*
X032612Y017274D01*
X033091Y017274D01*
X032341Y016524D01*
X032341Y016524D01*
X032224Y016407D01*
X032224Y016334D01*
X032054Y016334D01*
X032054Y016379D01*
X032554Y016879D01*
X032515Y016840D02*
X032657Y016840D01*
X032559Y016742D02*
X032417Y016742D01*
X032460Y016643D02*
X032318Y016643D01*
X032362Y016545D02*
X032220Y016545D01*
X032263Y016446D02*
X032121Y016446D01*
X032054Y016348D02*
X032224Y016348D01*
X032554Y017037D02*
X032854Y017037D01*
X032953Y017136D02*
X032554Y017136D01*
X032554Y017234D02*
X033051Y017234D01*
X034124Y017849D02*
X034224Y017949D01*
X034224Y018454D01*
X034224Y018624D01*
X034424Y018454D02*
X034424Y017974D01*
X034549Y017849D01*
X034834Y018515D02*
X034914Y018515D01*
X034902Y018613D02*
X034834Y018613D01*
X034834Y018712D02*
X034874Y018712D01*
X034374Y018954D02*
X034374Y019174D01*
X034274Y019174D01*
X034274Y018954D01*
X034374Y018954D01*
X034374Y019007D02*
X034274Y019007D01*
X034274Y019106D02*
X034374Y019106D01*
X034374Y019174D02*
X034374Y019274D01*
X034594Y019274D01*
X034594Y019174D01*
X034374Y019174D01*
X034374Y019204D02*
X034594Y019204D01*
X034374Y019274D02*
X034374Y019494D01*
X034304Y019494D01*
X034274Y019494D01*
X034274Y019274D01*
X034274Y019174D01*
X034054Y019174D01*
X034054Y019274D01*
X034274Y019274D01*
X034374Y019274D01*
X034374Y019303D02*
X034274Y019303D01*
X034274Y019401D02*
X034374Y019401D01*
X034274Y019204D02*
X034054Y019204D01*
X033554Y019524D02*
X033549Y019529D01*
X033554Y019994D02*
X033174Y020374D01*
X033174Y020840D01*
X033521Y020879D02*
X033627Y020879D01*
X033627Y020977D02*
X033521Y020977D01*
X033521Y021076D02*
X033627Y021076D01*
X033627Y021118D02*
X033627Y020561D01*
X033715Y020473D01*
X033881Y020473D01*
X033814Y020407D01*
X033814Y020194D01*
X033637Y020194D01*
X033374Y020457D01*
X033374Y020473D01*
X033433Y020473D01*
X033521Y020561D01*
X033521Y021118D01*
X033465Y021174D01*
X033491Y021200D01*
X033511Y021235D01*
X033521Y021273D01*
X033521Y021371D02*
X033627Y021371D01*
X033627Y021273D02*
X033637Y021235D01*
X033657Y021200D01*
X033683Y021174D01*
X033627Y021118D01*
X033683Y021174D02*
X033465Y021174D01*
X033521Y020780D02*
X033627Y020780D01*
X033627Y020682D02*
X033521Y020682D01*
X033521Y020583D02*
X033627Y020583D01*
X033703Y020485D02*
X033445Y020485D01*
X033445Y020386D02*
X033814Y020386D01*
X033733Y020334D02*
X033874Y020474D01*
X034174Y020474D01*
X034224Y020424D01*
X034224Y019994D01*
X034424Y019994D02*
X034424Y020674D01*
X034259Y020840D01*
X033974Y020840D01*
X034321Y021040D02*
X034321Y021118D01*
X034265Y021174D01*
X034291Y021200D01*
X034311Y021235D01*
X034321Y021273D01*
X034321Y021371D02*
X034427Y021371D01*
X034427Y021273D02*
X034437Y021235D01*
X034457Y021200D01*
X034483Y021174D01*
X034427Y021118D01*
X034427Y020954D01*
X034341Y021040D01*
X034321Y021040D01*
X034321Y021076D02*
X034427Y021076D01*
X034427Y020977D02*
X034404Y020977D01*
X034483Y021174D02*
X034265Y021174D01*
X034724Y020824D02*
X034724Y020524D01*
X034624Y020424D01*
X034624Y020274D01*
X034224Y020417D02*
X034224Y020417D01*
X034224Y020473D01*
X034224Y020417D01*
X034224Y020417D01*
X034224Y020473D02*
X034224Y020473D01*
X033814Y020288D02*
X033543Y020288D01*
X033661Y020334D02*
X033733Y020334D01*
X033554Y019994D02*
X034024Y019994D01*
X035121Y021371D02*
X035189Y021371D01*
X034822Y021667D02*
X034725Y021667D01*
X034725Y021765D02*
X034822Y021765D01*
X034822Y021864D02*
X034725Y021864D01*
X034427Y021667D02*
X034321Y021667D01*
X034321Y021568D02*
X034427Y021568D01*
X034224Y022090D02*
X033909Y022090D01*
X033824Y022174D01*
X033824Y022404D01*
X033824Y022624D01*
X033689Y022759D01*
X033424Y022759D01*
X034224Y022759D02*
X034335Y022820D01*
X034824Y022820D01*
X034824Y022229D02*
X035069Y022229D01*
X035174Y022124D01*
X035174Y021874D01*
X035805Y021667D02*
X035993Y021667D01*
X035933Y021765D02*
X035864Y021765D01*
X035884Y021864D02*
X035914Y021864D01*
X035925Y021962D02*
X035873Y021962D01*
X035831Y022061D02*
X035972Y022061D01*
X035977Y022159D02*
X035831Y022159D01*
X035831Y022258D02*
X035977Y022258D01*
X035977Y022356D02*
X035831Y022356D01*
X035825Y022455D02*
X035977Y022455D01*
X035977Y022553D02*
X035785Y022553D01*
X035919Y022820D02*
X035524Y022820D01*
X035919Y022820D02*
X036074Y022974D01*
X036239Y022974D01*
X036324Y022959D01*
X036339Y022374D02*
X036224Y022374D01*
X036224Y021874D01*
X036324Y022290D02*
X036339Y022374D01*
X036671Y022356D02*
X036680Y022356D01*
X033627Y021667D02*
X033521Y021667D01*
X033521Y021568D02*
X033627Y021568D01*
X033424Y022090D02*
X033024Y022090D01*
X032277Y022061D02*
X027724Y022061D01*
X027724Y022159D02*
X032277Y022159D01*
X032277Y022258D02*
X027724Y022258D01*
X027724Y022356D02*
X032277Y022356D01*
X032304Y022455D02*
X027724Y022455D01*
X027724Y022553D02*
X032277Y022553D01*
X032277Y022652D02*
X027724Y022652D01*
X027724Y022750D02*
X032575Y022750D01*
X032277Y022849D02*
X027724Y022849D01*
X027724Y022947D02*
X032277Y022947D01*
X032294Y023046D02*
X027724Y023046D01*
X027724Y021962D02*
X032277Y021962D01*
X032277Y021864D02*
X027724Y021864D01*
X033681Y018515D02*
X033814Y018515D01*
X033814Y018454D02*
X034014Y018454D01*
X033814Y018454D01*
X033814Y018416D02*
X033780Y018416D01*
X034014Y018454D02*
X034014Y018454D01*
X035382Y017727D02*
X035413Y017727D01*
X034742Y016446D02*
X034406Y016446D01*
X032174Y015147D02*
X032174Y013234D01*
X032112Y013234D01*
X031998Y013187D01*
X031971Y013160D01*
X031971Y013568D01*
X031915Y013624D01*
X031941Y013650D01*
X031961Y013685D01*
X031971Y013723D01*
X031971Y013911D01*
X031672Y013911D01*
X031672Y014007D01*
X031971Y014007D01*
X031971Y014195D01*
X031961Y014233D01*
X031944Y014262D01*
X031944Y015119D01*
X032146Y015119D01*
X032174Y015147D01*
X032174Y015067D02*
X031944Y015067D01*
X031944Y014969D02*
X032174Y014969D01*
X032174Y014870D02*
X031944Y014870D01*
X031944Y014772D02*
X032174Y014772D01*
X032174Y014673D02*
X031944Y014673D01*
X031944Y014575D02*
X032174Y014575D01*
X032174Y014476D02*
X031944Y014476D01*
X031944Y014378D02*
X032174Y014378D01*
X032174Y014279D02*
X031944Y014279D01*
X031971Y014181D02*
X032174Y014181D01*
X032174Y014082D02*
X031971Y014082D01*
X031971Y013885D02*
X032174Y013885D01*
X032174Y013787D02*
X031971Y013787D01*
X031962Y013688D02*
X032174Y013688D01*
X032174Y013590D02*
X031949Y013590D01*
X031971Y013491D02*
X032174Y013491D01*
X032174Y013393D02*
X031971Y013393D01*
X031971Y013294D02*
X032174Y013294D01*
X032019Y013196D02*
X031971Y013196D01*
X032174Y013984D02*
X031672Y013984D01*
X029719Y010930D02*
X029529Y010930D01*
X029529Y010832D02*
X029719Y010832D01*
X022772Y011324D02*
X022675Y011324D01*
X022675Y011423D02*
X022772Y011423D01*
X022772Y011521D02*
X022675Y011521D01*
X022194Y010142D02*
X022134Y010142D01*
X022134Y010044D02*
X022292Y010044D01*
X022159Y009059D02*
X022134Y009059D01*
X010324Y011724D02*
X010324Y012974D01*
X008824Y016374D02*
X008924Y016474D01*
X008899Y016499D01*
X009574Y017724D02*
X010074Y017724D01*
X010074Y018974D01*
X011324Y017724D01*
X011324Y018974D01*
X009574Y018974D01*
X009574Y018474D02*
X010074Y018474D01*
X010324Y018724D02*
X010324Y019974D01*
X009574Y019974D01*
X009574Y020224D02*
X010074Y020224D01*
X011574Y018724D01*
X011574Y020224D01*
X012074Y020224D01*
X012074Y017724D01*
X011324Y017724D01*
X011074Y017974D02*
X012074Y017974D01*
X011824Y017724D02*
X011824Y020224D01*
X011574Y019974D02*
X012074Y019974D01*
X012074Y019474D02*
X011574Y019474D01*
X011574Y018974D02*
X012074Y018974D01*
X012074Y018474D02*
X010574Y018474D01*
X010824Y018224D02*
X010824Y019474D01*
X009574Y019474D01*
X009574Y020224D02*
X009574Y017724D01*
X009824Y017724D02*
X009824Y020224D01*
X013574Y020224D02*
X013574Y019724D01*
X014574Y019724D01*
X014574Y017724D01*
X015074Y017724D01*
X015074Y019724D01*
X016074Y019724D01*
X016074Y020224D01*
X013574Y020224D01*
X013574Y019974D02*
X016074Y019974D01*
X015824Y019724D02*
X015824Y020224D01*
X015324Y020224D02*
X015324Y019724D01*
X015074Y019474D02*
X014574Y019474D01*
X014324Y019724D02*
X014324Y020224D01*
X014824Y020224D02*
X014824Y017724D01*
X014574Y017974D02*
X015074Y017974D01*
X015074Y018474D02*
X014574Y018474D01*
X014574Y018974D02*
X015074Y018974D01*
X013824Y019724D02*
X013824Y020224D01*
X014824Y022424D02*
X014824Y022674D01*
X015024Y022874D01*
X015324Y022874D01*
X017574Y020224D02*
X020074Y020224D01*
X020074Y019724D01*
X019074Y019724D01*
X019074Y018224D01*
X020074Y018224D01*
X020074Y017724D01*
X017574Y017724D01*
X017574Y020224D01*
X017574Y019974D02*
X020074Y019974D01*
X019824Y019724D02*
X019824Y020224D01*
X019324Y020224D02*
X019324Y019724D01*
X019074Y019474D02*
X017574Y019474D01*
X017574Y018974D02*
X019074Y018974D01*
X019074Y018474D02*
X017574Y018474D01*
X017574Y017974D02*
X020074Y017974D01*
X019824Y017724D02*
X019824Y018224D01*
X019324Y018224D02*
X019324Y017724D01*
X018824Y017724D02*
X018824Y020224D01*
X018324Y020224D02*
X018324Y017724D01*
X017824Y017724D02*
X017824Y020224D01*
X021124Y017674D02*
X021124Y017581D01*
X021147Y017581D01*
X010074Y017974D02*
X009574Y017974D01*
D42*
X034324Y019224D03*
D43*
X033699Y018599D03*
X034124Y017849D03*
X034549Y017849D03*
X034999Y018149D03*
X035224Y018574D03*
X036299Y018249D03*
X034574Y017274D03*
X033324Y016674D03*
X032724Y017074D03*
X032724Y016174D03*
X032674Y015624D03*
X032674Y015224D03*
X033974Y015724D03*
X034424Y014174D03*
X035324Y012724D03*
X033974Y012474D03*
X032174Y012924D03*
X031174Y012674D03*
X030774Y013374D03*
X030774Y013774D03*
X030074Y014724D03*
X029674Y014724D03*
X029624Y014124D03*
X028674Y014424D03*
X027749Y015099D03*
X027599Y015424D03*
X028199Y015449D03*
X028774Y015424D03*
X028824Y015824D03*
X029249Y015824D03*
X029949Y016474D03*
X029949Y016924D03*
X030824Y015724D03*
X032099Y013874D03*
X031174Y011324D03*
X030774Y011324D03*
X028524Y011324D03*
X028524Y010924D03*
X026624Y010674D03*
X026124Y010944D03*
X025024Y010324D03*
X025374Y009924D03*
X025224Y009324D03*
X023624Y009674D03*
X022924Y009074D03*
X022324Y009724D03*
X022724Y011124D03*
X023524Y011124D03*
X023974Y011124D03*
X024674Y012774D03*
X026074Y013724D03*
X026874Y013724D03*
X027299Y013774D03*
X028224Y012924D03*
X028224Y012524D03*
X025424Y014574D03*
X026274Y014874D03*
X024474Y013824D03*
X023374Y014874D03*
X020974Y014374D03*
X020624Y014074D03*
X020874Y013724D03*
X022124Y013324D03*
X022874Y012824D03*
X019824Y012724D03*
X019824Y013374D03*
X015824Y012974D03*
X015124Y012724D03*
X015124Y012224D03*
X013824Y012224D03*
X012824Y012724D03*
X011724Y012874D03*
X011174Y012874D03*
X010324Y012974D03*
X009824Y012974D03*
X011474Y013724D03*
X009824Y014074D03*
X009974Y015574D03*
X007824Y014074D03*
X009824Y011724D03*
X010324Y011724D03*
X010824Y011724D03*
X011274Y011724D03*
X011724Y011724D03*
X009824Y010874D03*
X011724Y010474D03*
X015324Y015624D03*
X021524Y017324D03*
X032524Y021574D03*
X033824Y022404D03*
X033024Y023114D03*
X034374Y021624D03*
X035174Y021874D03*
X035574Y021874D03*
X036224Y021874D03*
X033661Y020334D03*
X035824Y019274D03*
X036324Y019274D03*
X036674Y019274D03*
X026874Y009624D03*
X026724Y008024D03*
X027324Y007974D03*
X027724Y007974D03*
X026049Y007799D03*
X024824Y006824D03*
X024824Y006374D03*
X023724Y005774D03*
X026774Y006274D03*
X027674Y005774D03*
X027324Y002974D03*
X022924Y001774D03*
X023124Y007974D03*
D44*
X027024Y010090D02*
X027039Y010074D01*
X027474Y010074D01*
X027809Y010074D01*
X027824Y010090D01*
X027474Y010074D02*
X027474Y011174D01*
X027674Y011374D01*
X027674Y011440D01*
X028324Y011541D02*
X028324Y013474D01*
X028005Y013793D01*
X028155Y013793D01*
X028155Y014171D01*
X027797Y014171D01*
X027797Y014001D01*
X027574Y014224D01*
X027574Y015528D01*
X027846Y015528D01*
X027846Y015946D01*
X028001Y015946D01*
X028001Y015528D01*
X028289Y015528D01*
X028289Y015259D01*
X028239Y015206D01*
X027923Y015206D01*
X027847Y015129D01*
X027847Y014589D01*
X027878Y014557D01*
X027867Y014550D01*
X027833Y014517D01*
X027809Y014476D01*
X027797Y014430D01*
X027797Y014208D01*
X028155Y014208D01*
X028155Y014171D01*
X028192Y014171D01*
X028192Y013793D01*
X028394Y013793D01*
X028440Y013805D01*
X028481Y013829D01*
X028515Y013863D01*
X028528Y013885D01*
X028528Y013552D01*
X028945Y013552D01*
X028945Y013397D01*
X028528Y013397D01*
X028528Y012919D01*
X028540Y012874D01*
X028528Y012830D01*
X028528Y012352D01*
X028945Y012352D01*
X028945Y012197D01*
X028528Y012197D01*
X028528Y011719D01*
X028540Y011673D01*
X028564Y011632D01*
X028582Y011614D01*
X028560Y011614D01*
X028540Y011620D01*
X028503Y011614D01*
X028466Y011614D01*
X028447Y011606D01*
X028426Y011603D01*
X028394Y011584D01*
X028360Y011570D01*
X028345Y011555D01*
X028327Y011545D01*
X028324Y011541D01*
X028324Y011618D02*
X028531Y011618D01*
X028545Y011618D02*
X028578Y011618D01*
X028528Y011777D02*
X028324Y011777D01*
X028324Y011935D02*
X028528Y011935D01*
X028528Y012094D02*
X028324Y012094D01*
X028324Y012252D02*
X028945Y012252D01*
X028945Y012352D02*
X028945Y013397D01*
X029100Y013397D01*
X029100Y012986D01*
X029100Y012352D01*
X028945Y012352D01*
X028945Y012411D02*
X029100Y012411D01*
X029100Y012569D02*
X028945Y012569D01*
X028945Y012728D02*
X029100Y012728D01*
X029100Y012886D02*
X028945Y012886D01*
X028945Y013045D02*
X029100Y013045D01*
X029100Y013203D02*
X028945Y013203D01*
X028945Y013362D02*
X029100Y013362D01*
X028945Y013520D02*
X028278Y013520D01*
X028324Y013362D02*
X028528Y013362D01*
X028528Y013203D02*
X028324Y013203D01*
X028324Y013045D02*
X028528Y013045D01*
X028537Y012886D02*
X028324Y012886D01*
X028324Y012728D02*
X028528Y012728D01*
X028528Y012569D02*
X028324Y012569D01*
X028324Y012411D02*
X028528Y012411D01*
X028528Y013679D02*
X028119Y013679D01*
X028155Y013837D02*
X028192Y013837D01*
X028192Y013996D02*
X028155Y013996D01*
X028155Y014154D02*
X028192Y014154D01*
X028192Y014171D02*
X028192Y014208D01*
X028551Y014208D01*
X028551Y014430D01*
X028538Y014476D01*
X028515Y014517D01*
X028481Y014550D01*
X028469Y014557D01*
X028501Y014589D01*
X028501Y014930D01*
X028533Y014964D01*
X028897Y014579D01*
X028897Y014186D01*
X028684Y014186D01*
X028638Y014174D01*
X028597Y014150D01*
X028564Y014116D01*
X028551Y014094D01*
X028551Y014171D01*
X028192Y014171D01*
X028551Y014154D02*
X028605Y014154D01*
X028551Y014313D02*
X028897Y014313D01*
X028897Y014471D02*
X028540Y014471D01*
X028501Y014630D02*
X028849Y014630D01*
X028700Y014788D02*
X028501Y014788D01*
X028517Y014947D02*
X028550Y014947D01*
X028289Y015264D02*
X027574Y015264D01*
X027574Y015422D02*
X028289Y015422D01*
X028001Y015581D02*
X027846Y015581D01*
X027846Y015739D02*
X028001Y015739D01*
X028001Y015898D02*
X027846Y015898D01*
X027847Y015105D02*
X027574Y015105D01*
X027574Y014947D02*
X027847Y014947D01*
X027847Y014788D02*
X027574Y014788D01*
X027574Y014630D02*
X027847Y014630D01*
X027808Y014471D02*
X027574Y014471D01*
X027574Y014313D02*
X027797Y014313D01*
X027797Y014154D02*
X027644Y014154D01*
X028490Y013837D02*
X028528Y013837D01*
X031734Y016104D02*
X031734Y016359D01*
X031734Y016104D01*
X031734Y016104D01*
X031734Y016215D02*
X031734Y016215D01*
X031734Y016359D02*
X031424Y016359D01*
X031424Y018874D01*
X031324Y018974D01*
X031324Y020974D01*
X031372Y020974D01*
X031372Y020885D01*
X032023Y020885D01*
X032023Y020725D01*
X032183Y020725D01*
X032183Y020143D01*
X032183Y019724D01*
X032023Y019724D01*
X032023Y020725D01*
X031372Y020725D01*
X031372Y020299D01*
X031384Y020253D01*
X031401Y020224D01*
X031384Y020195D01*
X031372Y020150D01*
X031372Y019724D01*
X032023Y019724D01*
X032023Y019564D01*
X031372Y019564D01*
X031372Y019138D01*
X031384Y019092D01*
X031408Y019051D01*
X031441Y019017D01*
X031482Y018994D01*
X031528Y018981D01*
X032023Y018981D01*
X032023Y019564D01*
X032183Y019564D01*
X032183Y018981D01*
X032324Y018981D01*
X032324Y016974D01*
X031824Y016474D01*
X031824Y016359D01*
X031734Y016359D01*
X031824Y016373D02*
X031424Y016373D01*
X031424Y016532D02*
X031881Y016532D01*
X032040Y016690D02*
X031424Y016690D01*
X031424Y016849D02*
X032198Y016849D01*
X032324Y017007D02*
X031424Y017007D01*
X031424Y017166D02*
X032324Y017166D01*
X032324Y017324D02*
X031424Y017324D01*
X031424Y017483D02*
X032324Y017483D01*
X032324Y017641D02*
X031424Y017641D01*
X031424Y017800D02*
X032324Y017800D01*
X032324Y017958D02*
X031424Y017958D01*
X031424Y018117D02*
X032324Y018117D01*
X032324Y018275D02*
X031424Y018275D01*
X031424Y018434D02*
X032324Y018434D01*
X032324Y018592D02*
X031424Y018592D01*
X031424Y018751D02*
X032324Y018751D01*
X032324Y018909D02*
X031389Y018909D01*
X031398Y019068D02*
X031324Y019068D01*
X031324Y019226D02*
X031372Y019226D01*
X031372Y019385D02*
X031324Y019385D01*
X031324Y019543D02*
X031372Y019543D01*
X031324Y019702D02*
X032023Y019702D01*
X032023Y019860D02*
X032183Y019860D01*
X032183Y020019D02*
X032023Y020019D01*
X032023Y020177D02*
X032183Y020177D01*
X032183Y020336D02*
X032023Y020336D01*
X032023Y020494D02*
X032183Y020494D01*
X032183Y020653D02*
X032023Y020653D01*
X032023Y020811D02*
X031324Y020811D01*
X031324Y020653D02*
X031372Y020653D01*
X031372Y020494D02*
X031324Y020494D01*
X031324Y020336D02*
X031372Y020336D01*
X031379Y020177D02*
X031324Y020177D01*
X031324Y020019D02*
X031372Y020019D01*
X031372Y019860D02*
X031324Y019860D01*
X032023Y019543D02*
X032183Y019543D01*
X032183Y019385D02*
X032023Y019385D01*
X032023Y019226D02*
X032183Y019226D01*
X032183Y019068D02*
X032023Y019068D01*
X029757Y017641D02*
X027824Y017641D01*
X027824Y017621D02*
X027824Y018981D01*
X028165Y018981D01*
X028165Y019564D01*
X028325Y019564D01*
X028325Y019674D01*
X028924Y019674D01*
X029324Y019274D01*
X029324Y018074D01*
X030266Y017133D01*
X030258Y017128D01*
X030225Y017095D01*
X030201Y017054D01*
X030189Y017008D01*
X030189Y016634D01*
X030189Y016374D01*
X029730Y016374D01*
X029730Y016531D01*
X029352Y016531D01*
X029352Y016568D01*
X029315Y016568D01*
X029315Y016926D01*
X029093Y016926D01*
X029048Y016914D01*
X029006Y016890D01*
X028973Y016857D01*
X028966Y016845D01*
X028935Y016876D01*
X028458Y016876D01*
X028458Y017048D01*
X028001Y017048D01*
X028001Y017203D01*
X027846Y017203D01*
X027846Y017621D01*
X027824Y017621D01*
X027846Y017483D02*
X028001Y017483D01*
X028001Y017621D02*
X028001Y017203D01*
X028458Y017203D01*
X028458Y017464D01*
X028446Y017510D01*
X028422Y017551D01*
X028389Y017585D01*
X028348Y017608D01*
X028302Y017621D01*
X028001Y017621D01*
X027824Y017800D02*
X029598Y017800D01*
X029440Y017958D02*
X027824Y017958D01*
X027824Y018117D02*
X029324Y018117D01*
X029324Y018275D02*
X027824Y018275D01*
X027824Y018434D02*
X029324Y018434D01*
X029324Y018592D02*
X027824Y018592D01*
X027824Y018751D02*
X029324Y018751D01*
X029324Y018909D02*
X027824Y018909D01*
X028165Y019068D02*
X028325Y019068D01*
X028325Y018981D02*
X028820Y018981D01*
X028865Y018994D01*
X028906Y019017D01*
X028940Y019051D01*
X028964Y019092D01*
X028976Y019138D01*
X028976Y019564D01*
X028325Y019564D01*
X028325Y018981D01*
X028325Y019226D02*
X028165Y019226D01*
X028165Y019385D02*
X028325Y019385D01*
X028325Y019543D02*
X028165Y019543D01*
X028976Y019543D02*
X029055Y019543D01*
X028976Y019385D02*
X029213Y019385D01*
X029324Y019226D02*
X028976Y019226D01*
X028950Y019068D02*
X029324Y019068D01*
X029915Y017483D02*
X028453Y017483D01*
X028458Y017324D02*
X030074Y017324D01*
X030232Y017166D02*
X028001Y017166D01*
X028001Y017324D02*
X027846Y017324D01*
X028458Y017007D02*
X030189Y017007D01*
X030189Y016849D02*
X029699Y016849D01*
X029694Y016857D02*
X029661Y016890D01*
X029620Y016914D01*
X029574Y016926D01*
X029352Y016926D01*
X029352Y016568D01*
X029730Y016568D01*
X029730Y016770D01*
X029718Y016816D01*
X029694Y016857D01*
X029730Y016690D02*
X030189Y016690D01*
X030189Y016634D02*
X030444Y016634D01*
X030444Y016374D01*
X030444Y016374D01*
X030444Y016634D01*
X030444Y016634D01*
X030189Y016634D01*
X030189Y016532D02*
X029352Y016532D01*
X029352Y016690D02*
X029315Y016690D01*
X029315Y016849D02*
X029352Y016849D01*
X028968Y016849D02*
X028962Y016849D01*
X030444Y016634D02*
X030444Y016634D01*
X030444Y016504D01*
X030444Y016532D02*
X030444Y016532D01*
X033323Y015724D02*
X033974Y015724D01*
X034774Y015724D02*
X033774Y014724D01*
X033323Y014724D01*
X034374Y014124D02*
X034424Y014174D01*
X034374Y014124D02*
X034374Y013709D01*
X034324Y013659D01*
X033524Y013659D01*
X033909Y013659D01*
X034324Y012990D02*
X034324Y011924D01*
X035504Y011924D01*
X035534Y011894D01*
X035574Y011854D01*
X034324Y011924D02*
X033574Y011924D01*
X033574Y011874D01*
X033559Y011859D01*
X033559Y011824D01*
X033524Y011790D01*
X033524Y011824D01*
X032759Y011824D01*
X032724Y011790D01*
X035524Y013634D02*
X035784Y013634D01*
X035924Y013774D01*
X035924Y016024D01*
X036374Y016474D01*
X036374Y016740D01*
X036449Y016774D01*
X036449Y017174D01*
X036452Y017131D01*
X039224Y017131D01*
X036449Y017174D02*
X036449Y017574D01*
X036409Y017487D01*
X035325Y016224D02*
X035325Y015724D01*
X034774Y015724D01*
X034824Y020774D02*
X034724Y020824D01*
X034774Y020840D01*
X034764Y021514D02*
X037994Y021514D01*
X031372Y020970D02*
X031324Y020970D01*
X012495Y010504D02*
X012495Y009899D01*
X012495Y010504D02*
X012424Y010574D01*
D45*
X024824Y015574D02*
X024824Y016374D01*
X032674Y015224D02*
X032724Y015224D01*
X028864Y011324D02*
X028524Y011324D01*
X028374Y011124D01*
X028374Y011074D01*
X028224Y011074D01*
X027909Y010759D01*
X027824Y010759D01*
X028524Y010924D02*
X029124Y010924D01*
X029064Y011124D02*
X028674Y011124D01*
X028524Y011324D02*
X028524Y010924D01*
X028864Y011324D02*
X029064Y011124D01*
D46*
X027709Y011440D02*
X027674Y011440D01*
X027274Y011490D02*
X027274Y011974D01*
X027374Y012074D01*
X027639Y012074D01*
X027674Y012109D01*
X027674Y012640D01*
X027274Y011490D02*
X027224Y011440D01*
X026874Y011440D01*
X025024Y010324D02*
X024259Y010324D01*
X023624Y010290D02*
X023589Y010324D01*
X023624Y010290D02*
X023624Y009674D01*
X024224Y009674D01*
X024324Y009574D01*
X024324Y009109D01*
X023524Y009109D02*
X022274Y010359D01*
X022274Y012124D01*
X022424Y012274D01*
X022689Y012274D01*
X022724Y012309D01*
X023524Y012309D01*
X024324Y012309D01*
X023374Y013324D02*
X022874Y012824D01*
X023074Y013424D02*
X023074Y015474D01*
X023824Y016224D01*
X023824Y016474D01*
X022824Y016374D02*
X022824Y013524D01*
X021024Y011724D01*
X018574Y011724D01*
X017424Y010574D01*
X017416Y010567D01*
X017416Y009899D01*
X016432Y009899D02*
X016432Y010567D01*
X016424Y010574D01*
X017824Y011974D01*
X020824Y011974D01*
X021824Y012974D01*
X021824Y016474D01*
X021324Y015824D02*
X021324Y012974D01*
X020574Y012224D01*
X017074Y012224D01*
X015424Y010574D01*
X015448Y010551D01*
X015448Y009899D01*
X014463Y009899D02*
X014463Y010535D01*
X014424Y010574D01*
X013479Y010519D02*
X013424Y010574D01*
X013424Y010874D01*
X013074Y011224D01*
X010924Y011224D01*
X010824Y011124D01*
X010824Y010474D01*
X011144Y010474D02*
X011144Y010044D01*
X010824Y009724D01*
X009824Y009724D01*
X009074Y008974D01*
X009074Y004724D01*
X008644Y004294D01*
X008644Y002224D01*
X008324Y002224D02*
X008324Y002624D01*
X008224Y002724D01*
X007824Y002724D01*
X007324Y003224D01*
X007324Y005024D01*
X007568Y005268D01*
X007824Y005268D01*
X008574Y004824D02*
X008574Y009624D01*
X009824Y010874D01*
X010324Y011224D02*
X007074Y011224D01*
X007074Y022224D01*
X007274Y022424D01*
X007824Y022424D01*
X008274Y021874D02*
X007824Y021424D01*
X007324Y020924D01*
X007324Y015774D01*
X007624Y015474D01*
X009074Y015474D01*
X010824Y013724D01*
X011474Y013724D01*
X020874Y013724D01*
X020624Y014074D02*
X010974Y014074D01*
X009624Y015424D01*
X009624Y016274D01*
X009824Y016474D01*
X009974Y015574D02*
X011174Y014374D01*
X020974Y014374D01*
X019824Y015224D02*
X020324Y015724D01*
X020324Y016024D01*
X019824Y015224D02*
X015074Y015224D01*
X014824Y015474D01*
X014824Y016374D01*
X009824Y014074D02*
X007824Y014074D01*
X008574Y012974D02*
X008974Y013374D01*
X019824Y013374D01*
X021424Y011774D02*
X023074Y013424D01*
X023374Y013374D02*
X023374Y013324D01*
X023374Y013374D02*
X023789Y013374D01*
X023374Y013374D02*
X023374Y014874D01*
X021124Y017674D02*
X021124Y021124D01*
X021074Y021124D01*
X015824Y021424D02*
X015374Y021874D01*
X014624Y021874D01*
X014324Y022174D01*
X014324Y022674D01*
X014124Y022874D01*
X010574Y022874D01*
X010324Y022624D01*
X010324Y022274D01*
X009924Y021874D01*
X008274Y021874D01*
X008574Y012974D02*
X008574Y012381D01*
X007974Y011781D01*
X007074Y011224D02*
X007074Y002724D01*
X007574Y002224D01*
X008004Y002224D01*
X007824Y004481D02*
X008230Y004481D01*
X008574Y004824D01*
X013479Y009899D02*
X013479Y010519D01*
X014774Y011424D02*
X015824Y012474D01*
X015824Y012974D01*
X015124Y012724D02*
X012824Y012724D01*
X011724Y012874D02*
X011724Y011724D01*
X011574Y011424D02*
X014774Y011424D01*
X015124Y012224D02*
X013824Y012224D01*
X011574Y011424D02*
X011274Y011724D01*
X010824Y011724D02*
X010824Y012524D01*
X011174Y012874D01*
X009824Y012974D02*
X009824Y011724D01*
X010324Y011224D02*
X010504Y011044D01*
X010504Y010474D01*
X011144Y010474D02*
X011724Y010474D01*
X018400Y010551D02*
X018400Y009899D01*
X019385Y009899D02*
X019385Y010535D01*
X019424Y010574D01*
X020369Y010519D02*
X020424Y010574D01*
X020369Y010519D02*
X020369Y009899D01*
X021353Y009899D02*
X021353Y010504D01*
X021424Y010574D01*
X021424Y011774D01*
X021424Y010574D02*
X021474Y010574D01*
X021924Y010124D01*
X021924Y007274D01*
X022124Y007074D01*
X022974Y007074D01*
X024074Y005974D01*
X026574Y005974D01*
X027824Y004724D01*
X027824Y003474D01*
X027324Y002974D01*
X024624Y006174D02*
X024174Y006174D01*
X023524Y006824D01*
X023524Y008440D01*
X024324Y008440D02*
X024324Y008574D01*
X024989Y008574D01*
X025124Y008709D01*
X025124Y008724D01*
X024324Y008440D02*
X024324Y007359D01*
X025139Y006690D02*
X024824Y006374D01*
X024624Y006174D01*
X025139Y006690D02*
X025424Y006690D01*
X027024Y007359D02*
X027059Y007474D01*
X027324Y007474D01*
X027324Y007974D01*
X027324Y007474D02*
X027789Y007474D01*
X027824Y007359D01*
X027024Y009109D02*
X027024Y009474D01*
X026874Y009624D01*
X030600Y011724D02*
X030600Y012214D01*
X030185Y012214D01*
X030185Y012334D01*
X030600Y012334D01*
X030600Y012827D01*
X030589Y012868D01*
X030585Y012874D01*
X030589Y012881D01*
X030600Y012922D01*
X030600Y013414D01*
X030185Y013414D01*
X030185Y012966D01*
X030185Y012334D01*
X030065Y012334D01*
X030065Y013414D01*
X030185Y013414D01*
X030185Y013534D01*
X030600Y013534D01*
X030600Y014027D01*
X030589Y014068D01*
X030568Y014104D01*
X030538Y014134D01*
X030502Y014155D01*
X030461Y014166D01*
X030185Y014166D01*
X030185Y013534D01*
X030065Y013534D01*
X030065Y014166D01*
X030015Y014166D01*
X030224Y014374D01*
X030303Y014374D01*
X030323Y014354D01*
X030330Y014354D01*
X030334Y014347D01*
X030334Y014325D01*
X030355Y014304D01*
X030368Y014277D01*
X030389Y014270D01*
X030404Y014254D01*
X030434Y014254D01*
X030462Y014245D01*
X030482Y014254D01*
X031185Y014254D01*
X031186Y014254D01*
X031235Y014254D01*
X031284Y014254D01*
X031284Y014255D01*
X031285Y014255D01*
X031319Y014290D01*
X031350Y014321D01*
X031377Y014336D01*
X031407Y014366D01*
X031412Y014374D01*
X031724Y014374D01*
X031724Y014286D01*
X031381Y014286D01*
X031317Y014221D01*
X031317Y013697D01*
X031324Y013690D01*
X031324Y013629D01*
X031299Y013605D01*
X031278Y013568D01*
X031267Y013527D01*
X031267Y013328D01*
X031585Y013328D01*
X031585Y013251D01*
X031267Y013251D01*
X031267Y013052D01*
X031278Y013011D01*
X031299Y012975D01*
X031329Y012945D01*
X031365Y012924D01*
X031406Y012913D01*
X031585Y012913D01*
X031585Y013251D01*
X031662Y013251D01*
X031662Y012913D01*
X031724Y012913D01*
X031724Y012836D01*
X031662Y012836D01*
X031662Y012497D01*
X031585Y012497D01*
X031585Y012836D01*
X031406Y012836D01*
X031397Y012833D01*
X031327Y012903D01*
X031228Y012944D01*
X031120Y012944D01*
X031021Y012903D01*
X030945Y012827D01*
X030904Y012728D01*
X030904Y012621D01*
X030945Y012521D01*
X031004Y012463D01*
X031004Y011724D01*
X030600Y011724D01*
X030600Y011784D02*
X031004Y011784D01*
X031004Y011902D02*
X030600Y011902D01*
X030600Y012021D02*
X031004Y012021D01*
X031004Y012139D02*
X030600Y012139D01*
X030600Y012376D02*
X031004Y012376D01*
X031004Y012258D02*
X030185Y012258D01*
X030185Y012376D02*
X030065Y012376D01*
X030065Y012495D02*
X030185Y012495D01*
X030185Y012613D02*
X030065Y012613D01*
X030065Y012732D02*
X030185Y012732D01*
X030185Y012850D02*
X030065Y012850D01*
X030065Y012969D02*
X030185Y012969D01*
X030185Y013087D02*
X030065Y013087D01*
X030065Y013206D02*
X030185Y013206D01*
X030185Y013324D02*
X030065Y013324D01*
X030125Y013474D02*
X030124Y013476D01*
X030124Y014124D01*
X029809Y014440D01*
X029224Y014440D01*
X029309Y015024D02*
X029224Y015109D01*
X029309Y015024D02*
X029774Y015024D01*
X029914Y015164D01*
X029914Y015344D01*
X029914Y015594D02*
X029519Y015594D01*
X029424Y015499D01*
X028849Y015499D01*
X028774Y015424D01*
X028479Y015184D02*
X028174Y014859D01*
X028479Y015184D02*
X028479Y015934D01*
X028649Y016104D01*
X028664Y016120D01*
X028664Y016549D01*
X028649Y016104D02*
X029914Y016104D01*
X030694Y016634D02*
X030694Y017904D01*
X030674Y017924D01*
X030824Y017924D01*
X030954Y017794D01*
X030954Y017724D01*
X031004Y017774D01*
X031174Y017774D01*
X031204Y017744D01*
X031204Y016634D01*
X030954Y016634D02*
X030954Y017724D01*
X032924Y019174D02*
X032974Y019124D01*
X033554Y019124D01*
X033554Y019324D02*
X033074Y019324D01*
X032924Y019174D01*
X034624Y019994D02*
X034824Y019994D01*
X034824Y020774D01*
X035649Y019924D02*
X035699Y019974D01*
X035824Y019974D01*
X035774Y020024D01*
X035779Y020024D01*
X035649Y019924D02*
X035649Y019699D01*
X035474Y019524D01*
X035094Y019524D01*
X035094Y019324D02*
X035774Y019324D01*
X035824Y019274D01*
X035674Y019124D01*
X035094Y019124D01*
X035674Y017574D02*
X035574Y017474D01*
X035139Y017474D01*
X035139Y017390D01*
X035024Y017274D01*
X034574Y017274D01*
X034209Y017274D01*
X034074Y017409D01*
X034134Y017349D01*
X034074Y017409D02*
X034074Y017549D01*
X034074Y016740D02*
X035074Y016740D01*
X035705Y016740D01*
X035779Y016774D01*
X035724Y016759D01*
X035724Y016324D01*
X035624Y016224D01*
X035325Y016224D01*
X035724Y016774D02*
X035779Y016774D01*
X035139Y017474D02*
X035074Y017409D01*
X035014Y017349D01*
X035674Y017574D02*
X035779Y017574D01*
X032224Y016074D02*
X032224Y015874D01*
X032204Y015854D01*
X031734Y015854D01*
X031904Y015854D01*
X031904Y016104D02*
X031734Y016104D01*
X031754Y016124D01*
X032174Y016124D01*
X032224Y016074D01*
X031734Y015344D02*
X031734Y014334D01*
X031724Y014324D01*
X031368Y014272D02*
X031302Y014272D01*
X031204Y014254D02*
X031174Y014224D01*
X030924Y014224D01*
X030954Y014254D01*
X030954Y014814D01*
X031204Y014814D02*
X031204Y014254D01*
X031317Y014154D02*
X030504Y014154D01*
X030598Y014035D02*
X031317Y014035D01*
X031317Y013917D02*
X030600Y013917D01*
X030600Y013798D02*
X031317Y013798D01*
X031324Y013680D02*
X030600Y013680D01*
X030600Y013561D02*
X031276Y013561D01*
X031267Y013443D02*
X030185Y013443D01*
X030185Y013561D02*
X030065Y013561D01*
X030065Y013680D02*
X030185Y013680D01*
X030185Y013798D02*
X030065Y013798D01*
X030065Y013917D02*
X030185Y013917D01*
X030185Y014035D02*
X030065Y014035D01*
X030065Y014154D02*
X030185Y014154D01*
X030122Y014272D02*
X030381Y014272D01*
X030600Y013324D02*
X031585Y013324D01*
X031585Y013206D02*
X031662Y013206D01*
X031662Y013087D02*
X031585Y013087D01*
X031585Y012969D02*
X031662Y012969D01*
X031724Y012850D02*
X031380Y012850D01*
X031305Y012969D02*
X030600Y012969D01*
X030600Y013087D02*
X031267Y013087D01*
X031267Y013206D02*
X030600Y013206D01*
X030594Y012850D02*
X030968Y012850D01*
X030905Y012732D02*
X030600Y012732D01*
X030600Y012613D02*
X030907Y012613D01*
X030972Y012495D02*
X030600Y012495D01*
X031174Y012674D02*
X031174Y011324D01*
X031585Y012613D02*
X031662Y012613D01*
X031662Y012732D02*
X031585Y012732D01*
X032724Y012624D02*
X032724Y012459D01*
X032724Y012974D01*
X032724Y013874D01*
X033074Y014224D01*
X033424Y014224D01*
X033524Y012990D02*
X033509Y012974D01*
X032724Y012974D01*
X033524Y012459D02*
X033559Y012459D01*
X033574Y012474D01*
X033974Y012474D01*
X035324Y012724D02*
X036124Y012724D01*
X036224Y012624D01*
X036224Y011324D01*
X036124Y011224D01*
X034324Y011224D01*
X018424Y010574D02*
X018400Y010551D01*
X035574Y021874D02*
X035574Y022179D01*
X035524Y022229D01*
D47*
X035824Y019274D02*
X035739Y019190D01*
X035784Y019214D02*
X035779Y018724D01*
X028324Y019465D02*
X028245Y019644D01*
X028245Y020805D01*
X023404Y017674D02*
X023346Y017682D01*
X023288Y017694D01*
X023231Y017710D01*
X023176Y017728D01*
X023121Y017751D01*
X023068Y017777D01*
X023017Y017806D01*
X022968Y017838D01*
X022921Y017873D01*
X022876Y017911D01*
X022834Y017952D01*
X022794Y017995D01*
X022757Y018041D01*
X022723Y018089D01*
X022692Y018139D01*
X022665Y018191D01*
X022640Y018244D01*
X022619Y018299D01*
X022602Y018355D01*
X022588Y018413D01*
X022578Y018470D01*
X022571Y018529D01*
X022568Y018588D01*
X022569Y018646D01*
X022573Y018705D01*
X022574Y018705D02*
X022574Y022659D01*
X022572Y022706D01*
X022566Y022752D01*
X022557Y022798D01*
X022543Y022842D01*
X022526Y022886D01*
X022506Y022928D01*
X022482Y022968D01*
X022455Y023006D01*
X022425Y023042D01*
X022392Y023075D01*
X022356Y023105D01*
X022318Y023132D01*
X022278Y023156D01*
X022236Y023176D01*
X022192Y023193D01*
X022148Y023207D01*
X022102Y023216D01*
X022056Y023222D01*
X022009Y023224D01*
X010130Y023224D01*
X009145Y022746D02*
X008824Y022424D01*
X007824Y022424D01*
X009145Y022746D02*
X009196Y022801D01*
X009250Y022853D01*
X009307Y022902D01*
X009366Y022948D01*
X009427Y022991D01*
X009491Y023030D01*
X009556Y023066D01*
X009624Y023099D01*
X009693Y023128D01*
X009763Y023154D01*
X009835Y023176D01*
X009907Y023194D01*
X009981Y023208D01*
X010055Y023218D01*
X010130Y023224D01*
X023404Y017674D02*
X026824Y017674D01*
X026824Y016374D01*
D48*
X022324Y017174D02*
X022324Y013524D01*
X022124Y013324D01*
X019824Y012724D02*
X016574Y012724D01*
X014424Y010574D01*
X015324Y015624D02*
X016774Y015624D01*
X016824Y015674D01*
X016824Y016374D01*
X015374Y015624D02*
X015324Y015624D01*
X015324Y015674D02*
X015374Y015624D01*
X015324Y015674D02*
X015324Y017024D01*
X015124Y017224D01*
X015124Y017424D01*
X014324Y017424D01*
X014324Y019424D01*
X013324Y019424D01*
X013324Y020424D01*
X014024Y020424D01*
X013324Y021124D01*
X013324Y021624D01*
X013024Y021924D01*
X012624Y021924D01*
X012124Y022424D01*
X011824Y022424D01*
X011324Y022074D02*
X010974Y022424D01*
X010824Y022424D01*
X011324Y022074D02*
X011324Y021124D01*
X010524Y020324D01*
X010524Y020224D01*
X011324Y019424D01*
X011324Y020424D01*
X012324Y020424D01*
X012324Y017424D01*
X011524Y017424D01*
X011524Y017224D01*
X011324Y017024D01*
X011324Y017424D02*
X010774Y017424D01*
X009824Y016474D01*
X009574Y017174D02*
X009074Y017174D01*
X009074Y020674D01*
X009644Y020674D01*
X009824Y020855D01*
X009824Y021424D01*
X010824Y021424D02*
X010824Y020924D01*
X010324Y020424D01*
X009324Y020424D01*
X009324Y017424D01*
X010324Y017424D01*
X010324Y018424D01*
X011324Y017424D01*
X012074Y017174D02*
X012074Y017124D01*
X012824Y016374D01*
X012574Y017174D02*
X012074Y017174D01*
X012574Y017174D02*
X012574Y018724D01*
X012774Y018924D01*
X013924Y018924D02*
X014074Y018774D01*
X014074Y018424D01*
X014074Y017174D01*
X014324Y017174D01*
X014324Y016974D01*
X013824Y016474D01*
X015324Y017424D02*
X015524Y017424D01*
X015624Y017324D01*
X015324Y017424D02*
X015324Y019424D01*
X016324Y019424D01*
X016324Y020424D01*
X014324Y020424D01*
X013824Y020924D01*
X013824Y021424D01*
X014324Y021604D02*
X014324Y021224D01*
X014724Y020774D01*
X017224Y020774D01*
X017224Y020524D01*
X017324Y020424D01*
X017324Y017424D01*
X018324Y017424D01*
X018324Y016874D01*
X018824Y016374D01*
X019174Y017124D02*
X019824Y016474D01*
X020324Y016024D02*
X020324Y017174D01*
X020574Y017174D01*
X020574Y018674D01*
X019574Y018674D01*
X019574Y019174D01*
X020574Y019174D01*
X020574Y020674D01*
X019574Y020674D01*
X018824Y021424D01*
X019324Y021174D02*
X019574Y020924D01*
X020824Y020924D01*
X020824Y017424D01*
X021324Y016924D01*
X021324Y015824D01*
X022324Y017174D02*
X022174Y017324D01*
X021524Y017324D01*
X020324Y017424D02*
X018524Y017424D01*
X018524Y017236D01*
X018636Y017124D01*
X019174Y017124D01*
X020324Y017424D02*
X020324Y018424D01*
X019324Y018424D01*
X019324Y019424D01*
X020324Y019424D01*
X020324Y020424D01*
X017624Y020424D01*
X017424Y020624D01*
X017424Y020874D01*
X017324Y020974D01*
X015124Y020974D01*
X014824Y021274D01*
X014824Y021424D01*
X014324Y021604D02*
X014004Y021924D01*
X013624Y021924D01*
X013124Y022424D01*
X012824Y022424D01*
X012574Y021424D02*
X011824Y020674D01*
X012574Y020674D01*
X012574Y020174D01*
X012674Y020174D01*
X012924Y020424D01*
X015574Y019174D02*
X015574Y017924D01*
X015674Y017824D01*
X016574Y017674D02*
X016824Y017424D01*
X017074Y017424D01*
X017074Y020174D01*
X016824Y020424D01*
X016724Y019924D02*
X016574Y019924D01*
X016574Y019174D01*
X015574Y019174D01*
X019324Y021174D02*
X019324Y021924D01*
X018824Y022424D01*
X020024Y022874D02*
X020324Y022524D01*
X020324Y021305D01*
X020504Y021124D01*
X021074Y021124D01*
X020024Y022874D02*
X015324Y022874D01*
X009574Y017174D02*
X008899Y016499D01*
X008824Y016424D01*
D49*
X011324Y017024D03*
X012774Y018924D03*
X013924Y018924D03*
X015674Y017824D03*
X015624Y017324D03*
X016574Y017674D03*
X016724Y019924D03*
X016824Y020424D03*
X021147Y017581D03*
D50*
X024474Y013824D02*
X024474Y013390D01*
X024459Y013374D01*
X024674Y012774D02*
X025124Y012324D01*
X025124Y012309D01*
X026074Y013309D02*
X026074Y013724D01*
X026874Y013724D02*
X026874Y013309D01*
X037184Y021204D02*
X038174Y020224D01*
X038918Y019481D01*
X039224Y019481D01*
X037184Y021204D02*
X035404Y021204D01*
X035039Y020840D01*
X034774Y020840D01*
D51*
X021424Y008574D03*
X020424Y008574D03*
X020424Y007574D03*
X021424Y007574D03*
X021424Y006574D03*
X022424Y006574D03*
X022424Y005574D03*
X021424Y005574D03*
X020424Y005574D03*
X020424Y006574D03*
X018424Y006574D03*
X017424Y006574D03*
X016424Y006574D03*
X015424Y006574D03*
X014424Y006574D03*
X013424Y006574D03*
X012424Y006574D03*
X012424Y005574D03*
X013424Y005574D03*
X014424Y005574D03*
X015424Y005574D03*
X016424Y005574D03*
X017424Y005574D03*
X018424Y005574D03*
X018424Y004574D03*
X018424Y003574D03*
X018424Y002574D03*
X016424Y003574D03*
X014424Y003574D03*
X014424Y004574D03*
X012424Y003574D03*
X014424Y002574D03*
X010424Y002574D03*
X010424Y003574D03*
X010424Y004574D03*
X010424Y005574D03*
X010424Y006574D03*
X010424Y007574D03*
X010424Y008574D03*
X011424Y008574D03*
X012424Y008574D03*
X013424Y008574D03*
X014424Y008574D03*
X015424Y008574D03*
X015424Y007574D03*
X014424Y007574D03*
X013424Y007574D03*
X012424Y007574D03*
X016424Y007574D03*
X017424Y007574D03*
X018424Y007574D03*
X018424Y008574D03*
X019424Y008574D03*
X022424Y004574D03*
X022424Y003574D03*
X022424Y002574D03*
X020424Y003574D03*
D52*
X021424Y003574D03*
X021424Y004574D03*
X020424Y004574D03*
X019424Y004574D03*
X019424Y003574D03*
X019424Y002574D03*
X020424Y002574D03*
X021424Y002574D03*
X017424Y002574D03*
X016424Y002574D03*
X015424Y002574D03*
X015424Y003574D03*
X015424Y004574D03*
X016424Y004574D03*
X017424Y004574D03*
X017424Y003574D03*
X019424Y005574D03*
X019424Y006574D03*
X019424Y007574D03*
X013424Y004574D03*
X012424Y004574D03*
X011424Y004574D03*
X011424Y003574D03*
X011424Y002574D03*
X012424Y002574D03*
X013424Y002574D03*
X013424Y003574D03*
X011424Y005574D03*
X011424Y006574D03*
X011424Y007574D03*
D53*
X032924Y018749D03*
X032924Y019174D03*
X033424Y014224D03*
X033824Y014224D03*
D54*
X022424Y008574D03*
X022424Y007574D03*
D55*
X033424Y014224D02*
X033824Y014224D01*
X034574Y014974D01*
X033323Y015224D02*
X032724Y015224D01*
X032674Y015224D02*
X032674Y015624D01*
D56*
X012924Y020424D03*
D57*
X025834Y008294D02*
X025834Y007986D01*
X025809Y007911D02*
X025762Y007846D01*
X025809Y007911D02*
X025819Y007928D01*
X025827Y007947D01*
X025831Y007966D01*
X025833Y007986D01*
X025762Y007846D02*
X025749Y007826D01*
X025738Y007803D01*
X025730Y007779D01*
X025726Y007755D01*
X025724Y007730D01*
X025674Y007609D02*
X025424Y007359D01*
X025674Y007609D02*
X025689Y007626D01*
X025701Y007645D01*
X025711Y007665D01*
X025718Y007686D01*
X025723Y007708D01*
X025724Y007730D01*
M02*
